<?xml version="1.0" encoding="UTF-8"?>
<svg id="Capa_1" xmlns="http://www.w3.org/2000/svg" version="1.1" viewBox="0 0 554.16 84.95">
  <!-- Generator: Adobe Illustrator 30.5.1, SVG Export Plug-In . SVG Version: 2.1.4 Build 3)  -->
  <defs>
    <style>
      .st0 {
        fill: #fff;
      }

      .st1 {
        isolation: isolate;
      }
    </style>
  </defs>
  <g class="st1">
    <g class="st1">
      <path class="st0" d="M76.44.64h8.7v37.61h-8.7V.64Z"/>
      <path class="st0" d="M128.55.64v37.61h-7.15l-18.75-22.83v22.83h-8.6V.64h7.2l18.7,22.83V.64h8.6Z"/>
      <path class="st0" d="M171.7,38.25l-.05-22.57-11.07,18.59h-3.92l-11.01-18.11v22.08h-8.17V.64h7.2l14.08,23.37L172.61.64h7.15l.11,37.61h-8.17Z"/>
      <path class="st0" d="M186.42,19.45c0-11.18,8.7-19.45,20.58-19.45s20.58,8.22,20.58,19.45-8.76,19.45-20.58,19.45-20.58-8.27-20.58-19.45ZM218.77,19.45c0-7.15-5.05-12.04-11.77-12.04s-11.77,4.89-11.77,12.04,5.05,12.03,11.77,12.03,11.77-4.89,11.77-12.03Z"/>
      <path class="st0" d="M268.63,27.99c0,6.5-5.16,10.26-15.04,10.26h-19.45V.64h18.37c9.4,0,14.24,3.92,14.24,9.78,0,3.76-1.93,6.66-5,8.27,4.19,1.34,6.88,4.57,6.88,9.29ZM242.79,7.2v8.87h8.65c4.24,0,6.55-1.5,6.55-4.46s-2.31-4.41-6.55-4.41h-8.65ZM259.87,27.08c0-3.17-2.42-4.67-6.93-4.67h-10.15v9.29h10.15c4.51,0,6.93-1.4,6.93-4.62Z"/>
      <path class="st0" d="M275.24.64h8.7v37.61h-8.7V.64Z"/>
      <path class="st0" d="M292.86.64h8.7v30.52h18.86v7.09h-27.56V.64Z"/>
      <path class="st0" d="M325.31.64h8.7v37.61h-8.7V.64Z"/>
      <path class="st0" d="M367.7,30.19h-17.46l-3.33,8.06h-8.92L354.76.64h8.6l16.82,37.61h-9.13l-3.33-8.06ZM364.96,23.59l-5.96-14.4-5.96,14.4h11.93Z"/>
      <path class="st0" d="M408.05,38.25l-7.25-10.48h-8v10.48h-8.7V.64h16.28c10.05,0,16.33,5.21,16.33,13.65,0,5.64-2.85,9.78-7.74,11.87l8.43,12.09h-9.35ZM399.89,7.74h-7.09v13.11h7.09c5.32,0,8-2.47,8-6.55s-2.69-6.55-8-6.55Z"/>
      <path class="st0" d="M423.58.64h8.7v37.61h-8.7V.64Z"/>
      <path class="st0" d="M465.97,30.19h-17.46l-3.33,8.06h-8.92L453.03.64h8.6l16.82,37.61h-9.13l-3.33-8.06ZM463.23,23.59l-5.96-14.4-5.96,14.4h11.93Z"/>
    </g>
  </g>
  <g class="st1">
    <g class="st1">
      <path class="st0" d="M34.22,84.3l-.05-22.57-11.07,18.59h-3.92l-11.01-18.11v22.08H0v-37.61h7.2l14.08,23.37,13.86-23.37h7.15l.11,37.61h-8.17Z"/>
      <path class="st0" d="M48.95,65.5c0-11.18,8.7-19.45,20.58-19.45s20.58,8.22,20.58,19.45-8.76,19.45-20.58,19.45-20.58-8.27-20.58-19.45ZM81.29,65.5c0-7.15-5.05-12.04-11.77-12.04s-11.77,4.89-11.77,12.04,5.05,12.03,11.77,12.03,11.77-4.89,11.77-12.03Z"/>
      <path class="st0" d="M120.62,84.3l-7.25-10.48h-8v10.48h-8.7v-37.61h16.28c10.05,0,16.33,5.21,16.33,13.65,0,5.64-2.85,9.78-7.74,11.87l8.44,12.09h-9.35ZM112.45,53.79h-7.09v13.11h7.09c5.32,0,8-2.47,8-6.55s-2.69-6.55-8-6.55Z"/>
      <path class="st0" d="M165.27,77.32v6.98h-29.12v-37.61h28.42v6.98h-19.77v8.17h17.46v6.77h-17.46v8.7h20.47Z"/>
      <path class="st0" d="M206.69,46.69v37.61h-7.15l-18.75-22.83v22.83h-8.6v-37.61h7.2l18.7,22.83v-22.83h8.6Z"/>
      <path class="st0" d="M213.25,65.5c0-11.18,8.7-19.45,20.58-19.45s20.58,8.22,20.58,19.45-8.76,19.45-20.58,19.45-20.58-8.27-20.58-19.45ZM245.6,65.5c0-7.15-5.05-12.04-11.77-12.04s-11.77,4.89-11.77,12.04,5.05,12.03,11.77,12.03,11.77-4.89,11.77-12.03Z"/>
      <path class="st0" d="M301.58,64.91h7.95v15.26c-4.14,3.12-9.83,4.78-15.2,4.78-11.82,0-20.52-8.11-20.52-19.45s8.7-19.45,20.68-19.45c6.61,0,12.09,2.26,15.74,6.5l-5.59,5.16c-2.74-2.9-5.91-4.24-9.72-4.24-7.31,0-12.3,4.89-12.3,12.04s5,12.03,12.2,12.03c2.36,0,4.57-.43,6.77-1.61v-11.01Z"/>
      <path class="st0" d="M315.23,65.5c0-11.18,8.7-19.45,20.58-19.45s20.58,8.22,20.58,19.45-8.76,19.45-20.58,19.45-20.58-8.27-20.58-19.45ZM347.57,65.5c0-7.15-5.05-12.04-11.77-12.04s-11.77,4.89-11.77,12.04,5.05,12.03,11.77,12.03,11.77-4.89,11.77-12.03Z"/>
      <path class="st0" d="M397.43,46.69v37.61h-7.15l-18.75-22.83v22.83h-8.6v-37.61h7.2l18.7,22.83v-22.83h8.6Z"/>
      <path class="st0" d="M436.82,77.21v7.09h-32.88v-5.64l20.63-24.88h-20.2v-7.09h31.64v5.64l-20.58,24.88h21.38Z"/>
      <path class="st0" d="M467.18,76.24h-17.46l-3.33,8.06h-8.92l16.76-37.61h8.6l16.82,37.61h-9.13l-3.33-8.06ZM464.44,69.64l-5.96-14.4-5.96,14.4h11.93Z"/>
      <path class="st0" d="M483.56,46.69h8.7v30.52h18.86v7.09h-27.56v-37.61Z"/>
      <path class="st0" d="M513.01,65.5c0-11.18,8.7-19.45,20.58-19.45s20.58,8.22,20.58,19.45-8.76,19.45-20.58,19.45-20.58-8.27-20.58-19.45ZM545.35,65.5c0-7.15-5.05-12.04-11.77-12.04s-11.77,4.89-11.77,12.04,5.05,12.03,11.77,12.03,11.77-4.89,11.77-12.03Z"/>
    </g>
  </g>
</svg>