<?xml version="1.0" encoding="UTF-8"?>
<svg id="Capa_1" xmlns="http://www.w3.org/2000/svg" version="1.1" viewBox="0 0 196.53 34.9">
  <!-- Generator: Adobe Illustrator 30.5.1, SVG Export Plug-In . SVG Version: 2.1.4 Build 3)  -->
  <defs>
    <style>
      .st0 {
        fill: #fff;
      }

      .st1 {
        fill: #f8ae15;
      }
    </style>
  </defs>
  <g>
    <path class="st1" d="M27.9,24.99v-1.28c-.13-.01-.25-.04-.39-.04-.08,0-.17.01-.25.01v-.02l-.77-.07-2.29-.2v6.09h35.78v-6.09l-1.9.16-1.17.1v.02c-.08,0-.16-.01-.23-.01v1.45s0,.04.01.06l-6.08-.02s.02-.05.02-.08l.32-7.21.82-2.3h.42c.21,0,.41-.09.54-.26.14-.16.19-.38.15-.58l-.47-2.37c-.07-.33-.35-.56-.69-.56h-19.29c-.33,0-.61.23-.69.55l-.53,2.37c-.05.21,0,.42.13.59.14.17.33.26.55.26h.48l.82,2.3.32,7.26-5.66-.02s.03-.08.03-.13M59.77,28.09H24.37l.56-.78h34.28l.56.78ZM50.29,15.58l-.54,1.52c-.08-.04-.18-.06-.28-.06h-14.78c-.1,0-.2.02-.28.06l-.54-1.52h16.41ZM48.81,25.17l-13.41-.04h0v-6.69h13.38v6.57c0,.05.02.1.03.16M58.18,25.89l.51.72H25.43l.53-.74s.01-.04.03-.05l32.2.08Z"/>
    <path class="st1" d="M81.83,12.69l.49.66c.13.17.33.28.55.28h0c.21,0,.41-.1.55-.26l1.34-1.68c.18-.23.2-.55.05-.8l-5.13-8.44c-.12-.2-.33-.32-.56-.34L42.5,0h-.08L5.79,2.11c-.23.02-.44.14-.56.34L.1,10.89c-.15.25-.13.57.05.8l1.34,1.68c.14.17.38.27.56.26.22,0,.42-.11.55-.28l.49-.66c.1-.14.15-.31.13-.49l-.07-.67,3.9-4.71h26.94v3.69h16.34v-3.69h27.52l3.9,4.71-.07.67c-.02.17.03.35.13.49"/>
    <path class="st1" d="M20.09,29.1v.19c.13.13.3.2.5.2h2.57v-6.12l-3.06-.02v5.75Z"/>
    <path class="st1" d="M77.94,9.18h0l-20.55.04c-.38,0-.7.31-.7.7v12.77l1.4-.12,2.39-.21s.02,0,.03,0c0,0,.01,0,.02,0h4.06c.27,0,.5.22.5.49v4.06h8.47c.26,0,.5-.14.62-.37l4.45-8.25c.06-.1.09-.22.09-.34l-.08-8.09c0-.38-.31-.69-.7-.69"/>
    <path class="st1" d="M61.04,29.49h2.53c.21,0,.4-.1.53-.26v-.14s0-4.71,0-4.71v-1.04h-3.07v6.14Z"/>
    <path class="st1" d="M27.2,9.23l-20.3-.06h0c-.39,0-.7.31-.7.69l-.08,7.42c0,.13.03.25.09.36l4.73,8.25c.12.22.36.35.61.35h7.54v-3.38c0-.27.22-.5.49-.5h4.07s.01,0,.02,0c0,0,.02,0,.02,0l2.79.24,1.31.11s.06.02.09.03v-12.82c0-.38-.31-.7-.7-.7"/>
  </g>
  <g>
    <path class="st0" d="M95.42,4.88h-1.23c-.13,0-.24.04-.33.13-.09.09-.13.19-.13.32s.04.24.13.32c.09.09.2.13.33.13h.71v.97c-.1.04-.23.07-.38.1-.18.03-.35.04-.5.04-.33,0-.62-.08-.89-.24-.27-.16-.48-.38-.64-.66-.16-.27-.24-.58-.24-.9s.08-.63.24-.91c.16-.27.37-.49.64-.65.27-.16.56-.24.89-.24.16,0,.3.01.44.05.14.03.27.07.4.13.04.02.08.03.12.05.04,0,.08.01.12.01.13,0,.23-.05.31-.14.08-.1.12-.2.12-.32,0-.07-.02-.14-.06-.21-.04-.07-.09-.12-.17-.16-.19-.1-.39-.18-.61-.23-.22-.05-.45-.08-.68-.08-.38,0-.74.07-1.07.21-.33.14-.62.33-.87.58-.25.25-.45.54-.59.86-.14.33-.21.68-.21,1.05s.07.73.21,1.05c.14.33.34.61.59.86.25.25.54.44.87.58.33.14.69.21,1.07.21.3,0,.59-.04.86-.12.27-.08.53-.19.76-.33.06-.04.11-.09.16-.16.05-.06.07-.15.07-.25v-1.59c0-.13-.04-.24-.13-.33-.09-.09-.19-.13-.32-.13"/>
    <path class="st0" d="M99.55,3.89c-.31-.18-.65-.27-1.03-.27s-.73.09-1.03.27c-.31.18-.55.42-.74.74-.18.31-.27.68-.27,1.09s.09.77.27,1.09c.18.31.43.56.74.73.31.18.65.26,1.03.26s.73-.09,1.03-.26c.31-.18.55-.42.74-.73.18-.31.27-.68.27-1.09s-.09-.77-.27-1.09c-.18-.31-.43-.56-.74-.74M99.5,6.37c-.1.19-.24.33-.41.44-.17.11-.36.16-.57.16s-.4-.05-.58-.16c-.17-.11-.31-.25-.41-.44-.1-.19-.15-.41-.15-.66s.05-.48.15-.67c.1-.19.24-.33.41-.44.17-.1.37-.16.58-.16s.4.05.57.16c.17.11.31.25.41.44.1.19.15.41.15.67s-.05.47-.15.66"/>
    <path class="st0" d="M104.34,3.89c-.28-.18-.59-.27-.94-.27-.18,0-.34.03-.5.09-.16.06-.3.14-.42.23-.11.08-.19.17-.26.25v-1.58c0-.13-.04-.24-.13-.33-.09-.09-.19-.13-.32-.13s-.24.04-.32.13c-.09.09-.13.2-.13.33v4.72c0,.14.04.25.13.33.09.09.19.13.32.13s.24-.04.32-.13c.09-.09.13-.2.13-.33v-.05c.05.05.11.11.18.16.13.1.29.18.46.25.18.07.36.1.56.1.34,0,.65-.09.92-.27.27-.18.49-.42.65-.74.16-.31.24-.68.24-1.09s-.08-.77-.24-1.08c-.16-.31-.38-.55-.66-.73M104.24,6.35c-.09.19-.22.35-.38.46-.16.11-.35.17-.58.17s-.41-.06-.58-.17c-.17-.11-.29-.26-.39-.46-.09-.19-.14-.41-.14-.64s.05-.45.14-.64c.09-.19.22-.34.39-.45.17-.11.36-.17.58-.17s.41.05.58.17c.16.11.29.26.38.45.09.19.14.4.14.64s-.05.45-.14.64"/>
    <path class="st0" d="M106.39,3.21c.17,0,.29-.03.37-.08.08-.05.11-.15.11-.3v-.14c0-.14-.04-.24-.11-.29-.07-.06-.19-.08-.37-.08-.16,0-.28.03-.36.08-.08.05-.12.15-.12.3v.14c0,.14.04.24.1.29.07.06.19.08.36.08"/>
    <path class="st0" d="M106.4,3.7c-.13,0-.24.04-.32.13-.09.09-.13.2-.13.33v3.11c0,.13.04.24.13.33.09.09.19.13.32.13s.24-.04.32-.13c.09-.09.13-.2.13-.33v-3.11c0-.13-.04-.24-.13-.33-.09-.09-.19-.13-.32-.13"/>
    <path class="st0" d="M110.91,7.38c.14-.11.21-.23.21-.37,0-.1-.04-.19-.11-.26-.07-.07-.16-.11-.27-.11-.08,0-.17.02-.26.07-.06.03-.12.07-.18.11-.07.04-.16.08-.27.11-.11.03-.26.05-.44.05-.2,0-.39-.05-.57-.15-.18-.1-.32-.24-.44-.43-.07-.11-.11-.23-.14-.37h2.48c.12,0,.23-.04.32-.11.09-.08.14-.17.14-.29,0-.27-.05-.53-.15-.77-.1-.24-.24-.45-.42-.64-.18-.18-.38-.33-.61-.43-.23-.11-.47-.16-.73-.16-.33,0-.64.09-.94.26-.3.17-.53.42-.72.73-.18.32-.27.7-.27,1.15,0,.39.08.73.25,1.04.17.31.41.55.72.73.31.18.68.27,1.11.27.25,0,.49-.04.73-.12.24-.08.42-.18.55-.29M108.49,5.1c.06-.16.13-.29.23-.38.1-.09.21-.16.34-.2.13-.04.27-.06.42-.06s.3.03.44.1c.14.07.25.16.35.27.09.12.14.25.15.39v.05h-1.97c.01-.06.03-.12.04-.17"/>
    <path class="st0" d="M114.35,4.52c.1,0,.19-.04.28-.11.09-.07.13-.19.13-.36,0-.11-.05-.22-.15-.3s-.23-.13-.38-.13c-.13,0-.25.01-.38.04-.13.03-.24.08-.35.14-.11.06-.21.14-.3.23-.06.07-.12.14-.16.22v-.11c0-.13-.04-.24-.13-.33-.09-.09-.19-.13-.32-.13s-.24.04-.32.13c-.09.09-.13.2-.13.33v3.11c0,.13.04.24.13.33.09.09.19.13.32.13s.24-.04.32-.13c.09-.09.13-.2.13-.33v-1.78c0-.18.02-.34.07-.47.05-.13.11-.24.19-.33.08-.09.16-.16.26-.2.09-.04.18-.06.27-.06.1,0,.19.02.27.05.08.04.16.05.26.05"/>
    <path class="st0" d="M118.4,3.86c-.19-.16-.48-.23-.85-.23-.17,0-.33.03-.47.08-.15.05-.28.12-.39.21-.12.09-.22.18-.3.27-.03.04-.06.07-.08.1v-.13c0-.13-.04-.24-.13-.33-.09-.09-.19-.13-.32-.13s-.24.04-.32.13c-.09.09-.13.2-.13.33v3.11c0,.13.04.24.13.33.09.09.19.13.32.13s.24-.04.32-.13c.09-.09.13-.2.13-.33v-1.93c0-.17.04-.31.11-.45.07-.13.18-.24.32-.32.14-.08.31-.12.51-.12s.36.04.47.12c.11.08.19.19.23.32.04.13.06.28.06.45v1.93c0,.13.04.24.13.33.09.09.19.13.32.13s.24-.04.32-.13c.09-.09.13-.2.13-.33v-1.93c0-.32-.04-.6-.11-.86-.07-.26-.21-.46-.4-.62"/>
    <path class="st0" d="M122.73,3.89c-.31-.18-.65-.27-1.03-.27s-.73.09-1.03.27c-.31.18-.55.42-.74.74-.18.31-.27.68-.27,1.09s.09.77.27,1.09c.18.31.43.56.74.73.31.18.65.26,1.03.26s.73-.09,1.03-.26c.31-.18.55-.42.74-.73.18-.31.27-.68.27-1.09s-.09-.77-.27-1.09c-.18-.31-.43-.56-.74-.74M122.69,6.37c-.1.19-.24.33-.41.44-.17.11-.36.16-.58.16s-.4-.05-.58-.16c-.17-.11-.31-.25-.41-.44-.1-.19-.15-.41-.15-.66s.05-.48.15-.67c.1-.19.24-.33.41-.44.17-.1.37-.16.58-.16s.4.05.58.16c.17.11.31.25.41.44.1.19.15.41.15.67s-.05.47-.15.66"/>
    <path class="st0" d="M129.36,6.27c.07-.04.12-.09.17-.14l1.24-1.89v3.03c0,.13.04.24.13.33.09.09.2.13.34.13s.25-.04.34-.13.13-.2.13-.33V2.91c0-.13-.05-.25-.14-.33-.09-.09-.2-.13-.32-.13-.15,0-.27.07-.37.2l-1.69,2.52-1.64-2.52c-.04-.06-.1-.11-.18-.15-.08-.04-.15-.06-.22-.06-.13,0-.24.04-.33.13-.09.09-.14.2-.14.32v4.36c0,.13.04.24.12.33s.18.13.31.13.24-.04.32-.13.12-.2.12-.33v-3.1l1.24,1.96c.05.05.1.1.17.14.07.04.13.06.2.05.07,0,.14-.01.21-.05"/>
    <path class="st0" d="M135.75,3.7c-.13,0-.24.04-.32.13-.09.09-.13.2-.13.33v1.91c0,.31-.07.53-.2.68-.14.15-.34.22-.62.22s-.47-.07-.61-.22c-.14-.15-.2-.37-.2-.68v-1.91c0-.13-.04-.24-.13-.33-.09-.09-.19-.13-.32-.13s-.24.04-.32.13c-.09.09-.13.2-.13.33v1.91c0,.53.15.95.44,1.26.29.31.72.47,1.28.47s.98-.16,1.28-.47c.29-.31.44-.73.44-1.26v-1.91c0-.13-.04-.24-.13-.33-.09-.09-.19-.13-.32-.13"/>
    <path class="st0" d="M139.72,4.89c.04.13.06.28.06.45v1.92c0,.13.04.24.13.33.09.09.19.13.32.13s.24-.04.32-.13c.09-.09.13-.2.13-.33v-1.92c0-.32-.04-.6-.11-.86-.07-.26-.21-.46-.4-.62-.19-.16-.47-.23-.85-.23-.17,0-.33.03-.47.08-.15.05-.28.12-.39.21-.11.09-.21.18-.3.27-.03.04-.06.07-.08.1v-.13c0-.13-.04-.24-.13-.33-.09-.09-.19-.13-.32-.13s-.24.04-.32.13c-.09.09-.13.2-.13.33v3.11c0,.13.04.24.13.33.08.09.19.13.32.13s.24-.04.32-.13c.09-.09.13-.2.13-.33v-1.92c0-.17.04-.31.11-.45.07-.13.18-.24.32-.32.14-.08.31-.12.51-.12s.36.04.47.12c.11.08.19.19.23.32"/>
    <path class="st0" d="M142.53,2.69c0-.14-.03-.24-.11-.29-.07-.06-.19-.08-.37-.08-.16,0-.28.03-.36.08-.08.05-.12.15-.12.3v.14c0,.14.03.24.11.29.07.06.19.08.36.08s.29-.03.37-.08c.08-.05.11-.15.11-.3v-.14Z"/>
    <path class="st0" d="M142.06,3.7c-.13,0-.24.04-.32.13-.09.09-.13.2-.13.33v3.11c0,.13.04.24.13.33.09.09.19.13.32.13s.24-.04.32-.13c.09-.09.13-.2.13-.33v-3.11c0-.13-.04-.24-.13-.33-.09-.09-.19-.13-.32-.13"/>
    <path class="st0" d="M146.25,6.68c-.11,0-.19.02-.25.07-.06.04-.12.09-.19.13-.06.03-.14.05-.23.07-.09.01-.2.02-.32.02-.23,0-.43-.06-.6-.17-.17-.11-.31-.26-.41-.45-.1-.19-.15-.4-.15-.64s.05-.46.14-.65c.1-.19.23-.34.41-.45.18-.11.39-.17.65-.17.05,0,.13,0,.23.03.1.02.18.04.23.07.06.03.1.06.14.1.04.03.09.06.14.09.05.02.12.03.2.03.12,0,.2-.04.26-.13.06-.09.09-.18.09-.28,0-.15-.06-.28-.18-.39-.12-.11-.28-.19-.5-.25-.21-.06-.46-.09-.75-.09-.39,0-.73.09-1.03.27-.3.18-.53.42-.7.74-.17.31-.25.68-.25,1.09s.08.74.24,1.06c.16.32.38.56.67.75.29.18.63.27,1.03.27.27,0,.51-.03.74-.09.23-.06.41-.15.55-.25.14-.1.21-.22.21-.34s-.03-.22-.1-.3c-.07-.08-.17-.12-.3-.12"/>
    <path class="st0" d="M147.7,3.21c.17,0,.29-.03.37-.08.08-.05.11-.15.11-.3v-.14c0-.14-.04-.24-.11-.29-.07-.06-.19-.08-.37-.08-.16,0-.28.03-.36.08-.08.05-.12.15-.12.3v.14c0,.14.03.24.1.29.07.06.19.08.36.08"/>
    <path class="st0" d="M147.71,3.7c-.13,0-.24.04-.32.13-.09.09-.13.2-.13.33v3.11c0,.13.04.24.13.33.09.09.19.13.32.13s.24-.04.32-.13c.09-.09.13-.2.13-.33v-3.11c0-.13-.04-.24-.13-.33-.08-.09-.19-.13-.32-.13"/>
    <path class="st0" d="M152.12,7.53c.27-.18.49-.42.65-.74.16-.31.24-.68.24-1.09s-.08-.77-.24-1.08c-.16-.31-.38-.56-.66-.73-.28-.18-.59-.27-.94-.27-.18,0-.34.03-.5.09-.16.06-.3.14-.42.23-.11.08-.2.17-.26.25v-.04c0-.13-.04-.24-.13-.33-.09-.09-.19-.13-.32-.13s-.24.04-.32.13c-.09.09-.13.2-.13.33v4.61c0,.14.04.25.13.33.09.09.19.13.32.13s.24-.04.32-.13c.09-.09.13-.2.13-.33v-1.48c.05.05.11.11.18.16.13.1.29.18.46.25.18.07.36.1.56.1.34,0,.65-.09.92-.27M150.47,6.8c-.17-.11-.29-.26-.39-.46-.09-.19-.14-.41-.14-.64s.05-.46.14-.64c.09-.19.22-.34.39-.45.17-.11.36-.17.58-.17s.41.06.57.17c.16.11.29.26.38.45.09.19.14.4.14.64s-.05.45-.14.64c-.09.19-.22.35-.38.46-.16.11-.35.17-.57.17s-.41-.05-.58-.17"/>
    <path class="st0" d="M157.03,3.62c-.13,0-.24.04-.32.13-.09.09-.13.2-.13.33h0s-.09-.07-.15-.11c-.13-.1-.29-.18-.47-.25-.18-.07-.38-.1-.59-.1-.34,0-.64.09-.92.27-.28.18-.49.42-.66.74-.16.31-.25.68-.25,1.09s.08.77.25,1.08c.16.31.38.56.66.74.28.18.59.27.94.27.19,0,.37-.03.53-.09.16-.06.3-.14.42-.23.09-.07.16-.14.23-.21,0,.13.04.24.13.32.09.09.19.13.32.13s.24-.04.32-.13c.09-.09.13-.2.13-.33v-3.18c0-.14-.04-.25-.13-.33-.09-.09-.19-.13-.32-.13M156.47,6.35c-.09.19-.22.34-.39.45-.17.11-.36.17-.58.17s-.41-.06-.57-.17c-.17-.11-.29-.26-.39-.45-.09-.19-.14-.4-.14-.64s.05-.46.14-.65c.09-.19.22-.34.39-.45.17-.11.36-.17.57-.17s.41.06.58.17c.17.11.29.26.39.45.09.19.14.41.14.65s-.05.45-.14.64"/>
    <path class="st0" d="M158.99,2.16c-.13,0-.24.04-.33.13-.09.09-.13.2-.13.33v4.65c0,.13.04.24.13.33.09.09.19.13.32.13s.24-.04.33-.13c.09-.09.13-.2.13-.33V2.61c0-.13-.04-.24-.12-.33-.08-.09-.19-.13-.32-.13"/>
  </g>
  <g>
    <path class="st1" d="M164.93,8.65c-.61,0-1.06.1-1.35.3-.3.2-.44.58-.44,1.13v.54c0,.53.13.91.4,1.11.27.21.72.31,1.37.31s1.11-.1,1.4-.3c.29-.2.43-.58.43-1.13v-.54c0-.53-.13-.9-.4-1.11-.27-.21-.73-.31-1.4-.31"/>
    <g>
      <path class="st1" d="M95,10.22c-.14-.36-.35-.64-.65-.84-.3-.2-.61-.3-.96-.3-.36-.04-.7.05-1.01.26-.31.21-.55.5-.7.88l-7.11,17.08c-.06.19-.09.37-.09.54,0,.42.12.77.37,1.06.25.29.63.43,1.14.43.32,0,.62-.1.9-.3.28-.2.48-.48.61-.84l1.48-3.49h8.52l1.49,3.46c.15.36.36.65.64.86.28.21.59.31.93.31.4,0,.77-.15,1.1-.46.33-.31.5-.71.5-1.23,0-.21-.05-.44-.15-.69l-7.02-16.74ZM90.4,21.42l2.84-6.69,2.87,6.69h-5.71Z"/>
      <path class="st1" d="M113.7,14.1c-.39-.32-.87-.49-1.44-.49-.48,0-.95.06-1.43.17-.48.11-.92.29-1.34.53-.42.24-.8.53-1.13.89-.24.26-.44.55-.62.85v-.41c0-.5-.16-.91-.48-1.24-.32-.34-.73-.5-1.23-.5s-.9.17-1.23.5c-.32.33-.48.74-.48,1.24v11.8c0,.5.16.91.48,1.24.33.33.74.5,1.23.5s.9-.17,1.23-.5c.32-.33.48-.74.48-1.24v-6.77c0-.68.09-1.28.27-1.78.18-.5.42-.93.72-1.27.3-.34.62-.6.97-.76.35-.16.7-.24,1.04-.24.38,0,.72.07,1.02.2.3.13.62.2.98.2s.73-.14,1.05-.41c.32-.28.49-.73.49-1.36,0-.44-.19-.82-.59-1.14"/>
      <path class="st1" d="M126.1,14.1c-.39-.32-.87-.49-1.44-.49-.48,0-.96.06-1.43.17-.48.11-.92.29-1.34.53-.42.24-.8.53-1.13.89-.24.26-.44.55-.61.85v-.41c0-.5-.16-.91-.48-1.24-.32-.34-.73-.5-1.23-.5s-.91.17-1.23.5c-.32.33-.49.74-.49,1.24v11.8c0,.5.16.91.49,1.24.32.33.73.5,1.23.5s.9-.17,1.23-.5c.32-.33.48-.74.48-1.24v-6.77c0-.68.09-1.28.27-1.78.18-.5.42-.93.71-1.27.3-.34.62-.6.98-.76.35-.16.7-.24,1.04-.24.38,0,.72.07,1.01.2.3.13.63.2.99.2.38,0,.73-.14,1.06-.41.32-.28.49-.73.49-1.36,0-.44-.2-.82-.59-1.14"/>
      <path class="st1" d="M139.95,14.63c-1.17-.67-2.48-1.01-3.93-1.01s-2.75.34-3.93,1.01c-1.17.68-2.1,1.61-2.8,2.8-.69,1.19-1.04,2.57-1.04,4.13s.35,2.94,1.04,4.13c.7,1.19,1.63,2.12,2.8,2.78,1.17.67,2.48,1,3.93,1s2.76-.33,3.93-1c1.17-.67,2.11-1.59,2.8-2.78.7-1.19,1.04-2.57,1.04-4.13s-.35-2.94-1.04-4.13c-.69-1.19-1.63-2.12-2.8-2.8M139.78,24.06c-.39.71-.91,1.27-1.57,1.67-.66.4-1.39.6-2.18.6s-1.53-.2-2.18-.6c-.66-.4-1.18-.96-1.57-1.67-.39-.72-.59-1.55-.59-2.5s.19-1.81.59-2.53c.39-.71.92-1.27,1.57-1.67.66-.4,1.39-.6,2.18-.6s1.53.2,2.18.6c.66.4,1.18.96,1.57,1.67.39.71.59,1.56.59,2.53s-.19,1.78-.59,2.5"/>
      <path class="st1" d="M157.99,13.9c-.5,0-.9.17-1.23.5-.32.33-.48.75-.48,1.24v7.31c0,.72-.13,1.34-.37,1.84-.25.51-.6.89-1.06,1.14-.46.26-1.02.39-1.68.39-.97,0-1.73-.25-2.27-.76-.54-.51-.81-1.38-.81-2.62v-7.31c0-.5-.16-.91-.48-1.24-.33-.33-.74-.5-1.23-.5s-.91.17-1.23.5c-.32.33-.48.75-.48,1.24v8.34c0,1.07.21,2.01.63,2.84.42.83,1,1.47,1.76,1.94.75.47,1.63.7,2.64.7.85,0,1.62-.1,2.29-.31.67-.21,1.24-.52,1.73-.93.22-.19.42-.41.61-.64v.31c0,.97-.15,1.74-.44,2.3-.3.56-.74.96-1.31,1.2-.58.24-1.31.36-2.19.36-.65,0-1.22-.1-1.71-.3-.5-.2-.89-.35-1.2-.44-.42-.15-.82-.13-1.2.07-.38.2-.66.58-.83,1.13-.13.42-.09.81.13,1.19.22.37.61.68,1.18.93.44.19,1,.33,1.68.43.69.09,1.33.14,1.94.14,1.37,0,2.61-.23,3.71-.68,1.11-.46,1.98-1.21,2.64-2.24.66-1.04.99-2.43.99-4.19v-12.14c0-.5-.16-.91-.48-1.24-.33-.33-.74-.5-1.23-.5"/>
      <path class="st1" d="M164.93,13.9c-.5,0-.9.17-1.23.5-.32.33-.48.75-.48,1.24v11.8c0,.5.16.91.48,1.24.33.33.73.5,1.23.5s.9-.17,1.23-.5c.32-.33.49-.75.49-1.24v-11.8c0-.5-.16-.91-.49-1.24-.33-.33-.73-.5-1.23-.5"/>
      <path class="st1" d="M177.1,17.33c.46,0,.84-.15,1.14-.44.3-.3.46-.66.46-1.1s-.15-.84-.46-1.14c-.31-.3-.69-.46-1.14-.46h-2.03v-1.83c0-.5-.16-.91-.47-1.24-.31-.33-.72-.5-1.21-.5s-.91.17-1.24.5c-.33.33-.5.75-.5,1.24v1.83h-1.31c-.46,0-.84.15-1.14.44-.3.3-.46.67-.46,1.1s.16.84.46,1.14c.3.31.68.46,1.14.46h1.31v7.89c0,.93.14,1.66.43,2.2.28.53.64.92,1.07,1.18.43.26.89.42,1.37.49.49.07.93.1,1.33.1.66,0,1.29-.17,1.87-.52.58-.34.87-.78.87-1.31,0-.44-.11-.78-.33-1.03-.22-.25-.46-.37-.73-.37-.25,0-.47.04-.66.13-.19.09-.4.13-.63.13-.21,0-.4-.04-.58-.12-.18-.07-.33-.2-.43-.37-.1-.17-.16-.39-.16-.65v-7.74h2.03Z"/>
      <path class="st1" d="M192.69,14.63c-1.17-.67-2.48-1.01-3.93-1.01s-2.76.34-3.93,1.01c-1.17.68-2.1,1.61-2.8,2.8-.7,1.19-1.04,2.57-1.04,4.13s.35,2.94,1.04,4.13c.7,1.19,1.63,2.12,2.8,2.78,1.17.67,2.48,1,3.93,1s2.76-.33,3.93-1c1.17-.67,2.1-1.59,2.8-2.78.7-1.19,1.04-2.57,1.04-4.13s-.35-2.94-1.04-4.13c-.7-1.19-1.63-2.12-2.8-2.8M192.51,24.06c-.39.71-.91,1.27-1.57,1.67-.66.4-1.39.6-2.18.6s-1.53-.2-2.18-.6c-.66-.4-1.18-.96-1.57-1.67-.39-.72-.58-1.55-.58-2.5s.19-1.81.58-2.53c.39-.71.92-1.27,1.57-1.67.66-.4,1.39-.6,2.18-.6s1.53.2,2.18.6c.66.4,1.18.96,1.57,1.67.39.71.59,1.56.59,2.53s-.2,1.78-.59,2.5"/>
    </g>
  </g>
</svg>