<?xml version="1.0" encoding="UTF-8"?>
<svg id="Capa_1" xmlns="http://www.w3.org/2000/svg" version="1.1" viewBox="0 0 132.63 34.47">
  <!-- Generator: Adobe Illustrator 30.5.1, SVG Export Plug-In . SVG Version: 2.1.4 Build 3)  -->
  <defs>
    <style>
      .st0 {
        fill: #fff;
      }
    </style>
  </defs>
  <g id="Modo_de_aislamiento">
    <g id="Group">
      <path id="Vector" class="st0" d="M9.94,11.85c-.26,0-.52.02-.78.04,5.14.39,9.19,4.6,9.19,9.74,0,5.4-4.47,9.78-9.97,9.78-3.52,0-6.6-1.8-8.38-4.49l.05.2c1.8,3.95,5.19,7.36,9.89,7.36,6.36,0,11.53-5.07,11.53-11.31s-5.16-11.31-11.53-11.31h0Z"/>
      <path id="Vector_2" class="st0" d="M11.53,22.62c.26,0,.52-.02.78-.04-5.14-.39-9.19-4.6-9.19-9.74C3.12,7.44,7.58,3.06,13.09,3.06c3.52,0,6.6,1.8,8.38,4.49l-.05-.2c-1.8-3.95-5.2-7.36-9.89-7.36C5.16,0,0,5.07,0,11.31s5.16,11.31,11.53,11.31h0Z"/>
    </g>
    <g id="Group_2">
      <path id="Vector_3" class="st0" d="M34.15,20.58c-.94-.47-1.62-1.07-2.04-1.82-.42-.74-.63-1.55-.63-2.41h4.04c0,.53.19.92.58,1.21.39.28.94.42,1.66.42.81,0,1.36-.1,1.67-.28.31-.18.48-.49.48-.9,0-.22-.09-.42-.26-.58-.18-.16-.44-.31-.81-.44-.35-.14-.86-.28-1.48-.46-1.06-.28-1.97-.59-2.75-.94-.78-.34-1.43-.82-1.97-1.44-.54-.63-.81-1.41-.81-2.37,0-.89.23-1.66.67-2.3.44-.64,1.09-1.14,1.96-1.49.87-.34,1.91-.52,3.16-.52,1.95,0,3.43.41,4.43,1.23.99.82,1.5,1.97,1.5,3.44h-4.06c0-.34-.14-.64-.42-.89-.28-.25-.78-.37-1.51-.37-.65,0-1.11.09-1.33.25-.24.17-.35.38-.35.65,0,.22.09.42.28.59.19.17.49.32.91.47.42.14.99.28,1.74.44,1.67.34,2.97.9,3.86,1.65.91.75,1.36,1.77,1.36,3.08,0,.96-.26,1.77-.79,2.45-.53.68-1.26,1.18-2.2,1.53-.94.34-2.03.52-3.25.52-1.48,0-2.69-.23-3.64-.7h.03Z"/>
      <path id="Vector_4" class="st0" d="M55.58,20.9l-.77-1.93h-5.53l-.75,1.93h-4.28l5.91-14.29h3.79l5.91,14.29h-4.28ZM50.57,15.7h2.98l-1.36-3.44-.11-.53h-.04l-.11.53-1.36,3.44Z"/>
      <path id="Vector_5" class="st0" d="M63.38,20.24c-1.21-.68-2.16-1.59-2.87-2.73-.7-1.16-1.07-2.41-1.07-3.76s.35-2.62,1.07-3.76c.72-1.14,1.66-2.05,2.87-2.72,1.21-.66,2.53-1.01,3.95-1.01,1.09,0,2.18.22,3.23.68,1.06.44,1.97,1.14,2.74,2.09.77.95,1.25,2.13,1.43,3.53h-4.13c-.21-.95-.62-1.62-1.21-2.05-.59-.42-1.32-.64-2.18-.64-.68,0-1.31.15-1.87.46-.57.31-1.02.75-1.36,1.33-.34.59-.5,1.28-.5,2.09s.16,1.55.5,2.13c.33.58.78,1.02,1.35,1.32.57.3,1.19.44,1.87.44.86,0,1.58-.21,2.18-.64.59-.43.99-1.11,1.19-2.05h4.14c-.18,1.4-.65,2.58-1.41,3.53-.75.95-1.67,1.65-2.73,2.09-1.07.44-2.15.68-3.25.68-1.42,0-2.74-.33-3.95-1.01v.02Z"/>
      <path id="Vector_6" class="st0" d="M85.55,20.9l-.77-1.93h-5.53l-.75,1.93h-4.28l5.91-14.29h3.79l5.91,14.29h-4.28ZM80.53,15.7h2.98l-1.36-3.44-.11-.53h-.04l-.11.53-1.36,3.44Z"/>
      <path id="Vector_7" class="st0" d="M91.13,6.62h3.56l6.09,7.87v-7.87h4.04v14.28h-3.51l-6.13-7.9v7.9h-4.05V6.62Z"/>
      <path id="Vector_8" class="st0" d="M110.3,10.12h-3.86v-3.51h11.72v3.51h-3.85v10.78h-4.03v-10.78h.01Z"/>
      <path id="Vector_9" class="st0" d="M128.35,20.9l-.77-1.93h-5.53l-.76,1.93h-4.28l5.91-14.29h3.79l5.91,14.29h-4.28ZM123.34,15.7h2.98l-1.36-3.44-.11-.53h-.04l-.11.53-1.36,3.44Z"/>
    </g>
    <g id="Group_3">
      <path id="Vector_10" class="st0" d="M41.38,26.12c.36.48.55,1.18.55,2.09v3.09h-1.36v-3.06c0-.54-.11-.95-.33-1.21-.21-.26-.52-.39-.92-.39-.25,0-.48.07-.69.22-.21.15-.39.36-.53.62-.13.26-.2.57-.2.9v2.93h-1.36v-3.06c0-.54-.11-.95-.33-1.21-.21-.26-.52-.39-.91-.39-.25,0-.48.07-.69.22-.21.15-.39.36-.53.62-.13.26-.2.57-.2.9v2.93h-1.36v-5.73h1.28v.9c.18-.31.42-.57.75-.76.34-.2.72-.3,1.13-.3.49,0,.89.11,1.22.33.33.22.58.54.73.96.25-.43.54-.76.89-.97.35-.21.73-.32,1.16-.32.73,0,1.27.25,1.65.73h.03Z"/>
      <path id="Vector_11" class="st0" d="M44.13,31.17c-.42-.2-.74-.5-.97-.92-.23-.42-.35-.96-.35-1.62v-3.06h1.37v3.03c0,.53.11.93.35,1.22.24.28.58.42,1.03.42s.81-.14,1.03-.42c.23-.28.35-.68.35-1.21v-3.03h1.37v3.06c0,.66-.11,1.19-.35,1.62-.24.42-.55.73-.97.92-.42.2-.88.3-1.42.3s-1.02-.1-1.43-.3h-.01Z"/>
      <path id="Vector_12" class="st0" d="M50.54,25.56v.9c.18-.32.44-.58.79-.78.35-.2.75-.3,1.21-.3.78,0,1.37.25,1.76.73.39.48.59,1.18.59,2.09v3.09h-1.38v-3.06c0-.55-.11-.96-.35-1.22-.24-.26-.57-.38-1.01-.38-.28,0-.53.07-.77.21-.24.14-.43.33-.57.59-.14.26-.21.58-.21.93v2.93h-1.38v-5.73h1.32Z"/>
      <path id="Vector_13" class="st0" d="M55.95,24.46c-.15-.15-.23-.33-.23-.55s.08-.41.23-.55c.15-.15.36-.22.63-.22s.48.07.63.22c.15.15.24.33.24.55s-.08.42-.24.55c-.15.15-.36.22-.64.22s-.47-.07-.62-.22ZM55.89,25.56h1.38v5.73h-1.38v-5.73Z"/>
      <path id="Vector_14" class="st0" d="M59.36,31.06c-.47-.27-.82-.64-1.08-1.11-.26-.47-.39-.97-.39-1.53s.13-1.06.39-1.53c.26-.47.63-.84,1.08-1.11.47-.27.98-.41,1.55-.41.49,0,.94.1,1.35.28.4.18.74.44,1.01.77.26.33.47.71.57,1.13h-1.41c-.13-.31-.33-.54-.59-.7-.26-.16-.57-.25-.92-.25-.29,0-.57.07-.82.21-.25.14-.47.36-.62.63-.15.27-.24.59-.24.95s.08.68.24.95c.16.27.36.48.62.63.25.15.53.22.82.22.35,0,.65-.09.92-.26.26-.17.47-.43.58-.76h1.41c-.1.44-.29.84-.55,1.18-.26.34-.6.62-1.01.8-.4.2-.86.28-1.35.28-.57,0-1.08-.14-1.55-.41h0Z"/>
      <path id="Vector_15" class="st0" d="M64.41,24.46c-.15-.15-.23-.33-.23-.55s.08-.41.23-.55c.15-.15.36-.22.63-.22s.48.07.63.22c.15.15.24.33.24.55s-.08.42-.24.55c-.15.15-.36.22-.64.22s-.47-.07-.62-.22ZM64.35,25.56h1.38v5.73h-1.38v-5.73Z"/>
      <path id="Vector_16" class="st0" d="M68.08,25.56v.96c.21-.34.5-.63.86-.82.35-.21.74-.31,1.16-.31.54,0,1.03.14,1.47.41.44.27.78.64,1.02,1.11.24.47.36.97.36,1.53s-.13,1.07-.36,1.53c-.24.46-.59.82-1.02,1.11-.43.27-.92.41-1.45.41-.43,0-.81-.1-1.16-.3-.35-.2-.63-.47-.83-.8l.03.66v2.21h-1.38v-7.69h1.31ZM70.72,30c.26-.15.47-.36.63-.63.16-.27.24-.59.24-.95s-.08-.66-.23-.94c-.15-.27-.36-.48-.63-.63-.26-.15-.55-.22-.87-.22s-.6.07-.87.23c-.26.16-.48.37-.63.65-.15.28-.23.58-.23.9s.08.65.24.92c.15.27.36.49.63.64.26.16.55.23.87.23s.6-.07.86-.22h-.01Z"/>
      <path id="Vector_17" class="st0" d="M73.62,24.46c-.15-.15-.23-.33-.23-.55s.08-.41.23-.55c.15-.15.36-.22.63-.22s.48.07.63.22c.15.15.24.33.24.55s-.08.42-.24.55c-.15.15-.36.22-.64.22s-.47-.07-.62-.22ZM73.57,25.56h1.38v5.73h-1.38v-5.73Z"/>
      <path id="Vector_18" class="st0" d="M77.07,31.06c-.47-.27-.84-.64-1.11-1.11-.26-.47-.4-.97-.4-1.53s.14-1.06.4-1.53c.26-.47.63-.84,1.11-1.11.47-.27.99-.41,1.58-.41s1.12.14,1.6.41c.48.27.84.64,1.11,1.11.26.47.4.97.4,1.53s-.14,1.07-.4,1.54c-.26.47-.64.84-1.11,1.11-.48.27-1.01.41-1.6.41s-1.11-.14-1.57-.41h-.01ZM79.53,29.99c.26-.15.47-.37.62-.64.15-.27.23-.58.23-.92s-.08-.64-.23-.92c-.15-.27-.35-.49-.62-.64-.26-.15-.55-.23-.88-.23s-.62.07-.88.23c-.26.16-.47.37-.62.64-.15.27-.23.58-.23.92s.08.65.23.92c.15.27.35.48.62.64.26.16.55.23.88.23s.62-.07.88-.23Z"/>
    </g>
  </g>
</svg>