<?xml version="1.0" encoding="UTF-8"?>
<svg id="Capa_1" xmlns="http://www.w3.org/2000/svg" version="1.1" viewBox="0 0 173.38 64.68">
  <!-- Generator: Adobe Illustrator 30.5.1, SVG Export Plug-In . SVG Version: 2.1.4 Build 3)  -->
  <defs>
    <style>
      .st0 {
        fill: #fff;
      }
    </style>
  </defs>
  <path class="st0" d="M157.94,58.7v.66h2.99l-3.3,5.17h4.49v-.67h-3.2l3.3-5.17h-4.28ZM64.17,58.89c-.34-.22-.73-.33-1.16-.33s-.82.1-1.19.3c-.36.2-.7.5-1,.89v-1.05h-.75v5.84h.75v-2.14c0-.77.04-1.29.11-1.58.11-.45.35-.82.71-1.12.36-.3.77-.45,1.22-.45.4,0,.72.1.96.29.24.19.41.48.5.87.06.22.08.67.08,1.34v2.78h.75v-3.01c0-.79-.08-1.37-.24-1.75-.16-.37-.41-.67-.75-.89ZM42.94,59.26c.89,0,1.59.34,2.1,1.03l.6-.37c-.18-.29-.39-.54-.64-.72-.25-.19-.56-.34-.92-.46-.36-.12-.73-.18-1.11-.18-.61,0-1.17.14-1.67.4-.49.27-.89.65-1.17,1.14-.28.48-.43,1.01-.43,1.57,0,.84.31,1.55.91,2.14.61.59,1.37.88,2.3.88.6,0,1.13-.12,1.6-.35.47-.23.84-.56,1.12-.98l-.6-.39c-.54.68-1.25,1.02-2.1,1.02-.47,0-.89-.1-1.27-.31-.38-.21-.68-.5-.89-.87-.22-.37-.32-.77-.32-1.2,0-.66.23-1.21.7-1.67.47-.45,1.06-.68,1.77-.68ZM48.44,56.3c-.17,0-.31.06-.43.18-.12.12-.18.27-.18.44s.06.31.18.43c.12.12.26.18.43.18s.32-.06.44-.18c.12-.12.18-.27.18-.43s-.06-.32-.18-.44c-.12-.12-.27-.18-.44-.18ZM56.54,59.77c-.29-.4-.63-.71-1.02-.91-.39-.2-.82-.3-1.3-.3-.83,0-1.54.3-2.13.89-.59.6-.88,1.31-.88,2.15s.29,1.59.88,2.18c.59.6,1.29.9,2.11.9.46,0,.89-.1,1.28-.29.39-.19.74-.48,1.06-.86v1.01h.75v-5.84h-.75v1.07ZM56.3,62.84c-.2.35-.48.63-.85.84-.37.21-.76.31-1.16.31s-.79-.1-1.14-.31c-.35-.21-.64-.5-.85-.87-.22-.37-.32-.77-.32-1.18s.1-.81.31-1.18c.21-.37.49-.66.84-.86.36-.21.74-.31,1.16-.31.65,0,1.2.23,1.64.68.45.45.67,1.02.67,1.69,0,.44-.1.84-.3,1.2ZM48.07,64.54h.75v-5.84h-.75v5.84ZM20.55,56.54h-.75v2.16h-1.03v.65h1.03v5.18h.75v-5.18h1.19v-.65h-1.19v-2.16ZM13.62,58.55c-.9,0-1.65.32-2.24.98-.54.59-.81,1.29-.81,2.1s.29,1.53.85,2.13c.57.61,1.3.92,2.19.92s1.62-.3,2.19-.92c.56-.61.85-1.32.85-2.13s-.27-1.52-.81-2.11c-.59-.65-1.34-.98-2.23-.98ZM15.59,62.83c-.2.36-.48.65-.83.84-.35.2-.73.3-1.14.3s-.8-.1-1.15-.3c-.35-.2-.63-.48-.83-.84-.2-.36-.31-.76-.31-1.18,0-.65.23-1.21.67-1.67.45-.46.99-.69,1.61-.69s1.16.23,1.6.69c.45.46.68,1.02.68,1.67,0,.42-.11.82-.31,1.18ZM36.29,58.89c-.34-.22-.73-.33-1.16-.33s-.83.1-1.19.3c-.37.2-.7.5-1,.89v-1.05h-.75v5.84h.75v-2.14c0-.77.04-1.29.11-1.58.11-.45.35-.82.71-1.12.36-.3.77-.45,1.22-.45.4,0,.71.1.96.29.25.19.42.48.5.87.06.22.08.67.08,1.34v2.78h.75v-3.01c0-.79-.08-1.37-.24-1.75-.16-.37-.41-.67-.75-.89ZM6.78,56.77c-.32-.08-.92-.12-1.82-.12h-1.57v7.89h.78v-3.67h.56c.98,0,1.65-.04,2.01-.13.49-.12.87-.35,1.16-.69.27-.34.41-.77.41-1.3s-.14-.95-.43-1.3c-.28-.35-.65-.58-1.1-.68ZM7.28,59.49c-.14.22-.34.38-.59.47-.25.1-.65.15-1.19.15l-1.34-.02v-2.67h1.39c.53,0,.92.05,1.15.14.23.09.42.25.57.46.14.22.21.46.21.73s-.07.52-.21.73ZM169.24,59.77c-.29-.4-.63-.71-1.02-.91-.39-.2-.82-.3-1.3-.3-.83,0-1.54.3-2.13.89-.59.6-.88,1.31-.88,2.15s.29,1.59.87,2.18c.58.6,1.29.9,2.11.9.46,0,.89-.1,1.28-.29.39-.19.74-.48,1.06-.86v1.01h.74v-5.84h-.74v1.07ZM169,62.84c-.2.35-.48.63-.85.84-.37.21-.76.31-1.16.31s-.79-.1-1.15-.31c-.35-.21-.63-.5-.85-.87-.21-.37-.32-.77-.32-1.18s.11-.81.31-1.18c.21-.37.49-.66.84-.86.36-.21.74-.31,1.16-.31.65,0,1.2.23,1.64.68.45.45.67,1.02.67,1.69,0,.44-.09.84-.29,1.2ZM29.05,59.68c-.59-.75-1.39-1.13-2.38-1.13s-1.74.37-2.31,1.1c-.45.58-.68,1.24-.68,1.98,0,.78.27,1.49.8,2.11.54.62,1.28.94,2.23.94.43,0,.81-.06,1.15-.2.34-.13.65-.32.92-.57.27-.25.51-.58.72-.99l-.63-.33c-.23.38-.44.66-.64.83-.2.17-.44.31-.72.41-.28.1-.57.15-.86.15-.62,0-1.14-.22-1.55-.65-.42-.43-.64-.99-.65-1.67h5.25c-.01-.8-.23-1.46-.64-2ZM24.52,61.02c.15-.53.38-.93.69-1.2.41-.37.9-.55,1.47-.55.35,0,.68.07.99.22.32.15.57.34.76.58.19.24.34.56.44.95h-4.35ZM143.36,59.77c-.29-.4-.63-.71-1.02-.91-.39-.2-.82-.3-1.3-.3-.83,0-1.53.3-2.13.89-.59.6-.88,1.31-.88,2.15s.29,1.59.88,2.18c.58.6,1.28.9,2.11.9.46,0,.89-.1,1.28-.29.39-.19.74-.48,1.06-.86v1.01h.74v-5.84h-.74v1.07ZM143.11,62.84c-.2.35-.48.63-.85.84-.37.21-.76.31-1.17.31s-.79-.1-1.14-.31c-.36-.21-.64-.5-.85-.87-.21-.37-.31-.77-.31-1.18s.1-.81.31-1.18c.21-.37.49-.66.84-.86.35-.21.74-.31,1.16-.31.65,0,1.2.23,1.64.68.45.45.67,1.02.67,1.69,0,.44-.1.84-.3,1.2ZM122.71,56.54h-.75v2.16h-1.03v.65h1.03v5.18h.75v-5.18h1.19v-.65h-1.19v-2.16ZM155.27,59.68c-.59-.75-1.39-1.13-2.38-1.13s-1.74.37-2.31,1.1c-.45.58-.67,1.24-.67,1.98,0,.78.26,1.49.8,2.11.54.62,1.28.94,2.23.94.43,0,.82-.06,1.15-.2.34-.13.65-.32.92-.57.27-.25.51-.58.72-.99l-.63-.33c-.23.38-.44.66-.64.83-.2.17-.44.31-.72.41-.28.1-.57.15-.87.15-.61,0-1.13-.22-1.55-.65-.42-.43-.63-.99-.65-1.67h5.25c0-.8-.22-1.46-.64-2ZM150.75,61.02c.15-.53.38-.93.67-1.2.42-.37.91-.55,1.48-.55.35,0,.68.07.99.22.31.15.57.34.76.58.19.24.33.56.44.95h-4.34ZM130.36,61.42c0,.73-.03,1.21-.11,1.43-.11.33-.31.6-.6.8-.29.2-.65.3-1.07.3s-.78-.11-1.08-.31c-.3-.21-.51-.49-.62-.85-.07-.25-.11-.71-.11-1.37v-2.72h-.75v2.81c0,.83.09,1.45.28,1.86.19.41.47.73.85.97.38.23.85.34,1.42.34s1.04-.12,1.42-.34c.37-.23.66-.55.85-.96.18-.41.28-1.01.28-1.82v-2.86h-.77v2.72ZM109.02,58.89c-.34-.22-.72-.33-1.16-.33s-.83.1-1.19.3c-.37.2-.7.5-1,.89v-1.05h-.75v5.84h.75v-2.14c0-.77.03-1.29.1-1.58.12-.45.35-.82.71-1.12.36-.3.76-.45,1.22-.45.4,0,.72.1.97.29.25.19.41.48.5.87.06.22.08.67.08,1.34v2.78h.75v-3.01c0-.79-.08-1.37-.24-1.75-.16-.37-.41-.67-.75-.89ZM117.78,59.77c-.29-.4-.63-.71-1.02-.91-.38-.2-.82-.3-1.3-.3-.83,0-1.54.3-2.12.89s-.88,1.31-.88,2.15.29,1.59.88,2.18c.58.6,1.29.9,2.11.9.47,0,.89-.1,1.29-.29.39-.19.74-.48,1.06-.86v1.01h.74v-5.84h-.74v1.07ZM117.53,62.84c-.2.35-.48.63-.85.84-.37.21-.76.31-1.17.31s-.79-.1-1.14-.31c-.36-.21-.64-.5-.85-.87-.21-.37-.31-.77-.31-1.18s.11-.81.31-1.18c.21-.37.49-.66.84-.86.35-.21.74-.31,1.16-.31.65,0,1.2.23,1.64.68.44.45.67,1.02.67,1.69,0,.44-.1.84-.3,1.2ZM97.26,59.77c-.3-.4-.64-.71-1.02-.91-.39-.2-.82-.3-1.3-.3-.83,0-1.54.3-2.13.89-.59.6-.88,1.31-.88,2.15s.29,1.59.88,2.18c.59.6,1.29.9,2.11.9.46,0,.89-.1,1.28-.29.39-.19.75-.48,1.06-.86v1.01h.74v-5.84h-.74v1.07ZM97.01,62.84c-.2.35-.48.63-.84.84-.37.21-.76.31-1.17.31s-.79-.1-1.14-.31c-.35-.21-.63-.5-.85-.87-.21-.37-.32-.77-.32-1.18s.1-.81.31-1.18c.21-.37.49-.66.84-.86.35-.21.74-.31,1.16-.31.64,0,1.19.23,1.64.68.44.45.66,1.02.66,1.69,0,.44-.1.84-.3,1.2ZM135.1,58.8c-.25.17-.5.42-.73.75v-.85h-.76v5.84h.76v-1.98c0-1.01.05-1.68.14-2.02.12-.43.3-.75.53-.96.24-.2.47-.3.72-.3.11,0,.24.04.39.1l.39-.63c-.24-.13-.46-.2-.66-.2-.28,0-.54.08-.79.25ZM88.78,64.54h.75v-8.08h-.75v8.08ZM146.77,64.54h.75v-8.08h-.75v8.08ZM79.24,58.55c-.9,0-1.65.32-2.24.98-.53.59-.8,1.29-.8,2.1s.28,1.53.85,2.13c.57.61,1.3.92,2.19.92s1.62-.3,2.19-.92c.57-.61.85-1.32.85-2.13s-.27-1.52-.81-2.11c-.59-.65-1.33-.98-2.23-.98ZM81.21,62.83c-.2.36-.48.65-.83.84-.35.2-.73.3-1.14.3s-.8-.1-1.14-.3c-.35-.2-.63-.48-.83-.84-.21-.36-.31-.76-.31-1.18,0-.65.22-1.21.67-1.67.44-.46.98-.69,1.61-.69s1.16.23,1.61.69c.45.46.67,1.02.67,1.67,0,.42-.1.82-.31,1.18ZM72.94,59.77c-.3-.4-.64-.71-1.02-.91-.39-.2-.82-.3-1.3-.3-.83,0-1.54.3-2.13.89-.59.6-.88,1.31-.88,2.15s.29,1.59.87,2.18c.58.6,1.29.9,2.11.9.46,0,.89-.1,1.29-.29.39-.19.75-.48,1.06-.86v1.01h.74v-8.08h-.74v3.32ZM72.7,62.84c-.2.35-.48.63-.85.84-.37.21-.76.31-1.16.31s-.79-.1-1.15-.31c-.35-.21-.64-.5-.85-.87-.21-.37-.31-.77-.31-1.18s.1-.81.31-1.18c.21-.37.49-.66.84-.86.35-.21.74-.31,1.16-.31.65,0,1.19.23,1.64.68.44.45.66,1.02.66,1.69,0,.44-.1.84-.29,1.2ZM78.65,31.13c0-2.38-.43-4.63-1.28-6.69-.84-2.06-2.04-3.87-3.56-5.39-1.51-1.52-3.33-2.72-5.39-3.57-2.05-.85-4.33-1.28-6.74-1.28s-4.68.43-6.74,1.28c-2.06.85-3.87,2.05-5.39,3.57-1.51,1.51-2.71,3.33-3.57,5.39-.85,2.06-1.28,4.31-1.28,6.69s.43,4.67,1.28,6.71c.85,2.04,2.05,3.84,3.57,5.36,1.52,1.51,3.33,2.71,5.39,3.56,2.06.85,4.33,1.28,6.74,1.28s4.69-.43,6.74-1.28c2.06-.85,3.87-2.05,5.39-3.56,1.52-1.52,2.72-3.32,3.56-5.36.85-2.04,1.28-4.3,1.28-6.71ZM74.7,36.56c-.71,1.72-1.71,3.22-2.97,4.49-1.27,1.26-2.77,2.26-4.46,2.97-1.69.7-3.58,1.06-5.59,1.06s-3.9-.36-5.59-1.06c-1.69-.71-3.19-1.71-4.46-2.97-1.27-1.26-2.26-2.77-2.97-4.49-.71-1.71-1.07-3.6-1.07-5.62s.36-3.91,1.07-5.62c.71-1.71,1.7-3.22,2.97-4.49,1.26-1.26,2.76-2.27,4.46-2.97,1.69-.71,3.58-1.07,5.59-1.07s3.9.36,5.59,1.07c1.69.71,3.19,1.71,4.46,2.97,1.26,1.26,2.26,2.77,2.97,4.49.7,1.71,1.06,3.6,1.06,5.62s-.36,3.91-1.06,5.62ZM106.18,45.57v-3.38l-.97.57c-.39.24-.83.49-1.3.75-.45.25-1,.5-1.63.72-.64.22-1.38.43-2.2.59-.81.16-1.76.25-2.8.25-1.91,0-3.72-.35-5.42-1.04-1.7-.69-3.21-1.66-4.49-2.89-1.28-1.22-2.31-2.72-3.05-4.45-.74-1.73-1.12-3.67-1.12-5.76s.39-4.15,1.15-5.87c.76-1.73,1.81-3.23,3.11-4.46,1.3-1.22,2.82-2.18,4.51-2.83,1.7-.65,3.51-.98,5.37-.98,1.68,0,3.15.22,4.37.64,1.23.43,2.41,1.01,3.5,1.72l.98.64v-3.42l-.32-.18c-.78-.45-1.9-.93-3.33-1.43-1.47-.51-3.24-.77-5.25-.77-2.42,0-4.7.44-6.79,1.31-2.09.87-3.9,2.08-5.4,3.6-1.5,1.52-2.69,3.32-3.54,5.36-.85,2.05-1.28,4.29-1.28,6.67,0,2.5.45,4.82,1.34,6.9.89,2.08,2.12,3.89,3.66,5.37,1.54,1.48,3.35,2.64,5.4,3.45,2.04.81,4.26,1.22,6.6,1.22,1.73,0,3.33-.2,4.75-.61,1.4-.4,2.69-.91,3.82-1.52l.34-.18ZM168.62,17.54c-.93-.75-1.9-1.37-2.88-1.83-.97-.46-1.93-.79-2.85-1-.91-.21-1.76-.34-2.55-.4-.78-.06-1.45-.1-2.01-.1h-14.75l.06,34.01h2.9v-31.08l11.95-.05c2.24,0,4.02.3,5.3.9,1.3.62,2.33,1.27,3.06,1.94,1.09,1.01,1.97,2.39,2.61,4.11.65,1.75.98,3.99.98,6.67v17.51h2.91v-17.51c0-6-1.59-10.42-4.75-13.16ZM40.92,15.86h-2.75v32.43h2.75V15.86ZM140.63,36.87h-3.19l-.17.37c-1.2,2.53-2.93,4.49-5.16,5.82-2.24,1.34-4.78,2.02-7.54,2.02-1.46,0-3.03-.28-4.68-.82-1.64-.54-3.18-1.39-4.55-2.52-1.38-1.13-2.54-2.6-3.45-4.35-.83-1.58-1.3-3.48-1.41-5.64h30.9l.1-1.5v-.04c-.12-2.46-.66-4.72-1.62-6.72-.95-2-2.22-3.73-3.78-5.13-1.55-1.39-3.34-2.48-5.32-3.23-1.98-.75-4.06-1.13-6.2-1.13-2.38,0-4.63.43-6.71,1.28-2.08.85-3.91,2.05-5.42,3.57-1.52,1.52-2.72,3.33-3.59,5.39-.87,2.06-1.31,4.34-1.31,6.76s.43,4.63,1.28,6.67c.85,2.04,2.04,3.84,3.54,5.34,1.5,1.5,3.3,2.7,5.36,3.57,2.06.87,4.35,1.31,6.81,1.31,1.61,0,3.21-.2,4.76-.61,1.56-.4,3.04-1.03,4.39-1.86,1.36-.83,2.62-1.9,3.75-3.17,1.13-1.27,2.08-2.78,2.81-4.48l.38-.89ZM111.87,24.54c.78-1.57,1.82-2.94,3.09-4.1,1.26-1.15,2.76-2.06,4.44-2.69,1.69-.63,3.51-.95,5.42-.95,1.71,0,3.4.34,5.02,1.01,1.62.67,3.08,1.59,4.34,2.75,1.25,1.16,2.29,2.53,3.1,4.08.7,1.34,1.12,2.79,1.26,4.32h-27.95c.17-1.57.6-3.05,1.29-4.41ZM39.54,10.77c.48,0,.88-.16,1.2-.47.32-.31.48-.69.48-1.11s-.16-.82-.48-1.13c-.32-.31-.72-.47-1.2-.47s-.9.16-1.21.47c-.31.31-.47.69-.47,1.13s.16.8.47,1.11c.31.32.72.47,1.21.47ZM35.26,29.63c0-.5-.06-.98-.11-1.47,0-.1-.01-.21-.02-.31-.05-.38-.11-.74-.18-1.11-.04-.25-.07-.51-.12-.76-.02-.08-.05-.16-.07-.25,0-.04-.02-.09-.03-.13-.12-.59-.35-1.28-.53-1.84-1.61-4.7-4.86-7.54-9.05-9.15l-.12-.13s-.06.03-.1.04c-.23-.09-.46-.18-.7-.26h0s-.05.02-.08.03c-1.32-.39-2.71-.61-4.15-.61-8.12,0-14.34,6.59-14.34,14.71,0,.31.01.62.03.93.16,2.16.8,4.2,1.82,5.99.2.35.4.69.64,1.01,2.66,3.58,3.73,4.36,3.44,3.44-.01-.02-.17-.52-.34-1.17-.11-.41-.21-.84-.27-1.27-.06-.36-.09-.71-.09-1,.04-1.74.64-3.39,1.77-4.67.05-.07.09-.13.14-.2.15-.18.3-.36.47-.53,1.06-1.11,2.43-1.98,3.88-2.68.83-.4,1.68-.75,2.53-1.11,1.22-.55,2.39-1.07,3.85-1.81.1-.05.19-.1.29-.15.95-.59,1.81-1.32,2.45-2.18.29-.44.5-.89.75-1.34.04-.09.08-.18.1-.27.01.01.02.02.03.03.02-.03.02-.1.03-.19.66.75,1.29,1.49,1.83,2.25,1.07,1.59,1.73,3.33,1.58,5.51-.04.34-.12.68-.21,1.02-.26,1.04-.67,2.01-1.18,2.9-.15.24-.28.49-.45.72-.05.08-.12.14-.18.21-.35.43-.72.85-1.14,1.21-.02.02-.04.03-.06.04-.42.35-.87.66-1.35.94-.17.09-.39.2-.46.24-1.17.58-2.53.88-3.83.82-.03,0-.14-.01-.27-.02-.73-.06-1.46-.2-2.09-.57,0,0,0,0,0,0-.2-.12-.38-.28-.55-.44-.17-.18-.32-.38-.45-.59-.02-.04-.04-.07-.06-.1-.07-.12-.12-.24-.17-.36-.15-.46-.18-.96-.11-1.44,0-.04.01-.07.02-.11.01-.07.03-.13.04-.2.03-.11.06-.23.09-.34.11-.36.26-.71.43-1.04.03-.06.06-.12.09-.18.17-.3.35-.59.55-.88.08-.12.15-.23.23-.34.02-.02.04-.05.05-.07.31-.43.51-.68.83-1.12.11-.15.55-.65.4-.78-.18-.13-.11-.33-.73-.09-.14.05-.58.26-1.1.51-.12.05-.24.1-.37.16-.32.15-.68.33-1.06.54-.25.13-.51.29-.77.46-.08.05-.16.1-.25.15-.2.13-.41.29-.61.44-.55.4-1.11.84-1.66,1.39-.3.3-.57.62-.82.97-.01.01-.02.03-.03.04-.15.21-.31.43-.42.67-.04.09-.05.19-.09.28-.02.04-.04.07-.06.11-.11.29-.18.55-.24.8-.01.05-.03.1-.04.16-.15.75-.11,1.39.09,2.16.11.51.27,1.02.49,1.53.02.05.03.09.05.14,0,.02.02.04.03.06.02.04.03.08.05.12.02.04.04.08.06.12.17.4.38.79.67,1.14.06.07.14.13.2.19.22.25.47.5.78.75,2.06,1.59,4.13,1.57,4.55,1.65-.08.06-.89.03-1.48.03-.41,0-1.24-.09-1.64-.13-.23-.02-.47-.04-.69-.07-.13-.02-.26-.04-.39-.06-.43-.07-.86-.17-1.28-.28-.68-.19-1.34-.44-1.97-.75-.05-.03-.1-.05-.15-.08-.53-.27-1.05-.58-1.55-.93-.65-.45-1.28-.95-1.87-1.54-2.55-2.54-3.82-5.6-3.82-9.19V10.12l-.07-6.19C3.11,1.6.91.22.05,0c0,0-.05,5.49-.05,5.5v24.46c0,3.26.79,6.2,2.34,8.82.7,1.26,1.52,2.45,2.63,3.57,3.48,3.52,7.67,5.28,12.58,5.28,2.47,0,4.76-.45,6.86-1.35,2.06-.87,3.94-2.15,5.65-3.86,3.06-3.06,4.75-6.68,5.1-10.85.06-.64.09-1.28.09-1.94ZM8.28,24.02s.16-1.84,1.14-3.57c1.3-2.31,3.89-4.73,8.36-4.73.43,0,.89.02,1.36.07,0,0-7.57.81-10.86,8.23Z"/>
</svg>