<?xml version="1.0" encoding="UTF-8"?>
<svg id="Capa_1" xmlns="http://www.w3.org/2000/svg" version="1.1" viewBox="0 0 213.79 16.48">
  <!-- Generator: Adobe Illustrator 30.5.1, SVG Export Plug-In . SVG Version: 2.1.4 Build 3)  -->
  <defs>
    <style>
      .st0 {
        fill: #fff;
      }
    </style>
  </defs>
  <g>
    <path class="st0" d="M140.18,14.73c-.62.99-1.08,1.75-1.91,1.75s-1.15-.76-1.36-1.75l-2.69-13.17c-.02-.25-.16-.48-.32-.48-.12,0-.35.07-.41.44l-3.15,14.78h-1.24l3.15-14.78c.18-.9.83-1.52,1.75-1.52s1.24.6,1.45,1.59l2.67,13.12c.05.21.12.51.3.51.23,0,.35-.3.48-.51l8.24-13.12c.62-.99,1.13-1.59,2.05-1.59.81,0,1.34.48,1.34,1.2,0,.12-.02.21-.05.32l-3.15,14.78h-1.24l3.15-14.78s.02-.09.02-.14c0-.23-.16-.3-.25-.3-.16,0-.39.23-.55.48l-8.26,13.17Z"/>
    <path class="st0" d="M167.8,5.2c0,.94-.14,2.05-.39,3.27-1.24,5.82-3.59,8.01-9.44,8.01-4.63,0-6.56-1.66-6.56-5.23,0-.94.14-2.03.39-3.25,1.22-5.82,3.64-8.01,9.48-8.01,4.6,0,6.51,1.66,6.51,5.2ZM152.7,11.46c0,2.76,1.54,3.91,5.39,3.91,5.2,0,6.95-2,8.03-7.14.28-1.27.39-2.32.39-3.22,0-2.76-1.54-3.91-5.39-3.91-5.2,0-6.95,2-8.03,7.14-.28,1.27-.39,2.32-.39,3.22Z"/>
    <path class="st0" d="M172.66,16.3l3.2-15.01h-6.74l.23-1.1h14.73l-.23,1.1h-6.74l-3.2,15.01h-1.24Z"/>
    <path class="st0" d="M198.6,5.2c0,.94-.14,2.05-.39,3.27-1.24,5.82-3.59,8.01-9.44,8.01-4.63,0-6.56-1.66-6.56-5.23,0-.94.14-2.03.39-3.25,1.22-5.82,3.64-8.01,9.48-8.01,4.6,0,6.51,1.66,6.51,5.2ZM183.5,11.46c0,2.76,1.54,3.91,5.39,3.91,5.2,0,6.95-2,8.03-7.14.28-1.27.39-2.32.39-3.22,0-2.76-1.54-3.91-5.39-3.91-5.2,0-6.95,2-8.03,7.14-.28,1.27-.39,2.32-.39,3.22Z"/>
    <path class="st0" d="M199.06,15.19h8.91c1.2,0,2.21-.51,2.69-2.76.07-.28.12-.55.12-.81,0-.74-.35-1.38-1.59-1.84l-5.98-2.21c-1.31-.48-2.12-1.34-2.12-2.83,0-.35.05-.74.14-1.15.48-2.3,1.63-3.41,4.4-3.41h8.17l-.23,1.1h-8.22c-1.68,0-2.44.69-2.83,2.53-.07.35-.14.69-.14,1.01,0,.62.25,1.17,1.22,1.54l5.85,2.21c1.5.55,2.62,1.27,2.62,2.99,0,.32-.02.69-.12,1.08-.41,1.98-1.34,3.64-4.05,3.64h-9.09l.25-1.11Z"/>
  </g>
  <g>
    <path class="st0" d="M17.01,13.9c-.28,1.34-1.13,2.58-3.48,2.58-1.1,0-2.21-.16-2.76-1.47L6.74,5.55c-.14-.28-.25-.39-.37-.39-.09,0-.28.05-.37.46l-2.28,10.68H0L2.92,2.53c.41-1.98,1.89-2.53,3.59-2.53,1.15,0,2.21.3,2.67,1.38l4.07,9.55c.07.16.12.39.32.39.25,0,.32-.28.35-.39L16.2.18h3.73l-2.92,13.72Z"/>
    <path class="st0" d="M26.38,1.89c.81-1.27,1.59-1.89,3.57-1.89,1.45,0,2.44.32,2.76,1.89l2.97,14.41h-4.12l-.67-3.68h-6.79l-2.23,3.68h-4.53L26.38,1.89ZM25.78,9.48h4.76l-.97-5.11c-.05-.25-.05-.51-.21-.51s-.32.25-.46.51l-3.13,5.11Z"/>
    <path class="st0" d="M43.23,12.15c.02.21.12.35.25.35s.25-.14.39-.35L50.82.18h4.56l-8.75,14.13c-.71,1.17-1.7,2.16-3.78,2.16s-2.65-1.01-2.88-2.16L37.29.18h4.19l1.75,11.97Z"/>
    <path class="st0" d="M59.38,1.89c.81-1.27,1.59-1.89,3.57-1.89,1.45,0,2.44.32,2.76,1.89l2.97,14.41h-4.12l-.67-3.68h-6.79l-2.23,3.68h-4.53L59.38,1.89ZM58.79,9.48h4.76l-.97-5.11c-.05-.25-.05-.51-.21-.51s-.32.25-.46.51l-3.13,5.11Z"/>
    <path class="st0" d="M72.39,2.67c.37-1.73,1.24-2.49,2.97-2.49h8.15c2.67,0,3.73,1.5,3.73,4.05,0,.39-.05,1.08-.12,1.61-.41,2.88-1.61,5.18-4.81,5.18h-1.15l-.02.12,4.03,5.16h-4.86l-2.97-4.19c-.46-.64-.99-1.4-.99-2.07,0-.14.05-.32.09-.58.23-1.22,1.2-1.45,2.69-1.45h1.36c1.54,0,2.05-.78,2.39-2.39.07-.37.12-.69.12-.97,0-.92-.48-1.24-1.7-1.24h-3.84c-.81,0-1.13.28-1.31,1.08l-2.51,11.81h-4.14l2.9-13.63Z"/>
    <path class="st0" d="M90.02,2.67c.37-1.73,1.24-2.49,2.97-2.49h8.15c2.67,0,3.73,1.5,3.73,4.05,0,.39-.05,1.08-.12,1.61-.41,2.88-1.61,5.18-4.81,5.18h-1.15l-.02.12,4.03,5.16h-4.86l-2.97-4.19c-.46-.64-.99-1.4-.99-2.07,0-.14.05-.32.09-.58.23-1.22,1.2-1.45,2.69-1.45h1.36c1.54,0,2.05-.78,2.39-2.39.07-.37.12-.69.12-.97,0-.92-.48-1.24-1.7-1.24h-3.84c-.81,0-1.13.28-1.31,1.08l-2.51,11.81h-4.14l2.9-13.63Z"/>
    <path class="st0" d="M123.44,5.5c0,.97-.05,1.89-.32,3.2-1.43,6.72-3.73,7.78-10.06,7.78-5.09,0-7.34-1.52-7.34-5.5,0-.97.05-1.89.32-3.2,1.43-6.7,3.73-7.78,10.06-7.78,5.09,0,7.34,1.52,7.34,5.5ZM109.95,10.59c0,1.98,1.01,2.67,3.54,2.67,3.36,0,4.6-1.22,5.41-5.02.21-.92.3-1.68.3-2.32,0-1.98-1.04-2.69-3.57-2.69-3.36,0-4.58,1.22-5.39,5.02-.21.94-.3,1.7-.3,2.35Z"/>
  </g>
</svg>