<?xml version="1.0" encoding="UTF-8"?>
<svg id="Capa_1" xmlns="http://www.w3.org/2000/svg" version="1.1" viewBox="0 0 720.02 196.74">
  <!-- Generator: Adobe Illustrator 30.5.1, SVG Export Plug-In . SVG Version: 2.1.4 Build 3)  -->
  <defs>
    <style>
      .st0 {
        fill: #fff;
      }
    </style>
  </defs>
  <path class="st0" d="M29.9,122.62C175.11,38.52,161.46,15.86,0,43.44c130.99-9.88,137.11,2.04,29.9,79.18"/>
  <path class="st0" d="M63.38,130.04C267.95,7.33,253.99-23.44,23.41,16.42c186.94-12.65,191.34-.55,39.96,113.62"/>
  <path class="st0" d="M661.8,79.2c-8.61-4.31-15.3-6.48-19.99-6.48-3.99,0-6.58,1.58-7.81,4.73-.7,1.72-1.02,6.65-1.02,14.88v24.51c.07,5.39.25,8.68.49,9.84.7,3.15,3.01,4.73,7,4.73,3.12,0,6.62-.95,10.5-2.84,3.85-1.86,7.39-4.34,10.61-7.42l.21-41.94ZM661.69,71.81v-12.54c-.07-8.68-.21-14-.42-16-.21-1.96-.8-3.74-1.82-5.32-2.49-3.82-8.23-5.74-17.26-5.74-13.93,0-24.72,4.38-32.28,13.13-3.08,3.57-5.71,5.32-7.81,5.32-1.58,0-2.94-.53-4.1-1.65-1.19-1.09-1.75-2.34-1.75-3.78,0-4.31,5.08-8.75,15.26-13.34,9.73-4.38,22.27-6.55,37.67-6.55,25.28,0,43.13,3.82,53.53,11.48,4.52,3.36,7.46,7.11,8.82,11.27,1.37,4.17,2.03,11.52,2.03,22.06v40.72c-.24,7.53-.04,13.16.67,16.98.73,3.78,2.35,7.88,4.9,12.25h-57.45v-10.78c-6.3,4.31-12.53,7.56-18.73,9.77-6.16,2.17-12.29,3.25-18.31,3.25-10.19,0-19.22-2.97-27.17-8.89-10.33-7.81-15.47-17.93-15.47-30.39,0-10.99,4.17-19.88,12.5-26.64,9.7-8.02,21.74-12.01,36.09-12.01,5.88,0,11.1.53,15.62,1.58,4.52,1.09,9.66,3.01,15.47,5.81ZM479.61,44.72c8.89-6.83,17.19-11.76,24.89-14.81,7.7-3.05,15.82-4.55,24.37-4.55,15.65,0,26.54,5.01,32.7,15.06,1.79,3.01,3.01,6.48,3.71,10.43.67,3.92,1.02,9.77,1.02,17.47l-.42,27.1v6.34l.52,34.17.1,4.2h-52.62l.42-32.42.49-32.59-.1-13.23c-.07-4.87-.07-7.7,0-8.54.07-5.39-.49-9.1-1.72-11.17-1.26-2.03-3.47-3.08-6.69-3.08-3.4,0-7.14,1.02-11.24,2.98-4.06,1.99-8.44,5.01-13.16,9.03.35,2.66.53,6.51.53,11.48l-.21,25.66-.21,28.81c0,8.47.17,16.17.49,23.07h-52.52l.21-22.37.31-48.21c0-15.86-.21-24.61-.59-26.26-.77-2.94-3.22-4.41-7.39-4.41-3.15,0-6.69.98-10.64,2.94-3.92,1.96-8.26,4.9-13.06,8.86l-.42,43.41.52,46.04h-52.62v-4.1l.21-18.66.1-25.45.11-24.61-.42-39.18h52.52v14.35c7.67-5.74,15.3-10.05,22.93-12.88,7.6-2.84,15.23-4.24,22.79-4.24,11.45,0,20.62,2.87,27.62,8.61,2.8,2.24,5.29,5.85,7.46,10.75ZM271.19,79.2c-8.61-4.31-15.3-6.48-19.99-6.48-3.99,0-6.58,1.58-7.81,4.73-.7,1.72-1.01,6.65-1.01,14.88v24.51c.07,5.39.25,8.68.49,9.84.7,3.15,3.01,4.73,7,4.73,3.12,0,6.62-.95,10.5-2.84,3.85-1.86,7.39-4.34,10.61-7.42l.21-41.94ZM271.09,71.81v-12.54c-.07-8.68-.21-14-.42-16-.21-1.96-.8-3.74-1.82-5.32-2.49-3.82-8.23-5.74-17.26-5.74-13.94,0-24.72,4.38-32.28,13.13-3.08,3.57-5.71,5.32-7.81,5.32-1.58,0-2.94-.53-4.1-1.65-1.19-1.09-1.75-2.34-1.75-3.78,0-4.31,5.08-8.75,15.26-13.34,9.73-4.38,22.27-6.55,37.67-6.55,25.28,0,43.13,3.82,53.53,11.48,4.52,3.36,7.46,7.11,8.82,11.27,1.37,4.17,2.03,11.52,2.03,22.06v40.72c-.24,7.53-.04,13.16.67,16.98.73,3.78,2.35,7.88,4.9,12.25h-57.45v-10.78c-6.3,4.31-12.53,7.56-18.73,9.77-6.16,2.17-12.29,3.25-18.31,3.25-10.19,0-19.22-2.97-27.17-8.89-10.33-7.81-15.47-17.93-15.47-30.39,0-10.99,4.17-19.88,12.5-26.64,9.7-8.02,21.74-12.01,36.09-12.01,5.88,0,11.1.53,15.61,1.58,4.52,1.09,9.66,3.01,15.47,5.81Z"/>
  <path class="st0" d="M375.68,179.74c0,.8-.02,1.45-.05,1.94-.04.49-.12.86-.25,1.11-.12.25-.31.43-.56.53-.25.11-.58.18-1,.22l-.74.09c-.12.1-.21.27-.25.48-.04.22-.03.44.02.66.04.21.14.38.28.48.82-.05,1.68-.09,2.61-.1.93-.02,1.88-.04,2.86-.04.73,0,1.41,0,2,.01.6,0,1.16.02,1.67.05.51.02,1,.05,1.47.08.14-.1.23-.26.28-.48.05-.22.05-.44.01-.66-.04-.22-.12-.38-.25-.48l-.74-.09c-.38-.03-.67-.13-.87-.3-.19-.16-.32-.46-.39-.9-.07-.43-.1-1.07-.09-1.91v-8.29c0-.41.02-.76.08-1.05.06-.28.15-.5.29-.66.12-.18.31-.35.55-.52.24-.17.53-.31.88-.42.35-.11.73-.18,1.17-.18.77,0,1.39.15,1.87.45.48.29.83.69,1.05,1.18.22.5.32,1.05.32,1.66v7.83c0,.63-.01,1.14-.05,1.53-.03.39-.09.68-.18.89-.09.2-.22.36-.38.44-.17.09-.39.16-.65.2l-.83.14c-.12.1-.21.27-.25.48-.04.22-.03.44.01.66.05.21.14.38.28.48.68-.05,1.45-.09,2.31-.1.86-.02,1.76-.04,2.69-.04,1.12,0,2.15.01,3.1.04.95.01,1.79.05,2.51.1.14-.1.23-.26.28-.48.05-.22.05-.44.02-.66-.04-.22-.13-.38-.25-.48l-.74-.09c-.41-.04-.74-.11-1-.22-.25-.1-.43-.28-.55-.53-.12-.25-.21-.63-.25-1.11-.04-.49-.05-1.13-.05-1.94v-7.97c0-1.08-.22-2.05-.65-2.94-.43-.88-1.07-1.57-1.93-2.1-.86-.52-1.93-.79-3.21-.8-.72.02-1.42.13-2.1.35-.69.21-1.31.47-1.87.76-.56.28-1.01.53-1.36.75-.15.08-.32.15-.49.24-.18.08-.31.12-.39.13-.07,0-.12-.02-.17-.08-.04-.05-.06-.15-.06-.29,0-.12.01-.29.04-.54.02-.25.04-.51.06-.79.02-.28.04-.53.04-.75-.18-.28-.46-.42-.83-.42-.35.21-.79.44-1.33.69-.55.25-1.14.49-1.78.74-.65.25-1.3.49-1.94.7-.65.21-1.24.4-1.8.55-.11.1-.18.24-.22.43-.04.18-.04.36,0,.54.04.18.11.32.22.42l.65.42c.29.17.49.38.62.6.12.22.2.52.23.9.02.37.04.86.03,1.47v7ZM357.34,163.44c.05.28.17.49.37.61.2.13.46.18.79.13l6.53-6.44c.31-.3.55-.6.73-.9.19-.28.28-.56.29-.82,0-.25-.1-.51-.31-.78-.21-.27-.52-.57-.94-.89-.39-.28-.73-.47-1-.58-.28-.12-.56-.17-.8-.16-.23,0-.46.09-.7.29-.23.21-.48.57-.73,1.09l-4.22,8.43ZM359.7,168.07c.66,0,1.24.23,1.73.68.49.44.9,1.05,1.24,1.83.33.77.58,1.66.75,2.67.17,1,.26,2.07.27,3.2.02,1.39-.08,2.64-.29,3.71-.21,1.07-.58,1.92-1.1,2.53-.52.61-1.21.93-2.08.93-.67,0-1.27-.21-1.79-.63-.53-.42-.97-1-1.33-1.76-.36-.76-.63-1.64-.82-2.67-.18-1.02-.28-2.15-.28-3.37,0-1.68.18-3.04.51-4.09.33-1.06.77-1.82,1.33-2.32.56-.49,1.18-.73,1.87-.72ZM359.7,185.77c1.44,0,2.8-.2,4.07-.6,1.27-.41,2.41-1.02,3.4-1.84.99-.82,1.76-1.85,2.32-3.1.56-1.25.86-2.72.86-4.41,0-1.64-.29-3.06-.85-4.3-.56-1.23-1.32-2.25-2.29-3.08-.97-.83-2.08-1.45-3.31-1.86-1.24-.42-2.55-.63-3.93-.63-1.1,0-2.17.15-3.21.43-1.04.29-2.01.72-2.91,1.28-.9.57-1.7,1.26-2.38,2.09-.68.83-1.21,1.79-1.59,2.87-.38,1.08-.56,2.29-.56,3.62.02,1.6.31,3,.86,4.18.56,1.19,1.31,2.19,2.28,2.98.96.79,2.05,1.39,3.3,1.78,1.23.39,2.55.6,3.94.6ZM341.68,155.51c-.63,0-1.21.15-1.72.42-.52.28-.94.67-1.27,1.18-.32.5-.48,1.1-.49,1.78,0,.64.13,1.21.39,1.7.25.49.63.88,1.11,1.16.48.28,1.06.42,1.74.43.59,0,1.16-.13,1.68-.39.53-.25.95-.63,1.28-1.13.33-.5.5-1.12.51-1.86,0-.63-.14-1.18-.41-1.68-.27-.49-.64-.89-1.13-1.17-.49-.29-1.05-.43-1.71-.44ZM344.55,171.22c0-1.06,0-2.06.03-3.02.02-.96.06-1.79.11-2.49-.18-.28-.46-.42-.83-.42-.36.21-.8.44-1.35.69-.55.25-1.14.49-1.78.74-.64.25-1.28.49-1.93.7-.64.21-1.24.4-1.79.55-.11.1-.18.24-.22.43-.04.18-.04.36,0,.54.04.18.11.32.22.42l.65.42c.29.17.49.38.62.6.12.22.2.52.23.9.02.37.04.86.03,1.47v7c0,.8-.02,1.45-.05,1.94-.04.49-.12.87-.23,1.12-.12.26-.29.43-.52.54-.22.1-.53.16-.91.19l-.88.09c-.12.1-.21.27-.25.48-.04.22-.03.44.02.66.05.21.14.38.28.48.77-.05,1.63-.09,2.57-.1.94-.02,1.94-.04,2.99-.04s2.05.01,2.97.04c.92.01,1.78.05,2.59.1.14-.1.23-.26.28-.48.04-.22.05-.44.01-.66-.04-.22-.13-.38-.25-.48l-.88-.09c-.38-.03-.68-.09-.91-.19-.23-.11-.4-.28-.52-.54-.12-.25-.19-.63-.23-1.12-.04-.49-.05-1.14-.05-1.94v-8.52ZM328.38,165.94c-1.57,0-3.06.24-4.45.71-1.39.47-2.62,1.16-3.69,2.06-1.07.9-1.91,2-2.51,3.3-.61,1.29-.92,2.76-.93,4.41,0,1.37.25,2.62.71,3.77.47,1.14,1.14,2.12,2.01,2.96.86.84,1.9,1.48,3.1,1.94,1.2.45,2.53.69,4,.7,1.1,0,2.1-.15,3-.45.9-.29,1.68-.68,2.37-1.17.69-.48,1.27-1.01,1.74-1.59.48-.58.84-1.17,1.1-1.76,0-.24-.07-.45-.18-.6-.12-.15-.28-.27-.46-.34-.18-.07-.36-.09-.55-.08-.51.84-1.11,1.44-1.8,1.78-.7.34-1.47.51-2.32.49-1.07,0-2.02-.23-2.83-.63-.82-.42-1.51-.97-2.08-1.68-.56-.7-.99-1.49-1.28-2.36-.29-.87-.43-1.77-.43-2.69,0-.81.1-1.6.3-2.39.2-.78.49-1.49.89-2.12.39-.64.87-1.15,1.45-1.53.57-.39,1.24-.58,1.99-.59.56,0,1.12.17,1.69.49.56.32,1.11.74,1.64,1.26.52.52,1,1.1,1.44,1.72.05.07.16.12.32.17.15.04.3.06.42.06.19,0,.38-.13.56-.38.18-.24.34-.57.46-.96.12-.4.18-.83.18-1.31,0-.62-.09-1.11-.26-1.48-.17-.37-.41-.68-.71-.92-.42-.16-.91-.3-1.47-.41-.56-.12-1.13-.21-1.71-.28-.59-.06-1.15-.1-1.68-.1ZM306.38,180.48c0,.48-.06.89-.15,1.23-.1.34-.27.59-.52.77-.26.18-.62.27-1.09.27-.44,0-.83-.14-1.19-.39-.36-.25-.64-.59-.85-1-.21-.42-.32-.88-.33-1.38,0-.72.19-1.31.55-1.74.35-.45.82-.79,1.4-1.02.59-.23,1.24-.39,1.94-.48.16-.03.26,0,.3.12.05.11.05.35.02.71l-.09,2.92ZM312.36,172.65c.07-1.58-.12-2.87-.57-3.86-.45-.99-1.13-1.71-2.04-2.18-.91-.46-2.02-.69-3.32-.68-1.1.02-2.15.16-3.13.46-.99.29-1.88.65-2.67,1.08-.79.43-1.45.86-1.98,1.29-.38.3-.73.65-1.07,1.05-.33.39-.61.82-.82,1.25-.22.44-.32.86-.33,1.26,0,.33.08.6.24.82.16.22.44.33.83.34.29,0,.65-.06,1.08-.16.43-.11.85-.24,1.26-.4.42-.16.74-.33.99-.5.21-.15.38-.35.52-.59.13-.23.22-.53.27-.89.11-.66.29-1.18.52-1.57.23-.39.51-.66.83-.83.32-.16.68-.25,1.05-.24.49,0,.92.13,1.26.37.35.25.63.57.83.96.21.4.36.83.46,1.29.09.46.14.92.14,1.37,0,.28,0,.55-.03.8-.01.26-.04.52-.06.77-.01.19-.1.36-.26.52-.15.15-.44.29-.85.41-.64.18-1.3.37-2,.58-.7.2-1.48.44-2.35.72-1.68.5-2.9,1.13-3.68,1.91-.77.77-1.15,1.74-1.14,2.91,0,.81.15,1.52.43,2.13.29.6.67,1.11,1.16,1.51.49.41,1.03.71,1.65.92.62.2,1.27.3,1.94.3.57,0,1.1-.09,1.6-.25.49-.16.93-.36,1.33-.59.39-.22.73-.44,1.01-.65.23-.16.42-.29.57-.38.15-.09.29-.13.4-.13s.22.02.34.08c.11.06.25.15.4.29.41.35.81.66,1.2.9.39.24.8.42,1.24.54.43.12.92.18,1.45.18.66,0,1.29-.1,1.88-.29.59-.19,1.12-.42,1.59-.69.48-.27.88-.55,1.2-.83.33-.28.56-.51.7-.7.06-.22.04-.44-.07-.66-.11-.22-.27-.35-.49-.41-.36.21-.68.35-.95.43-.27.09-.54.13-.81.13-.32,0-.65-.1-1-.33-.34-.23-.62-.64-.83-1.22-.22-.58-.3-1.39-.25-2.43l.32-6.12ZM288.64,155.51c-.63,0-1.21.15-1.72.42-.53.28-.94.67-1.27,1.18-.32.5-.48,1.1-.49,1.78,0,.64.13,1.21.39,1.7.25.49.63.88,1.11,1.16.48.28,1.07.42,1.75.43.59,0,1.16-.13,1.68-.39.52-.25.95-.63,1.28-1.13.33-.5.5-1.12.51-1.86,0-.63-.14-1.18-.41-1.68-.27-.49-.64-.89-1.13-1.17-.49-.29-1.05-.43-1.71-.44ZM291.51,171.22c0-1.06,0-2.06.03-3.02.02-.96.06-1.79.11-2.49-.18-.28-.46-.42-.83-.42-.35.21-.8.44-1.35.69-.55.25-1.14.49-1.78.74-.64.25-1.28.49-1.93.7-.64.21-1.24.4-1.79.55-.11.1-.18.24-.22.43-.04.18-.04.36,0,.54.04.18.11.32.22.42l.65.42c.29.17.49.38.62.6.13.22.2.52.23.9.02.37.04.86.03,1.47v7c0,.8-.01,1.45-.05,1.94-.04.49-.12.87-.23,1.12-.11.26-.28.43-.52.54-.22.1-.53.16-.91.19l-.88.09c-.12.1-.21.27-.25.48-.04.22-.03.44.01.66.05.21.14.38.28.48.77-.05,1.63-.09,2.57-.1.94-.02,1.94-.04,2.99-.04s2.05.01,2.97.04c.92.01,1.78.05,2.59.1.14-.1.23-.26.28-.48.05-.22.05-.44.02-.66-.04-.22-.12-.38-.25-.48l-.88-.09c-.38-.03-.68-.09-.91-.19-.23-.11-.4-.28-.52-.54-.12-.25-.19-.63-.23-1.12-.04-.49-.05-1.14-.05-1.94v-8.52ZM275.34,165.94c-1.58,0-3.06.24-4.45.71-1.39.47-2.62,1.16-3.69,2.06-1.07.9-1.91,2-2.51,3.3-.61,1.29-.92,2.76-.93,4.41,0,1.37.25,2.62.71,3.77.47,1.14,1.14,2.12,2.02,2.96.86.84,1.9,1.48,3.1,1.94,1.2.45,2.53.69,4,.7,1.1,0,2.1-.15,3-.45.9-.29,1.68-.68,2.37-1.17.69-.48,1.27-1.01,1.74-1.59.48-.58.84-1.17,1.1-1.76,0-.24-.07-.45-.18-.6-.13-.15-.28-.27-.46-.34-.18-.07-.36-.09-.56-.08-.51.84-1.11,1.44-1.8,1.78-.69.34-1.47.51-2.32.49-1.07,0-2.02-.23-2.83-.63-.82-.42-1.51-.97-2.08-1.68-.56-.7-.99-1.49-1.28-2.36-.28-.87-.43-1.77-.43-2.69,0-.81.1-1.6.3-2.39.2-.78.49-1.49.89-2.12.39-.64.87-1.15,1.45-1.53.57-.39,1.23-.58,1.99-.59.56,0,1.12.17,1.69.49.56.32,1.11.74,1.64,1.26.52.52,1,1.1,1.44,1.72.05.07.16.12.32.17.16.04.3.06.43.06.19,0,.38-.13.55-.38.18-.24.34-.57.46-.96.12-.4.18-.83.18-1.31,0-.62-.09-1.11-.26-1.48-.17-.37-.41-.68-.71-.92-.43-.16-.91-.3-1.47-.41-.56-.12-1.13-.21-1.71-.28-.59-.06-1.15-.1-1.68-.1ZM250.23,168.07c.66,0,1.24.23,1.73.68.49.44.9,1.05,1.24,1.83.33.77.58,1.66.75,2.67.17,1,.26,2.07.27,3.2.02,1.39-.08,2.64-.29,3.71-.22,1.07-.58,1.92-1.1,2.53-.52.61-1.21.93-2.08.93-.67,0-1.27-.21-1.79-.63-.53-.42-.96-1-1.33-1.76-.36-.76-.63-1.64-.82-2.67-.18-1.02-.28-2.15-.28-3.37,0-1.68.18-3.04.51-4.09.33-1.06.77-1.82,1.33-2.32.56-.49,1.18-.73,1.87-.72ZM250.23,185.77c1.44,0,2.8-.2,4.07-.6,1.27-.41,2.41-1.02,3.4-1.84.99-.82,1.76-1.85,2.32-3.1.56-1.25.86-2.72.86-4.41,0-1.64-.29-3.06-.85-4.3-.56-1.23-1.32-2.25-2.29-3.08-.97-.83-2.08-1.45-3.31-1.86-1.24-.42-2.55-.63-3.93-.63-1.1,0-2.17.15-3.21.43-1.04.29-2.01.72-2.91,1.28-.9.57-1.7,1.26-2.38,2.09-.68.83-1.21,1.79-1.59,2.87-.38,1.08-.56,2.29-.56,3.62.02,1.6.31,3,.86,4.18.56,1.19,1.31,2.19,2.28,2.98.96.79,2.05,1.39,3.3,1.78,1.23.39,2.55.6,3.94.6ZM229.43,185.77c1.1,0,2.12-.13,3.07-.39.95-.25,1.79-.65,2.51-1.17.73-.52,1.29-1.17,1.7-1.94.42-.77.63-1.68.65-2.71,0-1-.21-1.89-.62-2.68-.41-.79-1-1.49-1.76-2.12-.76-.63-1.66-1.19-2.72-1.69-1.03-.5-1.79-.99-2.26-1.47-.48-.47-.71-.97-.7-1.5.01-.63.23-1.13.66-1.49.43-.36.97-.54,1.66-.55.51,0,.98.11,1.41.35.43.24.83.63,1.19,1.17.37.54.7,1.25,1.01,2.15.11.11.27.18.5.21.23.03.46.01.68-.05.22-.06.37-.18.44-.35,0-.6-.02-1.18-.08-1.76-.05-.58-.13-1.11-.23-1.62-.1-.49-.23-.91-.39-1.26-.18-.13-.51-.27-.99-.42-.48-.15-1.06-.28-1.74-.39-.69-.11-1.43-.16-2.22-.17-1,0-1.95.13-2.83.37-.88.24-1.67.61-2.34,1.11-.68.49-1.21,1.12-1.6,1.87-.39.75-.59,1.62-.6,2.63,0,.92.22,1.74.62,2.44.41.7.97,1.34,1.68,1.89.71.55,1.54,1.06,2.47,1.51.53.26,1.03.55,1.49.87.46.32.84.69,1.13,1.11.29.42.43.92.44,1.49,0,.52-.11.96-.32,1.33-.21.36-.49.62-.85.8-.36.19-.77.28-1.24.28-.59,0-1.14-.16-1.65-.46-.51-.29-.96-.68-1.37-1.15-.41-.47-.76-.96-1.04-1.5-.29-.53-.51-1.04-.66-1.53-.1-.14-.26-.23-.47-.26-.21-.04-.42-.03-.63.03-.21.06-.37.17-.47.32-.03.7-.01,1.4.04,2.08.05.68.14,1.3.26,1.85.12.56.27.99.44,1.3.63.49,1.4.85,2.35,1.08.94.24,2.07.36,3.39.36ZM203.4,172.19c-.39,0-.67-.02-.86-.08-.19-.06-.29-.19-.31-.39,0-.2.05-.51.19-.92l1.16-3.48c.23-.72.46-1.39.7-2.04.23-.65.45-1.23.66-1.76.2-.52.39-.95.54-1.3.14.33.3.75.47,1.25.18.5.37,1.07.57,1.68.2.62.41,1.26.63,1.93l1.21,3.75c.12.39.18.69.16.88-.02.19-.12.32-.29.38-.18.05-.44.09-.79.08h-4.03ZM207.66,174.65c.53,0,.95.01,1.24.05.3.03.52.12.66.23.14.12.25.3.32.55l1.25,3.98c.28.86.49,1.56.65,2.1.16.53.23.89.23,1.05,0,.09-.02.19-.08.29-.06.1-.18.19-.37.28-.18.09-.44.16-.8.22l-1.48.23c-.17.13-.27.31-.32.53-.04.22-.02.43.05.63.07.21.19.36.36.46.7-.03,1.39-.05,2.05-.08.66-.02,1.34-.04,2.02-.05.69,0,1.41-.01,2.18-.01,1.21,0,2.42.01,3.64.04,1.21.01,2.38.05,3.5.1.14-.1.22-.27.26-.49.03-.22.03-.45,0-.66-.05-.22-.12-.38-.21-.46l-1.76-.28c-.56-.08-1.01-.28-1.35-.57-.34-.3-.64-.73-.9-1.31-.26-.57-.54-1.32-.86-2.24l-6.3-18.16c-.39-1.09-.71-2.02-.97-2.81-.26-.78-.49-1.46-.66-2.02-.18-.57-.32-1.07-.45-1.51-.08-.34-.22-.59-.38-.73-.16-.14-.39-.21-.69-.2-.02,0-.15.13-.35.36-.21.23-.5.51-.86.83-.36.32-.79.64-1.27.94-.47.29-1,.51-1.55.65.04.44-.02.93-.17,1.48-.15.54-.38,1.17-.66,1.88-.29.72-.61,1.56-.97,2.52l-4.17,11.31c-.42,1.1-.79,2.11-1.13,2.99-.33.88-.64,1.69-.93,2.41-.29.73-.56,1.4-.82,2.01-.26.59-.54,1.05-.83,1.38-.29.32-.61.55-.94.68-.33.14-.68.22-1.05.26l-1.25.14c-.11.13-.18.31-.22.53-.03.22-.02.43.03.63.05.21.16.36.33.46.7,0,1.31-.01,1.84-.04.52-.02,1.01-.04,1.47-.06.46-.02.94-.04,1.46-.04.97.02,1.92.04,2.83.05.91.02,1.77.04,2.59.09.15-.09.25-.24.29-.45.04-.21.04-.44,0-.66-.04-.22-.11-.39-.2-.51l-1.39-.23c-.63-.11-1.07-.24-1.32-.38-.24-.13-.36-.27-.35-.41,0-.17.02-.38.06-.63.04-.24.13-.58.26-1.04l1.71-5.37c.08-.29.18-.5.27-.63.1-.13.24-.22.43-.25.18-.04.46-.05.83-.05h5.19Z"/>
  <path class="st0" d="M591.47,179.84c0,.8-.02,1.45-.05,1.95-.04.49-.12.87-.23,1.12-.12.25-.29.43-.52.54-.22.1-.53.16-.91.19l-.88.09c-.12.1-.21.26-.25.48-.04.22-.03.44.02.66.05.22.14.38.28.48.52-.03,1.07-.05,1.68-.08.6-.02,1.23-.04,1.87-.05.65,0,1.29-.01,1.92-.01.72,0,1.42,0,2.09.01.68,0,1.36.02,2.04.05.68.02,1.39.05,2.12.08.14-.1.23-.26.28-.48.05-.22.05-.44.02-.66-.04-.22-.12-.38-.25-.48l-1.48-.14c-.38-.03-.68-.09-.91-.19-.23-.1-.4-.28-.52-.52-.12-.26-.19-.62-.23-1.11-.04-.49-.05-1.13-.05-1.94v-7.13c0-.89.06-1.57.19-2.06.14-.48.37-.72.69-.72.09,0,.2,0,.34.05.15.03.32.12.56.25.22.13.51.35.86.63.3.28.59.49.89.63.29.14.59.21.92.21.5,0,.98-.1,1.43-.31.45-.21.81-.53,1.1-.97.29-.45.43-1.02.44-1.73,0-.58-.14-1.09-.39-1.49-.25-.41-.56-.72-.94-.93-.39-.21-.8-.32-1.22-.32-.49,0-.93.09-1.35.25-.42.15-.81.36-1.18.61-.36.25-.71.5-1.04.76-.33.26-.66.49-.97.69-.19-.05-.31-.11-.37-.19-.07-.09-.1-.21-.09-.36,0-.21.02-.48.05-.8.04-.33.09-.73.13-1.19-.19-.28-.46-.42-.83-.42-.36.23-.82.48-1.37.74-.54.26-1.13.52-1.75.77-.63.26-1.26.49-1.89.71-.63.22-1.21.4-1.75.56-.11.1-.18.24-.22.42-.04.18-.04.36,0,.54.04.19.11.32.22.42l.65.42c.29.18.49.38.62.6.12.22.2.52.23.9.02.37.04.86.03,1.47v7ZM569.42,172.19c-.39,0-.67-.02-.86-.08-.19-.06-.29-.19-.31-.39,0-.2.05-.51.19-.92l1.16-3.48c.23-.72.46-1.39.7-2.04.23-.65.45-1.23.66-1.76.2-.52.39-.95.54-1.3.14.33.3.75.47,1.25.18.5.37,1.07.57,1.68.2.62.41,1.26.63,1.93l1.2,3.75c.12.39.18.69.16.88-.02.19-.12.32-.29.38-.18.05-.44.09-.8.08h-4.03ZM573.68,174.65c.53,0,.95.01,1.24.05.3.03.52.12.66.23.14.12.25.3.32.55l1.25,3.98c.28.86.49,1.56.65,2.1.16.53.23.89.23,1.05,0,.09-.02.19-.09.29-.06.1-.18.19-.37.28-.18.09-.44.16-.8.22l-1.48.23c-.17.13-.27.31-.32.53-.04.22-.02.43.05.63.07.21.19.36.36.46.7-.03,1.39-.05,2.05-.08.66-.02,1.34-.04,2.02-.05.69,0,1.41-.01,2.18-.01,1.21,0,2.42.01,3.64.04,1.21.01,2.38.05,3.5.1.14-.1.22-.27.26-.49.03-.22.03-.45,0-.66-.05-.22-.12-.38-.21-.46l-1.76-.28c-.56-.08-1.01-.28-1.35-.57-.34-.3-.64-.73-.9-1.31-.25-.57-.54-1.32-.86-2.24l-6.3-18.16c-.39-1.09-.71-2.02-.97-2.81-.26-.78-.49-1.46-.66-2.02-.18-.57-.32-1.07-.45-1.51-.09-.34-.22-.59-.38-.73-.16-.14-.39-.21-.69-.2-.02,0-.15.13-.35.36-.21.23-.5.51-.86.83-.36.32-.79.64-1.27.94-.47.29-1,.51-1.55.65.04.44-.02.93-.17,1.48-.15.54-.38,1.17-.66,1.88-.29.72-.61,1.56-.97,2.52l-4.17,11.31c-.42,1.1-.79,2.11-1.13,2.99-.33.88-.64,1.69-.93,2.41-.29.73-.56,1.4-.82,2.01-.26.59-.54,1.05-.83,1.38-.29.32-.61.55-.94.68-.33.14-.68.22-1.05.26l-1.25.14c-.11.13-.18.31-.22.53-.03.22-.02.43.03.63.05.21.16.36.33.46.7,0,1.31-.01,1.84-.04.52-.02,1.01-.04,1.47-.06.46-.02.94-.04,1.46-.04.97.02,1.92.04,2.83.05.91.02,1.78.04,2.59.09.16-.09.25-.24.29-.45.04-.21.04-.44,0-.66-.04-.22-.11-.39-.2-.51l-1.39-.23c-.63-.11-1.07-.24-1.32-.38-.24-.13-.35-.27-.35-.41,0-.17.02-.38.06-.63.04-.24.13-.58.26-1.04l1.71-5.37c.08-.29.18-.5.27-.63.1-.13.24-.22.43-.25.18-.04.46-.05.83-.05h5.19ZM538.2,179.74c0,.8-.02,1.45-.05,1.94-.04.49-.12.87-.23,1.12-.12.26-.29.43-.52.54-.22.1-.53.16-.91.19l-.88.09c-.12.1-.21.27-.25.48-.04.22-.03.44.02.66.05.21.14.38.28.48.82-.05,1.7-.09,2.64-.1.94-.02,1.91-.04,2.92-.04s2.05.01,2.99.04c.94.01,1.8.05,2.57.1.14-.1.23-.26.28-.48.05-.22.05-.44.02-.66-.04-.22-.12-.38-.25-.48l-.79-.09c-.4-.04-.73-.11-.96-.22-.25-.1-.42-.28-.55-.53-.12-.25-.2-.63-.24-1.11-.04-.49-.05-1.13-.05-1.94v-20.66c0-.97,0-1.85.02-2.64,0-.78.02-1.51.05-2.18.02-.67.05-1.32.08-1.95-.1-.11-.22-.2-.36-.24-.14-.06-.29-.08-.42-.08-.78.34-1.59.69-2.42,1.02-.83.34-1.65.65-2.46.92-.8.28-1.54.49-2.21.66-.11.1-.18.24-.22.42-.04.18-.04.37,0,.55.04.18.11.32.22.42l.79.46c.3.18.52.37.66.59.13.22.21.5.24.86.02.36.04.85.03,1.46v20.38ZM525.69,180.48c0,.48-.06.89-.16,1.23-.1.34-.27.59-.52.77-.26.18-.62.27-1.09.27-.44,0-.83-.14-1.19-.39-.35-.25-.64-.59-.85-1-.21-.42-.32-.88-.33-1.38,0-.72.19-1.31.55-1.74.35-.45.82-.79,1.41-1.02.59-.23,1.23-.39,1.94-.48.16-.03.26,0,.3.12.05.11.06.35.02.71l-.09,2.92ZM531.66,172.65c.07-1.58-.12-2.87-.57-3.86-.45-.99-1.13-1.71-2.04-2.18-.91-.46-2.02-.69-3.32-.68-1.1.02-2.15.16-3.13.46-.99.29-1.88.65-2.67,1.08-.79.43-1.45.86-1.98,1.29-.38.3-.73.65-1.07,1.05-.33.39-.61.82-.82,1.25-.22.44-.32.86-.33,1.26,0,.33.08.6.24.82.16.22.44.33.83.34.29,0,.65-.06,1.08-.16.43-.11.85-.24,1.27-.4.42-.16.74-.33.99-.5.21-.15.38-.35.52-.59.13-.23.22-.53.27-.89.11-.66.29-1.18.53-1.57.23-.39.51-.66.83-.83.33-.16.68-.25,1.05-.24.49,0,.92.13,1.26.37.35.25.63.57.83.96.21.4.36.83.46,1.29.09.46.14.92.14,1.37,0,.28,0,.55-.03.8-.02.26-.04.52-.06.77-.02.19-.1.36-.26.52-.15.15-.44.29-.85.41-.64.18-1.3.37-2,.58-.7.2-1.48.44-2.35.72-1.68.5-2.9,1.13-3.67,1.91-.77.77-1.15,1.74-1.14,2.91,0,.81.16,1.52.43,2.13.29.6.67,1.11,1.16,1.51.49.41,1.04.71,1.65.92.62.2,1.27.3,1.95.3.57,0,1.1-.09,1.6-.25.49-.16.93-.36,1.33-.59.39-.22.73-.44,1.01-.65.23-.16.42-.29.57-.38.16-.09.29-.13.4-.13s.22.02.34.08c.11.06.25.15.4.29.41.35.81.66,1.2.9.39.24.8.42,1.24.54.43.12.92.18,1.45.18.66,0,1.29-.1,1.88-.29.59-.19,1.12-.42,1.59-.69.48-.27.88-.55,1.21-.83.32-.28.56-.51.7-.7.06-.22.04-.44-.07-.66-.11-.22-.27-.35-.49-.41-.36.21-.68.35-.95.43-.27.09-.54.13-.81.13-.33,0-.65-.1-1-.33-.34-.23-.62-.64-.83-1.22-.22-.58-.3-1.39-.25-2.43l.32-6.12ZM510.77,170.57c0-.86.02-1.66.05-2.37.03-.71.06-1.28.09-1.71-.03-.16-.09-.3-.18-.4-.09-.1-.18-.16-.28-.16-.1,0-.3.05-.62.14-.31.09-.69.19-1.16.31-.46.11-.97.21-1.51.29-.74.09-1.52.19-2.34.26-.81.08-1.64.15-2.48.2-.19.07-.32.22-.39.43-.08.22-.1.43-.08.66.03.23.11.41.23.52l.65.09c.55.07.97.19,1.26.34.29.15.49.4.59.74.11.34.15.81.15,1.42v8.76c0,.16-.02.33-.06.52-.04.19-.09.36-.17.51-.08.16-.17.28-.28.36-.13.1-.29.22-.5.36-.21.13-.47.25-.79.36-.32.11-.69.16-1.12.17-.73,0-1.32-.12-1.77-.34-.44-.22-.77-.53-.99-.91-.22-.38-.36-.83-.43-1.33-.08-.5-.11-1.03-.1-1.59v-7.64c0-.83,0-1.57.03-2.23.02-.66.06-1.27.11-1.84-.02-.12-.09-.25-.19-.36-.1-.12-.23-.18-.36-.19-.07,0-.25.05-.53.16-.29.09-.63.2-1.05.32-.42.12-.86.22-1.34.31-.68.11-1.41.21-2.18.28-.77.07-1.54.12-2.32.14-.16.12-.26.27-.32.47-.06.2-.09.41-.06.62.02.21.09.39.2.53l.6.19c.28.08.51.16.69.26.18.1.32.25.42.44.1.2.18.48.22.85.05.36.06.85.06,1.46v7.88c0,1.31.18,2.41.55,3.29.38.88.96,1.53,1.76,1.97.79.44,1.84.66,3.11.66.95,0,1.78-.12,2.51-.32.73-.21,1.39-.48,1.99-.82.61-.33,1.21-.69,1.8-1.09.15,0,.26.05.36.13.09.08.15.19.15.33,0,.19,0,.45-.03.77-.02.31-.06.61-.11.9.02.14.09.26.18.36s.22.17.38.19c.04,0,.29-.09.76-.23.46-.15,1.09-.33,1.88-.53.79-.2,1.69-.39,2.7-.56,1.01-.17,2.09-.29,3.23-.34.15-.07.26-.2.33-.39.08-.2.12-.42.12-.66,0-.23-.02-.44-.08-.62-.05-.18-.13-.28-.24-.32-.28.1-.59.18-.91.25-.33.08-.63.12-.94.12-.36,0-.64-.14-.82-.42-.18-.27-.3-.7-.35-1.28-.05-.59-.09-1.33-.08-2.24v-8.43ZM488.39,169.09c.15-.1.27-.24.36-.43.08-.19.15-.39.18-.6.04-.22.05-.41.05-.59,0-.21-.03-.38-.1-.52-.06-.15-.15-.26-.27-.35h-4.12c-.27,0-.47,0-.6-.05-.12-.03-.2-.11-.23-.25-.04-.13-.05-.35-.05-.63v-3.48c-.09-.12-.22-.21-.4-.26-.18-.06-.35-.09-.54-.08-.19,0-.34.05-.46.11-.48.67-.93,1.24-1.34,1.71-.42.46-.8.85-1.14,1.16-.35.3-.66.56-.94.75-.56.38-1.16.76-1.8,1.13-.65.38-1.33.69-2.05.96-.12.12-.19.28-.21.47,0,.2.02.39.11.58.09.19.21.32.38.39h1.44c.27,0,.47.01.6.06.12.04.2.14.24.3.03.15.05.39.04.71v10.33c0,1.03.16,1.94.49,2.73.33.79.88,1.41,1.64,1.87.76.45,1.78.68,3.06.69.97,0,1.87-.14,2.72-.39.85-.26,1.61-.58,2.28-.99.67-.4,1.23-.84,1.67-1.31.04-.29,0-.54-.12-.76-.12-.22-.3-.37-.53-.45-.29.19-.59.36-.94.49-.34.13-.67.2-1,.21-.8,0-1.43-.17-1.88-.49-.45-.32-.76-.74-.97-1.28-.19-.53-.31-1.11-.35-1.76-.05-.64-.06-1.29-.05-1.95v-6.95c0-.33,0-.58.03-.73.03-.15.09-.25.18-.29.09-.04.23-.05.43-.04h4.17ZM470.61,170.57c0-.86.02-1.66.05-2.37.03-.71.06-1.28.09-1.71-.03-.16-.09-.3-.18-.4-.09-.1-.19-.16-.29-.16-.1,0-.3.05-.62.14-.31.09-.7.19-1.16.31-.46.11-.97.21-1.51.29-.74.09-1.52.19-2.34.26-.81.08-1.64.15-2.48.2-.19.07-.32.22-.39.43-.08.22-.1.43-.08.66.03.23.11.41.23.52l.65.09c.55.07.97.19,1.26.34.28.15.49.4.59.74.11.34.16.81.15,1.42v8.76c0,.16-.02.33-.06.52-.04.19-.09.36-.17.51-.08.16-.17.28-.28.36-.12.1-.29.22-.5.36-.21.13-.47.25-.79.36-.32.11-.69.16-1.12.17-.73,0-1.32-.12-1.77-.34-.44-.22-.77-.53-.99-.91-.22-.38-.36-.83-.43-1.33-.08-.5-.11-1.03-.1-1.59v-7.64c0-.83,0-1.57.03-2.23.02-.66.06-1.27.11-1.84-.02-.12-.09-.25-.19-.36-.1-.12-.22-.18-.36-.19-.07,0-.25.05-.53.16-.29.09-.63.2-1.05.32-.42.12-.86.22-1.34.31-.68.11-1.4.21-2.18.28-.77.07-1.54.12-2.32.14-.16.12-.26.27-.32.47-.06.2-.09.41-.06.62.02.21.09.39.2.53l.6.19c.28.08.51.16.69.26.18.1.32.25.43.44.1.2.18.48.22.85.05.36.06.85.06,1.46v7.88c0,1.31.18,2.41.55,3.29.38.88.96,1.53,1.76,1.97.79.44,1.84.66,3.11.66.95,0,1.78-.12,2.51-.32.73-.21,1.39-.48,1.99-.82.61-.33,1.2-.69,1.8-1.09.15,0,.26.05.36.13.09.08.15.19.15.33,0,.19,0,.45-.03.77-.02.31-.06.61-.11.9.02.14.08.26.18.36.09.1.22.17.38.19.05,0,.29-.09.76-.23.46-.15,1.09-.33,1.88-.53.79-.2,1.69-.39,2.7-.56,1.01-.17,2.09-.29,3.23-.34.15-.07.26-.2.33-.39.08-.2.12-.42.13-.66,0-.23-.02-.44-.08-.62-.05-.18-.13-.28-.24-.32-.29.1-.59.18-.91.25-.33.08-.63.12-.94.12-.36,0-.64-.14-.82-.42-.18-.27-.3-.7-.36-1.28-.05-.59-.08-1.33-.08-2.24v-8.43ZM410.98,156.21c.62.1,1.14.26,1.57.5.42.24.75.61.97,1.1.22.5.33,1.18.33,2.06s-.02,1.79-.04,2.85c-.03,1.05-.07,2.14-.12,3.26-.05,1.12-.11,2.2-.17,3.25-.09,1.47-.18,2.89-.26,4.22-.08,1.34-.17,2.57-.25,3.67-.08,1.11-.15,2.04-.23,2.8-.06.71-.14,1.28-.21,1.71-.09.43-.22.76-.39.99-.17.24-.43.42-.78.53-.34.13-.8.23-1.39.33l-.83.14c-.14.09-.23.25-.27.48-.04.23-.02.46.05.69.08.22.21.37.41.45.93-.05,1.85-.09,2.76-.1.9-.02,1.73-.04,2.48-.04.89,0,1.81.01,2.75.04.94.01,1.85.05,2.72.1.12-.09.22-.24.27-.45.05-.21.07-.44.05-.66-.02-.22-.1-.39-.22-.51l-1.81-.28c-.61-.08-1.06-.23-1.37-.45-.31-.22-.52-.55-.62-.99-.1-.44-.15-1.04-.14-1.81,0-.7,0-1.5,0-2.38,0-.88.01-1.8.02-2.75,0-.95.01-1.88.03-2.79,0-.91.02-1.75.03-2.51.02-.79.04-1.55.06-2.28.03-.73.06-1.48.11-2.27.04-.8.09-1.69.15-2.68h.09c.44,1.01.94,2.15,1.51,3.4.56,1.25,1.17,2.58,1.81,3.97.64,1.4,1.28,2.81,1.93,4.25.65,1.44,1.27,2.85,1.87,4.22.59,1.38,1.14,2.69,1.61,3.91.48,1.22.87,2.32,1.18,3.28.15.1.33.16.55.21.22.05.44.07.66.07.18,0,.35-.03.52-.09.15-.06.29-.14.41-.23,1.03-2.61,2.11-5.21,3.24-7.79,1.13-2.58,2.29-5.14,3.47-7.67,1.17-2.54,2.33-5.04,3.48-7.51h.09v5.28l.09,12.04c0,.7,0,1.28-.03,1.72-.03.46-.11.8-.23,1.07-.13.25-.34.45-.63.58-.29.13-.71.23-1.24.29l-1.39.18c-.15.12-.25.29-.29.51-.04.22-.02.45.05.66.07.21.2.36.39.45.75-.03,1.51-.05,2.3-.08.8-.02,1.58-.04,2.35-.05.77,0,1.51-.01,2.21-.01,1.13,0,2.21.01,3.25.04,1.04.01,2.08.05,3.14.1.15-.07.26-.21.32-.42.05-.21.06-.43.02-.66-.04-.22-.12-.41-.25-.54l-1.48-.18c-.59-.08-1.03-.26-1.32-.53-.29-.28-.49-.66-.59-1.14-.09-.49-.15-1.09-.18-1.8-.05-1.16-.1-2.31-.15-3.44-.04-1.13-.08-2.31-.1-3.51-.03-1.2-.05-2.47-.07-3.82-.02-1.34-.03-2.81-.04-4.39,0-1.58-.01-3.33-.01-5.23,0-.81.1-1.44.31-1.88.21-.45.53-.78.94-.99.42-.21.94-.36,1.58-.46l1.34-.23c.12-.16.21-.35.24-.56.04-.22.03-.42-.03-.62-.06-.19-.18-.34-.35-.44-.56.03-1.16.05-1.78.08-.62.02-1.24.04-1.85.05-.61,0-1.17.02-1.69.02-.46,0-.93,0-1.43,0-.49,0-1.03,0-1.61-.03-.57-.01-1.21-.05-1.92-.11-.25.98-.51,1.89-.78,2.72-.27.83-.57,1.65-.9,2.46-.33.8-.7,1.68-1.13,2.59-.42.93-.9,1.98-1.46,3.17l-2.36,5.1c-.42.9-.78,1.68-1.1,2.34-.32.65-.59,1.21-.83,1.68-.25.48-.46.89-.66,1.26-.17-.3-.37-.66-.6-1.1-.24-.43-.49-.89-.73-1.35-.25-.47-.48-.91-.69-1.31-.21-.4-.37-.72-.48-.97l-3.06-6.53c-.69-1.44-1.31-2.74-1.85-3.91-.55-1.16-.99-2.24-1.31-3.24-.33-1-.49-1.96-.5-2.91-.83.07-1.6.11-2.32.12-.73.02-1.46.02-2.22.02-1.13,0-2.2,0-3.18-.04-.98-.02-1.87-.05-2.66-.1-.17.05-.29.19-.35.4-.05.21-.07.43-.03.66.04.24.12.42.24.55l1.02.19Z"/>
  <path class="st0" d="M706.78,168.07c.66,0,1.24.23,1.73.68.49.44.9,1.05,1.24,1.83.33.77.58,1.66.75,2.67.17,1,.26,2.07.27,3.2.02,1.39-.08,2.64-.29,3.71-.22,1.07-.58,1.92-1.1,2.53-.52.61-1.21.93-2.08.93-.67,0-1.27-.21-1.79-.63-.53-.42-.97-1-1.33-1.76-.36-.76-.63-1.64-.82-2.67-.18-1.02-.28-2.15-.28-3.37,0-1.68.18-3.04.51-4.09.33-1.06.77-1.82,1.33-2.32.56-.49,1.18-.73,1.87-.72M706.78,185.77c1.44,0,2.8-.2,4.07-.6,1.27-.41,2.41-1.02,3.4-1.84.99-.82,1.76-1.85,2.32-3.1.56-1.25.86-2.72.86-4.41,0-1.64-.29-3.06-.85-4.3-.56-1.23-1.32-2.25-2.29-3.08-.97-.83-2.08-1.45-3.31-1.86-1.24-.42-2.55-.63-3.93-.63-1.1,0-2.17.15-3.21.43-1.04.29-2.01.72-2.91,1.28-.9.57-1.7,1.26-2.38,2.09-.68.83-1.21,1.79-1.59,2.87-.38,1.08-.56,2.29-.56,3.62.02,1.6.31,3,.86,4.18.56,1.19,1.31,2.19,2.28,2.98.96.79,2.05,1.39,3.3,1.78,1.24.39,2.55.6,3.94.6ZM694.41,169.09c.16-.1.27-.24.36-.43.08-.19.15-.39.18-.6.04-.22.05-.41.05-.59,0-.21-.03-.38-.1-.52-.06-.15-.15-.26-.27-.35h-4.12c-.27,0-.47,0-.6-.05-.12-.03-.2-.11-.23-.25-.04-.13-.05-.35-.05-.63v-3.48c-.08-.12-.22-.21-.39-.26-.18-.06-.35-.09-.54-.08-.19,0-.34.05-.46.11-.48.67-.93,1.24-1.34,1.71-.42.46-.79.85-1.14,1.16-.35.3-.66.56-.94.75-.55.38-1.16.76-1.8,1.13-.65.38-1.33.69-2.05.96-.12.12-.19.28-.21.47,0,.2.02.39.11.58.09.19.21.32.38.39h1.44c.27,0,.47.01.6.06.12.04.2.14.24.3.03.15.05.39.04.71v10.33c0,1.03.15,1.94.49,2.73.33.79.88,1.41,1.64,1.87.76.45,1.78.68,3.06.69.96,0,1.87-.14,2.72-.39.85-.26,1.61-.58,2.29-.99.67-.4,1.23-.84,1.67-1.31.04-.29,0-.54-.12-.76-.12-.22-.3-.37-.53-.45-.29.19-.59.36-.94.49-.34.13-.67.2-1,.21-.8,0-1.43-.17-1.88-.49-.45-.32-.76-.74-.96-1.28-.19-.53-.31-1.11-.35-1.76-.05-.64-.06-1.29-.05-1.95v-6.95c0-.33,0-.58.03-.73.03-.15.08-.25.18-.29.09-.04.23-.05.43-.04h4.17ZM673.79,155.51c-.63,0-1.21.15-1.72.42-.52.28-.94.67-1.27,1.18-.32.5-.48,1.1-.49,1.78,0,.64.13,1.21.39,1.7.25.49.63.88,1.11,1.16.48.28,1.07.42,1.75.43.59,0,1.16-.13,1.68-.39.52-.25.95-.63,1.28-1.13.33-.5.5-1.12.51-1.86,0-.63-.14-1.18-.41-1.68-.27-.49-.64-.89-1.13-1.17-.49-.29-1.05-.43-1.71-.44ZM676.66,171.22c0-1.06,0-2.06.03-3.02.02-.96.06-1.79.11-2.49-.18-.28-.46-.42-.83-.42-.35.21-.8.44-1.35.69-.55.25-1.14.49-1.78.74-.64.25-1.28.49-1.93.7-.64.21-1.24.4-1.79.55-.11.1-.18.24-.22.43-.04.18-.04.36,0,.54.04.18.11.32.22.42l.65.42c.28.17.49.38.62.6.12.22.2.52.23.9.02.37.04.86.03,1.47v7c0,.8-.01,1.45-.05,1.94-.04.49-.12.87-.23,1.12-.12.26-.29.43-.52.54-.22.1-.53.16-.91.19l-.88.09c-.12.1-.21.27-.25.48-.04.22-.03.44.01.66.05.21.14.38.28.48.77-.05,1.63-.09,2.57-.1.94-.02,1.94-.04,2.99-.04s2.05.01,2.97.04c.92.01,1.78.05,2.59.1.14-.1.23-.26.28-.48.05-.22.05-.44.01-.66-.04-.22-.12-.38-.25-.48l-.88-.09c-.38-.03-.68-.09-.91-.19-.23-.11-.4-.28-.52-.54-.12-.25-.19-.63-.23-1.12-.04-.49-.06-1.14-.06-1.94v-8.52ZM645.58,168.21c.49.07.88.22,1.18.46.31.23.58.58.82,1.04.23.45.49,1.06.78,1.79l4.45,11.21c.25.62.43,1.16.56,1.59.13.43.22.79.26,1.07.04.29.06.53.06.73,0,.29-.08.62-.22.97-.14.36-.29.69-.43.97-.22.49-.45.95-.66,1.38-.21.42-.44.82-.69,1.17-.22.3-.52.54-.89.71-.37.17-.83.26-1.38.26h-1.11c-.54,0-1.01.11-1.41.32-.39.21-.7.49-.91.85-.22.36-.33.78-.33,1.24,0,.43.06.86.22,1.29.15.42.44.78.87,1.06.42.29,1.05.43,1.88.43.86-.01,1.61-.27,2.27-.76.66-.5,1.23-1.26,1.71-2.29.34-.7.75-1.54,1.22-2.52.47-.97.97-2.02,1.51-3.14.54-1.11,1.07-2.23,1.61-3.34.54-1.11,1.04-2.15,1.51-3.12.47-.97.86-1.79,1.2-2.47l2.46-5.05c.35-.72.69-1.4,1.04-2.05.35-.64.66-1.21.97-1.7.29-.49.53-.86.73-1.12.22-.28.5-.51.87-.69.37-.17.79-.28,1.26-.33l.88-.09c.14-.11.22-.27.26-.5.04-.23.03-.46-.03-.68-.06-.23-.17-.37-.32-.44-1.21.09-2.41.14-3.61.14-1.04,0-1.91-.02-2.65-.04-.73-.02-1.34-.05-1.84-.1-.17.05-.29.19-.35.41-.07.22-.09.44-.05.68.04.23.13.41.26.53l.93.19c.29.04.52.12.72.24.19.11.29.25.3.41,0,.18-.08.49-.22.94-.15.46-.35,1-.61,1.64-.26.65-.55,1.34-.88,2.09l-.83,1.9c-.23.51-.46,1.03-.7,1.55-.23.52-.48,1.03-.73,1.51-.14-.3-.3-.67-.49-1.14-.18-.46-.38-.94-.57-1.45-.2-.52-.39-1.01-.56-1.48-.18-.48-.33-.88-.46-1.21-.44-1.17-.79-2.09-1.03-2.74-.24-.66-.36-1.12-.36-1.38,0-.14.01-.25.07-.35.06-.09.19-.19.39-.27.2-.08.51-.16.93-.25l.93-.19c.12-.12.2-.29.23-.52.03-.23.01-.45-.05-.66-.06-.22-.17-.36-.32-.43-.86.05-1.72.08-2.6.1-.87.02-1.74.04-2.59.04-1.22,0-2.34-.02-3.35-.04-1.01-.02-1.93-.05-2.76-.1-.15.07-.25.21-.32.43-.05.22-.06.43-.03.66.03.23.1.41.21.52l.83.14ZM633.49,168.07c.66,0,1.23.23,1.73.68.49.44.9,1.05,1.23,1.83.33.77.58,1.66.75,2.67.17,1,.26,2.07.27,3.2.02,1.39-.08,2.64-.29,3.71-.22,1.07-.58,1.92-1.1,2.53-.52.61-1.21.93-2.08.93-.67,0-1.27-.21-1.79-.63-.52-.42-.96-1-1.33-1.76-.36-.76-.63-1.64-.82-2.67-.19-1.02-.28-2.15-.28-3.37,0-1.68.18-3.04.51-4.09.33-1.06.77-1.82,1.33-2.32.56-.49,1.18-.73,1.87-.72ZM633.49,185.77c1.43,0,2.79-.2,4.07-.6,1.27-.41,2.41-1.02,3.4-1.84.99-.82,1.76-1.85,2.32-3.1.56-1.25.86-2.72.86-4.41,0-1.64-.29-3.06-.85-4.3-.56-1.23-1.32-2.25-2.29-3.08-.97-.83-2.08-1.45-3.31-1.86-1.24-.42-2.55-.63-3.93-.63-1.1,0-2.17.15-3.21.43-1.04.29-2.02.72-2.91,1.28-.9.57-1.7,1.26-2.38,2.09-.68.83-1.21,1.79-1.59,2.87-.38,1.08-.56,2.29-.56,3.62.02,1.6.31,3,.86,4.18.56,1.19,1.31,2.19,2.28,2.98.96.79,2.06,1.39,3.3,1.78,1.24.39,2.55.6,3.94.6ZM608.66,179.84c0,.8-.01,1.45-.05,1.95-.04.49-.12.87-.23,1.12-.12.25-.29.43-.52.54-.22.1-.53.16-.91.19l-.88.09c-.12.1-.21.26-.25.48-.04.22-.03.44.01.66.05.22.14.38.28.48.52-.03,1.07-.05,1.67-.08.6-.02,1.23-.04,1.87-.05.65,0,1.29-.01,1.92-.01.72,0,1.42,0,2.09.01.68,0,1.36.02,2.04.05.68.02,1.39.05,2.12.08.14-.1.23-.26.28-.48.05-.22.05-.44.01-.66-.04-.22-.12-.38-.25-.48l-1.48-.14c-.38-.03-.68-.09-.91-.19-.23-.1-.4-.28-.52-.52-.11-.26-.19-.62-.23-1.11-.04-.49-.05-1.13-.05-1.94v-7.13c0-.89.06-1.57.19-2.06.14-.48.37-.72.69-.72.09,0,.2,0,.34.05.15.03.33.12.56.25.22.13.51.35.86.63.3.28.59.49.89.63.29.14.59.21.92.21.5,0,.98-.1,1.43-.31.45-.21.81-.53,1.1-.97.28-.45.43-1.02.44-1.73,0-.58-.14-1.09-.39-1.49-.25-.41-.56-.72-.94-.93-.39-.21-.8-.32-1.22-.32-.49,0-.93.09-1.35.25-.42.15-.81.36-1.18.61-.36.25-.71.5-1.04.76-.33.26-.66.49-.97.69-.18-.05-.31-.11-.37-.19-.07-.09-.1-.21-.09-.36,0-.21.02-.48.05-.8.04-.33.09-.73.13-1.19-.18-.28-.46-.42-.83-.42-.36.23-.82.48-1.37.74-.54.26-1.13.52-1.75.77-.63.26-1.26.49-1.89.71-.63.22-1.21.4-1.75.56-.11.1-.18.24-.22.42-.04.18-.04.36,0,.54.04.19.11.32.22.42l.65.42c.29.18.49.38.62.6.12.22.2.52.23.9.02.37.04.86.03,1.47v7Z"/>
</svg>