<?xml version="1.0" encoding="UTF-8"?>
<svg id="Capa_01" xmlns="http://www.w3.org/2000/svg" version="1.1" viewBox="0 0 950.29 434.96">
  <!-- Generator: Adobe Illustrator 30.5.1, SVG Export Plug-In . SVG Version: 2.1.4 Build 3)  -->
  <defs>
    <style>
      .st0 {
        fill: #fff;
      }
    </style>
  </defs>
  <path class="st0" d="M286.45,96.66c1.08.87,2.41.91,3.7-.68l2.72-3.35,17.22,13.95c1.33,1.08,2.98.79,3.9-.35.92-1.14.86-2.81-.46-3.89l-17.22-13.95,2.72-3.35c1.28-1.58.97-2.88-.1-3.75s-2.41-.91-3.69.68l-8.87,10.95c-1.28,1.58-.97,2.88.1,3.75h-.02Z"/>
  <path class="st0" d="M322.49,92.01c1.19,1.22,2.87,1.13,3.92.1,1.05-1.02,1.18-2.69-.01-3.92l-7.34-7.52,1.69-1.65c1.52-1.48,2.96-1.46,4.44-.06l5.41,5.19c1.4,1.31,2.87,1.07,4.33-.35,1.31-1.28,1.24-2.46.64-3.08-1.03-1.05-2.31-1.84-3.45-3.01l-2.19-2.24c-2.39-2.45-3.99-3.39-6.77-2.1,1.07-2.47.6-4.46-2.1-7.23-2.9-2.97-6.46-4.23-9.99-.78l-5.36,5.24c-1.43,1.39-1.47,2.69-.05,4.15l16.85,17.26h-.02ZM312.07,70.13c1.87-1.82,3.36-1.57,5.41.53,2.22,2.27,1.8,4.06.22,5.59l-1.52,1.48-5.81-5.95,1.69-1.65h0Z"/>
  <path class="st0" d="M328.7,47.56c.45-.35.66-.82.76-1.41l.73-4.32c.12-.71.11-1.53-.34-2.11-.67-.87-1.81-.82-2.49-.29-.52.4-.76.69-.86,1.49l-.6,4.84c-.07.51.04,1.05.34,1.44.62.81,1.61,1.02,2.45.38v-.02h0Z"/>
  <path class="st0" d="M329,53.96l9.28,20.59c.34.77.81,1.59,1.11,1.97.87,1.13,2.18,1.3,3.48.3,1.39-1.07,1.52-2.1.69-3.78l-2.36-4.87,5.33-4.11,3.32,2.9c2.09,1.84,3.2,2.01,4.78.79,1.07-.82,1.71-2.19.59-3.64-.27-.35-.98-.94-1.69-1.53l-17.41-14.11c-2.36-1.93-3.7-1.99-5.89-.3-2.42,1.87-2.48,2.99-1.21,5.77l-.02.02h0ZM333.86,52.99l9.34,8.18-3.94,3.04-5.47-11.17.06-.05h.01Z"/>
  <path class="st0" d="M360.32,60.37c.87,1.47,2.52,1.78,3.78,1.03s1.79-2.34.92-3.81l-8.28-14,.07-.04,13.88,10.73c1.93,1.51,2.99,1.45,4.92.31,1.26-.75,1.79-2.34.79-4.02l-12.5-21.12c-.87-1.47-2.52-1.78-3.78-1.03s-1.79,2.34-.92,3.81l8.16,13.79-.07.04-13.76-10.52c-2.05-1.54-3.2-1.33-4.67-.45-1.65.97-2.03,2.48-1.16,3.96l12.62,21.33h0Z"/>
  <path class="st0" d="M381.43,34.18l6.3,1.29c2.4.5,3.49,1.05,4.29,2.88.75,1.72.44,3.55-1.54,4.41-2.02.88-3.53-.23-4.44-2.01-1.2-2.32-2.32-2.85-3.89-2.17-2.13.93-1.83,2.72-1.05,4.51.57,1.31,3.95,6.77,10.52,3.89,5.75-2.52,7.23-6.64,5.2-11.27-1.72-3.92-4.21-5.14-7.72-5.74l-4.76-.81c-3.18-.56-3.9-1.58-4.44-2.82-.7-1.61,0-3.07,1.52-3.74,1.42-.62,2.74-.45,3.78,1.32,1.06,1.81,1.77,2.61,3.78,1.72,1.42-.62,2.09-1.94,1.35-3.62-1.21-2.76-4.79-5.95-10.39-3.5-4.25,1.87-6.91,5.75-4.84,10.49,1.2,2.73,2.88,4.43,6.31,5.15l.02.02h0Z"/>
  <path class="st0" d="M406.25,37.98c.54,1.62,2.09,2.27,3.48,1.8,1.39-.46,2.24-1.91,1.7-3.53l-7.83-23.5c-.54-1.62-2.09-2.27-3.48-1.8-1.39.46-2.24,1.91-1.7,3.53l7.83,23.5Z"/>
  <path class="st0" d="M415.71,11.83l4.21-.98,5.02,21.59c.39,1.67,1.87,2.45,3.3,2.12s2.41-1.69,2.02-3.36l-5.02-21.59,4.21-.98c1.98-.46,2.54-1.68,2.22-3.03-.31-1.35-1.35-2.2-3.33-1.73l-13.73,3.19c-1.98.46-2.54,1.68-2.22,3.03.31,1.35,1.35,2.2,3.33,1.74h0Z"/>
  <path class="st0" d="M441.58,19.22c1.24,10.97,5.3,11.99,10.32,11.42,5.02-.57,8.74-2.47,7.5-13.44l-.7-6.15c-1.21-10.69-5.73-11.45-10.26-10.93-4.53.52-8.76,2.27-7.55,12.95l.7,6.15s-.01,0-.01,0ZM448.92,4.41c2.15-.24,3.39,1.01,4.11,7.28l.7,6.15c.81,7.12-.13,8.26-2.32,8.5s-3.35-.64-4.16-7.77l-.7-6.15c-.71-6.28.23-7.78,2.37-8.02h0Z"/>
  <path class="st0" d="M512.09,32.5c5.22.92,9.17-.87,10.23-6.89.34-1.93-.33-3.33-2.17-3.65-2.25-.4-2.93.68-3.67,3.91-.37,1.63-1.84,2.7-3.21,2.46-3.33-.59-2.87-4.15-1.66-11.05l.28-1.61c1.52-8.63,2.91-9.5,5.36-9.07,1.4.25,2.04,1.31,1.97,3.37-.1,2.46.23,3.39,2.32,3.76,2.05.36,2.96-.85,3.29-2.73.7-3.97-1.5-7.71-6.84-8.65-6.46-1.14-9.79,1.3-11.58,11.49l-.8,4.58c-.99,5.62-1.97,12.61,6.46,14.09h.02Z"/>
  <path class="st0" d="M543.25,7c.55.16,1.05.06,1.59-.21l3.94-1.93c.65-.32,1.3-.8,1.51-1.51.31-1.05-.4-1.95-1.22-2.19-.62-.19-1-.21-1.71.17l-4.27,2.34c-.46.25-.83.65-.97,1.11-.29.98.11,1.91,1.13,2.21h0Z"/>
  <path class="st0" d="M535.15,37.97c4.84,1.44,9.01,1.16,12.17-9.43l1.77-5.94c3.08-10.31-.78-12.78-5.15-14.08s-8.95-1.35-12.03,8.96l-1.77,5.94c-3.16,10.58.17,13.11,5.01,14.55h0ZM535.61,25.05l1.77-5.94c1.81-6.05,3.26-7.07,5.33-6.45s2.73,2.26.92,8.31l-1.77,5.94c-2.05,6.87-3.36,7.55-5.47,6.92-2.11-.63-2.83-1.91-.78-8.78Z"/>
  <path class="st0" d="M553.02,43.96c1.35.58,2.94.08,3.62-1.49l4.18-9.65,2.17.94c1.94.84,2.48,2.18,1.74,4.08l-2.76,6.98c-.69,1.79.1,3.06,1.97,3.87,1.68.73,2.75.21,3.09-.57.58-1.35.83-2.84,1.48-4.33l1.25-2.88c1.36-3.14,1.62-4.98-.63-7.06,2.69.05,4.35-1.13,5.89-4.69,1.65-3.82,1.46-7.58-3.06-9.54l-6.88-2.98c-1.83-.79-3.05-.34-3.86,1.53l-9.59,22.14c-.68,1.57.04,3.08,1.39,3.67v-.02h0ZM565.76,21.41l2.17.94c2.39,1.04,2.73,2.52,1.57,5.21-1.26,2.92-3.07,3.2-5.09,2.32l-1.94-.84,3.3-7.63h0Z"/>
  <path class="st0" d="M575.49,53.97l5.95,3.47c4.47,2.61,9.01.72,13.44-6.88l1.91-3.27c4.47-7.67,4.49-12.24-.37-15.07l-6.16-3.59c-1.73-1-2.99-.7-4.01,1.06l-11.82,20.28c-1.03,1.76-.67,3.01,1.06,4.01h0ZM590.27,33.63l2.32,1.35c2.92,1.7,2.3,4.22-.94,9.78l-1.19,2.04c-3.82,6.55-5.97,7.41-8.43,5.98l-2.18-1.27s10.42-17.88,10.42-17.88Z"/>
  <path class="st0" d="M600.64,71.14c4.03,3.04,8.04,4.23,14.69-4.58l3.73-4.94c6.48-8.58,3.73-12.24.09-14.99-3.64-2.75-7.91-4.39-14.39,4.19l-3.73,4.94c-6.65,8.81-4.41,12.34-.38,15.38,0,0-.01,0-.01,0ZM605.57,59.2l3.73-4.94c3.8-5.04,5.52-5.48,7.24-4.18s1.77,3.07-2.04,8.11l-3.73,4.94c-4.32,5.72-5.78,5.9-7.53,4.57-1.76-1.32-1.99-2.78,2.33-8.5Z"/>
  <path class="st0" d="M615.79,82.71l5.09,4.87c4.06,3.89,8.46,2.12,11.76-1.33,2.14-2.24,3.21-4.6,1.79-7.48,1.89.79,4.38-.16,6.38-2.25,3.15-3.3,3.97-6.69.56-9.96l-5.3-5.07c-1.44-1.38-2.74-1.38-4.15.09l-16.22,16.96c-1.41,1.47-1.35,2.77.09,4.15v.02h0ZM635.05,66.23l2.09,2c1.24,1.18,1.42,2.76-.5,4.77-1.86,1.94-3.58,2.15-5.2.61l-1.8-1.72,5.41-5.65h0ZM626.8,74.86l2.3,2.2c1.82,1.75.97,3.64-.66,5.35-2.22,2.33-4.15,2.74-5.62,1.33l-2.36-2.25,6.34-6.63h0Z"/>
  <path class="st0" d="M630.77,94.8c-1.09.91-1.21,2.23-.17,3.49,1.12,1.35,2.15,1.44,3.8.55l4.77-2.55,4.31,5.16-2.77,3.42c-1.76,2.15-1.89,3.27-.61,4.81.86,1.03,2.25,1.62,3.66.45.34-.29.9-1.02,1.46-1.75l13.43-17.93c1.84-2.44,1.85-3.77.07-5.9-1.96-2.35-3.08-2.36-5.81-.99l-20.21,10.06c-.76.37-1.55.87-1.93,1.18h0ZM654.01,88.31l.05.06-7.82,9.65-3.18-3.82,10.95-5.89Z"/>
  <circle class="st0" cx="482.48" cy="14.57" r="4.69"/>
  <path class="st0" d="M463.57,255.1c5.81,0,15.24-12.34,21.9-25.05,2.66-5.57-.12-8.83-6.9-8.83-9.2.12-17.06,10.65-19.36,18.88-2.06,7.38-1.09,15,4.36,15Z"/>
  <path class="st0" d="M289.1,226.06c0-3.39-2.06-4.84-5.44-4.84-8.23.12-14.04,10.89-16.58,17.42,7.86-.97,22.02-3.87,22.02-12.58Z"/>
  <path class="st0" d="M335.23,259.33c7.26-.12,14.88-10.41,17.79-16.82,3.99-8.47,6.77-21.3,0-21.3-6.9.12-18.39,12.95-21.54,24.81-.85,4.11-2.54,13.31,3.75,13.31Z"/>
  <path class="st0" d="M773.22,221.22c-7.26.12-14.88,10.65-17.91,17.06-3.87,8.59-5.08,21.05,1.57,21.05,7.26-.12,14.88-11.13,17.79-17.42,3.99-8.71,5.2-20.69-1.45-20.69h0Z"/>
  <path class="st0" d="M138.23,200.04c-10.89.12-22.26,16.09-25.89,25.53-6.78,17.67-5.93,31.7,4.11,31.7,2.3,0,4.6-.73,6.9-1.94-2.42-2.06-4.6-4.6-6.29-7.99-3.99-7.86,2.18-15.12,2.18-15.12,5.44,8.35,9.92,11.98,14.4,14.16,3.87-4.84,7.02-10.41,8.95-15.37,6.05-16.09,5.57-30.98-4.36-30.98h0Z"/>
  <path class="st0" d="M559.22,383.65c-.66-1.2-1.96-2.78-3.71-1.81-1.76.97-1.11,2.9-.44,4.1l.86,1.55c.84,1.52,1.98,2.76,3.71,1.81,1.73-.95,1.28-2.58.44-4.1l-.86-1.55Z"/>
  <path class="st0" d="M569.32,361.51c-1.55,1.17-.78,2.85,1.15,5.41,1.91,2.54,3.28,3.68,4.83,2.52,1.55-1.17.82-2.8-1.09-5.33-1.93-2.56-3.34-3.76-4.88-2.59h-.01Z"/>
  <path class="st0" d="M530.88,382.74c-1.81.69-1.55,2.52-.41,5.52,1.13,2.97,2.12,4.45,3.93,3.76s1.57-2.46.44-5.43c-1.14-3-2.16-4.55-3.97-3.86h0Z"/>
  <path class="st0" d="M454.94,391.82l-2.19-.28-2.18,16.84,2.06.27c2.32.3,3.67-1.04,4.47-7.21l.25-1.92c.68-5.24.34-7.34-2.41-7.69h0Z"/>
  <path class="st0" d="M554.33,375.2c-.74-1.35-1.8-2.63-3.44-1.73-1.32.73-1.29,2.16-.37,3.83.76,1.37,1.8,2.63,3.44,1.73,1.64-.91,1.12-2.46.36-3.83h.01Z"/>
  <path class="st0" d="M829.9,116.21h-197.09c-37.34-48.89-96.01-77.97-157.66-77.97s-120.32,29.08-157.66,77.97H120.39C54.01,116.21,0,170.22,0,236.6s54.01,120.39,120.39,120.39h197.1c37.34,48.89,96.01,77.97,157.66,77.97s120.32-29.08,157.66-77.97h197.09c66.39,0,120.39-54,120.39-120.39s-54.01-120.39-120.39-120.39ZM393.31,378.12l-1.69,2.61c-3.93,6.06-7.72,7.42-11.28,5.11l-4.74-3.07c-1.37-.89-1.62-1.93-.71-3.33l10.48-16.15c.91-1.4,1.95-1.6,3.33-.71l4.91,3.18c3.87,2.51,3.68,6.25-.29,12.36h-.01ZM360.4,208.88c14.76-.61,20.81,13.31,16.21,30.37s-23.59,32.43-45.5,32.43h-2.54c-14.28-.36-20.57-9.08-20.09-22.99.12-12.58,20.33-50.94,19.97-64.37,9.92.36,18.27,3.99,19.12,7.99.97,4.24-1.82,12.34-5.57,22.14,5.08-3.39,11.25-5.57,18.39-5.57h.01ZM437.54,165.52c2.31,8.3-3.26,19.86-12.61,20.49-8.09.63-16.29.21-27.01-.84-5.15-.42-8.62-3.47-8.51-9.25.11-10.93,21.12-45.61,21.86-68.83,8.62.32,16.92,3.36,16.92,6.83.21,16.71-15.24,43.4-18.91,59.48,12.29-2.31,27.74-9.46,28.27-7.88h-.01ZM393.72,208.76c9.92.36,18.03,3.63,19,7.62,3.75-4.72,8.23-7.5,13.79-7.5,7.99-.36,13.07,3.87,13.31,10.77.48,11.25-17.42,19.12-17.3,17.18,0,0,.48-9.8-6.05-9.8-9.8.24-19.84,35.21-16.94,42.59-12.1,4.84-22.75,2.54-22.63-8.35.12-12.58,17.06-39.08,16.82-52.51h0ZM516.88,174.66c3.15,1.47,6.09-.42,7.36-2.31,1.15-1.89,2.52-5.47-6.1-9.25-10.19-4.31-13.98-13.03-9.14-21.33,3.68-6.31,11.24-10.4,25.01-11.24,12.82-.84,19.86,4.41,17.13,11.87-2.94,7.78-13.24,7.25-13.14,6.3.63-4.1.42-8.41-5.78-8.72-2.94-.21-5.46.84-6.52,3.47-2,4.94,4.73,7.25,8.09,8.93,12.82,6.31,15.24,15.03,8.93,23.01-5.78,7.25-14.82,10.3-26.59,9.98-12.71-.32-22.28-6.2-17.97-14.92,3.89-7.78,15.87-6.31,15.66-5.36-.63,4.1-.74,7.88,3.05,9.56h.01ZM630.23,211.18c8.23-3.87,16.21-2.9,17.79,2.06,3.75,11.62-18.75,42.83-13.31,56.39-12.1,4.96-22.75,2.66-22.63-8.35.12-9.92,6.05-19.84,10.65-33.88,2.42-7.14-20.45,11.13-27.35,28.56-1.57,5.69-2.06,10.41-.73,13.67-12.1,4.84-22.75,2.54-22.63-8.35.12-12.58,23.11-50.09,23.96-76.83,9.92.36,19.48,3.03,19.48,7.86,0,10.04-4.48,22.63-9.44,35.09,8.11-7.99,16.82-12.83,24.2-16.21h0ZM735.34,211.78c2.54,3.99.12,11.74-5.93,12.34-3.03.36-13.91.81-16.33.81-.77,1.87,7.34,1.87,6.53,3.69-4.63,10.39-10.18,21.31-9.56,29.14.61,6.65,8.95,4.96,12.22,2.78.61-.24,1.69,1.21-.36,4.84-4.36,7.86-16.82,10.41-22.99,9.19-6.53-1.33-12.34-6.17-12.22-15.24.12-9.68,7.26-21.54,13.07-35.69-2.78,0-5.93.12-9.44.48-2.06-2.42.12-11.74,8.11-12.34,2.06-.12,3.99-.24,5.69-.24,1.94-6.17,3.27-12.83,3.51-19.84,9.92.36,19.36,3.87,19.48,7.87,0,4.48-.73,8.83-1.81,13.19,2.9,0,6.17-.36,10.04-.97h-.01ZM819.02,259.82c3.63,1.7,7.02-.48,8.47-2.66,1.33-2.18,2.9-6.29-7.02-10.65-11.74-4.96-16.09-15-10.53-24.56,4.24-7.26,12.95-11.98,28.8-12.95,14.76-.97,22.87,5.08,19.72,13.67-3.39,8.95-15.25,8.35-15.13,7.26.73-4.72.48-9.68-6.65-10.04-3.39-.24-6.29.97-7.5,3.99-2.3,5.69,5.44,8.35,9.32,10.28,14.76,7.26,17.55,17.3,10.28,26.5-6.65,8.35-17.06,11.86-30.61,11.49-14.64-.36-25.65-7.14-20.69-17.18,4.48-8.95,18.27-7.26,18.03-6.17-.73,4.72-.85,9.08,3.51,11.01h0ZM796.93,238.64c-4.6,17.06-22.26,33.03-44.16,33.03-16.09.85-24.2-12.71-19.6-29.89,4.6-17.3,22.38-32.91,44.16-32.91,15.37-.61,24.2,12.7,19.6,29.77h0ZM687.75,198.23c-4.6,5.93-11.5,7.74-17.18,4.48-5.81-3.39-6.41-9.56-1.82-15.49,4.6-5.93,11.49-7.74,17.3-4.36,5.69,3.27,6.29,9.44,1.69,15.37h.01ZM680.49,216.02c2.66,11.86-18.51,39.93-13.07,53.6-12.1,4.84-22.75,2.54-22.63-8.35.12-12.58,17.06-39.08,16.82-52.51,9.92.36,17.91,3.27,18.88,7.26h0ZM572.73,231.75c-4.11,8.59-19.72,8.71-19.6,7.62.73-4.72,5.69-18.15-1.69-18.15-7.26.12-14.04,8.95-16.82,15.25-5.32,12.22-1.21,20.57,10.41,20.57,9.92-.12,14.16-3.39,19.24-7.74,5.69,2.54-6.53,21.17-26.98,22.38-20.33,1.21-30.49-12.71-25.89-29.89,4.6-17.3,22.38-32.91,44.17-32.91,13.19-.48,23.11,10.53,17.18,22.87h-.02,0ZM498.17,156.27c-3.99,14.82-19.34,28.69-38.35,28.69-13.98.73-21.02-11.03-17.02-25.96,3.99-15.03,19.44-28.58,38.36-28.58,13.34-.53,21.02,11.03,17.02,25.85h-.01ZM476.28,208.88c7.26,0,12.34,2.06,14.88,8.11.97-3.15,1.57-6.05,1.7-8.23,9.8.36,17.91,3.27,18.75,7.26,2.78,11.86-18.39,39.93-12.95,53.6-12.1,4.84-22.75,2.66-22.63-8.35,0-1.69.36-3.51.85-5.69-6.9,9.08-14.64,15.97-22.63,16.21-14.88.61-21.42-12.95-16.82-30.01,4.6-17.06,20.81-32.91,38.84-32.91h.01ZM418.17,380.8c-.47,1.03-1.44,1.55-2.96.86l-6.06-2.75-2.29,5.05,5.66,2.57c1.52.69,1.77,1.76,1.3,2.79s-1.44,1.55-2.96.86l-5.66-2.57-2.68,5.91,6.27,2.84c1.52.69,1.77,1.76,1.3,2.79s-1.44,1.55-2.96.86l-8.16-3.7c-1.49-.68-1.89-1.66-1.2-3.18l7.95-17.53c.69-1.52,1.69-1.87,3.18-1.2l7.94,3.6c1.52.69,1.77,1.76,1.3,2.79h.03ZM420.84,352.66h-6.27c.11-2.19.24-4.28.32-6.38.2-4.93.4-9.85.56-14.78.01-.33-.11-.84-.34-.96-1.32-.72-2.69-1.36-4.08-2.04-2.31,3.8-5.7,5.9-10.17,5.91-6.99.03-12.24-6.51-11.07-13.4.81-4.72,4.55-8.46,9.12-9.21,1.02-.17,1.28-.64,1.36-1.52.38-4.06,2.51-6.96,6.06-8.85,4.14-2.21,8.79-1.61,12.84,1.61,5.84-4.53,14.06-2.89,17.38,3.58.22.44.35.93.5,1.41-3.95,3.26-6.76,7.9-7.67,13.24-.71,4.17-.2,8.4,1.38,12.22-1.99-.87-3.73-2.33-5.13-4.4-.04-.06-.13-.09-.05-.04-1.75.6-3.4,1.12-5.01,1.75-.26.1-.48.64-.49.97,0,1.37.07,2.73.13,4.1.21,5.18.42,10.35.63,15.53.02.4,0,.8,0,1.25h0ZM438.4,390.87c-.42,1.45-1.53,1.93-2.75,1.58-1.73-.5-1.76-1.37-1.49-3.07.27-1.66-.47-2.46-1.7-2.81-1.32-.38-2.52.18-2.91,1.56-.3,1.06-.39,2.08,1.33,4.1l2.58,3c1.9,2.21,2.84,4.29,1.87,7.66-1.14,3.98-4.24,5.81-9.18,4.39-5.65-1.62-4.92-6.83-4.6-7.96.44-1.54,1.19-2.82,3.02-2.3,1.35.39,1.78,1.31,1.32,3.4-.36,1.6.01,3.1,1.75,3.6,1.7.49,2.85-.5,3.28-1.98.45-1.57.05-2.49-1.2-4.06l-3.3-4.11c-1.79-2.25-1.96-4.21-1.28-6.55,1.17-4.08,4.88-5.14,8.54-4.09,4.82,1.38,5.41,5.27,4.73,7.64h0ZM462.03,399.79l-.4,3.08c-.93,7.16-3.76,10.03-7.97,9.48l-5.6-.73c-1.62-.21-2.29-1.04-2.08-2.7l2.47-19.1c.21-1.66,1.07-2.29,2.7-2.08l5.8.75c4.58.59,6.01,4.05,5.08,11.28v.02h0ZM483.89,413.57l-8.96.17c-1.64.03-2.42-.69-2.45-2.36l-.37-19.25c-.03-1.67.72-2.42,2.36-2.45l8.72-.17c1.67-.03,2.36.82,2.38,1.96.02,1.14-.63,2.02-2.3,2.05l-6.65.13.11,5.55,6.22-.12c1.67-.03,2.36.82,2.38,1.96.02,1.14-.63,2.02-2.3,2.05l-6.22.12.12,6.48,6.88-.13c1.67-.03,2.36.82,2.38,1.96.02,1.14-.63,2.02-2.3,2.05h0ZM485.25,333.56c-.06-.09-.19-.12-.08-.05-2.42.83-4.71,1.56-6.95,2.43-.36.14-.67.88-.67,1.35-.01,1.9.1,3.8.18,5.69.29,7.18.59,14.37.88,21.55.02.56,0,1.12,0,1.73h-8.7c.16-3.03.33-5.94.45-8.86.28-6.84.55-13.68.78-20.52.02-.45-.16-1.16-.47-1.33-1.83-1-3.73-1.88-5.67-2.83-3.21,5.27-7.92,8.19-14.11,8.21-9.7.04-17-9.03-15.36-18.6,1.12-6.56,6.32-11.74,12.66-12.79,1.42-.23,1.78-.89,1.89-2.11.53-5.64,3.49-9.66,8.41-12.28,5.75-3.06,12.21-2.24,17.82,2.24,8.11-6.28,19.52-4.01,24.12,4.97.89,1.73,1.19,3.77,1.62,5.71.22,1.02.43,1.55,1.63,1.98,8.41,2.99,12.57,11.66,10.07,19.55-2.08,6.55-6.74,10.39-13.42,11.2-6.35.77-11.45-1.89-15.07-7.24h0ZM518.38,408.93c-1.17.28-2.39-.35-2.72-1.72l-3.51-14.59-3.02.73c-1.04.25-1.94.09-2.17-.89-.2-.84.11-1.4,1.01-1.79,2.4-1.03,3.28-2.09,3.7-3.78.42-1.68.61-1.9,1.71-2.17.71-.17,1.51.15,1.82,1.42l4.82,20.01c.33,1.36-.47,2.49-1.64,2.77h0ZM518.7,333.98c.35-.81.7-1.63.98-2.51,2.43-7.65.34-15.59-4.78-21.19.38-4.06,2.51-6.96,6.06-8.85,4.14-2.21,8.79-1.61,12.83,1.61,5.84-4.53,14.06-2.89,17.38,3.58.64,1.24.86,2.72,1.17,4.11.16.73.31,1.12,1.18,1.43,6.06,2.15,9.05,8.4,7.25,14.08-1.5,4.72-4.85,7.49-9.67,8.07-4.57.55-8.25-1.36-10.86-5.21-.04-.06-.13-.09-.05-.04-1.75.6-3.4,1.12-5.01,1.75-.26.1-.48.64-.49.97,0,1.37.07,2.73.13,4.1.21,5.18.42,10.35.63,15.53.02.4,0,.8,0,1.25h-6.27c.11-2.19.24-4.28.32-6.38.2-4.93.39-9.85.56-14.78.01-.33-.11-.84-.34-.96-1.32-.72-2.69-1.36-4.09-2.04-1.72,2.82-4.04,4.7-6.95,5.49h.02ZM538.32,402.69c-3.78,1.44-6.2.35-6.94-1.62-.42-1.09.03-2.09,1.16-2.51.91-.34,1.34-.22,2.34.61.97.78,1.31.9,2.21.55,1.81-.69,1.75-2.63.72-5.35l-.49-1.28c-.61,1.31-1.52,2.01-2.81,2.5-4,1.52-6.45-1.06-7.97-5.06-1.69-4.44-2.09-8.79,3.1-10.76,5.84-2.22,8.07,1.76,10.39,7.85l.9,2.38c2.4,6.31,2.66,10.68-2.62,12.69h0ZM561.19,392.11c-5.12,2.83-7.81.04-9.44-2.91-1.28-2.31-1.91-4.71-.33-6.88-2.21.08-3.57-1-4.64-2.94-1.92-3.48-1.27-6.59,2.56-8.71s6.81-1.01,8.73,2.47c1.07,1.93,1.26,3.66.02,5.49,2.69-.19,4.38,1.63,5.65,3.94,1.63,2.95,2.57,6.71-2.55,9.54ZM582.03,378.59c-3.23,2.43-5.85,2.07-7.12.39-.7-.93-.55-2.01.41-2.73.77-.58,1.23-.59,2.42-.07,1.15.47,1.51.5,2.28-.09,1.55-1.17.95-3.02-.8-5.34l-.82-1.09c-.22,1.42-.9,2.36-2,3.18-3.42,2.58-6.48.79-9.06-2.63-2.86-3.79-4.46-7.85-.03-11.19,4.99-3.76,8.24-.56,12.16,4.64l1.53,2.03c4.06,5.39,5.54,9.51,1.03,12.91h0ZM829.9,331.86h-210.05c-7,10.61-15.01,20.29-23.88,28.94l-6.75-9.17c8.52-8.48,16.18-17.98,22.8-28.41l1.66-2.62h216.22c46.32,0,84-37.68,84-84s-37.69-84-84-84h-216.22l-1.66-2.62c-29.92-47.18-81.09-75.35-136.88-75.35s-106.95,28.17-136.88,75.35l-1.66,2.62H120.39c-46.32,0-84,37.68-84,84s37.68,84,84,84h216.22l1.66,2.62c9.07,14.3,20.11,26.85,32.62,37.4l-7.28,8.6c-12.6-10.63-23.8-23.15-33.16-37.36H120.39c-52.53,0-95.26-42.74-95.26-95.26s42.73-95.26,95.26-95.26h210.05c32.22-48.88,86.07-77.97,144.7-77.97s112.48,29.08,144.7,77.97h210.05c52.53,0,95.26,42.73,95.26,95.26s-42.74,95.26-95.26,95.26h.01ZM866.34,257.45c0-3.69,1.31-6.76,3.94-9.21,2.47-2.29,5.37-3.43,8.69-3.43s6.46,1.23,8.93,3.7,3.7,5.45,3.7,8.93-1.26,6.61-3.79,9.07c-2.46,2.38-5.41,3.57-8.85,3.57s-6.55-1.22-8.98-3.65-3.65-5.43-3.65-8.99h0ZM267.49,252.57c2.05,2.87,5.68,4.47,10.85,4.47,8.59-.12,14.64-3.39,19.72-7.74,5.69,2.54-7.02,22.38-27.47,22.38-21.78,1.09-30.49-12.71-25.89-29.89,4.6-17.3,21.17-32.91,42.96-32.91,15.61-.61,24.32,10.53,18.39,22.87-5.69,11.86-26.01,18.63-39.93,18.03.33,1.03.78,1.96,1.38,2.79h-.01ZM230.75,269.62c-12.1,4.84-22.75,2.54-22.63-8.35,0-1.69.36-3.63.85-5.69-6.9,9.8-14.4,16.33-22.14,16.33-9.08,0-15.12-5.2-15-14.04.12-13.31,17.79-33.27,12.34-46.83,12.1-4.96,22.75-2.66,22.63,8.35-.12,13.67-17.18,34.24-10.65,34.24,13.19,0,27.1-30.73,28.8-44.89,9.92.36,18.03,3.27,18.88,7.26,2.78,11.86-18.51,39.93-13.07,53.6v.02h-.01ZM156.74,254.86c11.74,7.26,2.3,20.81-5.32,22.26,0,0-4.06-6.68-12.46-11.74-8.4-5.06-13.41-9.07-13.41-9.07,0,0,6.26,7.26,6.51,8.39s1.13,3.01-3.76,4.88c-.09.04-.17.08-.24.12-5.21,1.4-10.66,2-16.21,1.72-22.26-1.21-31.7-17.54-25.29-41.38,7.62-28.43,31.58-46.7,56.75-45.25,19.24,1.09,31.94,18.03,25.17,40.9-3.27,11.13-8.35,20.45-14.64,27.59.97.48,1.94.97,2.9,1.57h0Z"/>
  <path class="st0" d="M886.34,264.89c2.03-2.07,3.05-4.55,3.05-7.44s-1.01-5.25-3.03-7.32c-2.05-2.1-4.5-3.15-7.37-3.15s-5.38,1.05-7.42,3.15c-2.01,2.06-3.02,4.5-3.02,7.32s1.02,5.41,3.07,7.46c2.03,2.05,4.49,3.07,7.37,3.07s5.32-1.03,7.36-3.09h0ZM877.88,259.52h-.77v4.96h-3.67v-14.01h3.9c1.73,0,2.7,0,2.89.03,1.11.08,2.03.32,2.76.72,1.25.69,1.87,1.8,1.87,3.34,0,1.18-.33,2.03-.99,2.55s-1.47.84-2.43.94c.88.18,1.54.45,1.99.81.82.67,1.24,1.71,1.24,3.14v1.25c0,.14,0,.27.03.41.02.14.05.27.1.41l.13.39h-3.5c-.12-.45-.19-1.09-.23-1.94s-.12-1.42-.23-1.71c-.18-.49-.53-.83-1.03-1.03-.27-.11-.69-.19-1.25-.22l-.81-.05h0Z"/>
  <path class="st0" d="M881.26,254.82c0-.77-.38-1.3-1.13-1.59-.5-.19-1.21-.29-2.13-.29h-.89v4.06h1.42c.86,0,1.53-.17,2.01-.51s.72-.9.72-1.66h0Z"/>
  <path class="st0" d="M390.35,367.87l-1.85-1.2-9.24,14.25,1.74,1.13c1.96,1.27,3.76.65,7.15-4.57l1.05-1.63c2.88-4.43,3.48-6.47,1.15-7.98h0Z"/>
  <path class="st0" d="M477.58,141.14c-6.3.11-12.93,9.25-15.55,14.82-3.36,7.46-4.41,18.28,1.37,18.28,6.3-.11,12.93-9.67,15.45-15.13,3.47-7.57,4.52-17.97-1.26-17.97h-.01Z"/>
</svg>