<?xml version="1.0" encoding="UTF-8"?>
<svg id="Capa_1" xmlns="http://www.w3.org/2000/svg" version="1.1" viewBox="0 0 697.78 189.08">
  <!-- Generator: Adobe Illustrator 30.5.1, SVG Export Plug-In . SVG Version: 2.1.4 Build 3)  -->
  <defs>
    <style>
      .st0 {
        fill: #fff;
      }
    </style>
  </defs>
  <path class="st0" d="M277.25,114.56l25.01-42.34,12.75,42.34h-37.76ZM347.69,140.64c1.75,5.7-30.54-95.47-30.54-95.47-9.27,0-16.35,11.66-19.64,16.42l-56.92,94.86,11.93-.02,18.29-30.96h47.49l4.85,16.11c6.35,16.59,17.74,17.5,22.62,17.06,3.23,0,9.32-3.68,9.5-9.4-5.16-2.65-7.58-8.59-7.58-8.59"/>
  <path class="st0" d="M594.36,116.88c-1.63,8.64-9.44,32.46-30.75,32.16-17.01-.27-20.85-16.98-17.87-32.48,2.37-12.47,12.06-32.39,30.08-32.14,18.88.27,21.36,17.89,18.54,32.46M575.75,73.63c-25.26.05-46.34,18.3-50.63,43.02-4.27,24.76,8.91,43.23,38.18,43.14,38.32-.11,49.97-32.59,51.78-42.98,3.67-20.98-4.94-43.29-39.33-43.18"/>
  <path class="st0" d="M528.18,85.62c.82-3.79-4.06-6.49-4.06-6.49-7.35-4.07-15.31-5.78-22.99-5.77-30.3.06-50.48,21.98-54.03,42.57-2.8,16.03,2.14,41.64,42.44,42.71,8.55.23,16.26-1.13,21.79-2.46,2.01-.8,5.62-3.16,6.36-9.64.03-1.5-1.02-1.78-2.03-1.72-4.73,1.53-11.48,3.25-20.66,3.25-16.34.05-27.45-12.78-23.95-32.98,2.09-12.05,8.97-32.29,31.58-32.4,5.8,0,11.25,1.62,16.26,4.16v-.03s7.14,3.76,9.29-1.2"/>
  <path class="st0" d="M420.6,96.84c-1.09,6.31-5.49,16.9-22.61,16.93l-7.55.02,5.39-30.66,7.86-.02c12.39-.02,18.41,5.01,16.9,13.73M410.63,73.75l-9.2.02c-1.12.07-2.4.12-3.88.12-18.94,0-23.69,9.62-24.85,13.57l-9.9,57.13c-1.16,13.1,8.6,12.61,8.6,12.61l11.51-.02,6.06-34.75c1.95,0,6.94,2.38,9.5,8.08l5.16,15.84c4.66,10.59,10.14,11.7,21.47,11.67.63,0,1.33-.02,2.05-.04,3.15-.31,9.32-1.76,9.33-8.24-.11-.02-11.51-4.26-18.76-29.43,7.21-2.08,21.71-8.07,24.29-22.76,2.85-16.57-13.8-23.85-31.4-23.79"/>
  <path class="st0" d="M675.58,96.52c-1.08,6.31-5.49,16.9-22.6,16.92l-7.55.02,5.39-30.66,7.86-.02c12.39-.02,18.42,5,16.9,13.73M697.02,97.21c2.85-16.56-13.8-23.85-31.4-23.79l-9.19.02c-1.12.07-2.4.13-3.87.13-18.95,0-23.69,9.62-24.85,13.57l-9.9,57.13c-1.16,13.1,8.65,12.57,8.65,12.57l-.04.04,11.51-.02,6.06-34.75c1.95,0,6.95,2.38,9.51,8.08l5.16,15.84c4.66,10.6,10.15,11.7,21.47,11.67.63-.01,1.32-.02,2.04-.04,3.14-.31,9.32-1.76,9.33-8.24-.1-.02-11.51-4.26-18.76-29.43,7.2-2.09,21.7-8.06,24.28-22.76"/>
  <polygon class="st0" points="461.96 56.02 461.96 22.38 484.37 22.38 484.37 27.07 467.27 27.07 467.27 37.11 481.58 37.11 481.58 41.52 467.27 41.52 467.27 56.02 461.96 56.02"/>
  <path class="st0" d="M488.16,46.48v-15.05h5.21v13.99c0,2.19.4,3.84,1.21,4.95.8,1.11,1.98,1.66,3.53,1.66.98,0,1.94-.2,2.87-.6.93-.41,1.78-1,2.56-1.8.77-.79,1.4-1.75,1.87-2.87v-15.33h5.21v18.73c0,.6.11,1.02.33,1.27.22.25.59.39,1.09.42v4.17c-.53.09-.98.16-1.33.19-.34.03-.68.05-.99.05-.95,0-1.74-.26-2.37-.78-.63-.52-.99-1.18-1.09-1.99l-.09-2.45c-1.1,1.79-2.54,3.14-4.31,4.07-1.77.93-3.71,1.39-5.83,1.39-2.59,0-4.55-.85-5.87-2.54-1.33-1.69-1.99-4.19-1.99-7.48"/>
  <path class="st0" d="M540.42,56.02h-5.21v-13.72c0-2.28-.37-3.95-1.11-5.01-.74-1.06-1.84-1.59-3.29-1.59-1.01,0-2.02.25-3.01.75-.99.49-1.89,1.17-2.68,2.02-.79.85-1.36,1.84-1.71,2.95v14.6h-5.21v-24.59h4.74v4.97c.63-1.1,1.46-2.04,2.49-2.84,1.03-.8,2.19-1.41,3.48-1.85,1.3-.44,2.67-.66,4.13-.66s2.71.27,3.67.8c.96.53,1.72,1.26,2.27,2.18.55.92.93,1.99,1.14,3.19.2,1.21.31,2.48.31,3.83v14.97Z"/>
  <path class="st0" d="M565.77,47.18v-6.4c-.35-1-.91-1.89-1.68-2.69-.77-.79-1.64-1.42-2.61-1.89-.96-.47-1.92-.7-2.87-.7-1.1,0-2.11.23-3.01.7-.9.47-1.68,1.09-2.32,1.87-.65.78-1.14,1.66-1.49,2.66-.34,1-.52,2.04-.52,3.13s.19,2.18.57,3.16c.38.98.92,1.85,1.63,2.61.71.76,1.53,1.36,2.46,1.78.93.42,1.95.63,3.06.63.7,0,1.4-.12,2.11-.37.71-.25,1.39-.59,2.04-1.03.65-.43,1.2-.95,1.66-1.54.46-.59.78-1.23.97-1.92M545.87,43.77c0-2.35.48-4.48,1.45-6.41.96-1.93,2.28-3.46,3.96-4.6,1.68-1.14,3.6-1.71,5.78-1.71,1.9,0,3.61.49,5.14,1.47,1.53.98,2.72,2.19,3.58,3.65v-14.74h5.21v28.71c0,.6.11,1.03.33,1.28s.59.4,1.09.43v4.17c-.98.16-1.74.24-2.27.24-.98,0-1.81-.29-2.49-.86-.68-.57-1.04-1.25-1.07-2.04l-.04-1.85c-.95,1.58-2.23,2.8-3.84,3.67-1.61.87-3.28,1.3-5.02,1.3s-3.28-.33-4.72-.98c-1.44-.66-2.69-1.58-3.74-2.77-1.06-1.19-1.88-2.55-2.46-4.09-.59-1.53-.88-3.16-.88-4.88"/>
  <path class="st0" d="M592.54,50.33c.38-.4.68-.81.9-1.21.22-.4.33-.76.33-1.07v-2.8c-.89-.34-1.82-.6-2.8-.77-.98-.17-1.94-.26-2.89-.26-1.89,0-3.43.37-4.62,1.12-1.18.75-1.78,1.77-1.78,3.07,0,.72.2,1.4.59,2.05.39.66.96,1.18,1.71,1.59.74.4,1.66.6,2.77.6s2.22-.22,3.27-.65c1.04-.43,1.88-.99,2.51-1.68M576.77,48.84c0-1.56.45-2.93,1.35-4.11.9-1.17,2.14-2.08,3.72-2.72,1.58-.64,3.41-.96,5.5-.96,1.1,0,2.23.08,3.39.24,1.15.16,2.17.41,3.06.76v-1.55c0-1.71-.52-3.05-1.56-4.01-1.04-.96-2.54-1.45-4.5-1.45-1.39,0-2.7.24-3.93.73-1.23.49-2.54,1.18-3.93,2.06l-1.75-3.51c1.64-1.1,3.29-1.93,4.95-2.46,1.66-.54,3.4-.81,5.24-.81,3.32,0,5.93.87,7.84,2.6,1.91,1.73,2.87,4.19,2.87,7.38v9.14c0,.59.1,1.02.31,1.26.2.25.56.39,1.06.42v4.17c-.47.09-.9.16-1.28.19-.38.03-.69.05-.95.05-1.11,0-1.94-.27-2.51-.8-.57-.54-.9-1.17-.99-1.89l-.14-1.42c-1.07,1.39-2.45,2.47-4.12,3.23-1.68.76-3.37,1.13-5.07,1.13s-3.11-.34-4.4-1.01c-1.3-.67-2.31-1.59-3.03-2.75-.73-1.16-1.09-2.46-1.09-3.9"/>
  <path class="st0" d="M617.47,56.49c-1.93,0-3.67-.34-5.24-1.01-1.56-.67-2.91-1.61-4.05-2.8-1.14-1.19-2.01-2.55-2.63-4.08-.62-1.53-.93-3.16-.93-4.88,0-2.32.53-4.43,1.59-6.34,1.06-1.91,2.54-3.44,4.45-4.6,1.91-1.16,4.18-1.74,6.8-1.74s4.73.56,6.61,1.68c1.88,1.12,3.26,2.61,4.14,4.48l-5.07,1.61c-.57-1.04-1.36-1.85-2.39-2.44-1.03-.59-2.15-.88-3.39-.88-1.39,0-2.65.35-3.77,1.05-1.12.7-2.01,1.66-2.65,2.9-.65,1.23-.97,2.65-.97,4.27s.33,2.97.99,4.23c.66,1.26,1.56,2.25,2.68,2.99,1.12.73,2.38,1.1,3.77,1.1.85,0,1.68-.15,2.49-.45.8-.3,1.51-.71,2.11-1.23.6-.52,1.03-1.1,1.28-1.73l5.12,1.52c-.54,1.23-1.33,2.32-2.39,3.27-1.06.95-2.31,1.7-3.74,2.25-1.44.55-3.04.83-4.81.83"/>
  <path class="st0" d="M633.67,31.24h5.21v24.78h-5.21v-24.78ZM633.67,21.43h5.21v5.73h-5.21v-5.73Z"/>
  <path class="st0" d="M658.97,27.69l-3.41-1.04,2.7-5.21h4.98l-4.26,6.25ZM649.83,43.82c0,1.56.33,2.96,1,4.2.66,1.25,1.55,2.23,2.65,2.94,1.1.72,2.35,1.08,3.74,1.08s2.6-.37,3.72-1.1c1.12-.73,2.01-1.73,2.68-2.99.66-1.26,1-2.66,1-4.18s-.33-2.96-1-4.2-1.55-2.24-2.68-2.97c-1.12-.73-2.36-1.1-3.72-1.1s-2.64.37-3.74,1.12c-1.11.75-1.99,1.73-2.65,2.97-.66,1.23-1,2.64-1,4.23M657.22,56.49c-1.96,0-3.71-.34-5.26-1.01-1.55-.67-2.88-1.61-4-2.8-1.12-1.19-1.98-2.54-2.58-4.06-.6-1.52-.9-3.14-.9-4.86s.3-3.35.9-4.88,1.46-2.89,2.58-4.06c1.12-1.18,2.46-2.1,4.03-2.77,1.56-.67,3.31-1.01,5.24-1.01s3.67.34,5.23,1.01c1.56.67,2.91,1.59,4.03,2.77,1.12,1.17,1.98,2.52,2.58,4.06s.9,3.16.9,4.88-.3,3.34-.9,4.86c-.6,1.52-1.46,2.87-2.58,4.06-1.12,1.19-2.46,2.12-4.03,2.8-1.56.67-3.31,1.01-5.23,1.01"/>
  <path class="st0" d="M697.78,56.02h-5.21v-13.72c0-2.28-.37-3.95-1.11-5.01-.74-1.06-1.84-1.59-3.29-1.59-1.01,0-2.02.25-3.01.75-.99.49-1.89,1.17-2.68,2.02-.79.85-1.36,1.84-1.71,2.95v14.6h-5.21v-24.59h4.74v4.97c.63-1.1,1.46-2.04,2.49-2.84,1.03-.8,2.19-1.41,3.49-1.85,1.29-.44,2.67-.66,4.12-.66s2.71.27,3.67.8c.96.53,1.72,1.26,2.27,2.18.56.92.93,1.99,1.14,3.19.2,1.21.31,2.48.31,3.83v14.97Z"/>
  <path class="st0" d="M233.74,122.17c-.9-.82-1.97-1.33-3.08-1.56-2.22-.46-4.61.23-6.24,2.03h-.01c-12.66,14.03-28.27,25.1-45.37,32.54-17.1,7.47-35.63,11.39-54.11,11.82-18.49.45-36.95-2.58-54.07-8.82-17.13-6.22-32.88-15.68-46.13-27.69-.24-.22-.52-.46-.78-.66-6.41-5.05-15.71-3.95-20.76,2.47-5.06,6.41-3.95,15.71,2.47,20.77l.07.06c17.1,13.47,36.75,23.4,57.33,29.3,20.6,5.92,42.12,7.89,63.18,5.92,21.05-1.96,41.68-7.87,60.3-17.58,17.72-9.21,33.54-21.97,46.08-37.26.64-.78,1.28-1.56,1.9-2.35,2.11-2.71,1.82-6.64-.77-8.97"/>
  <path class="st0" d="M171.62,123.03c-1.99-14.46-5.95-28.77-12.35-41.86-1.24-2.55-2.57-5.05-3.99-7.5-.86-1.5-3.07-1.33-3.73.27-1.15,2.76-2.35,5.48-3.6,8.13-2.15,4.57-4.45,8.98-6.91,13.2.96,3.7,1.74,7.44,2.3,11.22.91,6.08,1.34,12.23,1.35,18.39v.09c0,.53.04,1.07.11,1.61.9,7.09,7.38,12.36,14.5,11.77,7.8-.64,13.36-7.67,12.31-15.32"/>
  <path class="st0" d="M170.56,4.67c.37-2.19-1.11-4.27-3.31-4.62-1.96-.3-3.84.88-4.42,2.78-2.5,8.24-5.45,16.25-9.55,24.02-11.55,21.9-29.73,38.88-55.79,36.79-5.51-.44-9.73-1.29-14.85-3.36-7.43-3-18.09-11.56-25.42-4.14-3.8,3.85-3.43,10.11.59,13.64,3.73,3.28,10.13,6.1,14.83,7.57,5.4,1.7,10.88,3.2,16.48,4.01,12.32,1.79,23.85-1.83,35-7.41.85-.42,1.67.63,1.07,1.35-13.61,16.42-30.58,29.26-51.23,35.51-7.64,2.31-14.17,8.36-11.91,17.13,2.32,8.99,12.36,12.54,20.5,9.54,43.39-16.01,68.9-60.55,81.09-102.67,2.87-9.9,5.19-19.98,6.92-30.15"/>
  <path class="st0" d="M111.6,50.54c10.1.21,18.45-7.81,18.66-17.9.21-10.1-7.81-18.45-17.9-18.66-10.1-.21-18.45,7.81-18.66,17.9-.21,10.1,7.8,18.46,17.9,18.66"/>
</svg>