<?xml version="1.0" encoding="UTF-8"?>
<svg id="Capa_1" xmlns="http://www.w3.org/2000/svg" version="1.1" viewBox="0 0 1501.88 451.77">
  <!-- Generator: Adobe Illustrator 30.5.1, SVG Export Plug-In . SVG Version: 2.1.4 Build 3)  -->
  <defs>
    <style>
      .st0, .st1 {
        fill: #fff;
      }

      .st1 {
        fill-rule: evenodd;
      }

      .st2 {
        display: none;
      }
    </style>
  </defs>
  <g id="MB_fondo" class="st2">
    <path class="st1" d="M463.38,214.96c13.51,9.1,23.27,23.02,26.14,41.4,2.99,19.16-3.01,38.8-15.98,53.17-14.99,16.62-36.64,23.68-58.63,23.06h-147.42c-1.96,0-3.85-.22-5.65-.65-1.78.43-3.64.65-5.56.65h-53.74c-7.49,0-13.93-3.22-18.43-9.2-.03-.05-.07-.09-.1-.14l-.75.91c-4.54,5.52-10.68,8.43-17.82,8.43h-43.21c-9.85,0-18.24-5.85-21.64-15.09l-1.15-3.12-.45,1.55c-2.9,10.02-11.73,16.66-22.16,16.66H23.12c-7.35,0-13.68-3.09-18.2-8.89-4.52-5.8-5.97-12.69-4.17-19.82l21.22-84.07c.46-1.82,1.11-3.53,1.94-5.13.03-1.81.28-3.66.75-5.52l17.97-71.18c2.62-10.38,11.66-17.42,22.37-17.42h42.78c10.01.22,19.3,2.81,27.01,9.46,8.02,6.92,11.18,15.27,15.47,24.48.15.33.28.62.42.95l16.61,40.26,41.55-51.29c10.91-14.32,22.55-24.36,41.68-23.87h47.65c1.96,0,3.85.22,5.65.65,1.78-.43,3.64-.65,5.55-.65h107.9c15.45-.35,30.01,5.71,40.89,16.64,3.33,3.35,6.26,7.09,8.72,11.12,6.46,10.57,9.7,23.05,8.85,35.43-.87,12.69-5.4,23.07-12.35,31.22"/>
  </g>
  <g>
    <path class="st0" d="M280.19,214.8l17.97-71.18h-47.98c-10.77-.37-16.49,6.19-23.19,15.04l-45.47,56.14h98.67Z"/>
    <path class="st0" d="M291.4,214.8h118c64.88-3.16,47.85-72.08,8.4-71.18h-108.43l-17.97,71.18Z"/>
    <path class="st0" d="M107.29,143.62h-42.28l-17.97,71.18h103.17l-20.85-50.55c-6.06-12.99-7.82-20.32-22.07-20.63Z"/>
    <path class="st0" d="M288.72,225.45l-21.23,84.07h147.77c66.11,2.16,70.83-84.07,4.29-84.07h-130.83Z"/>
    <polygon class="st0" points="222.57 239.96 202.53 309.52 256.27 309.52 277.5 225.45 172.89 225.45 160.77 240.41 154.6 225.45 44.34 225.45 23.11 309.52 23.12 309.52 76.81 309.52 96.77 240.54 122.21 309.52 165.42 309.52 222.57 239.96"/>
    <path class="st0" d="M265.82,369.12c6.38,2.69,16.69-4.56,21.67-7.75l-30.94-12.08-31.12-10.1c-4.86-1.58-9.03-2.29-13.55-2.21-2.45.04-6.43.33-7.48,2.39-1.42,2.78,1.86,4.73,4,5.63l57.42,24.12h0Z"/>
    <path class="st0" d="M390.82,328.43c-12.9.95-30.04,5.78-41.29,12.78l-11.59,7.21-27.14,15.69c-10.24,5.31-16.81,10.63-30.87,15.13-2.07.79-4.07,1.34-6.11,1.84-5.25,1.28-14.93,3.16-17.77,7.91-1.04,1.75-1.98,5.19.45,7.84,4.33,5.06,15.1,5.55,29.94,3.15l17.43-2.94,16.12-3.69,14.77-3.11,12.97-3.5c5.79-1.56,9.28-.97,9.74.72.44,1.64-.71,4.78-7.93,7.04l-13.7,4.48c-18.07,6.06-31.82,8.74-51.14,10.71-4.92.5-9.82.82-14.62.72-11-.22-21.42-2.79-31.77-8.67l-21.63-13.98-17.71-11.08-14.47-7.55-11.2-5.35c-2.87-1.07-5.73-2.13-8.59-3.19-4.12-1.17-14.86-5.01-17.24-.78-.54.96-.66,2.37-.22,4.39h.04c1.01,2.19.97,1.65,3.12,3.42l78.54,64.5c11.85,9.73,29.94,16.18,44.88,18.66,24.07,2.88,54.84-.81,77.32-7.24,9.86-2.82,18.38-6.75,27.36-10.95,28.41-13.3,74.81-37.15,105.05-41.34l-61.02-50.01c-9.79-8.02-18.46-13.78-31.72-12.81Z"/>
    <path class="st0" d="M183.7,346.71c-2.99-.33-9.88-.81-11.43,2.22-1.27,2.48,2.48,6.35,4.91,7.48,6.26,2.91,12.51,5.82,18.77,8.74l46.69,24.83c4.85-7.47,6.92-11.92,14.6-16.97h-.01l-48.27-19.74c-7.91-2.61-17.09-5.64-25.26-6.56Z"/>
    <path class="st0" d="M304.22,351.93l2.28-2.08-15.12-8.25v.02c-8.62-3.79-27.32-12.54-35.66-13.04-10.04-.61-14.45,4.22-6.76,7.41l25.59,10.6,19.55,9.22c4.93,2.32,6.61-.67,10.12-3.88Z"/>
    <path class="st0" d="M125.51,123.34c12.9-.95,30.04-5.78,41.29-12.78l11.59-7.21,27.14-15.69c10.24-5.31,16.81-10.63,30.87-15.13,2.07-.79,4.07-1.34,6.11-1.84,5.25-1.28,14.94-3.16,17.77-7.91,1.04-1.75,1.98-5.19-.45-7.84-4.33-5.06-15.1-5.55-29.94-3.15l-17.43,2.94-16.12,3.69-14.77,3.11-12.97,3.5c-5.79,1.56-9.28.97-9.74-.72-.44-1.64.71-4.78,7.93-7.04l13.7-4.48c18.07-6.06,31.82-8.74,51.14-10.71,4.92-.5,9.82-.82,14.62-.72,10.99.22,21.42,2.79,31.77,8.67l21.63,13.98,17.71,11.08,14.47,7.55,11.19,5.35c2.87,1.07,5.73,2.13,8.59,3.19,4.12,1.17,14.86,5.01,17.24.78.54-.96.66-2.37.22-4.39h-.03c-1.01-2.2-.97-1.65-3.12-3.42l-78.54-64.5c-11.85-9.73-29.94-16.18-44.88-18.66-24.07-2.88-54.84.81-77.32,7.24-9.86,2.82-18.38,6.75-27.36,10.95-28.41,13.3-74.81,37.15-105.05,41.34l61.02,50.01c9.79,8.02,18.46,13.78,31.72,12.81Z"/>
    <path class="st0" d="M212.1,99.85l-2.28,2.08,15.12,8.25h.01c8.61,3.78,27.31,12.53,35.65,13.03,10.04.61,14.45-4.22,6.76-7.41l-25.59-10.6-19.55-9.23c-4.92-2.32-6.61.67-10.12,3.88Z"/>
    <path class="st0" d="M332.62,105.06c2.99.33,9.88.81,11.43-2.22,1.27-2.48-2.48-6.35-4.91-7.48-6.26-2.91-12.51-5.82-18.77-8.74l-46.69-24.83c-4.85,7.47-6.92,11.92-14.6,16.97h.01l48.27,19.74c7.91,2.61,17.09,5.64,25.26,6.56Z"/>
    <path class="st0" d="M228.83,90.41l30.94,12.08,31.12,10.1c4.86,1.58,9.03,2.29,13.55,2.21,2.45-.04,6.43-.33,7.48-2.39,1.42-2.78-1.86-4.73-4-5.63l-57.42-24.12c-6.38-2.69-16.69,4.56-21.67,7.75Z"/>
    <path class="st0" d="M604.41,239.56h0c-.33.08-.65.16-.98.23.29.27.55.54.83.81.05-.35.1-.69.15-1.04Z"/>
    <polygon class="st0" points="926.41 113 912.52 113 899.41 181.46 913.3 181.46 926.41 113"/>
    <path class="st0" d="M847.15,166.14h0c0,9.82,5.79,16.4,14.27,16.4,5.49,0,11.47-2.62,15.81-10.43h.29c-.29,3.37-.58,6.56-.67,9.35h12.82c-.19-5.88.67-15.14,1.83-21.21l5.01-24.68c-3.95-1.25-10.03-2.31-15.62-2.31-23.24,0-33.75,16.97-33.75,32.88ZM878.68,155.04c-2.12,11.57-7.23,16.3-11.38,16.3-3.85,0-5.69-3.18-5.69-7.81,0-8.77,6.56-19.76,15.52-19.76,1.35,0,2.7.19,3.76.38l-2.22,10.9h0Z"/>
    <path class="st0" d="M807.83,182.54c5.69,0,11.47-2.62,16.29-8.79h.19l-.87,7.72h12.24c.68-4.24,1.35-9.35,2.51-15.33l6.08-31.82h-13.88l-4.15,21.79h0c-1.83,9.44-6.65,15.13-11.38,15.13-3.57,0-4.72-2.41-4.72-5.49,0-1.73.29-4.05.68-6.17l4.72-25.26h-13.88l-4.92,26.32c-.67,3.28-.96,6.07-.96,8.68,0,8.96,4.53,13.22,12.05,13.22Z"/>
    <path class="st0" d="M781.68,144.81h10.03l2.03-10.51h-10.03l2.41-12.81-14.26,3.95-1.74,8.87h-6.07l-1.93,10.51h5.98l-3.67,18.7c-.67,3.66-.96,6.17-.96,8.77,0,5.88,3.95,10.24,12.24,10.24,2.98,0,6.46-.38,8.19-1.08l1.64-10.9c-1.25.19-2.6.19-3.86.19-2.99,0-3.95-1.64-3.95-3.95,0-1.64.39-4.15.77-5.98l3.18-16Z"/>
    <polygon class="st0" points="786.12 121.48 786.12 121.5 786.13 121.49 786.12 121.48"/>
    <path class="st0" d="M738.68,156.11h.01c-1.83,9.44-6.65,15.13-11.37,15.13-3.57,0-4.73-2.41-4.73-5.49,0-1.73.29-4.05.68-6.17l4.72-25.26h-13.88l-4.92,26.32c-.68,3.28-.96,6.07-.96,8.68,0,8.96,4.53,13.22,12.05,13.22,5.69,0,11.47-2.62,16.29-8.79h.19l-.87,7.72h12.24c.68-4.24,1.35-9.35,2.51-15.33l6.07-31.82h-13.88l-4.15,21.79Z"/>
    <path class="st0" d="M644.6,154.66c1.64-6.95,3.57-16.78,5.4-25.36h.19c.39,8.68.87,17.64,1.45,24.78l2.31,26.32h10.8l13.31-26.61c3.57-7.14,7.61-16.1,11.18-24.49h.29c-1.83,9.35-3.28,18.32-4.34,25.36l-3.95,26.8h13.5l8.77-64.98h-18.8l-12.05,24.68h0c-2.8,5.88-6.27,13.5-8.77,20.73h-.39c-.1-7.23-.77-14.65-1.15-20.73l-2.02-24.68h-18.61l-16.29,64.98h12.72l6.46-26.8Z"/>
    <path class="st0" d="M1464.24,225.83h0c-31.64-.01-53.09,25.26-53.09,56.17,0,22,15.09,36.76,37.64,36.76,30.91,0,53.09-23.85,53.09-56.39,0-20.18-13.82-36.54-37.64-36.54ZM1452.42,298.73c-9.09,0-14.18-6.91-14.18-17.27-.18-13.82,7.45-35.82,22.54-35.82,10.54,0,14,8.73,14,16.91,0,15.27-8,36.18-22.36,36.18Z"/>
    <path class="st0" d="M1374.78,225.82c-11.82,0-22.91,5.09-31.27,16.73h-.36l1.82-14.73h-23.27c-1.09,7.82-2.54,17.64-4.73,28.91l-11.27,60h26.18l7.45-39.45c3.64-19.64,13.64-30.36,22.18-30.36,6.54,0,8.73,4.36,8.73,10.54,0,3.27-.36,6.91-.91,10l-9.27,49.27h26.18l9.82-51.64c.73-4.36,1.45-11.09,1.45-15.09,0-15.27-8.18-24.18-22.73-24.18Z"/>
    <polygon class="st0" points="1374.78 225.82 1374.78 225.82 1374.78 225.82 1374.78 225.82"/>
    <polygon class="st0" points="1206.24 287.83 1206.24 287.83 1206.24 287.82 1206.24 287.83"/>
    <path class="st0" d="M1206.24,287.83c0,18.54,10.91,30.93,26.91,30.93,10.36,0,21.64-4.94,29.82-19.67h.54c-.54,6.36-1.09,12.36-1.27,17.64h24.18c-.36-11.09,1.27-28.54,3.45-40l9.46-46.54c-7.46-2.36-18.91-4.36-29.46-4.36-43.82,0-63.63,32-63.63,62ZM1265.7,266.91c-4,21.82-13.64,30.73-21.46,30.73-7.27,0-10.73-6-10.73-14.73,0-16.54,12.36-37.27,29.27-37.27,2.54,0,5.09.36,7.09.73l-4.18,20.55h.01Z"/>
    <path class="st0" d="M1202.98,225.83h-.01c-12.18-.01-22.18,8.35-28.36,20.17h-.54c.54-6.18,1.09-12.18,1.64-18.18h-22.73c-.91,7.64-2,22.54-4.54,36l-10,52.91h26.18l6.18-33.09c3.27-17.45,11.09-32.36,27.82-32.36,1.45,0,2.91.18,4.18.18l5.09-25.45c-1.64-.18-3.27-.18-4.91-.18Z"/>
    <path class="st0" d="M1039.68,284.36h.02c.18,17.27,10.91,31.64,28.54,31.64,10.55,0,18.54-4.18,25.45-13.09h.36l-1.45,7.45c-3.64,17.85-13.46,23.67-26.55,23.67-7.45,0-18.36-2-23.27-4.91l-6,20c6,3.46,17.09,5.64,28.91,5.64s24.73-2.36,34.36-10c10.73-8.55,15.64-23.09,18.73-39.49l13.45-73.27c-9.27-4-20.36-6.18-32.91-6.18-38.73,0-59.64,29.09-59.64,58.54ZM1099.33,271.27h0c-2.73,15.09-11.46,24.54-20,24.54-8,0-12-6.54-12-15.45,0-16.91,11.27-34.55,27.09-34.55,3.64,0,7.45.73,9.45,1.64l-4.54,23.82Z"/>
    <polygon class="st0" points="1013.52 187.64 988.79 316.73 1014.97 316.73 1039.7 187.64 1013.52 187.64"/>
    <path class="st0" d="M952.24,225.83h0c-32.18-.01-51.82,28.17-51.82,55.26,0,23.09,13.09,37.67,38.54,37.67,9.82,0,22.73-1.82,33.09-7.12l-1.82-18.91c-7.09,3.46-15.27,5.64-24.91,5.64-7.64,0-13.64-2.36-17.09-6.91-1.82-2.55-2.73-6.55-2.73-9.09,35.64.91,57.64-7.27,57.64-30,0-16.54-12.91-26.54-30.91-26.54ZM958.62,252.55h-.01c0,8-10.18,10.91-30.54,10.73,1.82-8.36,8.73-18.36,20.91-18.36,6,0,9.64,3.09,9.64,7.45v.18Z"/>
    <path class="st0" d="M891.89,222.17h0c0-10.35-6-18.17-14.18-22.35-8.18-4.91-17.64-6.55-30.37-6.55s-23.45,1.27-32.18,2.91l-22.54,119.09c6,1.27,17.09,2.39,30.91,2.39,20.36,0,35.82-3.12,46.18-10.03,9.64-6.36,16.73-16,16.73-29.09s-7.46-23.09-19.27-26.73v-.55c13.27-3.82,24.73-13.64,24.73-29.09ZM831.7,297.08h0c-3.82,0-6.91-.17-10-.54l6.55-34.55h8.18c12.18,0,22.36,3.64,22.36,15.82,0,13.64-12.91,19.27-27.09,19.27ZM840.97,242.91h-8.72l5.45-28.36c2-.55,5.64-.91,10.18-.91,10,0,17.27,3.82,17.27,12.73,0,10.36-9.82,16.54-24.18,16.54Z"/>
    <path class="st0" d="M729.16,284.91c-10.54,0-17.64,8.54-17.64,18.54,0,8.73,5.82,15.12,14.55,15.12h.18c10.36,0,18-7.48,18-18.21,0-9.09-6.18-15.45-15.09-15.45Z"/>
    <polygon class="st0" points="729.16 284.91 729.16 284.91 729.16 284.91 729.16 284.91"/>
    <path class="st0" d="M677,225.82h-.02c-10.73,0-21.27,5.27-28.54,14.91h-.36l1.64-13.64h-23.45c-1.09,9.09-3.27,24.54-5.27,35.09l-17.12,90.57h26.03l7.27-37.66h.36c3.09,1.85,9.27,3.67,16.55,3.67,30.91,0,51.45-28.39,51.45-59.3,0-18.18-9.27-33.64-28.54-33.64ZM653.16,298.91c-5.09,0-9.09-1.64-11.99-4.36l3.27-19.09c3.27-17.46,12.36-28.54,22.18-28.54,8.54,0,11.45,7.45,11.45,14.54,0,17.45-10.91,37.45-24.91,37.45Z"/>
    <path class="st0" d="M575.88,244.91h0c-10.36-5.82-17.82-10.18-17.82-17.27s6.36-12.91,18.54-12.91c10.18-.18,18.91,3.27,22.91,5.46l8.18-21.64c-5.27-3.09-14-6.36-28.91-6.36-26.73,0-48.36,15.09-48.36,39.82,0,16,12.36,25.45,25.45,32.54,11.27,5.82,16.55,10.36,16.55,17.27,0,9.64-9.27,14.36-19.46,14.36-11.27,0-21.64-3.46-28.91-7.82l-8.73,21.45c5.82,4.36,18,8.57,35.09,8.94,27.27,0,49.82-14.21,49.82-41.48,0-14.55-9.45-24.55-24.36-32.36Z"/>
  </g>
</svg>