<?xml version="1.0" encoding="UTF-8"?>
<svg id="VAULA_INMOBILIARIA" xmlns="http://www.w3.org/2000/svg" version="1.1" viewBox="0 0 472.27 217.05">
  <!-- Generator: Adobe Illustrator 30.5.1, SVG Export Plug-In . SVG Version: 2.1.4 Build 3)  -->
  <defs>
    <style>
      .st0 {
        fill: #fff;
      }
    </style>
  </defs>
  <polygon class="st0" points="43.69 0 .86 22.84 .86 140.49 43.69 140.49 43.69 0"/>
  <polygon class="st0" points="95.35 48.43 50.46 24.33 50.46 140.46 95.35 140.46 95.35 48.43"/>
  <path class="st0" d="M112.38,49.26c2.22,2.59,5.22,8.65,8.92,18.24l28.43,73h3l29.28-70.63c2.29-5.53,4.1-9.63,5.39-12.26,1.32-2.66,2.56-4.73,3.75-6.27,1.75-2.12,3.61-3.73,5.53-4.78,1.93-1.05,4.22-1.68,6.83-1.93v-1.63h-31.79v1.63c1.8,0,3.29.17,4.44.51,1.14.32,2.19.9,3.14,1.71.95.85,1.71,2.07,2.29,3.63.56,1.58.85,3.27.85,5.07,0,3.24-1.44,8.41-4.29,15.51l-20.5,50.44-21.14-57.51c-1.2-3.19-1.9-5.27-2.15-6.22-.24-.95-.37-2.05-.37-3.29,0-1.75.46-3.39,1.36-4.88.9-1.51,2.1-2.61,3.59-3.34,1.56-.76,4.14-1.29,7.7-1.63v-1.63h-47.15v1.63c3,0,5.53.37,7.61,1.1,2.07.75,3.83,1.93,5.27,3.53Z"/>
  <path class="st0" d="M256.93,78.59c1.02,1.02,1.71,2.34,2.07,3.9.35,1.58.53,4.01.53,7.32v29.27c0,3.69.1,6.25.3,7.65.54,4,2.2,7.21,5,9.64,4.31,3.83,11.01,5.74,20.11,5.74s15.4-2.02,20.11-6.07c2.06-1.78,3.42-3.72,4.11-5.86.69-2.14,1.04-5.46,1.04-9.95v-30.42c0-3.27.18-5.71.56-7.29.36-1.6,1.05-2.91,2.04-3.93.9-.94,1.92-1.61,3.06-2.02,1.15-.43,2.63-.67,4.46-.77v-1.1h-22.21v1.1c1.83.1,3.31.35,4.46.77,1.13.41,2.15,1.09,3.06,2.02.99,1.02,1.68,2.34,2.04,3.9.38,1.58.56,4.01.56,7.34v26.93c0,4.92-.07,8.05-.2,9.36-.18,2.02-.58,3.7-1.18,5.02-.59,1.32-1.51,2.53-2.76,3.65-2.02,1.81-4.56,3.21-7.6,4.23-3.03,1-6.22,1.51-9.56,1.51s-6.3-.58-8.56-1.71c-2.27-1.14-4.18-2.98-5.73-5.53-1.02-1.66-1.71-3.49-2.04-5.46-.35-1.97-.51-5.18-.51-9.63v-27.28c0-3.92.16-6.68.51-8.29.33-1.61,1.04-2.96,2.09-4.05.87-.94,1.89-1.61,3.04-2.02,1.15-.43,2.65-.67,4.48-.77v-1.1h-30.79v1.1c1.86.1,3.36.35,4.51.77,1.14.41,2.14,1.09,3.01,2.02Z"/>
  <path class="st0" d="M387.39,120.73l-1.15-.1c-.61,2.99-1.28,5.41-2.01,7.24-.72,1.83-1.65,3.47-2.76,4.92-1.68,2.12-3.82,3.68-6.43,4.71-2.63,1-5.86,1.51-9.68,1.51s-6.61-.54-8.84-1.61c-2.2-1.09-3.89-2.78-5-5.08-.64-1.32-1.09-3.03-1.3-5.12-.23-2.09-.35-5.26-.35-9.54v-27.82c0-3.37.2-5.88.58-7.47.39-1.61,1.14-2.95,2.22-4.01.87-.82,1.86-1.45,2.99-1.83,1.12-.38,2.57-.63,4.34-.72v-1.1h-30.8v1.1c1.73.07,3.16.3,4.26.67,1.1.38,2.11,1,3.01,1.83,1.1,1.04,1.84,2.35,2.24,3.98.41,1.63.61,4.15.61,7.55v35.52c0,3.27-.18,5.71-.56,7.3-.36,1.6-1.05,2.9-2.04,3.93-1.78,1.83-4.28,2.75-7.52,2.75v1.15h57.56l.62-19.76Z"/>
  <path class="st0" d="M417.89,139.39c-1.96-.17-3.57-.67-4.82-1.55-.91-.64-1.61-1.48-2.14-2.5-.54-1.04-.81-2.14-.81-3.32,0-2.02.72-4.8,2.17-8.34l1.2-2.99,2.52-6.65h21.21l4.62,11.37.82,2.02c.9,2.22,1.35,4,1.35,5.31,0,2.2-1,3.95-2.99,5.2-1.12.71-3.11,1.18-5.97,1.45v1.1h31.67v-1.1c-1.99-.23-3.49-.49-4.49-.79-.99-.31-1.88-.76-2.65-1.33-1.09-.84-2.11-2.07-3.03-3.72-.94-1.63-2.19-4.36-3.77-8.19l-20.96-50.66h-2.75l-17.64,45.46c-1.61,4.15-2.91,7.26-3.88,9.33-.99,2.07-1.99,3.77-3.01,5.08-1.22,1.65-2.49,2.83-3.77,3.57-1.28.74-2.78,1.15-4.48,1.25v1.1h21.59v-1.1ZM426.33,87.08l10.12,24.98h-19.66l9.54-24.98Z"/>
  <rect class="st0" x=".86" y="152.89" width="470.54" height="3.04"/>
  <path class="st0" d="M317.27,216.25h6.45l5.6-13.2h18.75l5.67,13.2h6.51l-19.32-44.82h-4.58l-19.07,44.82ZM345.49,197.29h-13.71l6.77-16.15,6.95,16.15Z"/>
  <rect class="st0" x="301.03" y="171.44" width="6.29" height="44.82"/>
  <path class="st0" d="M394.73,190.82c1.32-1.79,1.99-4.17,1.99-7.12,0-3.9-1.2-6.93-3.62-9.06-2.42-2.13-5.84-3.2-10.29-3.2h-12.9v44.82h6.32v-20.02h1.89c1.92,0,3.59.49,4.98,1.47,1.4.99,3.22,3.25,5.49,6.79l7.55,11.75h7.61l-10.7-16.4c-1.03-1.58-1.87-2.7-2.52-3.38-.65-.68-1.34-1.21-2.07-1.62,2.86-.9,4.94-2.24,6.26-4.03ZM388.05,189.13c-1.46,1.15-3.66,1.73-6.59,1.73h-5.22v-13.97h5.22c3.08,0,5.32.55,6.7,1.65,1.38,1.1,2.07,2.86,2.07,5.3s-.73,4.13-2.18,5.29Z"/>
  <path class="st0" d="M452.95,171.44h-4.58l-19.07,44.82h6.45l5.6-13.2h18.75l5.67,13.2h6.51l-19.32-44.82ZM443.8,197.29l6.77-16.15,6.95,16.15h-13.71Z"/>
  <rect class="st0" x="413.05" y="171.44" width="6.29" height="44.82"/>
  <polygon class="st0" points="121.57 216.25 121.57 171.44 116.1 171.44 100.25 190.27 84.42 171.44 78.94 171.44 78.94 216.25 85.04 216.25 85.04 181.27 100.25 199.34 115.47 181.27 115.47 216.25 121.57 216.25"/>
  <rect class="st0" x="239.49" y="171.44" width="6.29" height="44.82"/>
  <polygon class="st0" points="262.05 171.44 262.05 216.25 289.23 216.25 289.23 210.49 268.28 210.49 268.28 171.44 262.05 171.44"/>
  <path class="st0" d="M220.51,188.9c1.06-1.54,1.6-3.47,1.6-5.77,0-3.73-1.19-6.62-3.58-8.65-2.37-2.02-5.75-3.04-10.15-3.04h-12.86v44.82h15.26c4.58,0,8.19-1.1,10.87-3.31s4.02-5.17,4.02-8.89c0-2.91-.88-5.38-2.63-7.4-1.75-2.03-4.23-3.43-7.43-4.2,2.2-.83,3.83-2.02,4.91-3.55ZM201.75,177.2h6.01c2.68,0,4.64.5,5.87,1.51,1.22,1.01,1.84,2.6,1.84,4.8,0,2.42-.77,4.21-2.33,5.39-1.56,1.17-3.93,1.76-7.14,1.76h-4.25v-13.46ZM216.59,198.24c1.58,1.14,2.37,2.93,2.37,5.37s-.71,4.07-2.13,5.17c-1.42,1.1-3.65,1.65-6.71,1.65h-8.38v-13.91h7.37c3.39,0,5.89.57,7.47,1.72Z"/>
  <path class="st0" d="M167.6,172.48c-2.87-1.17-5.89-1.75-9.07-1.75s-6.11.58-8.93,1.73c-2.83,1.16-5.37,2.83-7.61,5.03-2.2,2.15-3.91,4.65-5.1,7.47-1.19,2.81-1.79,5.72-1.79,8.7,0,3.2.58,6.22,1.75,9.04,1.16,2.81,2.88,5.35,5.14,7.59,2.18,2.15,4.7,3.82,7.56,5,2.87,1.17,5.86,1.76,8.99,1.76s6.22-.57,9.04-1.72c2.82-1.14,5.37-2.82,7.66-5.04,2.18-2.13,3.87-4.6,5.05-7.41,1.19-2.81,1.78-5.74,1.78-8.79,0-3.25-.58-6.26-1.73-9.04-1.16-2.77-2.88-5.29-5.17-7.56-2.18-2.18-4.7-3.85-7.56-5.01ZM174.07,200.42c-.85,2.08-2.06,3.91-3.63,5.51-1.59,1.64-3.4,2.89-5.42,3.73-2.03.84-4.2,1.27-6.5,1.27s-4.4-.44-6.46-1.3c-2.07-.86-3.87-2.09-5.4-3.7-1.57-1.6-2.78-3.43-3.62-5.51-.84-2.07-1.26-4.24-1.26-6.53s.42-4.5,1.26-6.59c.84-2.1,2.05-3.92,3.62-5.48,1.63-1.63,3.48-2.87,5.52-3.75,2.05-.87,4.16-1.31,6.35-1.31s4.41.44,6.44,1.3c2.04.86,3.84,2.11,5.41,3.76,1.63,1.68,2.88,3.54,3.71,5.59.84,2.03,1.26,4.2,1.26,6.48s-.43,4.46-1.28,6.53Z"/>
  <polygon class="st0" points="63.08 171.44 56.82 171.44 56.82 206.23 27.85 171.44 22.37 171.44 22.37 216.25 28.6 216.25 28.6 181.43 57.48 216.25 63.08 216.25 63.08 171.44"/>
  <rect class="st0" y="171.44" width="6.29" height="44.82"/>
  <path class="st0" d="M187.16,129.48c-.99,2.07-1.99,3.77-3.01,5.08-1.22,1.65-2.49,2.83-3.77,3.57-1.28.74-2.78,1.15-4.48,1.25v1.1h21.59v-1.1c-1.96-.17-3.57-.67-4.82-1.55-.91-.64-1.61-1.48-2.14-2.5-.54-1.04-.81-2.14-.81-3.32,0-2.02.72-4.8,2.17-8.34l1.2-2.99,2.52-6.65h21.21l4.62,11.37.82,2.02c.9,2.22,1.35,4,1.35,5.31,0,2.2-1,3.95-2.99,5.2-1.12.71-3.11,1.18-5.97,1.45v1.1h31.67v-1.1c-1.99-.23-3.49-.49-4.49-.79-.99-.31-1.88-.76-2.65-1.33-1.09-.84-2.11-2.07-3.03-3.72-.94-1.63-2.19-4.36-3.77-8.19l-20.96-50.66h-2.75l-17.64,45.46c-1.61,4.15-2.91,7.26-3.88,9.33ZM205.94,87.08l10.12,24.98h-19.66l9.54-24.98Z"/>
</svg>