<?xml version="1.0" encoding="UTF-8"?>
<svg id="GRUPO_FONTE" xmlns="http://www.w3.org/2000/svg" version="1.1" viewBox="0 0 434.69 412.07">
  <!-- Generator: Adobe Illustrator 30.5.1, SVG Export Plug-In . SVG Version: 2.1.4 Build 3)  -->
  <defs>
    <style>
      .st0 {
        fill: #fff;
      }
    </style>
  </defs>
  <path class="st0" d="M296.95,129.73v85.25h-44.54v-127.61h178.7v42.36h-134.16ZM3.57,0h427.54v42.36H48.11v130.26h115.79v-42.89h-69.03v-42.36h113.56v127.61H3.57V0Z"/>
  <path class="st0" d="M306.78,376.36v-65.33h-29.5v-18.79h80.65v18.79h-29.37v66.1h-21.78v-.76ZM188.05,376.36v-84.13h19.87l37.91,54.11v-54.11h19.4v84.89h-20.47l-37.32-53.05v53.05h-19.4v-.76ZM101.6,335.15c0,4.59.53,8.61,1.59,12.07,1.05,3.43,2.63,6.32,4.71,8.64,2.09,2.33,4.47,4.08,7.13,5.24,2.66,1.16,5.61,1.75,8.85,1.75s6.19-.58,8.84-1.74c2.64-1.15,5-2.89,7.07-5.19,2.06-2.31,3.61-5.2,4.64-8.68,1.05-3.51,1.57-7.62,1.57-12.32s-.51-8.71-1.53-12.16c-1.01-3.41-2.52-6.23-4.52-8.46-2-2.24-4.34-3.93-7.01-5.05-2.68-1.12-5.7-1.69-9.06-1.69s-6.38.57-9.07,1.71c-2.68,1.13-5.04,2.84-7.08,5.11-2.03,2.27-3.56,5.13-4.58,8.57-1.03,3.47-1.55,7.54-1.55,12.2ZM78.26,335.7c0-4.24.36-8.15,1.07-11.71.72-3.59,1.8-6.85,3.24-9.77,1.06-2.14,2.32-4.17,3.78-6.08,1.46-1.93,3.13-3.75,4.99-5.45,1.85-1.7,3.8-3.18,5.82-4.45,2.03-1.26,4.16-2.32,6.36-3.15,2.93-1.1,6.09-1.94,9.47-2.49,3.36-.55,6.95-.83,10.75-.83,6.9,0,13.12.96,18.66,2.88,5.56,1.92,10.42,4.81,14.59,8.65,4.17,3.86,7.3,8.47,9.39,13.82,2.07,5.33,3.11,11.4,3.11,18.21s-1.04,12.77-3.09,18.07c-2.07,5.32-5.18,9.9-9.32,13.74-4.13,3.84-8.96,6.72-14.49,8.64-5.52,1.91-11.72,2.87-18.59,2.87s-13.22-.95-18.78-2.86c-5.57-1.91-10.43-4.77-14.55-8.59-4.14-3.81-7.25-8.36-9.31-13.63-2.06-5.24-3.09-11.2-3.09-17.85ZM.4,376.36v-84.13h61.83v18H24.2v15.88h35.89v15.61H24.2v35.39H.4v-.76ZM368.61,376.36v-84.13h63.97v18.79h-38.77v13.81h35.89v18.26h-35.89v16.7h40.49v17.33h-65.68v-.76Z"/>
  <path class="st0" d="M401.04,259.9c0,4.76,1.16,8.36,3.47,10.83,2.31,2.45,5.25,3.68,8.8,3.68s6.48-1.22,8.77-3.65c2.28-2.44,3.42-6.1,3.42-10.97s-1.11-8.41-3.34-10.78c-2.22-2.38-5.17-3.56-8.86-3.56s-6.65,1.2-8.9,3.59c-2.25,2.4-3.38,6.02-3.38,10.86M391.85,260.18c0-4.28.68-7.88,2.02-10.79,1-2.14,2.37-4.06,4.11-5.77,1.74-1.7,3.64-2.96,5.7-3.79,2.75-1.11,5.93-1.66,9.52-1.66,6.51,0,11.71,1.92,15.63,5.77,3.9,3.85,5.86,9.19,5.86,16.04s-1.94,12.11-5.82,15.94c-3.87,3.84-9.06,5.76-15.54,5.76s-11.79-1.91-15.67-5.73c-3.87-3.81-5.81-9.07-5.81-15.77ZM308.01,246.03v11.96h4.86c3.5,0,5.83-.23,7.02-.66,1.18-.44,2.11-1.12,2.78-2.07.67-.94,1.01-2.02,1.01-3.27,0-1.53-.47-2.79-1.41-3.79-.94-1-2.12-1.62-3.57-1.88-1.06-.19-3.18-.28-6.39-.28h-4.28ZM299.07,280.91v-41.98h14.29c5.41,0,8.94.2,10.58.62,2.53.64,4.64,2,6.35,4.11,1.71,2.11,2.56,4.84,2.56,8.18,0,2.58-.49,4.74-1.47,6.5-.99,1.76-2.23,3.14-3.74,4.14-1.51,1-3.05,1.66-4.61,1.99-2.13.4-5.2.6-9.23.6h-5.79v15.83h-8.94ZM201.04,238.94h8.94v22.75c0,3.62.11,5.95.33,7.02.38,1.72,1.27,3.11,2.69,4.14,1.43,1.04,3.37,1.56,5.83,1.56s4.39-.49,5.66-1.48c1.27-.99,2.03-2.19,2.29-3.62.26-1.44.39-3.81.39-7.13v-23.23h8.94v22.07c0,5.04-.24,8.61-.72,10.69-.48,2.08-1.37,3.84-2.66,5.28-1.28,1.44-3.01,2.57-5.17,3.42-2.17.85-4.98,1.28-8.46,1.28-4.2,0-7.39-.46-9.55-1.39-2.17-.93-3.88-2.13-5.15-3.62-1.26-1.48-2.09-3.03-2.49-4.66-.59-2.4-.87-5.96-.87-10.66v-22.41ZM111.94,256.7h6.6c4.27,0,6.93-.18,8-.52,1.06-.34,1.9-.94,2.5-1.78.61-.84.9-1.9.9-3.16,0-1.42-.4-2.55-1.19-3.43-.79-.87-1.91-1.42-3.35-1.64-.73-.1-2.89-.15-6.5-.15h-6.96v10.67ZM103.01,280.91v-41.98h18.77c4.72,0,8.15.38,10.28,1.13,2.15.75,3.85,2.09,5.14,4.02,1.29,1.94,1.93,4.13,1.93,6.61,0,3.16-.97,5.76-2.91,7.81-1.94,2.05-4.84,3.34-8.7,3.88,1.92,1.06,3.5,2.24,4.75,3.52,1.25,1.28,2.94,3.56,5.05,6.82l5.38,8.19h-10.65l-6.39-9.17c-2.29-3.25-3.86-5.31-4.72-6.16-.84-.84-1.74-1.43-2.68-1.74-.96-.31-2.46-.47-4.51-.47h-1.81v17.53h-8.94ZM22.07,265.5v-7.09h19.17v16.75c-1.86,1.73-4.56,3.24-8.11,4.56-3.53,1.31-7.12,1.96-10.76,1.96-4.61,0-8.63-.92-12.06-2.77-3.42-1.85-6-4.5-7.72-7.93-1.73-3.43-2.59-7.17-2.59-11.21,0-4.38.97-8.27,2.89-11.68,1.93-3.4,4.75-6.02,8.45-7.84,2.84-1.4,6.35-2.09,10.56-2.09,5.48,0,9.76,1.09,12.84,3.28,3.07,2.2,5.05,5.22,5.94,9.09l-8.88,1.58c-.62-2.06-1.79-3.69-3.5-4.9-1.7-1.19-3.84-1.79-6.41-1.79-3.88,0-6.97,1.17-9.27,3.53-2.29,2.36-3.44,5.84-3.44,10.46,0,4.99,1.16,8.74,3.48,11.23,2.33,2.49,5.37,3.74,9.14,3.74,1.86,0,3.73-.35,5.6-1.04,1.88-.69,3.48-1.54,4.83-2.54v-5.33h-10.17Z"/>
  <path class="st0" d="M416.59,405.87l3.75-.35c.23,1.19.68,2.07,1.37,2.63.69.56,1.61.84,2.78.84,1.23,0,2.17-.25,2.79-.75.62-.5.94-1.08.94-1.75,0-.43-.13-.79-.4-1.1-.26-.3-.72-.56-1.38-.78-.45-.15-1.47-.41-3.06-.79-2.06-.49-3.5-1.09-4.33-1.8-1.17-1-1.75-2.22-1.75-3.66,0-.92.28-1.79.82-2.6.55-.81,1.34-1.42,2.37-1.84,1.04-.42,2.28-.63,3.74-.63,2.38,0,4.18.5,5.38,1.51,1.21,1.01,1.84,2.35,1.9,4.03l-3.86.13c-.16-.94-.51-1.61-1.05-2.02-.54-.41-1.34-.62-2.42-.62s-1.98.22-2.6.66c-.4.28-.61.66-.61,1.13,0,.43.19.8.57,1.1.48.39,1.66.8,3.53,1.22,1.87.42,3.25.86,4.14,1.3.9.45,1.6,1.06,2.1,1.84.51.78.76,1.74.76,2.89,0,1.04-.3,2.01-.91,2.92-.61.91-1.46,1.58-2.57,2.02-1.11.44-2.49.66-4.15.66-2.41,0-4.26-.53-5.55-1.58-1.29-1.05-2.06-2.6-2.31-4.62M393.82,404.56l-2.65-6.71-2.57,6.71h5.22ZM400.87,411.75h-4.16l-1.65-4.13h-7.64l-1.58,4.13h-4.08l7.4-18.13h4.08l7.64,18.13ZM359.04,411.75v-15.06h-5.64v-3.06h15.12v3.06h-5.62v15.06h-3.86ZM321.31,405.87l3.75-.35c.23,1.19.68,2.07,1.37,2.63.69.56,1.61.84,2.78.84,1.23,0,2.17-.25,2.79-.75.62-.5.94-1.08.94-1.75,0-.43-.13-.79-.4-1.1-.26-.3-.72-.56-1.38-.78-.45-.15-1.47-.41-3.06-.79-2.06-.49-3.5-1.09-4.33-1.8-1.17-1-1.75-2.22-1.75-3.66,0-.92.28-1.79.82-2.6.55-.81,1.34-1.42,2.37-1.84,1.04-.42,2.28-.63,3.74-.63,2.38,0,4.18.5,5.38,1.51,1.21,1.01,1.84,2.35,1.9,4.03l-3.86.13c-.16-.94-.51-1.61-1.05-2.02-.54-.41-1.34-.62-2.42-.62s-1.98.22-2.6.66c-.4.28-.61.66-.61,1.13,0,.43.19.8.57,1.1.48.39,1.66.8,3.53,1.22,1.87.42,3.25.86,4.14,1.3.9.45,1.6,1.06,2.1,1.84.5.78.76,1.74.76,2.89,0,1.04-.3,2.01-.91,2.92-.61.91-1.46,1.58-2.57,2.02-1.11.44-2.49.66-4.15.66-2.41,0-4.26-.53-5.55-1.58-1.29-1.05-2.06-2.6-2.31-4.62ZM300.13,411.75v-18.13h3.86v18.13h-3.86ZM269.44,411.75v-17.97h3.86v14.91h9.56v3.06h-13.42ZM238.51,411.75v-17.97h3.86v14.91h9.56v3.06h-13.42ZM206.19,402.67c0,2.06.5,3.61,1.5,4.67,1,1.06,2.27,1.59,3.8,1.59s2.8-.53,3.79-1.58c.98-1.05,1.48-2.63,1.48-4.74s-.48-3.63-1.44-4.66c-.96-1.02-2.23-1.53-3.83-1.53s-2.87.52-3.84,1.55c-.97,1.04-1.46,2.6-1.46,4.69ZM202.23,402.79c0-1.85.29-3.4.87-4.66.43-.92,1.02-1.76,1.78-2.49.75-.73,1.57-1.28,2.46-1.64,1.19-.48,2.56-.72,4.11-.72,2.81,0,5.06.83,6.75,2.49,1.69,1.66,2.53,3.97,2.53,6.93s-.84,5.23-2.51,6.88c-1.67,1.66-3.91,2.48-6.71,2.48s-5.09-.82-6.76-2.47c-1.67-1.65-2.51-3.92-2.51-6.81ZM173,401.29h2.85c1.84,0,2.99-.08,3.46-.22.46-.15.82-.41,1.08-.77.26-.36.39-.82.39-1.36,0-.61-.17-1.1-.51-1.48-.34-.38-.82-.61-1.45-.71-.32-.04-1.25-.06-2.81-.06h-3v4.61ZM169.13,411.75v-18.13h8.1c2.04,0,3.52.16,4.44.49.93.33,1.66.9,2.22,1.74.56.83.83,1.79.83,2.86,0,1.36-.42,2.49-1.25,3.37-.84.88-2.09,1.44-3.76,1.68.83.46,1.51.96,2.05,1.52.54.55,1.27,1.54,2.18,2.94l2.33,3.54h-4.6l-2.76-3.96c-.99-1.4-1.67-2.29-2.03-2.66-.36-.36-.75-.62-1.16-.75-.41-.14-1.06-.2-1.95-.2h-.78v7.57h-3.86ZM139.1,401.29h2.85c1.85,0,2.99-.08,3.46-.22.46-.15.82-.41,1.08-.77.26-.36.39-.82.39-1.36,0-.61-.17-1.1-.51-1.48-.34-.38-.82-.61-1.45-.71-.32-.04-1.25-.06-2.81-.06h-3v4.61ZM135.24,411.75v-18.13h8.1c2.04,0,3.52.16,4.44.49.93.33,1.66.9,2.22,1.74.56.83.83,1.79.83,2.86,0,1.36-.42,2.49-1.25,3.37-.84.88-2.09,1.44-3.76,1.68.83.46,1.51.96,2.05,1.52.54.55,1.27,1.54,2.18,2.94l2.33,3.54h-4.6l-2.76-3.96c-.99-1.4-1.67-2.29-2.04-2.66-.36-.36-.75-.62-1.16-.75-.41-.14-1.06-.2-1.95-.2h-.78v7.57h-3.86ZM111.47,404.56l-2.65-6.71-2.57,6.71h5.22ZM118.52,411.75h-4.16l-1.65-4.13h-7.64l-1.58,4.13h-4.08l7.4-18.13h4.08l7.64,18.13ZM67.92,405.87l3.75-.35c.23,1.19.68,2.07,1.37,2.63.69.56,1.61.84,2.78.84,1.23,0,2.17-.25,2.79-.75.62-.5.94-1.08.94-1.75,0-.43-.13-.79-.4-1.1-.26-.3-.72-.56-1.38-.78-.45-.15-1.47-.41-3.06-.79-2.06-.49-3.5-1.09-4.33-1.8-1.17-1-1.75-2.22-1.75-3.66,0-.92.28-1.79.82-2.6.55-.81,1.34-1.42,2.37-1.84,1.04-.42,2.28-.63,3.74-.63,2.38,0,4.18.5,5.38,1.51,1.21,1.01,1.84,2.35,1.9,4.03l-3.86.13c-.16-.94-.51-1.61-1.05-2.02-.54-.41-1.34-.62-2.42-.62s-1.98.22-2.6.66c-.4.28-.61.66-.61,1.13,0,.43.19.8.57,1.1.48.39,1.66.8,3.53,1.22,1.87.42,3.25.86,4.14,1.3.9.45,1.6,1.06,2.1,1.84.51.78.76,1.74.76,2.89,0,1.04-.3,2.01-.91,2.92-.61.91-1.46,1.58-2.57,2.02-1.11.44-2.49.66-4.15.66-2.41,0-4.26-.53-5.55-1.58-1.29-1.05-2.06-2.6-2.31-4.62ZM36.5,411.75v-18.13h14.11v3.06h-10.25v4.03h9.53v3.06h-9.53v4.91h10.62v3.06h-14.48ZM6.47,396.68v12h2.86c1.07,0,1.84-.06,2.31-.17.62-.15,1.14-.4,1.55-.75.41-.36.75-.94,1-1.75.26-.81.39-1.92.39-3.32s-.13-2.47-.39-3.22c-.26-.75-.62-1.33-1.09-1.75-.47-.42-1.06-.71-1.77-.85-.53-.11-1.58-.17-3.15-.17h-1.72ZM2.61,393.62h7.02c1.58,0,2.79.11,3.62.34,1.11.31,2.07.87,2.87,1.67.8.8,1.4,1.78,1.82,2.94.41,1.15.62,2.59.62,4.28,0,1.49-.2,2.78-.59,3.86-.47,1.32-1.15,2.39-2.03,3.2-.66.62-1.57,1.1-2.7,1.45-.85.26-1.98.38-3.4.38H2.61v-18.13Z"/>
</svg>