<?xml version="1.0" encoding="UTF-8"?>
<svg id="Capa_1" xmlns="http://www.w3.org/2000/svg" version="1.1" viewBox="0 0 333.91 55.02">
  <!-- Generator: Adobe Illustrator 30.5.1, SVG Export Plug-In . SVG Version: 2.1.4 Build 3)  -->
  <defs>
    <style>
      .st0 {
        fill: #fff;
      }
    </style>
  </defs>
  <path class="st0" d="M182.97,34.8l4.61-12.34,4.61,12.34h-9.21ZM194.74,7.81h-10.74c-3.89,6.66-6.39,16.21-10.28,24.97-4.05,9.14-6.91,13.41-13.77,18.21h16.98l2.33-6.24h16.61l2.33,6.24h12.63l-16.11-43.17Z"/>
  <path class="st0" d="M235.56,34.45h-.03s.03-.01.03-.01h0ZM246.89,26.64h-19.69v7.8h8.33c-1.62,2.4-4.38,3.98-7.49,3.98-5,0-9.04-4.05-9.04-9.04s4.04-9.05,9.04-9.05c2.54,0,4.83,1.05,6.48,2.74l10.53-7.01c-3.95-5.05-10.09-8.29-17-8.29-11.92,0-21.6,9.66-21.6,21.6s9.67,21.6,21.6,21.6c8.1,0,15.15-4.46,18.85-11.06v-13.28Z"/>
  <path class="st0" d="M273.09,26.9h-9.73v-7.65h9.73c3.93.01,4.35,2.68,4.35,3.83s-.42,3.81-4.35,3.81M281.32,36.31c1.31-.73,2.49-1.64,3.51-2.73,2.63-2.8,4.07-6.53,4.07-10.49s-1.44-7.69-4.07-10.5c-2.85-3.03-6.91-4.73-11.46-4.79h-22.63v43.09h12.61v-12.6h5.07l6.6,12.6h13.93l-7.63-14.59Z"/>
  <path class="st0" d="M312.31,39.05c-5.33,0-9.66-4.32-9.66-9.66s4.33-9.66,9.66-9.66,9.66,4.33,9.66,9.66-4.32,9.66-9.66,9.66M312.31,7.81c-11.92,0-21.59,9.66-21.59,21.59s9.66,21.59,21.59,21.59,21.6-9.66,21.6-21.59-9.67-21.59-21.6-21.59Z"/>
  <path class="st0" d="M15.92,17.91c6.18,0,9.27,3.18,9.27,9.54v18.82c0,2.68,1.38,4.01,4.16,4.01h2.48v-22.14c.09-10.7-5.21-16.05-15.9-16.05S-.09,17.45,0,28.15v22.14h6.51v-22.83c0-6.36,3.14-9.54,9.41-9.54"/>
  <path class="st0" d="M50.31,45.44c-3.32,0-5.73-.94-7.2-2.83-1.48-1.9-2.21-4.13-2.21-6.72V12.78h-6.51v22.42c0,10.51,5.3,15.77,15.92,15.77s15.9-5.27,15.9-15.77V12.78h-2.48c-2.77,0-4.16,1.38-4.16,4.16v18.95c0,2.59-.74,4.82-2.22,6.72-1.48,1.89-3.83,2.83-7.05,2.83"/>
  <path class="st0" d="M101.66,33.95c.73-14.48-4.79-21.72-16.6-21.72s-16.93,6.46-17.03,19.37c.19,12.92,5.73,19.38,16.61,19.38,9.03,0,14.52-4.06,16.46-12.18h-4.16c-1.65,0-2.9.74-3.73,2.22-1.38,2.4-4.06,3.73-8.03,4.01-6.54,0-10.1-3.7-10.65-11.07,18.27,0,27.31,0,27.12,0M95.3,28.56c.18,0-6.73,0-20.76,0,.83-7.01,4.31-10.51,10.45-10.51s9.56,3.49,10.31,10.51Z"/>
  <path class="st0" d="M112.78,50.28h6.79l13.14-37.5h-2.63c-2.76,0-4.6,1.38-5.53,4.16l-8.44,24.63-9.69-28.78h-6.78l13.14,37.5Z"/>
  <path class="st0" d="M147.81,12.23c-11.25,0-16.88,6.46-16.88,19.37,0,11.26,4.21,17.61,12.62,19.05,2.06-1.64,3.9-3.57,5.58-5.7-.42.04-.86.07-1.31.07-7.01,0-10.52-4.47-10.52-13.42s3.51-13.55,10.52-13.55c6.34-.09,9.81,3.6,10.42,11.04,1.41-3.03,2.77-6.12,4.15-9.16-2.62-5.13-7.48-7.7-14.57-7.7"/>
  <path class="st0" d="M192.2,0c-32.92,2.33-27.65,44.39-51.77,54.39,11.52-2.6,17.38-11.98,22.08-22.1,2.31-4.96,8.1-17.58,11.88-21.36-4.94,7.05-9.68,19.08-10.99,21.88-4.74,10.19-10.72,19.41-22.5,22.19,36.67,1.17,29.44-50.2,51.3-55"/>
</svg>