<?xml version="1.0" encoding="UTF-8"?>
<svg id="isotipo" xmlns="http://www.w3.org/2000/svg" version="1.1" viewBox="0 0 654.98 640.84">
  <!-- Generator: Adobe Illustrator 30.5.1, SVG Export Plug-In . SVG Version: 2.1.4 Build 3)  -->
  <defs>
    <style>
      .st0 {
        fill: #fff;
      }
    </style>
  </defs>
  <path class="st0" d="M234.69,633.37h176.57c.02,2.44.04,4.89.06,7.33-58.88.2-117.77.03-176.65.14,0-2.5,0-4.98,0-7.47h0Z"/>
  <g>
    <path class="st0" d="M0,540.74h20.21c9.43,0,17.31.63,22.75,7.16,3.44,4.17,3.99,8.88,3.99,12.24,0,7.61-3.17,14.05-8.34,17.4-4.8,3.08-11.42,3.08-14.87,3.08h-9.52v25.47H0v-65.36h0ZM13.87,570.19h5.62c4.53,0,12.96,0,12.96-9.97,0-8.88-7.52-8.88-11.51-8.88h-7.07s0,18.85,0,18.85Z"/>
    <path class="st0" d="M54.94,540.55h25.11c7.25-.09,14.6-.09,19.85,4.44,4.08,3.53,5.71,8.34,5.71,12.6,0,12.24-10.51,15.14-13.69,16.04,9.88.91,10.61,6.53,11.78,15.05,1,7.71,1.54,10.88,1.99,12.69.72,2.9,1.27,3.63,1.99,4.71h-15.5c-.63-3.63-2.63-20.21-3.53-22.75-1.27-3.72-4.71-3.72-7.07-3.72h-12.33v26.47h-14.32v-65.54h.01ZM68.81,569.2h11.33c1.63,0,4.9,0,7.16-1.81,1-.72,3.63-2.99,3.63-7.61s-2.18-6.53-3.44-7.35c-2.18-1.54-4.81-1.54-9.25-1.54h-9.43v18.31h0Z"/>
    <path class="st0" d="M144.32,539.19c6.98,0,16.59,1.63,23.02,8.88,6.98,7.98,8.34,18.22,8.34,24.66,0,9.51-2.9,19.67-8.25,25.65-7.25,8.16-17.86,9.34-23.3,9.34-8.61,0-17.22-2.72-23.21-8.97-7.16-7.61-8.07-18.49-8.07-24.47,0-17.4,7.89-35.08,31.46-35.08h.01ZM132.45,592.13c1.99,2.72,5.35,5.26,11.87,5.26,5.71,0,9.61-1.99,12.24-6.07,2.17-3.26,4.44-8.34,4.44-18.76,0-3.17-.27-7.71-1.63-11.69-2.72-8.07-8.25-11.6-14.96-11.6-5.26,0-9.43,2.17-12.06,5.53-3.72,4.53-4.8,11.6-4.8,19.03,0,6.26,1,13.24,4.9,18.31h0Z"/>
    <path class="st0" d="M222.74,561.94c-.27-2.26-1.09-11.51-10.61-11.51-10.42,0-14.78,10.88-14.78,24.39,0,3.9,0,22.48,13.69,22.48,5.89,0,11.51-3.72,11.78-12.42h14.78c-.27,3.9-.63,9.97-5.89,15.41-5.8,5.98-13.14,7.34-19.13,7.34-22.57,0-29.91-16.68-29.91-32.9,0-20.76,11.6-34.54,30-34.54,14.32,0,24.38,8.7,24.38,21.75h-14.32,0Z"/>
    <path class="st0" d="M275.32,539.19c6.98,0,16.59,1.63,23.02,8.88,6.98,7.98,8.34,18.22,8.34,24.66,0,9.51-2.9,19.67-8.25,25.65-7.25,8.16-17.86,9.34-23.3,9.34-8.61,0-17.22-2.72-23.21-8.97-7.16-7.61-8.07-18.49-8.07-24.47,0-17.4,7.89-35.08,31.46-35.08h.01ZM263.45,592.13c1.99,2.72,5.35,5.26,11.87,5.26,5.71,0,9.61-1.99,12.24-6.07,2.17-3.26,4.44-8.34,4.44-18.76,0-3.17-.27-7.71-1.63-11.69-2.72-8.07-8.25-11.6-14.96-11.6-5.26,0-9.43,2.17-12.06,5.53-3.72,4.53-4.8,11.6-4.8,19.03,0,6.26,1,13.24,4.9,18.31h0Z"/>
    <path class="st0" d="M316.03,540.55h25.11c7.25-.09,14.6-.09,19.85,4.44,4.08,3.53,5.71,8.34,5.71,12.6,0,12.24-10.51,15.14-13.69,16.04,9.88.91,10.61,6.53,11.78,15.05,1,7.71,1.54,10.88,1.99,12.69.72,2.9,1.27,3.63,1.99,4.71h-15.5c-.63-3.63-2.63-20.21-3.53-22.75-1.27-3.72-4.71-3.72-7.07-3.72h-12.33v26.47h-14.32v-65.54h.01ZM329.9,569.2h11.33c1.63,0,4.9,0,7.16-1.81,1-.72,3.63-2.99,3.63-7.61s-2.18-6.53-3.44-7.35c-2.18-1.54-4.81-1.54-9.25-1.54h-9.43v18.31h0Z"/>
    <path class="st0" d="M387.65,585.15c0,3.08-.18,12.42,11.87,12.42,7.61,0,12.42-3.63,12.42-9.15,0-5.8-4.08-6.8-12.42-8.79-15.59-3.9-24.11-8.52-24.11-19.85s7.71-20.3,25.92-20.3c6.8,0,14.87,1.54,19.76,7.7,3.72,4.72,3.72,9.97,3.72,12.15h-13.51c-.18-2.26-.91-9.97-10.61-9.97-6.53,0-10.79,3.54-10.79,8.88,0,6.07,4.81,7.16,14.23,9.52,11.33,2.72,22.48,5.8,22.48,18.58,0,11.78-9.79,21.3-27.92,21.3-25.11,0-25.29-16.14-25.38-22.48h14.34Z"/>
    <path class="st0" d="M436.69,540.55h14.05v26.19h24.75v-26.19h14.23v65.54h-14.05v-28.74h-24.93v28.74h-14.05v-65.54h0Z"/>
    <path class="st0" d="M531.33,539.19c6.98,0,16.59,1.63,23.02,8.88,6.98,7.98,8.34,18.22,8.34,24.66,0,9.51-2.9,19.67-8.25,25.65-7.25,8.16-17.86,9.34-23.3,9.34-8.61,0-17.22-2.72-23.21-8.97-7.16-7.61-8.07-18.49-8.07-24.47,0-17.4,7.89-35.08,31.46-35.08h0ZM519.46,592.13c1.99,2.72,5.35,5.26,11.87,5.26,5.71,0,9.61-1.99,12.24-6.07,2.17-3.26,4.44-8.34,4.44-18.76,0-3.17-.27-7.71-1.63-11.69-2.72-8.07-8.25-11.6-14.96-11.6-5.26,0-9.43,2.17-12.06,5.53-3.72,4.53-4.8,11.6-4.8,19.03,0,6.26,1,13.24,4.9,18.31h0Z"/>
    <path class="st0" d="M580.65,540.82l10.15,49.04,12.78-49.04h15.86l11.51,49.04,10.61-49.04h13.42l-16.68,65.45h-15.59l-11.87-50.04-12.78,50.04h-15.95l-15.95-65.45h14.5,0Z"/>
  </g>
  <g>
    <path class="st0" d="M299.68,440.03c0-47.02,38.12-85.15,85.15-85.15,29.44,0,55.39,14.95,70.68,37.66l104.2-102.81-117.41-119.01-160.94,158.79c-1.71,1.84-3.49,3.6-5.36,5.28l-.23.23v-.02c-15.07,13.47-34.95,21.66-56.74,21.66-47.02,0-85.15-38.12-85.15-85.15s38.12-85.15,85.15-85.15c29.44,0,55.39,14.95,70.68,37.66L477.67,38.55C431.41,13.33,378.94,0,325.93,0,150.9,0,8.5,142.4,8.5,317.43c0,52.21,12.95,103.98,37.46,149.71,2.25,4.2,9.32,13.98,26.25,13.98h238.04c-6.73-12.19-10.57-26.19-10.57-41.1h0Z"/>
    <path class="st0" d="M643.09,304.79l-178.81,176.33h117.97c14.83,0,20.58-8.35,21.98-10.91,25.6-46.53,39.13-99.36,39.13-152.78,0-3.82-.09-7.95-.27-12.64h0Z"/>
  </g>
</svg>