<?xml version="1.0" encoding="UTF-8"?>
<svg id="Capa_1" xmlns="http://www.w3.org/2000/svg" version="1.1" viewBox="0 0 765.64 200.17">
  <!-- Generator: Adobe Illustrator 30.5.1, SVG Export Plug-In . SVG Version: 2.1.4 Build 3)  -->
  <defs>
    <style>
      .st0 {
        fill: #fff;
      }
    </style>
  </defs>
  <path class="st0" d="M82.39,149.17c4.92-24.12-5.76-48.48-17.88-72.72-12.12-24.24-11.64-42.12-10.2-49.56,1.47-7.61,4.82-14.05,8.74-19.4C26.12,22.14,0,58.19,0,100.33c0,36.82,19.93,68.97,49.59,86.28,14.39-5.94,28.83-17.98,32.8-37.44Z"/>
  <path class="st0" d="M199.08,93.49c-2.54-9.31-6.92-16.76-16.37-19.24-15.84-4.16-30.72,12-37.92,36.48-7.2,24.48-7.52,35.52-16.64,51.2-7.34,12.62-20.28,30.72-37.55,37.81,3.04.28,6.12.43,9.24.43,55.14,0,99.83-44.7,99.83-99.83,0-.8,0-1.6-.03-2.4-.02-.89-.4-3.85-.56-4.44Z"/>
  <path class="st0" d="M110.71,169.29c13.6-23.2,18.08-50.88,22.56-70.08,4.48-19.2,10.4-43.2,27.68-49.12,11.98-4.1,22.65,2.72,30.9,11.44C176.71,25.67,141.21.5,99.83.5c-1.2,0-2.4.03-3.59.07-7.23.55-15.16,4.49-19.29,16.73-4.48,13.28,4.16,41.28,10.72,58.56,6.56,17.28,19.84,52,8.32,82.87-8.09,21.68-21.07,31.06-30.46,34.39-.42.15-1.03.32-1.53.42.21,0,.71-.02.93-.03,10.61-.48,34.36-4.72,45.78-24.21ZM94.51,65.78c0-11.6,7.68-21,17.16-21s17.16,9.4,17.16,21-7.68,21-17.16,21-17.16-9.4-17.16-21Z"/>
  <path class="st0" d="M199.64,98.1s0-.03,0-.06c0,.02,0,.03,0,.05,0,0,0,0,0,0Z"/>
  <path class="st0" d="M258.39,60.75c-.19-.82-.94-1.38-1.76-1.38h-4.52c-.82,0-1.57.57-1.76,1.38-1.88,7.03-8.86,33.04-11.37,42.33-.31,1.19.57,2.32,1.76,2.32h3.58c.82,0,1.51-.57,1.76-1.38.38-1.32.88-3.2,1.44-5.46.25-.82.94-1.38,1.82-1.38h10.05c.88,0,1.57.57,1.82,1.38.75,2.89,1.19,4.52,1.44,5.46.25.82.94,1.38,1.76,1.38h3.58c1.19,0,2.07-1.13,1.76-2.32-2.32-8.73.5,2.01-11.37-42.33ZM256.57,90.08h-4.4c-1.19,0-2.07-1.13-1.76-2.32.75-2.64,1.44-5.34,2.2-8.04.44-1.82,3.08-1.82,3.52,0,.82,3.01,1.57,5.72,2.2,8.04.31,1.19-.57,2.32-1.76,2.32Z"/>
  <path class="st0" d="M303.61,59.37h-3.39c-1,0-1.88.82-1.88,1.82v25.81c0,.38-.19.63-.5.69-.38.06-.69-.06-.82-.38l-12.56-26.88c-.25-.63-.94-1.07-1.63-1.07h-4.84c-1,0-1.82.82-1.82,1.82v42.39c0,1,.82,1.82,1.82,1.82h3.39c1.07,0,1.88-.82,1.88-1.82v-25.81c0-.38.19-.63.57-.69.31-.06.63.06.75.38l12.56,26.88c.31.63.94,1.07,1.63,1.07h4.84c.5,0,.94-.19,1.32-.57.31-.31.5-.82.5-1.26v-42.39c0-1-.82-1.82-1.82-1.82Z"/>
  <path class="st0" d="M342.62,103.08c-2.32-8.73.5,2.01-11.37-42.33-.19-.82-.94-1.38-1.76-1.38h-4.52c-.82,0-1.57.57-1.76,1.38-1.88,7.03-8.86,33.04-11.37,42.33-.31,1.19.57,2.32,1.76,2.32h3.58c.82,0,1.51-.57,1.76-1.38.38-1.32.88-3.2,1.44-5.46.25-.82.94-1.38,1.82-1.38h10.05c.88,0,1.57.57,1.82,1.38.75,2.89,1.19,4.52,1.44,5.46.25.82.94,1.38,1.76,1.38h3.58c1.19,0,2.07-1.13,1.76-2.32ZM329.43,90.08h-4.4c-1.19,0-2.07-1.13-1.76-2.32.75-2.64,1.44-5.34,2.2-8.04.44-1.82,3.08-1.82,3.52,0,.82,3.01,1.57,5.72,2.2,8.04.31,1.19-.57,2.32-1.76,2.32Z"/>
  <path class="st0" d="M350.85,105.4h13.94c13.94,0,16.71-16.96,8.35-23.8-.69-.5-.88-1.45-.44-2.2,4.15-7.91.25-20.04-11.49-20.04h-10.36c-1,0-1.82.82-1.82,1.82v42.39c0,1,.82,1.82,1.82,1.82ZM356.12,68.29c0-1,.82-1.82,1.82-1.82h3.39c8.04,0,7.85,12.37,0,12.37h-3.39c-1,0-1.82-.82-1.82-1.82v-8.73ZM356.12,87.76c0-1,.82-1.82,1.82-1.82h6.97c7.98,0,7.85,12.37,0,12.37h-6.97c-1,0-1.82-.82-1.82-1.82v-8.73Z"/>
  <path class="st0" d="M385.96,105.4h18.97c1,0,1.82-.82,1.82-1.82v-3.45c0-1-.82-1.82-1.82-1.82h-11.87c-1,0-1.82-.82-1.82-1.82v-13.69c0-1.01.82-1.82,1.82-1.82h7.85c1.07,0,1.88-.88,1.88-1.88v-3.39c0-1-.82-1.82-1.88-1.82h-7.85c-1,0-1.82-.82-1.82-1.82v-3.77c0-1,.82-1.82,1.82-1.82h11.87c1,0,1.82-.82,1.82-1.82v-3.45c0-1-.82-1.82-1.82-1.82h-18.97c-1,0-1.82.82-1.82,1.82v42.39c0,1,.82,1.82,1.82,1.82Z"/>
  <path class="st0" d="M414.85,105.4h17.33c1,0,1.82-.82,1.82-1.82v-3.45c0-1-.82-1.82-1.82-1.82h-10.24c-1,0-1.82-.82-1.82-1.82v-35.3c0-1-.82-1.82-1.82-1.82h-3.45c-1,0-1.82.82-1.82,1.82v42.39c0,1,.82,1.82,1.82,1.82Z"/>
  <path class="st0" d="M442.11,105.4h17.33c1,0,1.82-.82,1.82-1.82v-3.45c0-1-.82-1.82-1.82-1.82h-10.24c-1,0-1.82-.82-1.82-1.82v-35.3c0-1-.82-1.82-1.82-1.82h-3.45c-1,0-1.82.82-1.82,1.82v42.39c0,1,.82,1.82,1.82,1.82Z"/>
  <path class="st0" d="M469.43,105.4h3.58c.82,0,1.51-.57,1.76-1.38.38-1.32.88-3.2,1.44-5.46.25-.82.94-1.38,1.82-1.38h10.05c.88,0,1.57.57,1.82,1.38.75,2.89,1.19,4.52,1.44,5.46.25.82.94,1.38,1.76,1.38h3.58c1.19,0,2.07-1.13,1.76-2.32-2.32-8.73.5,2.01-11.37-42.33-.19-.82-.94-1.38-1.76-1.38h-4.52c-.82,0-1.57.57-1.76,1.38-1.88,7.03-8.86,33.04-11.37,42.33-.31,1.19.56,2.32,1.76,2.32ZM479.11,87.76c.75-2.64,1.44-5.34,2.2-8.04.44-1.82,3.08-1.82,3.52,0,.82,3.01,1.57,5.72,2.2,8.04.31,1.19-.57,2.32-1.76,2.32h-4.4c-1.19,0-2.07-1.13-1.76-2.32Z"/>
  <path class="st0" d="M547.82,81.6c-.69-.5-.88-1.45-.44-2.2,4.15-7.91.25-20.04-11.49-20.04h-10.36c-1.01,0-1.82.82-1.82,1.82v42.39c0,1,.82,1.82,1.82,1.82h13.94c13.94,0,16.71-16.96,8.35-23.8ZM530.8,68.29c0-1,.82-1.82,1.82-1.82h3.39c8.04,0,7.85,12.37,0,12.37h-3.39c-1,0-1.82-.82-1.82-1.82v-8.73ZM530.8,96.49v-8.73c0-1,.82-1.82,1.82-1.82h6.97c7.98,0,7.85,12.37,0,12.37h-6.97c-1,0-1.82-.82-1.82-1.82Z"/>
  <path class="st0" d="M589.77,98.12c2.58-4.02,3.96-9.42,3.96-15.7s-1.38-11.75-3.96-15.7c-3.14-4.84-7.79-7.35-13.5-7.35s-10.36,2.51-13.5,7.35c-2.58,3.96-3.96,9.42-3.96,15.7s1.38,11.68,3.96,15.7c3.14,4.77,7.79,7.29,13.5,7.29s10.36-2.51,13.5-7.29ZM565.91,82.42c0-3.77.75-15.95,10.36-15.95s10.36,12.18,10.36,15.95-.75,15.89-10.36,15.89-10.36-12.18-10.36-15.89Z"/>
  <path class="st0" d="M601.84,105.4h20.73c1,0,1.82-.82,1.82-1.82v-3.39c0-1.07-.82-1.88-1.82-1.88h-13.88c-.19,0-.31-.06-.44-.25-.06-.12-.13-.31,0-.5l15.95-30.71c.13-.25.19-.57.19-.82v-4.84c0-1-.82-1.82-1.82-1.82h-20.73c-1.01,0-1.82.82-1.82,1.82v3.39c0,1.07.82,1.88,1.82,1.88h13.88c.19,0,.38.06.44.25.13.19.13.38,0,.5l-15.95,30.71c-.13.25-.19.57-.19.82v4.84c0,1,.82,1.82,1.82,1.82Z"/>
  <path class="st0" d="M632.49,105.4h20.73c1,0,1.82-.82,1.82-1.82v-3.39c0-1.07-.82-1.88-1.82-1.88h-13.88c-.19,0-.31-.06-.44-.25-.06-.12-.12-.31,0-.5l15.95-30.71c.12-.25.19-.57.19-.82v-4.84c0-1-.82-1.82-1.82-1.82h-20.73c-1,0-1.82.82-1.82,1.82v3.39c0,1.07.82,1.88,1.82,1.88h13.88c.19,0,.38.06.44.25.12.19.12.38,0,.5l-15.95,30.71c-.12.25-.19.57-.19.82v4.84c0,1,.82,1.82,1.82,1.82Z"/>
  <path class="st0" d="M680.85,60.75c-.19-.82-.94-1.38-1.76-1.38h-4.52c-.82,0-1.57.57-1.76,1.38-1.88,7.03-8.86,33.04-11.37,42.33-.31,1.19.57,2.32,1.76,2.32h3.58c.82,0,1.51-.57,1.76-1.38.38-1.32.88-3.2,1.45-5.46.25-.82.94-1.38,1.82-1.38h10.05c.88,0,1.57.57,1.82,1.38.75,2.89,1.19,4.52,1.44,5.46.25.82.94,1.38,1.76,1.38h3.58c1.19,0,2.07-1.13,1.76-2.32-2.32-8.73.5,2.01-11.37-42.33ZM679.03,90.08h-4.4c-1.19,0-2.07-1.13-1.76-2.32.75-2.64,1.45-5.34,2.2-8.04.44-1.82,3.08-1.82,3.52,0,.82,3.01,1.57,5.72,2.2,8.04.31,1.19-.57,2.32-1.76,2.32Z"/>
  <path class="st0" d="M726.07,59.37h-3.39c-1.01,0-1.88.82-1.88,1.82v25.81c0,.38-.19.63-.5.69-.38.06-.69-.06-.82-.38l-12.56-26.88c-.25-.63-.94-1.07-1.63-1.07h-4.84c-1,0-1.82.82-1.82,1.82v42.39c0,1,.82,1.82,1.82,1.82h3.39c1.07,0,1.88-.82,1.88-1.82v-25.81c0-.38.19-.63.57-.69.31-.06.63.06.75.38l12.56,26.88c.31.63.94,1.07,1.63,1.07h4.84c.5,0,.94-.19,1.32-.57.31-.31.5-.82.5-1.26v-42.39c0-1-.82-1.82-1.82-1.82Z"/>
  <path class="st0" d="M765.08,103.08c-2.32-8.73.5,2.01-11.37-42.33-.19-.82-.94-1.38-1.76-1.38h-4.52c-.82,0-1.57.57-1.76,1.38-1.88,7.03-8.86,33.04-11.37,42.33-.31,1.19.57,2.32,1.76,2.32h3.58c.82,0,1.51-.57,1.76-1.38.38-1.32.88-3.2,1.44-5.46.25-.82.94-1.38,1.82-1.38h10.05c.88,0,1.57.57,1.82,1.38.75,2.89,1.19,4.52,1.44,5.46.25.82.94,1.38,1.76,1.38h3.58c1.19,0,2.07-1.13,1.76-2.32ZM751.89,90.08h-4.4c-1.19,0-2.07-1.13-1.76-2.32.75-2.64,1.44-5.34,2.2-8.04.44-1.82,3.08-1.82,3.52,0,.82,3.01,1.57,5.72,2.2,8.04.31,1.19-.56,2.32-1.76,2.32Z"/>
  <path class="st0" d="M364.45,123.39c-5.52-.63-9.04,15.38-10.1,20.77-.5-5.08-1.32-13.93-5.65-14.06-4.71-.12-5.65,9.6-8.66,26.3.06-7.28.75-17.45,2.76-31.13.06-.69-.38-1.32-1.07-1.44-.69-.06-1.32.38-1.44,1.07-1.82,12.61-3.58,30-2.32,42.8.06.63.56,1.13,1.19,1.13s1.19-.38,1.25-1c3.39-16.82,5.59-35.27,8.16-35.21,3.2.06,4.2,21.78,3.7,28.05-.06.69.5,1.32,1.19,1.38.69.06,1.26-.44,1.32-1.13,2.01-23.79,7.28-35.21,9.35-35.02.38.06,1.44.94,2.01,4.52,1.63,10.61,1.32,19.39,0,41.92-.06.69.44,1.32,1.13,1.32h.13c.63,0,1.19-.5,1.26-1.19,1.19-21.21,1.69-31.13-.06-42.42-.63-4.02-2.07-6.4-4.14-6.65Z"/>
  <path class="st0" d="M410.57,139.83c.63.19,1.32-.19,1.51-.82l.56-1.88c.44-1.57-2.01-2.26-2.45-.63-.13.57-.31,1.19-.5,1.82s.19,1.32.88,1.51Z"/>
  <path class="st0" d="M446.9,136.5c-.13.57-.31,1.19-.5,1.82s.19,1.32.88,1.51c.63.19,1.32-.19,1.51-.82l.56-1.88c.44-1.57-2.01-2.26-2.45-.63Z"/>
  <path class="st0" d="M509.47,127.53c.69,0,1.25-.56,1.25-1.25s-.56-1.25-1.32-1.25l-14.25.38c.44-2.76.94-5.52,1.44-8.16.19-.69-.25-1.38-.94-1.51-.69-.12-1.32.31-1.51,1-.56,2.82-1.07,5.71-1.51,8.66l-11.48.38c-.69,0-1.26.56-1.19,1.25,0,.69.56,1.25,1.26,1.25l11.05-.31c-.87,6.85-1.3,13.95-1.31,21.41-1.51,2.45-4.96,5.98-7.16,4.58-2.13-1.32-.38-5.21-1.63-8.1-.56-1.32-1.69-2.13-2.95-2.2-2.7-.12-4.08,3.26-5.84,7.28.25-2.45.44-4.52.69-6.28.13-.69-.38-1.38-1.07-1.44-.69-.13-1.32.38-1.38,1.07-.22,1.53-.4,3.18-.56,4.84-2.13,3.64-4.58,6.15-7.09,7.59-3.64,2.01-9.98,2.2-9.04-3.51,4.46-.38,9.98-3.83,9.04-7.59-.56-2.38-4.02-3.77-7.59-.31-1.11,1.09-2.06,2.44-2.75,3.88-.02.03-.05.05-.07.07-2.7,5.02-6.59,9.54-8.22,8.6-1.88-1.13,1.19-10.73,1.82-12.87.19-.69-.25-1.38-.88-1.57-.69-.12-1.38.25-1.57.94-.41,1.5-.9,3.14-1.33,4.79-3.5,4.5-5.38,5-6.2,4.87-3.01-.5-2.07-6.53-4.14-7.84-.44-.31-1-.44-1.57-.31-1.13.25-2.07,1.44-3.08,3.89-.13-3.89-.19-5.84-2.13-6.4-.75-.25-2.26-.31-3.58,1.95-1.25,2.07-2.38,4.27-3.33,6.46v-7.47c0-.69-.56-1.25-1.25-1.25s-1.26.56-1.26,1.25v4.96c-2.7,5.02-6.59,9.54-8.22,8.6-1.88-1.13,1.19-10.73,1.82-12.87.19-.69-.25-1.38-.88-1.57-.69-.12-1.38.25-1.57.94-.37,1.35-.81,2.83-1.21,4.31-3.01,1.04-5.59-.02-5.88-.86.06-.31.44-1.57-.82-1.95-.63-.19-1.26.12-1.51.75,0,.06-2.2,11.36-3.51,11.23-1.25-.5-3.01-7.47-2.2-13.24.06-.69-.38-1.32-1.07-1.44-.69-.12-1.32.38-1.44,1.07-.15,1.16-.22,2.72-.16,4.4-2.74.73-4.85.6-6.37.18-.56-2.26-2.57-5.71-4.96-5.33-.44-.31-1.07-.25-1.51.06-1.82,1.57-3.2,3.64-3.89,6.02-2.89,9.54,4.96,14.75,9.23,7.53.94-1.69,1.51-3.64,1.51-5.58,1.86.28,3.94.18,6.16-.34.48,4.58,1.88,9.18,4.75,9.18,2.64,0,3.33-3.08,3.89-5.08.5-1.63.94-3.01,1.32-4.64,1.45.87,3.52,1.25,5.77.81-.82,3.79-.98,7.25,1.26,8.6,3.14,1.87,6.84-2.02,9.48-5.89v5.14c0,.69.56,1.25,1.26,1.25.56,0,1.07-.38,1.19-.94,1.76-6.59,5.33-13.3,6.21-13.87.38,1,.31,4.64.56,11.67.06.63.56,1.19,1.19,1.19.63.06,1.19-.38,1.32-1,.38-1.82,1.82-7.15,3.2-8.97.5,1.76.82,7.22,5.02,7.85,1.95.3,3.89-.9,5.58-2.46-.32,2.72-.02,5,1.7,6.04,2.73,1.63,5.89-1.12,8.41-4.41.49,2.75,2.54,4.85,6.9,4.85,3.34,0,7.35-1.56,11.25-6.37-.13,1.82-.24,3.53-.33,4.99-.06.63.38,1.19,1,1.32.56.13,1.19-.19,1.38-.82,2.82-7.66,5.9-15.69,7.15-12.74,1,2.2-1,6.97,2.57,9.23,2.82,1.76,6.14-.06,8.58-2.67.04,2.04.1,4.09.21,6.18,0,.69.56,1.19,1.26,1.19h.06c.69,0,1.19-.63,1.19-1.32-.56-11.3-.19-21.71,1.13-31.57l14.62-.38ZM461.52,146.17c.38,1.44-2.64,3.77-5.71,4.33,2.2-4.83,5.46-5.4,5.71-4.33ZM380.51,155.77c-3.83,6.59-7.59-2.95-2.89-8.91.56,1.44,1.95,2.95,4.02,3.83.19,1.88-.31,3.7-1.13,5.08Z"/>
  <path class="st0" d="M515.18,148.55c-2.89.82-5.08.69-6.65.25-.56-2.26-2.57-5.71-4.96-5.33-.44-.31-1.07-.25-1.51.06-1.82,1.57-3.2,3.64-3.89,6.02-2.89,9.54,4.96,14.75,9.23,7.53.94-1.69,1.51-3.64,1.51-5.58,2.07.31,4.39.19,6.9-.5.69-.19,1.07-.88.94-1.57-.19-.63-.88-1.07-1.57-.88ZM505.2,155.77c-3.83,6.59-7.59-2.95-2.89-8.91.56,1.44,1.95,2.95,4.02,3.83.19,1.88-.31,3.7-1.13,5.08Z"/>
  <path class="st0" d="M557.1,148.68c-.56-.38-1.38-.25-1.76.31-3.01,4.64-7.09,8.72-11.11,12.61.63-6.71.63-13.12.25-17.26-.06-.63-.56-1.13-1.13-1.13-.63-.06-1.19.31-1.32.94-1.7,6.9-5.33,12.05-8.35,12.74-2.95.63-2.26-4.9.56-10.73.25-.63,0-1.38-.63-1.69-.63-.31-1.38-.06-1.63.56-8.03,16.51,3.95,19.33,10.23,6.03,0,4.21-.25,8.85-.82,13.3-20.65,21.02-7.97,30.63-1.69,17.38,2.2-4.64,3.45-11.11,4.08-16.19,4.71-4.71,9.92-9.41,13.68-15.19.38-.56.19-1.32-.38-1.69ZM532.81,185.08c-.38-.69-.44-2.82,1.38-6.65,1.07-2.26,3.01-5.59,6.59-9.67-2.7,16.19-7.59,17.13-7.97,16.32Z"/>
  <path class="st0" d="M665.59,123.7c-.38,0-.82.19-1.07.5-1.44,1.63-1.57,11.99-1.63,14.56-1.57,6.59-3.83,12.87-9.1,17.57-7.97,7.22-7.28-10.98,4.64-10.67.69.06,1.26-.5,1.26-1.19.06-.69-.5-1.25-1.19-1.32-5.44-.16-9.15,2.86-11.04,6.41-.07.08-.14.14-.19.24-3.2,5.65-5.52,7.09-6.59,6.59-1.82-.88-.94-8.91-.82-10.79,0-.63-.44-1.19-1.07-1.32-.63-.12-1.26.31-1.44.94-2.7,10.86-8.54,18.33-8.66,9.54,0-2.89.57-6.34.94-8.16.13-.69-.31-1.32-1-1.51-.69-.13-1.32.31-1.51,1-.18.95-.37,2.05-.54,3.21-2.45,4.5-6.5,9.53-8.18,8.53-.75-.44-2.07-1.26-2.13-6.28-.12-5.02,1-13.62,3.51-26.23.13-.69-.31-1.32-1-1.51-.69-.13-1.32.31-1.44,1-1.46,7.28-3.44,17.07-3.59,24.55-3.29,6.07-10.08,14.03-8.21,3.19.19-1.32.44-2.7.88-3.83.25-.69-.06-1.38-.69-1.63-.63-.25-1.32,0-1.63.63-1.44,2.89-3.95,7.66-6.53,9.54-5.27,4.02-1.76-11.48,7.97-11.48.69,0,1.26-.57,1.26-1.26s-.57-1.25-1.26-1.25c-4.83,0-8.58,3-10.76,6.49-.03,0-.06-.03-.1-.03-4.71-.38-8.6.25-11.61,1.19-1.95-3.08-4.52-5.71-6.65-8.41-3.39-4.21-5.52-10.23-1.63-14.25,4.08-4.2,10.54-1.07,11.61,4.64.19.69.82,1.13,1.51,1,.69-.19,1.13-.82,1-1.51-1.51-7.78-10.48-11.49-15.94-5.9-4.77,4.96-2.82,12.17,1.44,17.57,2.07,2.64,4.46,5.02,6.28,7.72-3.58,1.57-7.41,4.21-9.1,7.66-2.26,4.64,1,8.6,5.65,9.29,8.1,1.13,11.04-7.28,7.09-15.56,2.43-.69,5.56-1.17,9.23-.99-1.29,3.24-1.21,6.43.62,7.71,2.95,2.01,6.34-1.51,8.35-4.46-.28,5.67,4.91,8.21,11.42-1.47.49,3.92,1.93,6.49,4.9,6.49,2.55,0,5.27-2.89,7.35-5.82.05,3.52.96,6.45,3.88,6.45,3.33,0,5.71-4.33,7.03-7.34.56,5.37,4.25,7.53,8.98,2.18.28,2.59,1.76,4.54,4.51,4.54,5.08,0,10.35-8.41,12.3-13.18.13,7.47.5,14.75,1.13,20.4.06.69.56,1.13,1.25,1.13h.13c.69-.06,1.19-.69,1.13-1.38-.94-8.47-1.25-19.71-1.13-28.37.75-3.14,1.95-8.28,2.13-11.49.06-1.63-.06-2.57-.56-3.2-.31-.44-.82-.69-1.38-.69ZM581.13,165.69c-3.39,1.88-9.48-.63-7.28-5.08,1.51-3.01,5.02-5.33,8.1-6.59,1.82,3.7,2.76,9.6-.82,11.67Z"/>
</svg>