<?xml version="1.0" encoding="UTF-8"?>
<svg id="Capa_1" xmlns="http://www.w3.org/2000/svg" version="1.1" viewBox="0 0 365.83 212.69">
  <!-- Generator: Adobe Illustrator 30.5.1, SVG Export Plug-In . SVG Version: 2.1.4 Build 3)  -->
  <defs>
    <style>
      .st0 {
        fill: #fff;
      }
    </style>
  </defs>
  <path class="st0" d="M209.3,81.76c3.68,0,6.36-1.79,7.58-4.83.1-.16.03-.32-.16-.38l-3.49-1.57c-.19-.1-.35-.03-.45.16-.61,1.41-1.63,2.46-3.45,2.46-1.69,0-2.78-.9-3.26-2.4-.26-.8-.35-1.57-.35-4.67s.09-3.87.35-4.67c.48-1.5,1.57-2.4,3.26-2.4,1.82,0,2.85,1.05,3.45,2.46.1.19.26.26.45.16l3.49-1.57c.19-.06.25-.22.16-.38-1.21-3.04-3.9-4.83-7.58-4.83s-6.59,1.79-7.74,5.34c-.48,1.41-.61,2.52-.61,5.88s.13,4.48.61,5.88c1.15,3.55,3.93,5.34,7.74,5.34Z"/>
  <path class="st0" d="M219.2,81.41h14.16c.19,0,.32-.13.32-.32v-3.55c0-.19-.13-.32-.32-.32h-9.59c-.13,0-.19-.06-.19-.19v-17.04c0-.19-.13-.32-.32-.32h-4.06c-.19,0-.32.13-.32.32v21.1c0,.19.13.32.32.32Z"/>
  <path class="st0" d="M243.52,81.76c4.86,0,8.31-2.94,8.31-8.34v-13.43c0-.19-.13-.32-.32-.32h-4.06c-.19,0-.32.13-.32.32v13.55c0,2.59-1.44,4.06-3.61,4.06s-3.64-1.47-3.64-4.06v-13.55c0-.19-.13-.32-.32-.32h-4.06c-.19,0-.32.13-.32.32v13.43c0,5.4,3.45,8.34,8.34,8.34Z"/>
  <path class="st0" d="M255.17,81.41h8.25c4.7,0,7.54-2.05,7.54-6.33,0-2.59-1.47-4.38-2.91-4.92v-.06c1.44-.8,2.52-2.27,2.52-4.63,0-3.45-2.21-5.79-6.94-5.79h-8.47c-.19,0-.32.13-.32.32v21.1c0,.19.13.32.32.32ZM259.55,63.67c0-.13.06-.19.19-.19h3.32c1.79,0,2.85.93,2.85,2.52s-1.05,2.56-2.85,2.56h-3.32c-.13,0-.19-.06-.19-.19v-4.7ZM259.55,72.36c0-.13.06-.19.19-.19h3.58c1.92,0,2.94,1.06,2.94,2.72s-1.02,2.72-2.94,2.72h-3.58c-.13,0-.19-.06-.19-.19v-5.05Z"/>
  <path class="st0" d="M209.94,89.5h-8.09c-.19,0-.32.13-.32.32v21.1c0,.19.13.32.32.32h8.09c3.8,0,6.46-1.63,7.51-4.89.38-1.21.58-2.43.58-5.98s-.19-4.76-.58-5.98c-1.05-3.26-3.71-4.89-7.51-4.89ZM212.92,104.65c-.54,1.76-1.85,2.4-4.03,2.4h-2.46c-.13,0-.19-.06-.19-.19v-12.98c0-.13.06-.19.19-.19h2.46c2.17,0,3.48.64,4.03,2.4.22.64.35,1.47.35,4.28s-.13,3.64-.35,4.28Z"/>
  <path class="st0" d="M235.2,110.92v-3.42c0-.19-.13-.32-.32-.32h-9.37c-.13,0-.19-.06-.19-.19v-4.51c0-.13.06-.19.19-.19h7.8c.19,0,.32-.13.32-.32v-3.39c0-.19-.13-.32-.32-.32h-7.8c-.13,0-.19-.06-.19-.19v-4.32c0-.13.06-.19.19-.19h9.37c.19,0,.32-.13.32-.32v-3.42c0-.19-.13-.32-.32-.32h-13.94c-.19,0-.32.13-.32.32v21.1c0,.19.13.32.32.32h13.94c.19,0,.32-.13.32-.32Z"/>
  <path class="st0" d="M237.98,89.5c-.19,0-.32.13-.32.32v21.1c0,.19.13.32.32.32h4.06c.19,0,.32-.13.32-.32v-7.26c0-.13.06-.19.19-.19h3.87c4.7,0,7.58-2.88,7.58-6.97s-2.85-7-7.58-7h-8.44ZM249.3,96.5c0,1.76-1.18,2.91-3.17,2.91h-3.58c-.13,0-.19-.06-.19-.19v-5.47c0-.13.06-.19.19-.19h3.58c1.98,0,3.17,1.18,3.17,2.94Z"/>
  <path class="st0" d="M272.12,106.32c.48-1.5.61-2.72.61-5.95s-.13-4.44-.61-5.95c-1.12-3.52-4.12-5.28-7.93-5.28s-6.81,1.76-7.93,5.28c-.48,1.5-.61,2.72-.61,5.95s.13,4.44.61,5.95c1.12,3.52,4.12,5.27,7.93,5.27s6.81-1.76,7.93-5.27ZM260.77,105.04c-.26-.77-.35-1.82-.35-4.67s.09-3.9.35-4.67c.48-1.5,1.63-2.4,3.42-2.4s2.94.9,3.42,2.4c.26.77.35,1.82.35,4.67s-.1,3.9-.35,4.67c-.48,1.5-1.63,2.4-3.42,2.4s-2.94-.9-3.42-2.4Z"/>
  <path class="st0" d="M275.57,111.24h4.06c.19,0,.32-.13.32-.32v-7.77c0-.13.06-.19.19-.19h2.91l3.74,7.96c.1.22.19.32.48.32h4.54c.22,0,.32-.19.22-.38l-4.28-8.57c2.4-1.06,3.87-3.26,3.87-6.04,0-3.96-2.94-6.75-7.39-6.75h-8.66c-.19,0-.32.13-.32.32v21.1c0,.19.13.32.32.32ZM279.95,93.75c0-.13.06-.19.19-.19h3.84c1.79,0,2.94,1.06,2.94,2.68s-1.15,2.72-2.94,2.72h-3.84c-.13,0-.19-.06-.19-.19v-5.02Z"/>
  <path class="st0" d="M293.28,93.69h5.5c.13,0,.19.06.19.19v17.04c0,.19.13.32.32.32h4.06c.19,0,.32-.13.32-.32v-17.04c0-.13.06-.19.19-.19h5.5c.19,0,.32-.13.32-.32v-3.55c0-.19-.13-.32-.32-.32h-16.08c-.19,0-.32.13-.32.32v3.55c0,.19.13.32.32.32Z"/>
  <path class="st0" d="M311.77,89.5h4.06c.18,0,.32.14.32.32v21.1c0,.18-.14.32-.32.32h-4.06c-.18,0-.32-.14-.32-.32v-21.1c0-.18.14-.32.32-.32Z"/>
  <path class="st0" d="M324.71,110.92c.06.19.19.32.42.32h3.71c.19,0,.32-.13.38-.32l6.91-21.07c.06-.22-.06-.35-.26-.35h-4.12c-.22,0-.35.1-.41.32l-4.22,14.26h-.1l-4.35-14.26c-.06-.22-.19-.32-.42-.32h-4.16c-.22,0-.35.13-.29.35l6.91,21.07Z"/>
  <path class="st0" d="M353.62,100.37c0-3.23-.13-4.44-.61-5.95-1.12-3.52-4.12-5.28-7.93-5.28s-6.81,1.76-7.93,5.28c-.48,1.5-.61,2.72-.61,5.95s.13,4.44.61,5.95c1.12,3.52,4.12,5.27,7.93,5.27s6.81-1.76,7.93-5.27c.48-1.5.61-2.72.61-5.95ZM348.5,105.04c-.48,1.5-1.63,2.4-3.42,2.4s-2.94-.9-3.42-2.4c-.26-.77-.35-1.82-.35-4.67s.09-3.9.35-4.67c.48-1.5,1.63-2.4,3.42-2.4s2.94.9,3.42,2.4c.26.77.35,1.82.35,4.67s-.1,3.9-.35,4.67Z"/>
  <path class="st0" d="M205.21,141.45c-.38,1.15-.99,1.6-2.11,1.6h-.67c-.19,0-.32.13-.32.32v3.13c0,.19.13.32.32.32h1.09c2.78,0,4.16-1.02,5.47-4.44l6.26-16.46c.06-.19-.03-.32-.26-.32h-3.96c-.19,0-.32.13-.38.32l-2.88,8.95h-.07l-3.1-8.95c-.06-.19-.19-.32-.38-.32h-4.09c-.19,0-.32.13-.26.32l5.75,14.39-.42,1.15Z"/>
  <path class="st0" d="M231.43,123.13c1.82,0,2.84,1.05,3.45,2.46.1.19.26.25.45.16l3.48-1.57c.19-.06.26-.22.16-.38-1.21-3.04-3.9-4.83-7.58-4.83s-6.59,1.79-7.74,5.34c-.48,1.41-.61,2.53-.61,5.88s.13,4.48.61,5.88c1.15,3.55,3.93,5.34,7.74,5.34s6.36-1.79,7.58-4.83c.1-.16.03-.32-.16-.38l-3.48-1.57c-.19-.09-.35-.03-.45.16-.61,1.41-1.63,2.46-3.45,2.46-1.69,0-2.78-.9-3.26-2.4-.26-.8-.35-1.57-.35-4.67s.09-3.87.35-4.67c.48-1.5,1.57-2.4,3.26-2.4Z"/>
  <path class="st0" d="M257.27,119.33h-4.06c-.19,0-.32.13-.32.32v13.55c0,2.59-1.44,4.06-3.61,4.06s-3.65-1.47-3.65-4.06v-13.55c0-.19-.13-.32-.32-.32h-4.06c-.19,0-.32.13-.32.32v13.43c0,5.4,3.45,8.34,8.34,8.34s8.31-2.94,8.31-8.34v-13.43c0-.19-.13-.32-.32-.32Z"/>
  <path class="st0" d="M264.98,119.33h-4.06c-.19,0-.32.13-.32.32v21.1c0,.19.13.32.32.32h14.16c.19,0,.32-.13.32-.32v-3.55c0-.19-.13-.32-.32-.32h-9.59c-.13,0-.19-.06-.19-.19v-17.04c0-.19-.13-.32-.32-.32Z"/>
  <path class="st0" d="M273.71,123.52h5.5c.13,0,.19.06.19.19v17.04c0,.19.13.32.32.32h4.06c.19,0,.32-.13.32-.32v-17.04c0-.13.06-.19.19-.19h5.5c.19,0,.32-.13.32-.32v-3.55c0-.19-.13-.32-.32-.32h-16.08c-.19,0-.32.13-.32.32v3.55c0,.19.13.32.32.32Z"/>
  <path class="st0" d="M308.48,133.08v-13.43c0-.19-.13-.32-.32-.32h-4.06c-.19,0-.32.13-.32.32v13.55c0,2.59-1.44,4.06-3.61,4.06s-3.64-1.47-3.64-4.06v-13.55c0-.19-.13-.32-.32-.32h-4.06c-.19,0-.32.13-.32.32v13.43c0,5.4,3.45,8.34,8.34,8.34s8.31-2.94,8.31-8.34Z"/>
  <path class="st0" d="M327.87,126.08c0-3.96-2.94-6.75-7.39-6.75h-8.66c-.19,0-.32.13-.32.32v21.1c0,.19.13.32.32.32h4.06c.19,0,.32-.13.32-.32v-7.77c0-.13.06-.19.19-.19h2.91l3.74,7.96c.1.22.19.32.48.32h4.54c.22,0,.32-.19.22-.38l-4.28-8.57c2.4-1.06,3.87-3.26,3.87-6.04ZM320.23,128.79h-3.84c-.13,0-.19-.06-.19-.19v-5.02c0-.13.06-.19.19-.19h3.84c1.79,0,2.94,1.06,2.94,2.69s-1.15,2.72-2.94,2.72Z"/>
  <path class="st0" d="M341.92,119.65c-.06-.19-.19-.32-.42-.32h-4.03c-.22,0-.35.13-.42.32l-7.48,21.1c-.06.19,0,.32.22.32h4.19c.22,0,.35-.1.42-.32l1.21-3.8h7.61l1.25,3.8c.07.22.19.32.42.32h4.16c.22,0,.29-.13.22-.32l-7.35-21.1ZM336.93,132.95l2.46-7.61h.1l2.46,7.61h-5.02Z"/>
  <path class="st0" d="M365.51,136.88h-9.59c-.13,0-.19-.06-.19-.19v-17.04c0-.19-.13-.32-.32-.32h-4.06c-.19,0-.32.13-.32.32v21.1c0,.19.13.32.32.32h14.16c.19,0,.32-.13.32-.32v-3.55c0-.19-.13-.32-.32-.32Z"/>
  <path class="st0" d="M212.24,149.48c-.06-.19-.19-.32-.42-.32h-4.03c-.22,0-.35.13-.42.32l-7.48,21.1c-.06.19,0,.32.22.32h4.19c.22,0,.35-.1.41-.32l1.21-3.8h7.61l1.25,3.8c.06.22.19.32.41.32h4.16c.22,0,.29-.13.22-.32l-7.35-21.1ZM207.26,162.78l2.46-7.61h.1l2.46,7.61h-5.02Z"/>
  <path class="st0" d="M233.85,161.95c2.4-1.05,3.87-3.26,3.87-6.04,0-3.96-2.94-6.75-7.39-6.75h-8.66c-.19,0-.32.13-.32.32v21.1c0,.19.13.32.32.32h4.06c.19,0,.32-.13.32-.32v-7.77c0-.13.06-.19.19-.19h2.91l3.74,7.96c.1.22.19.32.48.32h4.54c.22,0,.32-.19.22-.38l-4.28-8.57ZM230.08,158.62h-3.84c-.13,0-.19-.06-.19-.19v-5.02c0-.13.06-.19.19-.19h3.84c1.79,0,2.94,1.05,2.94,2.69s-1.15,2.72-2.94,2.72Z"/>
  <path class="st0" d="M252.7,161.95c2.4-1.05,3.87-3.26,3.87-6.04,0-3.96-2.94-6.75-7.38-6.75h-8.66c-.19,0-.32.13-.32.32v21.1c0,.19.13.32.32.32h4.06c.19,0,.32-.13.32-.32v-7.77c0-.13.06-.19.19-.19h2.91l3.74,7.96c.1.22.19.32.48.32h4.54c.22,0,.32-.19.22-.38l-4.28-8.57ZM248.93,158.62h-3.84c-.13,0-.19-.06-.19-.19v-5.02c0-.13.06-.19.19-.19h3.84c1.79,0,2.94,1.05,2.94,2.69s-1.15,2.72-2.94,2.72Z"/>
  <path class="st0" d="M267.03,148.81c-3.81,0-6.81,1.76-7.93,5.27-.48,1.5-.61,2.72-.61,5.95s.13,4.44.61,5.95c1.12,3.52,4.12,5.27,7.93,5.27s6.81-1.76,7.93-5.27c.48-1.5.61-2.72.61-5.95s-.13-4.44-.61-5.95c-1.12-3.52-4.12-5.27-7.93-5.27ZM270.45,164.7c-.48,1.5-1.63,2.4-3.42,2.4s-2.94-.89-3.42-2.4c-.26-.77-.35-1.82-.35-4.67s.09-3.9.35-4.67c.48-1.5,1.63-2.4,3.42-2.4s2.94.9,3.42,2.4c.26.77.35,1.82.35,4.67s-.1,3.9-.35,4.67Z"/>
  <path class="st0" d="M292.98,149.16h-4.03c-.22,0-.38.1-.48.32l-3.93,7.93h-.1l-3.93-7.93c-.09-.22-.26-.32-.48-.32h-4.15c-.22,0-.29.16-.22.32l6.43,12.75v8.34c0,.19.13.32.32.32h4.06c.19,0,.32-.13.32-.32v-8.34l6.43-12.75c.09-.16,0-.32-.22-.32Z"/>
  <path class="st0" d="M295.22,149.16h4.06c.18,0,.32.14.32.32v21.1c0,.18-.14.32-.32.32h-4.06c-.18,0-.32-.14-.32-.32v-21.1c0-.18.14-.32.32-.32Z"/>
  <path class="st0" d="M317.74,149.16h-16.08c-.19,0-.32.13-.32.32v3.55c0,.19.13.32.32.32h5.5c.13,0,.19.06.19.19v17.04c0,.19.13.32.32.32h4.06c.19,0,.32-.13.32-.32v-17.04c0-.13.06-.19.19-.19h5.5c.19,0,.32-.13.32-.32v-3.55c0-.19-.13-.32-.32-.32Z"/>
  <path class="st0" d="M327.72,148.81c-3.81,0-6.81,1.76-7.93,5.27-.48,1.5-.61,2.72-.61,5.95s.13,4.44.61,5.95c1.12,3.52,4.12,5.27,7.93,5.27s6.81-1.76,7.93-5.27c.48-1.5.61-2.72.61-5.95s-.13-4.44-.61-5.95c-1.12-3.52-4.12-5.27-7.93-5.27ZM331.14,164.7c-.48,1.5-1.63,2.4-3.42,2.4s-2.94-.89-3.42-2.4c-.26-.77-.35-1.82-.35-4.67s.09-3.9.35-4.67c.48-1.5,1.63-2.4,3.42-2.4s2.94.9,3.42,2.4c.26.77.35,1.82.35,4.67s-.1,3.9-.35,4.67Z"/>
  <polygon class="st0" points="153.8 78.05 146.71 71.71 146.62 71.77 148.64 81.05 153.8 78.05"/>
  <path class="st0" d="M75.97,128.86l2.53-1.48c2.23-1.3,3.2-2.74,2.7-4.87-.15-.79-.52-1.72-2.21-4.61-1.68-2.89-2.31-3.66-2.93-4.19-1.61-1.48-3.34-1.35-5.57-.05l-2.53,1.47c-.13.08-.16.18-.08.31l7.77,13.32c.08.13.18.16.31.08Z"/>
  <path class="st0" d="M94.6,0S56.12,29.44.29,19.63c0,0-10.47,156.72,94.19,192.97v.08s.08-.03.12-.04c.04.01.08.03.12.04v-.08C199.37,176.35,188.9,19.63,188.9,19.63,133.07,29.44,94.6,0,94.6,0ZM40.43,132.3c-.94-4.33.84-7.83,4.75-10.11,3.77-2.2,7.6-1.97,10.67.42.19.11.22.31.07.49l-2.64,3.69c-.14.21-.34.24-.55.1-1.47-1.08-3.15-1.55-5.02-.46-1.74,1.02-2.32,2.58-1.91,4.41.22.97.58,1.82,2.43,5,1.86,3.18,2.42,3.92,3.16,4.58,1.39,1.26,3.04,1.52,4.78.51,1.87-1.09,2.29-2.79,2.07-4.59-.02-.25.11-.42.37-.43l4.51-.48c.24-.05.4.08.39.3.57,3.84-1.11,7.29-4.89,9.49-3.91,2.28-7.83,2.11-11.14-.85-1.33-1.16-2.14-2.23-4.15-5.68-2.01-3.44-2.55-4.67-2.9-6.4ZM60.63,114.1c-.12-.2-.06-.4.14-.52l8.3-4.84c3.9-2.28,7.61-2.19,10.64.52,1.12,1.02,2.05,2.15,4.17,5.79,2.12,3.64,2.65,5.01,2.99,6.48.87,3.98-.88,7.24-4.78,9.52l-8.3,4.84c-.2.11-.4.06-.52-.14l-12.63-21.66ZM71.23,137.38l-3.91,2.28c-.2.12-.4.06-.52-.14l-2.3-3.94c-.11-.2-.06-.4.14-.52l3.9-2.28c.2-.12.41-.06.52.14l2.3,3.94c.12.2.06.41-.14.52ZM94.7,199.82v.08s-.07-.03-.1-.04c-.04.01-.07.03-.11.04v-.08c-20.91-7.17-36.64-19.72-48.47-34.85l128.23-75.59c-7.51,41.5-27.5,92.58-79.55,110.44ZM101.28,93.05c-.05-.24,0-.44.2-.56l4.07-2.37c.23-.13.41-.06.45.17l3.43,20.65c.7,4.3-.09,6.17-2.95,7.84l-1.12.65c-.2.12-.4.06-.52-.14l-1.88-3.22c-.11-.19-.06-.4.14-.52l.69-.4c1.15-.67,1.5-1.49,1.21-2.9l-.26-1.43-14.52-11.32c-.18-.16-.12-.37.07-.48l4.2-2.45c.2-.12.41-.06.59.1l8.54,7.33.07-.04-2.41-10.91ZM92.68,118.71c.2-.12.4-.06.52.14l2.3,3.94c.12.2.06.41-.14.52l-3.91,2.28c-.2.11-.4.06-.52-.14l-2.3-3.94c-.11-.2-.06-.41.14-.52l3.9-2.28ZM119.39,87.91c.22.97.58,1.82,2.43,5,1.86,3.18,2.42,3.91,3.16,4.58,1.39,1.26,3.04,1.52,4.78.51,1.87-1.09,2.29-2.79,2.07-4.59-.02-.25.11-.41.37-.43l4.51-.48c.24-.05.4.08.39.3.57,3.84-1.11,7.29-4.89,9.49-3.91,2.28-7.83,2.11-11.14-.85-1.33-1.16-2.14-2.23-4.15-5.67-2.01-3.44-2.55-4.67-2.9-6.4-.94-4.33.84-7.83,4.75-10.11,3.77-2.2,7.6-1.97,10.67.42.19.11.22.31.07.49l-2.64,3.69c-.14.21-.34.24-.56.1-1.46-1.08-3.15-1.55-5.02-.46-1.74,1.02-2.32,2.58-1.91,4.41ZM165.98,81.67c.18.16.19.33-.04.46l-4.27,2.49c-.23.13-.42.11-.62-.08l-3.56-3.16-7.81,4.56,1.03,4.63c.07.27,0,.44-.23.58l-4.3,2.51c-.23.13-.37.04-.42-.19l-4.95-26.14c-.05-.23,0-.44.23-.58l4.13-2.41c.23-.13.44-.08.62.08l20.18,17.26ZM164.67,76.72l3.91-2.28c.2-.12.4-.06.52.14l2.3,3.94c.12.2.06.4-.14.52l-3.91,2.28c-.2.11-.4.06-.52-.14l-2.3-3.94c-.12-.2-.06-.4.14-.52ZM142.16,89.85c.2-.12.41-.06.52.14l2.3,3.94c.12.2.06.41-.14.52l-3.91,2.28c-.2.11-.4.06-.52-.14l-2.3-3.94c-.11-.2-.06-.41.14-.52l3.9-2.28ZM25.21,127.12C7.46,80.28,10.83,30.06,10.83,30.06c49.59,8.63,83.76-17.27,83.76-17.27,0,0,34.17,25.9,83.76,17.27,0,0,.16,2.41.23,6.64L25.21,127.12Z"/>
</svg>