<?xml version="1.0" encoding="UTF-8"?>
<svg id="Capa_1" xmlns="http://www.w3.org/2000/svg" version="1.1" viewBox="0 0 1115.45 479.45">
  <!-- Generator: Adobe Illustrator 30.5.1, SVG Export Plug-In . SVG Version: 2.1.4 Build 3)  -->
  <defs>
    <style>
      .st0 {
        fill: #fff;
      }
    </style>
  </defs>
  <path class="st0" d="M647.27,218.52l8.7,80v.72c0,2.38-.82,4.57-2.45,6.57-1.64,2.01-3.71,3.01-6.24,3.01h-3.34v2.01h66.85v-2.23h-3.56c-3.87,0-7.36-1.23-10.47-3.68-2.98-2.34-4.84-5.63-5.66-9.8l-19.08-143.4h-2.01l-66.25,113.7-69.23-113.7h-2.01l-18.41,142.84h-.09c-.6,4.46-2.45,7.91-5.57,10.36-3.12,2.45-6.69,3.68-10.7,3.68h-3.56v2.23h46.8v-2.01h-3.57c-2.38,0-4.42-1-6.13-3.01s-2.56-4.2-2.56-6.57v-.67h0l8.67-79.48,57.29,96.19h2.23c0-3.72.7-7.43,2.12-11.14,1.41-3.71,3.6-8.17,6.57-13.37l41.66-72.25h0Z"/>
  <path class="st0" d="M826.66,238.4h3.57c7.58,0,11.37,3.34,11.37,10.03l-.22,34.09c-1.64,4.76-4.38,8.77-8.25,12.03-3.86,3.27-8.36,5.76-13.48,7.46-5.12,1.71-10.44,2.56-15.93,2.56-10.85-.15-20.06-3.08-27.63-8.8-7.58-5.72-13.34-13.89-17.27-24.51-3.94-10.62-5.91-23.06-5.91-37.33,0-15.15,2.12-28.15,6.35-39,4.23-10.84,10.51-19.2,18.83-25.07s18.57-8.8,30.75-8.8c7.87,0,15.34,1.3,22.4,3.9,7.05,2.6,13.26,6.91,18.61,12.92,5.35,6.02,9.43,14.08,12.26,24.18h2.01l-.44-38.11c-4.31-2.37-9.73-4.46-16.27-6.24-6.54-1.78-13.67-3.23-21.39-4.35-7.73-1.11-15.68-1.67-23.84-1.67-17.53,0-32.72,3.31-45.57,9.92s-22.73,15.93-29.64,27.97c-6.91,12.03-10.36,26.37-10.36,43.01s3.49,31.05,10.47,43.23,16.79,21.58,29.42,28.19c12.62,6.61,27.41,9.92,44.35,9.92,11.88,0,22.76-1.45,32.65-4.35,9.88-2.9,18.34-6.57,25.4-11.03,7.05-4.46,12.37-8.91,15.93-13.37v-36.77c-.3-6.69,3.42-10.03,11.14-10.03h3.34v-2.23h-62.62v2.23l-.03.02h0Z"/>
  <path class="st0" d="M1068.89,154.84v2.23h2.01c2.97,0,5.42,1.19,7.35,3.56,1.93,2.38,2.3,5.79,1.11,10.25h.03l-22.47,78.72-44.34-97.96-.07-.37h-2.01l-40.44,97.15-27.45-77.54h.14c-1.49-4.46-1.15-7.87,1-10.25,2.15-2.37,4.64-3.56,7.46-3.56h2.01v-2.23h-67.96v2.23h1.78c3.42,0,7.05,1.08,10.92,3.23,3.86,2.16,6.76,5.68,8.69,10.59h.06l52.97,143.95h2.01c.15-4.01.63-7.87,1.45-11.59.82-3.71,2.12-8.1,3.9-13.15l35.12-82.9,48.67,107.63h2.23c-.3-3.72-.11-7.47.56-11.25.67-3.79,1.75-8.28,3.23-13.48l37.67-120.43c1.68-4.27,4.34-7.4,8.01-9.37,4.01-2.15,7.72-3.23,11.14-3.23h1.78v-2.23h-46.57,0Z"/>
  <path class="st0" d="M503.37,369.36l-7.18,39.77h7.29l1.28-8.12h6.95l1.33,8.12h7.18l-7.18-39.77h-9.68,0ZM505.76,394.61l1.61-10.46c.28-1.89.61-4.45.67-5.84h.33c.11,1.39.39,3.95.67,5.84l1.67,10.46h-4.95Z"/>
  <path class="st0" d="M554.05,381.2v-.11c0-6.45-2.17-11.74-11.07-11.74h-10.01l.06,4.06v31.65l-.06,4.06h7.18l-.06-4.06v-12.29h2.73l4.56,16.35h7.57l-5.34-18.08c3.28-2.06,4.45-5.67,4.45-9.85h0ZM546.76,381.15c0,3.06-.78,5.56-4.78,5.56h-1.89v-11.12h2c3.84,0,4.67,2.45,4.67,5.51v.06h0Z"/>
  <path class="st0" d="M578.92,394.61h3.78v.06c0,4,0,8.51-4.06,8.51-3.34,0-3.34-3.06-3.34-7.23v-13.4c0-4.06,0-7.23,3.34-7.23s3.39,3.17,3.39,7.9v.11h7.18v-.11c0-7.12-1.22-10.29-3.45-12.24-1.72-1.5-4.17-2.28-7.12-2.28-2.78,0-5.28.72-7.06,2.28-2.23,1.95-3.45,5.06-3.45,13.13v10.29c0,7.56,1.06,11.07,3.45,13.13,1.72,1.5,3.95,2.17,6.28,2.17,3.28,0,5.23-1.28,6.79-3.67h.11l1.5,3.12h3.34v-20.91h-10.68v6.4-.03h0Z"/>
  <polygon class="st0" points="611.85 391.55 620.42 391.55 620.42 385.21 611.85 385.21 611.85 375.59 622.76 375.59 622.76 369.36 604.73 369.36 604.79 373.42 604.79 405.06 604.73 409.13 622.98 409.13 622.98 402.9 611.85 402.9 611.85 391.55"/>
  <path class="st0" d="M659.98,369.36h-6.95l.05,4.06v13.41c0,1.56.17,3.73.28,5.17h-.22c-.39-1.39-.83-2.84-1.67-4.9l-7.18-17.74h-7.34l.05,4.06v31.65l-.05,4.06h6.95l-.05-4.06v-15.74c0-1.56-.17-3.73-.28-5.17h.22c.44,1.39.89,2.84,1.78,4.9l7.96,20.08h6.45l-.06-4.06v-31.65l.06-4.06h0Z"/>
  <polygon class="st0" points="673.05 375.59 680.06 375.59 680.06 405.06 680.01 409.13 687.13 409.13 687.07 405.06 687.07 375.59 694.13 375.59 694.13 369.36 673.05 369.36 673.05 375.59"/>
  <polygon class="st0" points="714.39 369.36 707.21 369.36 707.27 373.42 707.27 405.06 707.21 409.13 714.39 409.13 714.33 405.06 714.33 373.42 714.39 369.36"/>
  <path class="st0" d="M753.44,369.36h-6.95l.05,4.06v13.41c0,1.56.17,3.73.28,5.17h-.22c-.39-1.39-.83-2.84-1.67-4.9l-7.18-17.74h-7.34l.05,4.06v31.65l-.05,4.06h6.95l-.05-4.06v-15.74c0-1.56-.17-3.73-.28-5.17h.22c.45,1.39.89,2.84,1.78,4.9l7.95,20.08h6.45l-.06-4.06v-31.65l.06-4.06h0Z"/>
  <path class="st0" d="M773.36,369.36l-7.18,39.77h7.29l1.28-8.12h6.95l1.34,8.12h7.17l-7.17-39.77h-9.68ZM775.75,394.61l1.61-10.46c.28-1.89.61-4.45.67-5.84h.33c.11,1.39.39,3.95.67,5.84l1.67,10.46h-4.95,0Z"/>
  <rect class="st0" x="819.25" y="389.21" width="10.85" height="6.56"/>
  <path class="st0" d="M876.17,373.42v24.92c0,3.12-.83,4.84-3.39,4.84s-3.34-1.72-3.34-4.84v-24.92l.05-4.06h-7.17l.05,4.06v25.7c0,6.84,3.95,10.68,10.4,10.68s10.46-3.84,10.46-10.68v-25.7l.06-4.06h-7.18l.06,4.06Z"/>
  <path class="st0" d="M919.78,381.2v-.11c0-6.45-2.17-11.74-11.07-11.74h-10.01l.05,4.06v31.65l-.05,4.06h7.17l-.05-4.06v-12.29h2.72l4.56,16.35h7.56l-5.34-18.08c3.28-2.06,4.45-5.67,4.45-9.85h.01ZM912.49,381.15c0,3.06-.78,5.56-4.78,5.56h-1.89v-11.12h2c3.84,0,4.67,2.45,4.67,5.51v.06h0Z"/>
  <path class="st0" d="M947.76,373.42v24.92c0,3.12-.83,4.84-3.39,4.84s-3.34-1.72-3.34-4.84v-24.92l.05-4.06h-7.17l.05,4.06v25.7c0,6.84,3.95,10.68,10.4,10.68s10.46-3.84,10.46-10.68v-25.7l.06-4.06h-7.18l.06,4.06Z"/>
  <path class="st0" d="M980.42,394.61h3.78v.06c0,4,0,8.51-4.06,8.51-3.34,0-3.34-3.06-3.34-7.23v-13.4c0-4.06,0-7.23,3.34-7.23s3.39,3.17,3.39,7.9v.11h7.17v-.11c0-7.12-1.22-10.29-3.45-12.24-1.73-1.5-4.17-2.28-7.12-2.28-2.78,0-5.28.72-7.06,2.28-2.22,1.95-3.45,5.06-3.45,13.13v10.29c0,7.56,1.06,11.07,3.45,13.13,1.73,1.5,3.95,2.17,6.29,2.17,3.28,0,5.23-1.28,6.79-3.67h.11l1.5,3.12h3.34v-20.91h-10.68v6.4-.03Z"/>
  <path class="st0" d="M1019.81,373.42v24.92c0,3.12-.83,4.84-3.39,4.84s-3.34-1.72-3.34-4.84v-24.92l.06-4.06h-7.18l.06,4.06v25.7c0,6.84,3.95,10.68,10.4,10.68s10.46-3.84,10.46-10.68v-25.7l.06-4.06h-7.18l.06,4.06h-.01Z"/>
  <path class="st0" d="M1046.57,369.36l-7.18,39.77h7.29l1.28-8.12h6.95l1.34,8.12h7.17l-7.17-39.77h-9.68,0ZM1048.96,394.61l1.61-10.46c.28-1.89.61-4.45.67-5.84h.33c.11,1.39.39,3.95.67,5.84l1.67,10.46h-4.95Z"/>
  <polygon class="st0" points="1094.75 369.36 1087.74 369.36 1083.18 383.71 1082.96 383.71 1078.39 369.36 1071.22 369.36 1079.45 392.83 1079.45 405.06 1079.4 409.13 1086.63 409.13 1086.57 405.06 1086.57 392.83 1094.75 369.36"/>
  <path class="st0" d="M408.9,208.74c-.17.05-.34.1-.52.16-1.08.32-2.17.64-3.26.93-.13.03-.26.07-.39.11-1.23.33-2.46.64-3.71.92-.09.02-.18.04-.27.06-1.09.25-2.18.48-3.28.69-.34.07-.69.13-1.03.2-.9.17-1.8.32-2.7.47-.36.06-.71.12-1.07.17-1.22.18-2.45.35-3.69.49-33.59,3.82-40.43-2.61-43.64-4.83-3.22-2.21-11.46,1.21-14.28,3.42-2.82,2.21-23.73,5.19-30.77,2.59-7.04-2.59-8.45,4.24-11.46,7.86s-18.1,17.3-50.88,23.73c-32.78,6.44-54.91,28.96-65.97,46.66-3.22-16.49-17.3-43.24-21.72-48.07,27.15-6.03,52.29-12.47,67.38-28.16,15.08-15.69,9.01-17.76,6.91-19.64-1.81-1.61-.74-4.89-8.51-7.31,0,0,1.74-7.84,1.74-11.2-6.44.4-8.31.27-9.92-1.47,1.47-.27-.27-5.3-.27-5.3-4.02-.8-6.7-3.35-6.7-3.35,2.28.13.27-4.96.27-4.96-4.02,1.21-7.64-5.77-7.64-5.77,2.95-.8,3.22-4.56,3.22-4.56-4.96-1.21-8.58-7.37-8.58-7.37,0,0,3.35-1.34,4.16-3.08-5.5-.27-8.45-11.66-8.45-11.66,2.95.67,4.56,0,4.56,0,0,0-5.77-5.23-6.3-8.72,1.47.4,4.83,0,4.83,0,0,0-11.66-11.8-13.54-18.23,2.68-.13,6.57-.54,6.57-.54-7.78-9.39-6.44-17.83-6.44-17.83,4.29,3.75,7.37,3.22,7.37,3.22,0,0-4.46-6.79-6.04-14.65l6.84-1.71s-.02-.04-.05-.08c-.02-.04-.06-.1-.09-.16-.02-.03-.03-.05-.05-.09-.05-.09-.11-.2-.18-.33,0-.02-.02-.04-.03-.06-1.1-1.96-4.32-7.9-7.92-16.25-6.03-14.02-13.1-34.84-12.87-55.04-2.58,16.81,1.49,40.5,5.14,56.7-33.17,7.68-63.39,23.05-88.66,44.15,6.48,6.15,10.89,8.87,12.25,10.5,3.02,3.62,17.9,15.89,18.5,25.94.6,10.06,5.43,10.06,8.85,13.88s11.66,13.03,11.66,34.19c0,7.84,4.63,13.27,13.88,12.87,9.25-.4,19.51-3.62,26.55-2.61,7.04,1.01,9.65,5.83,11.87,12.27,6.23,4.02,7.24,5.63,7.24,5.63-8.65.2-9.45.2-11.46,1.61-2.01,1.41-11.87,6.84-20.31,9.65-8.45,2.82-11.26,10.06-29.97,17.7-18.7,7.64-32.38,11.06-49.07,11.06-9.25.6-13.68,5.43-21.72,13.68s-21.72,23.73-44.65,22.53c6.03-14.28,7.84-24.74,8.04-37.21s13.27-31.37,19.11-36c7.04,6.84,20.11,17.1,31.98,4.83-19.51-13.47-21.72-16.89-21.52-33.59.2-16.69,4.22-9.05-.8-23.33-3.72-10.57-3.72-21.59-3.46-26.6,1.21,1.4,2.48,2.78,3.83,4.14l-3.62-6.93c-3.38-4.8-4.99-10.63-4.99-10.63l7.24,3.42c-7.84-10.86-9.45-18.3-9.45-18.3,0,0,2.21,3.62,11.06,8.45-8.65-13.68-8.85-23.33-8.85-23.33,7.44,9.25,11.46,8.45,11.46,8.45-6.84-19.91-7.24-22.53-4.63-44.05-4.86,18.76-4.65,21.14,1.15,39.77,0,0-2.77-1.11-10.2-10.35,0,0-2.04,10.06,4.19,22.22-4.19-3.72-7.14-6.94-7.14-6.94,0,0-1.92,7.68,5.81,18.4l-7.34-5.97s2.23,7.63,4.59,11.98c1.46,2.69,3.49,5.6,5.88,8.5C15.99,172.51,0,217.04,0,265.31c0,118.26,95.87,214.14,214.14,214.14s214.14-95.87,214.14-214.14c0-18.42-2.34-36.28-6.71-53.34,21.39-10.26,38.87-26.51,44.84-36.44-11,9.37-27.13,21.38-46.78,29.39-3.47,1.41-7.05,2.7-10.72,3.82h-.01ZM357.59,365.25c4.63,4.22,8.45,6.23,8.45,6.23-13.88.8-29.97,0-35.6-2.61,3.02,2.41,5.83,5.43,5.83,5.43-10.06-1.01-24.34-2.41-26.75-5.23,3.42,4.22,6.84,7.24,6.84,7.24-13.27-.6-21.72-3.22-25.14-5.03,1.61,3.42,4.02,5.03,4.02,5.03-10.46-.2-21.92-2.01-29.97-7.24,1.01,3.82,4.63,6.44,6.44,7.24-12.07-1.21-26.55-3.22-35.6-10.06,3.22,7.24,3.62,8.25,6.23,9.25-10.06-1.61-12.67-2.01-15.29-5.43-.2,3.22-3.62,3.82-2.41,6.23-8.65,0-13.68-2.01-13.68-2.01,2.41,3.62,3.16,5.83,3.16,5.83-5.98.2-12.21-2.21-12.81-3.02.4,2.82,2.01,5.83,2.01,5.83-12.07.4-15.89-2.21-22.32-5.63,0,3.22,4.29,5.43,6.77,7.04-5.68-.36-12.2-2.64-14.54-5.69,1.23,2.53.33,4.11,1.74,5.69-9.45-1.61-11.87-5.43-12.67-7.24s-2.61,4.02-.8,5.43c-8.45-1.61-16.49-4.63-12.27-19.51-8.85,7.84-12.67,14.48-15.08,21.32-.4,10.26,0,18.5,0,18.5-4.42-4.83-6.44-5.43-6.44-5.43l-1.01,10.66s-2.82-5.83-5.03-7.44c-4.22,4.83-7.44,11.06-7.44,11.06.2-6.44,0-8.65,0-8.65,0,0-7.04,6.44-7.64,8.65-.2-4.02-1.41-5.63,0-8.85-6.64,6.64-11.66,9.05-12.27,11.26-.6-5.03,1.01-9.85,1.01-9.85-5.04,3.82-9.65,4.83-11.46,8.04,0-4.22.4-7.64,0-10.26-4.63,1.01-8.04-2.01-8.04-2.01,6.64-.2,7.64-5.43,7.64-5.43-7.84,1.61-11.26-3.62-11.26-3.62,6.23.4,6.44-4.42,6.44-4.42-3.42-2.61-5.83-3.62-8.65-2.41,4.83-8.45,10.66-13.68,18.91-16.29s19.51-1.81,26.15-8.65,8.25-20.72,37.41-38.21c29.16-17.5,30.57-13.68,42.64-24.54s21.72-22.73,37.81-22.73c11.26,0,16.49,14.28,16.49,14.28,4.83.4,7.04,4.36,7.04,4.36-4.83.27-11.77,2.88-11.77,2.88-3.12,3.22-12.77,5.43-18.4,13.48,7.04,1.61,42.84,19.11,63.55,26.95,20.72,7.84,45.65,16.29,66.57,16.29s31.17-5.43,38.21-13.88c-2.82,18.7-4.42,26.55-37.01,27.15v.02h0Z"/>
  <path class="st0" d="M267.49,160.04c4.83,3.08,8.98,6.3,15.69,5.23s10.59-6.03,13.68-10.86,6.84-6.64,12.87-6.64c8.85,0,9.85,11.87,10.06,13.07s3.82,4.83,4.83,8.04c-4.22-.8-7.44-2.21-7.44-2.21-2.21,3.42-5.03,5.43-5.63,7.64s-.6,13.07,4.42,17.3c5.03,4.22,24.13,6.03,43.84-4.22,12.38-6.44,23.02-13.84,46.97-15.7-34.74-71.35-107.94-120.52-192.63-120.52-10.35,0-20.53.75-30.49,2.17,8.08,15.83,18.1,33.11,29.81,48.78,33.25,44.51,49.21,54.84,54.03,57.92h0Z"/>
</svg>