<?xml version="1.0" encoding="UTF-8"?>
<svg id="Capa_1" xmlns="http://www.w3.org/2000/svg" version="1.1" viewBox="0 0 180.21 38.9">
  <!-- Generator: Adobe Illustrator 30.5.1, SVG Export Plug-In . SVG Version: 2.1.4 Build 3)  -->
  <defs>
    <style>
      .st0 {
        fill: #fff;
      }

      .st1 {
        isolation: isolate;
      }
    </style>
  </defs>
  <g class="st1">
    <g class="st1">
      <path class="st0" d="M0,34.55l2.96-6.55c3.17,2.31,7.9,3.92,12.41,3.92,5.16,0,7.25-1.72,7.25-4.03C22.62,20.85.75,25.68.75,11.71.75,5.32,5.91,0,16.6,0c4.73,0,9.56,1.13,13.06,3.33l-2.69,6.61c-3.49-1.99-7.09-2.96-10.42-2.96-5.16,0-7.15,1.93-7.15,4.3,0,6.93,21.87,2.15,21.87,15.96,0,6.29-5.21,11.66-15.96,11.66-5.96,0-11.98-1.77-15.31-4.35Z"/>
      <path class="st0" d="M35.68,33.42c0-3.12,2.31-5.16,5.21-5.16s5.21,2.04,5.21,5.16-2.31,5.26-5.21,5.26-5.21-2.2-5.21-5.26Z"/>
      <path class="st0" d="M58.4,7.74h-12.03V.64h32.77v7.09h-12.03v30.52h-8.7V7.74Z"/>
      <path class="st0" d="M79.41,33.42c0-3.12,2.31-5.16,5.21-5.16s5.21,2.04,5.21,5.16-2.31,5.26-5.21,5.26-5.21-2.2-5.21-5.26Z"/>
      <path class="st0" d="M96.12.64h8.7v37.61h-8.7V.64Z"/>
      <path class="st0" d="M111.11,33.42c0-3.12,2.31-5.16,5.21-5.16s5.21,2.04,5.21,5.16-2.31,5.26-5.21,5.26-5.21-2.2-5.21-5.26Z"/>
      <path class="st0" d="M154.31,30.19h-17.46l-3.33,8.06h-8.92L141.36.64h8.6l16.82,37.61h-9.13l-3.33-8.06ZM151.57,23.59l-5.96-14.4-5.96,14.4h11.93Z"/>
      <path class="st0" d="M169.78,33.42c0-3.12,2.31-5.16,5.21-5.16s5.21,2.04,5.21,5.16-2.31,5.26-5.21,5.26-5.21-2.2-5.21-5.26Z"/>
    </g>
  </g>
</svg>