<?xml version="1.0" encoding="UTF-8"?>
<svg id="Capa_1" xmlns="http://www.w3.org/2000/svg" version="1.1" viewBox="0 0 551.74 38.9">
  <!-- Generator: Adobe Illustrator 30.5.1, SVG Export Plug-In . SVG Version: 2.1.4 Build 3)  -->
  <defs>
    <style>
      .st0 {
        fill: #fff;
      }

      .st1 {
        isolation: isolate;
      }
    </style>
  </defs>
  <g class="st1">
    <g class="st1">
      <path class="st0" d="M32.61,14.29c0,8.38-6.29,13.59-16.33,13.59h-7.58v10.37H0V.64h16.28c10.05,0,16.33,5.21,16.33,13.65ZM23.8,14.29c0-4.14-2.69-6.55-8-6.55h-7.09v13.06h7.09c5.32,0,8-2.42,8-6.5Z"/>
      <path class="st0" d="M38.79.64h8.7v37.61h-8.7V.64Z"/>
      <path class="st0" d="M90.91.64v37.61h-7.15l-18.75-22.83v22.83h-8.6V.64h7.2l18.7,22.83V.64h8.6Z"/>
      <path class="st0" d="M107.62,7.74h-12.03V.64h32.77v7.09h-12.03v30.52h-8.7V7.74Z"/>
      <path class="st0" d="M132.07,21.71V.64h8.7v20.74c0,7.15,3.12,10.1,8.38,10.1s8.38-2.96,8.38-10.1V.64h8.6v21.06c0,11.07-6.34,17.19-17.03,17.19s-17.03-6.12-17.03-17.19Z"/>
      <path class="st0" d="M172.36,19.45c0-11.34,8.7-19.45,20.42-19.45,6.5,0,11.93,2.36,15.47,6.66l-5.59,5.16c-2.53-2.9-5.69-4.41-9.46-4.41-7.04,0-12.03,4.94-12.03,12.04s5,12.03,12.03,12.03c3.76,0,6.93-1.5,9.46-4.46l5.59,5.16c-3.55,4.35-8.97,6.72-15.53,6.72-11.66,0-20.36-8.11-20.36-19.45Z"/>
      <path class="st0" d="M210.94,19.45c0-11.34,8.7-19.45,20.42-19.45,6.5,0,11.93,2.36,15.47,6.66l-5.59,5.16c-2.53-2.9-5.69-4.41-9.46-4.41-7.04,0-12.03,4.94-12.03,12.04s5,12.03,12.03,12.03c3.76,0,6.93-1.5,9.46-4.46l5.59,5.16c-3.55,4.35-8.97,6.72-15.53,6.72-11.66,0-20.36-8.11-20.36-19.45Z"/>
      <path class="st0" d="M252.69.64h8.7v37.61h-8.7V.64Z"/>
      <path class="st0" d="M314.42,38.9l-4.51-4.19c-3.44,2.69-7.74,4.19-12.57,4.19-8.27,0-14.34-4.3-14.34-10.32,0-4.73,2.52-8,8.27-11.23-2.74-2.85-3.87-5.27-3.87-7.95,0-5.48,4.62-9.24,11.71-9.24,6.5,0,10.8,3.33,10.8,8.65,0,3.87-2.26,6.72-7.36,9.51l6.88,6.39c.81-1.67,1.45-3.65,1.88-5.86l6.72,2.1c-.7,3.22-1.83,6.12-3.44,8.54l4.41,4.08-4.57,5.32ZM304.97,30.14l-9.08-8.49c-3.44,1.99-4.67,3.71-4.67,6.02,0,2.74,2.58,4.67,6.72,4.67,2.58,0,5-.75,7.04-2.2ZM295.03,9.29c0,1.45.59,2.52,2.9,4.78,3.71-1.99,4.89-3.38,4.89-5.1,0-1.83-1.29-3.12-3.71-3.12-2.58,0-4.08,1.45-4.08,3.44Z"/>
      <path class="st0" d="M365.25,18.86h7.95v15.26c-4.14,3.12-9.83,4.78-15.2,4.78-11.82,0-20.52-8.11-20.52-19.45S346.18,0,358.16,0c6.61,0,12.09,2.26,15.74,6.5l-5.59,5.16c-2.74-2.9-5.91-4.24-9.72-4.24-7.31,0-12.3,4.89-12.3,12.04s5,12.03,12.2,12.03c2.36,0,4.57-.43,6.77-1.61v-11.01Z"/>
      <path class="st0" d="M380.94,21.71V.64h8.7v20.74c0,7.15,3.12,10.1,8.38,10.1s8.38-2.96,8.38-10.1V.64h8.6v21.06c0,11.07-6.34,17.19-17.03,17.19s-17.03-6.12-17.03-17.19Z"/>
      <path class="st0" d="M423.6.64h8.7v37.61h-8.7V.64Z"/>
      <path class="st0" d="M471.69,31.16v7.09h-32.88v-5.64l20.63-24.88h-20.2V.64h31.64v5.64l-20.58,24.88h21.38Z"/>
      <path class="st0" d="M507.74,31.16v7.09h-32.88v-5.64l20.63-24.88h-20.2V.64h31.64v5.64l-20.58,24.88h21.38Z"/>
      <path class="st0" d="M510.59,19.45c0-11.18,8.7-19.45,20.58-19.45s20.58,8.22,20.58,19.45-8.76,19.45-20.58,19.45-20.58-8.27-20.58-19.45ZM542.93,19.45c0-7.15-5.05-12.04-11.77-12.04s-11.77,4.89-11.77,12.04,5.05,12.03,11.77,12.03,11.77-4.89,11.77-12.03Z"/>
    </g>
  </g>
</svg>