<?xml version="1.0" encoding="UTF-8"?>
<svg id="Capa_1" xmlns="http://www.w3.org/2000/svg" version="1.1" viewBox="0 0 942.67 84.95">
  <!-- Generator: Adobe Illustrator 30.5.1, SVG Export Plug-In . SVG Version: 2.1.4 Build 3)  -->
  <defs>
    <style>
      .st0 {
        fill: #fff;
      }

      .st1 {
        isolation: isolate;
      }
    </style>
  </defs>
  <g class="st1">
    <g class="st1">
      <path class="st0" d="M378.47,31.27v6.98h-29.12V.64h28.42v6.98h-19.77v8.17h17.46v6.77h-17.46v8.7h20.47Z"/>
      <path class="st0" d="M382.45,34.55l2.96-6.55c3.17,2.31,7.9,3.92,12.41,3.92,5.16,0,7.25-1.72,7.25-4.03,0-7.04-21.87-2.2-21.87-16.17,0-6.39,5.16-11.71,15.85-11.71,4.73,0,9.56,1.13,13.06,3.33l-2.69,6.61c-3.49-1.99-7.09-2.96-10.42-2.96-5.16,0-7.15,1.93-7.15,4.3,0,6.93,21.87,2.15,21.87,15.96,0,6.29-5.21,11.66-15.96,11.66-5.96,0-11.98-1.77-15.31-4.35Z"/>
      <path class="st0" d="M417.32,19.45c0-11.34,8.7-19.45,20.42-19.45,6.5,0,11.93,2.36,15.47,6.66l-5.59,5.16c-2.53-2.9-5.69-4.41-9.46-4.41-7.04,0-12.03,4.94-12.03,12.04s5,12.03,12.03,12.03c3.76,0,6.93-1.5,9.46-4.46l5.59,5.16c-3.55,4.35-8.97,6.72-15.53,6.72-11.66,0-20.36-8.11-20.36-19.45Z"/>
      <path class="st0" d="M458.42,21.71V.64h8.7v20.74c0,7.15,3.12,10.1,8.38,10.1s8.38-2.96,8.38-10.1V.64h8.6v21.06c0,11.07-6.34,17.19-17.03,17.19s-17.03-6.12-17.03-17.19Z"/>
      <path class="st0" d="M530.2,31.27v6.98h-29.12V.64h28.42v6.98h-19.77v8.17h17.46v6.77h-17.46v8.7h20.47Z"/>
      <path class="st0" d="M537.13.64h8.7v30.52h18.86v7.09h-27.56V.64Z"/>
      <path class="st0" d="M594.68,30.19h-17.46l-3.33,8.06h-8.92L581.73.64h8.6l16.82,37.61h-9.13l-3.33-8.06ZM591.94,23.59l-5.96-14.4-5.96,14.4h11.93Z"/>
    </g>
  </g>
  <g class="st1">
    <g class="st1">
      <path class="st0" d="M0,46.69h17.08c12.3,0,20.74,7.41,20.74,18.8s-8.44,18.8-20.74,18.8H0v-37.61ZM16.65,77.16c7.47,0,12.36-4.46,12.36-11.66s-4.89-11.66-12.36-11.66h-7.95v23.32h7.95Z"/>
      <path class="st0" d="M68.34,84.3l-7.25-10.48h-8v10.48h-8.7v-37.61h16.28c10.05,0,16.33,5.21,16.33,13.65,0,5.64-2.85,9.78-7.74,11.87l8.44,12.09h-9.35ZM60.18,53.79h-7.09v13.11h7.09c5.32,0,8-2.47,8-6.55s-2.69-6.55-8-6.55Z"/>
      <path class="st0" d="M81.24,79.47c0-3.12,2.31-5.16,5.21-5.16s5.21,2.04,5.21,5.16-2.31,5.26-5.21,5.26-5.21-2.2-5.21-5.26Z"/>
      <path class="st0" d="M113.15,46.69h17.08c12.3,0,20.74,7.41,20.74,18.8s-8.44,18.8-20.74,18.8h-17.08v-37.61ZM129.81,77.16c7.47,0,12.36-4.46,12.36-11.66s-4.89-11.66-12.36-11.66h-7.95v23.32h7.95Z"/>
      <path class="st0" d="M181.76,76.24h-17.46l-3.33,8.06h-8.92l16.76-37.61h8.6l16.82,37.61h-9.13l-3.33-8.06ZM179.02,69.64l-5.96-14.4-5.96,14.4h11.93Z"/>
      <path class="st0" d="M198.15,46.69h8.7v30.52h18.86v7.09h-27.56v-37.61Z"/>
      <path class="st0" d="M264.83,84.3l-.05-22.56-11.07,18.59h-3.92l-11.01-18.1v22.08h-8.17v-37.61h7.2l14.08,23.37,13.86-23.37h7.15l.11,37.61h-8.17Z"/>
      <path class="st0" d="M306.69,76.24h-17.46l-3.33,8.06h-8.92l16.76-37.61h8.6l16.82,37.61h-9.13l-3.33-8.06ZM303.94,69.64l-5.96-14.4-5.96,14.4h11.93Z"/>
      <path class="st0" d="M320.17,65.5c0-11.34,8.7-19.45,20.42-19.45,6.5,0,11.93,2.36,15.47,6.66l-5.59,5.16c-2.52-2.9-5.69-4.41-9.46-4.41-7.04,0-12.04,4.94-12.04,12.04s5,12.03,12.04,12.03c3.76,0,6.93-1.5,9.46-4.46l5.59,5.16c-3.55,4.35-8.97,6.72-15.53,6.72-11.66,0-20.36-8.11-20.36-19.45Z"/>
      <path class="st0" d="M361.92,46.69h8.7v37.61h-8.7v-37.61Z"/>
      <path class="st0" d="M377.18,65.5c0-11.18,8.7-19.45,20.58-19.45s20.58,8.22,20.58,19.45-8.76,19.45-20.58,19.45-20.58-8.27-20.58-19.45ZM409.52,65.5c0-7.15-5.05-12.04-11.77-12.04s-11.77,4.89-11.77,12.04,5.05,12.03,11.77,12.03,11.77-4.89,11.77-12.03Z"/>
      <path class="st0" d="M476.25,46.69l-16.28,37.61h-8.6l-16.23-37.61h9.4l11.44,26.86,11.6-26.86h8.65Z"/>
      <path class="st0" d="M508.49,77.32v6.98h-29.12v-37.61h28.42v6.98h-19.77v8.17h17.46v6.77h-17.46v8.7h20.47ZM495.27,43.63h-6.55l7.25-7.74h9.03l-9.72,7.74Z"/>
      <path class="st0" d="M515.42,46.69h8.7v30.52h18.86v7.09h-27.56v-37.61Z"/>
      <path class="st0" d="M577,77.32v6.98h-29.12v-37.61h28.42v6.98h-19.77v8.17h17.46v6.77h-17.46v8.7h20.47Z"/>
      <path class="st0" d="M614.39,77.21v7.09h-32.88v-5.64l20.63-24.87h-20.2v-7.09h31.64v5.64l-20.58,24.88h21.38Z"/>
      <path class="st0" d="M632.23,80.6l2.96-6.55c3.17,2.31,7.9,3.92,12.41,3.92,5.16,0,7.25-1.72,7.25-4.03,0-7.04-21.87-2.2-21.87-16.17,0-6.39,5.16-11.71,15.85-11.71,4.73,0,9.56,1.13,13.06,3.33l-2.69,6.61c-3.49-1.99-7.09-2.96-10.42-2.96-5.16,0-7.15,1.93-7.15,4.3,0,6.93,21.87,2.15,21.87,15.96,0,6.29-5.21,11.66-15.96,11.66-5.96,0-11.98-1.77-15.31-4.35Z"/>
      <path class="st0" d="M694.23,76.24h-17.46l-3.33,8.06h-8.92l16.76-37.61h8.6l16.82,37.61h-9.13l-3.33-8.06ZM691.49,69.64l-5.96-14.4-5.96,14.4h11.93Z"/>
      <path class="st0" d="M734.58,84.3l-7.25-10.48h-8v10.48h-8.7v-37.61h16.28c10.05,0,16.33,5.21,16.33,13.65,0,5.64-2.85,9.78-7.74,11.87l8.43,12.09h-9.35ZM726.42,53.79h-7.09v13.11h7.09c5.32,0,8-2.47,8-6.55s-2.69-6.55-8-6.55Z"/>
      <path class="st0" d="M747.16,80.6l2.96-6.55c3.17,2.31,7.9,3.92,12.41,3.92,5.16,0,7.25-1.72,7.25-4.03,0-7.04-21.87-2.2-21.87-16.17,0-6.39,5.16-11.71,15.85-11.71,4.73,0,9.56,1.13,13.06,3.33l-2.69,6.61c-3.49-1.99-7.09-2.96-10.42-2.96-5.16,0-7.15,1.93-7.15,4.3,0,6.93,21.87,2.15,21.87,15.96,0,6.29-5.21,11.66-15.96,11.66-5.96,0-11.98-1.77-15.31-4.35Z"/>
      <path class="st0" d="M793.09,53.68v9.94h17.41v6.98h-17.41v13.7h-8.7v-37.61h28.42v6.98h-19.72Z"/>
      <path class="st0" d="M818.72,46.69h8.7v37.61h-8.7v-37.61Z"/>
      <path class="st0" d="M865.47,77.32v6.98h-29.12v-37.61h28.42v6.98h-19.77v8.17h17.46v6.77h-17.46v8.7h20.47Z"/>
      <path class="st0" d="M872.4,46.69h8.7v30.52h18.86v7.09h-27.56v-37.61Z"/>
      <path class="st0" d="M904.85,46.69h17.08c12.3,0,20.74,7.41,20.74,18.8s-8.43,18.8-20.74,18.8h-17.08v-37.61ZM921.51,77.16c7.47,0,12.36-4.46,12.36-11.66s-4.89-11.66-12.36-11.66h-7.95v23.32h7.95Z"/>
    </g>
  </g>
</svg>