<?xml version="1.0" encoding="UTF-8"?>
<svg id="lineas_forma" xmlns="http://www.w3.org/2000/svg" version="1.1" viewBox="0 0 422.72 512.13">
  <!-- Generator: Adobe Illustrator 30.5.1, SVG Export Plug-In . SVG Version: 2.1.4 Build 3)  -->
  <defs>
    <style>
      .st0 {
        fill: #fff;
      }
    </style>
  </defs>
  <g>
    <path class="st0" d="M0,511.04v-41.5h4.77l16.77,25.41,16.88-25.41h4.7v41.5h-5.11v-32.4l-16.46,24.55-16.47-24.55v32.4H0Z"/>
    <path class="st0" d="M73.42,512.13c-6.22,0-11.35-2.05-15.39-6.15-4.05-4.1-6.07-9.29-6.07-15.58s2.03-11.52,6.09-15.62,9.18-6.15,15.38-6.15,11.36,2.06,15.45,6.17c4.08,4.11,6.13,9.31,6.13,15.6s-2.04,11.48-6.11,15.58c-4.07,4.1-9.23,6.15-15.47,6.15ZM73.42,507.28c4.66,0,8.52-1.59,11.58-4.77,3.06-3.18,4.59-7.22,4.59-12.1s-1.52-8.96-4.57-12.14-6.91-4.77-11.6-4.77-8.52,1.6-11.58,4.79c-3.06,3.2-4.59,7.24-4.59,12.12s1.53,8.92,4.59,12.1c3.06,3.18,6.92,4.77,11.58,4.77Z"/>
    <path class="st0" d="M104.05,511.04v-41.5h2.71l26.92,31.01v-31.01h5.19v41.5h-2.63l-27.03-31.01v31.01h-5.15Z"/>
    <path class="st0" d="M151.31,511.04v-41.73h5.23v41.73h-5.23Z"/>
    <path class="st0" d="M176.23,511.04v-36.73h-17.44v-4.77h40.11v4.77h-17.48v36.73h-5.19Z"/>
    <path class="st0" d="M219.27,512.13c-6.21,0-11.35-2.05-15.39-6.15-4.05-4.1-6.07-9.29-6.07-15.58s2.03-11.52,6.09-15.62,9.19-6.15,15.37-6.15,11.37,2.06,15.45,6.17c4.08,4.11,6.13,9.31,6.13,15.6s-2.04,11.48-6.11,15.58c-4.07,4.1-9.23,6.15-15.47,6.15ZM219.27,507.28c4.66,0,8.52-1.59,11.58-4.77s4.59-7.22,4.59-12.1-1.52-8.96-4.57-12.14-6.91-4.77-11.6-4.77-8.52,1.6-11.58,4.79c-3.06,3.2-4.59,7.24-4.59,12.12s1.53,8.92,4.59,12.1c3.06,3.18,6.92,4.77,11.58,4.77Z"/>
    <path class="st0" d="M249.68,511.04v-41.5h23.79c4.06,0,7.24,1.02,9.55,3.06,2.31,2.04,3.46,4.87,3.46,8.48,0,3.01-.9,5.58-2.71,7.72-1.8,2.14-4.19,3.48-7.14,4l10.38,18.23h-5.71l-10.38-18.16h-16.09v18.16h-5.15ZM254.83,488.03h18.31c2.61,0,4.58-.58,5.92-1.73,1.34-1.15,2.01-2.84,2.01-5.07s-.67-3.88-2.01-5.09c-1.34-1.22-3.23-1.82-5.66-1.82h-18.57v13.72Z"/>
    <path class="st0" d="M295.88,511.04v-41.5h32.63v4.77h-27.48v12.18h16.62v4.77h-16.62v15h29.17v4.77h-34.32Z"/>
    <path class="st0" d="M356.07,512.13c-6.21,0-11.35-2.05-15.39-6.15-4.05-4.1-6.07-9.29-6.07-15.58s2.03-11.52,6.09-15.62c4.06-4.1,9.19-6.15,15.38-6.15s11.37,2.06,15.45,6.17c4.08,4.11,6.13,9.31,6.13,15.6s-2.04,11.48-6.11,15.58c-4.07,4.1-9.23,6.15-15.47,6.15ZM356.07,507.28c4.66,0,8.52-1.59,11.58-4.77s4.59-7.22,4.59-12.1-1.52-8.96-4.57-12.14-6.91-4.77-11.6-4.77-8.52,1.6-11.58,4.79-4.59,7.24-4.59,12.12,1.53,8.92,4.59,12.1,6.92,4.77,11.58,4.77Z"/>
    <path class="st0" d="M382.76,504.8l3.01-4.47c2.93,2.28,5.98,4.02,9.15,5.23,3.17,1.2,6.31,1.8,9.42,1.8,3.83,0,6.95-.81,9.34-2.44,2.39-1.63,3.59-3.72,3.59-6.28,0-2.03-.86-3.7-2.58-5.02s-4.09-2.1-7.12-2.35c-.73-.08-1.78-.15-3.16-.23-6.82-.48-11.46-1.28-13.95-2.41-1.93-.93-3.4-2.12-4.4-3.59-1-1.47-1.5-3.11-1.5-4.94,0-3.33,1.49-6.08,4.47-8.23,2.98-2.16,6.85-3.23,11.62-3.23,3.46,0,6.87.57,10.24,1.71,3.37,1.14,6.57,2.83,9.6,5.06l-3.01,4.29c-2.56-2.05-5.24-3.6-8.06-4.64-2.82-1.04-5.72-1.56-8.7-1.56-3.13,0-5.71.61-7.74,1.82-2.03,1.22-3.04,2.74-3.04,4.57,0,.73.16,1.39.49,1.99.33.6.83,1.17,1.5,1.69,1.7,1.28,5.39,2.09,11.05,2.44,2.61.15,4.62.31,6.05.49,4.21.48,7.54,1.83,10,4.06s3.68,4.97,3.68,8.23c0,3.88-1.69,7.08-5.06,9.59-3.37,2.51-7.79,3.76-13.25,3.76-4.13,0-7.98-.6-11.52-1.8-3.55-1.2-6.92-3.04-10.13-5.53Z"/>
  </g>
  <g>
    <path class="st0" d="M139.54,436.67v-42.1h24.9c4.14,0,7.28.88,9.4,2.65,2.12,1.77,3.18,4.38,3.18,7.84,0,1.68-.33,3.18-.99,4.5-.66,1.32-1.6,2.39-2.82,3.2,2.24,1.3,3.93,2.89,5.07,4.77,1.14,1.88,1.72,4.04,1.72,6.48,0,3.89-1.28,6.97-3.83,9.25s-6.02,3.41-10.39,3.41h-26.24ZM144.77,411.2h20.14c2.21,0,3.9-.5,5.07-1.51,1.17-1,1.75-2.45,1.75-4.33,0-1.98-.57-3.47-1.7-4.46-1.13-.99-2.84-1.49-5.13-1.49h-20.14v11.78ZM144.77,431.83h22.04c2.39,0,4.27-.71,5.64-2.12,1.37-1.41,2.06-3.34,2.06-5.78s-.69-4.33-2.06-5.76c-1.37-1.42-3.25-2.14-5.64-2.14h-22.04v15.79Z"/>
    <path class="st0" d="M184.2,436.67l20.63-42.1h4.35l20.86,42.1h-5.68l-5.72-11.33h-23.26l-5.57,11.33h-5.61ZM197.78,420.42h18.54l-9.31-18.65-9.23,18.65Z"/>
    <path class="st0" d="M236.45,436.67v-42.1h5.22v37.26h27.5v4.84h-32.72Z"/>
    <path class="st0" d="M275.58,436.67v-42.33h5.3v42.33h-5.3Z"/>
  </g>
  <g>
    <g>
      <circle class="st0" cx="120.74" cy="193.79" r="9.65"/>
      <circle class="st0" cx="99.21" cy="211.67" r="9.65"/>
      <circle class="st0" cx="205.34" cy="278.26" r="9.65"/>
      <circle class="st0" cx="227.57" cy="302.97" r="9.65"/>
      <circle class="st0" cx="333.29" cy="262.73" r="9.65"/>
      <circle class="st0" cx="344.76" cy="293.32" r="9.65"/>
      <circle class="st0" cx="85.68" cy="330.38" r="9.65"/>
    </g>
    <g>
      <circle class="st0" cx="120.74" cy="193.79" r="9.65"/>
      <circle class="st0" cx="99.21" cy="211.67" r="9.65"/>
      <circle class="st0" cx="205.34" cy="278.26" r="9.65"/>
      <circle class="st0" cx="227.57" cy="302.97" r="9.65"/>
      <circle class="st0" cx="333.29" cy="262.73" r="9.65"/>
      <circle class="st0" cx="344.76" cy="293.32" r="9.65"/>
      <circle class="st0" cx="85.68" cy="330.38" r="9.65"/>
    </g>
    <g>
      <circle class="st0" cx="223.25" cy="90.88" r="9.65"/>
      <circle class="st0" cx="214.17" cy="64.4" r="9.65"/>
      <circle class="st0" cx="114.27" cy="140.01" r="9.65"/>
      <circle class="st0" cx="83.28" cy="152.04" r="9.65"/>
      <circle class="st0" cx="83.41" cy="265.15" r="9.65"/>
      <circle class="st0" cx="50.74" cy="265.03" r="9.65"/>
      <circle class="st0" cx="107.97" cy="9.65" r="9.65"/>
    </g>
    <g>
      <circle class="st0" cx="237.82" cy="254.67" r="9.65"/>
      <circle class="st0" cx="263.87" cy="264.9" r="9.65"/>
      <circle class="st0" cx="271.03" cy="139.82" r="9.65"/>
      <circle class="st0" cx="281.96" cy="108.43" r="9.65"/>
      <circle class="st0" cx="195.73" cy="35.22" r="9.65"/>
      <circle class="st0" cx="216.99" cy="10.42" r="9.65"/>
      <circle class="st0" cx="374.39" cy="219.51" r="9.65"/>
    </g>
  </g>
  <g>
    <polyline class="st0" points="85.68 330.83 136.62 311.26 240.57 357.86 321.05 327.5 339.93 292.38"/>
    <polyline class="st0" points="88.18 315.24 132.12 298.91 235.63 345.15 316.11 314.79 333.29 283.03"/>
    <polyline class="st0" points="83.41 302.42 127.35 286.09 230.86 332.33 311.34 301.97 328.52 270.21"/>
    <polyline class="st0" points="100.86 182.84 132.57 265.85 224.63 307.44"/>
    <polyline class="st0" points="120.74 193.79 144.33 255.65 202.9 282.11"/>
    <polyline class="st0" points="99.21 212.61 122.44 273.41 226.24 320.31"/>
    <polyline class="st0" points="85.68 330.83 136.62 311.26 240.57 357.86 321.05 327.5 339.93 292.38"/>
    <polyline class="st0" points="88.18 315.24 132.12 298.91 235.63 345.15 316.11 314.79 333.29 283.03"/>
    <polyline class="st0" points="83.41 302.42 127.35 286.09 230.86 332.33 311.34 301.97 328.52 270.21"/>
    <polyline class="st0" points="100.86 182.84 132.57 265.85 224.63 307.44"/>
    <polyline class="st0" points="120.74 193.79 144.33 255.65 202.9 282.11"/>
    <polyline class="st0" points="99.21 212.61 122.44 273.41 226.24 320.31"/>
    <polyline class="st0" points="107.56 9.49 107.78 64.06 27.35 144.73 27.19 230.74 53.33 260.85"/>
    <polyline class="st0" points="121.25 17.36 120.92 64.24 40.98 144.62 40.82 230.63 64.43 257.96"/>
    <polyline class="st0" points="134.93 17.45 134.6 64.32 54.66 144.7 54.5 230.72 78.11 258.04"/>
    <polyline class="st0" points="240.54 76.17 151.68 76.38 80.14 147.71"/>
    <polyline class="st0" points="223.25 90.88 157.04 91 111.53 136.37"/>
    <polyline class="st0" points="213.29 64.07 148.2 64.22 67.54 144.64"/>
    <polyline class="st0" points="374.78 219.3 333.08 184.1 323.77 70.57 258.37 14.71 218.5 15.1"/>
    <polyline class="st0" points="359.92 224.63 324.43 194 315.02 81.03 249.62 25.16 213.51 25.43"/>
    <polyline class="st0" points="350.99 234.99 315.49 204.36 306.09 91.39 240.69 35.52 204.58 35.79"/>
    <polyline class="st0" points="237.82 277.36 295.25 209.56 287.29 108.85"/>
    <polyline class="st0" points="237.82 254.67 280.64 204.17 275.58 140.1"/>
    <polyline class="st0" points="264.69 264.45 306.76 214.78 297.79 101.24"/>
  </g>
  <g>
    <path class="st0" d="M240.57,360.36c-.35,0-.7-.07-1.03-.22l-103-46.17-49.97,19.19c-1.29.5-2.74-.15-3.24-1.44-.5-1.29.15-2.74,1.44-3.24l50.94-19.56c.62-.24,1.31-.22,1.92.05l103.01,46.17,78.63-29.66,18.44-34.29c.66-1.22,2.18-1.68,3.4-1.02,1.22.66,1.68,2.18,1.02,3.4l-18.88,35.12c-.29.53-.76.95-1.32,1.16l-80.48,30.36c-.29.11-.58.16-.88.16Z"/>
    <path class="st0" d="M235.63,347.66c-.35,0-.7-.07-1.02-.22l-102.57-45.82-42.98,15.97c-1.3.48-2.74-.18-3.22-1.48-.48-1.3.18-2.74,1.48-3.22l43.94-16.32c.61-.23,1.3-.21,1.9.06l102.56,45.82,78.64-29.66,16.73-30.94c.66-1.22,2.18-1.67,3.4-1.01,1.22.66,1.67,2.18,1.01,3.4l-17.18,31.77c-.29.53-.76.94-1.32,1.15l-80.48,30.35c-.29.11-.58.16-.88.16Z"/>
    <path class="st0" d="M230.86,334.84c-.35,0-.7-.07-1.02-.22l-102.57-45.82-42.98,15.97c-1.3.48-2.74-.18-3.22-1.48-.48-1.3.18-2.74,1.48-3.22l43.94-16.32c.61-.23,1.3-.21,1.9.06l102.56,45.82,78.63-29.66,16.73-30.94c.66-1.22,2.18-1.67,3.4-1.01,1.22.66,1.67,2.18,1.01,3.4l-17.18,31.77c-.29.53-.76.94-1.32,1.15l-80.48,30.36c-.29.11-.58.16-.88.16Z"/>
    <path class="st0" d="M224.63,309.95c-.34,0-.7-.07-1.03-.22l-92.07-41.59c-.6-.27-1.07-.77-1.31-1.39l-31.71-83.01c-.49-1.29.15-2.74,1.45-3.24,1.29-.5,2.74.15,3.24,1.45l31.34,82.04,91.12,41.17c1.26.57,1.82,2.06,1.25,3.32-.42.93-1.33,1.48-2.29,1.48Z"/>
    <path class="st0" d="M202.9,284.62c-.35,0-.7-.07-1.03-.22l-58.57-26.46c-.6-.27-1.07-.77-1.31-1.39l-23.59-61.87c-.49-1.29.16-2.74,1.45-3.24,1.29-.49,2.74.16,3.24,1.45l23.22,60.9,57.63,26.03c1.26.57,1.82,2.06,1.25,3.32-.42.93-1.33,1.48-2.29,1.48Z"/>
    <path class="st0" d="M226.23,322.81c-.34,0-.7-.07-1.03-.22l-103.8-46.89c-.6-.27-1.07-.77-1.31-1.39l-23.23-60.8c-.49-1.29.15-2.74,1.45-3.24,1.29-.5,2.74.15,3.24,1.45l22.86,59.84,102.86,46.47c1.26.57,1.82,2.06,1.25,3.32-.42.93-1.33,1.48-2.29,1.48Z"/>
    <path class="st0" d="M240.57,360.36c-.35,0-.7-.07-1.03-.22l-103-46.17-49.97,19.19c-1.29.5-2.74-.15-3.24-1.44-.5-1.29.15-2.74,1.44-3.24l50.94-19.56c.62-.24,1.31-.22,1.92.05l103.01,46.17,78.63-29.66,18.44-34.29c.66-1.22,2.18-1.68,3.4-1.02,1.22.66,1.68,2.18,1.02,3.4l-18.88,35.12c-.29.53-.76.95-1.32,1.16l-80.48,30.36c-.29.11-.58.16-.88.16Z"/>
    <path class="st0" d="M235.63,347.66c-.35,0-.7-.07-1.02-.22l-102.57-45.82-42.98,15.97c-1.3.48-2.74-.18-3.22-1.48-.48-1.3.18-2.74,1.48-3.22l43.94-16.32c.61-.23,1.3-.21,1.9.06l102.56,45.82,78.64-29.66,16.73-30.94c.66-1.22,2.18-1.67,3.4-1.01,1.22.66,1.67,2.18,1.01,3.4l-17.18,31.77c-.29.53-.76.94-1.32,1.15l-80.48,30.35c-.29.11-.58.16-.88.16Z"/>
    <path class="st0" d="M230.86,334.84c-.35,0-.7-.07-1.02-.22l-102.57-45.82-42.98,15.97c-1.3.48-2.74-.18-3.22-1.48-.48-1.3.18-2.74,1.48-3.22l43.94-16.32c.61-.23,1.3-.21,1.9.06l102.56,45.82,78.63-29.66,16.73-30.94c.66-1.22,2.18-1.67,3.4-1.01,1.22.66,1.67,2.18,1.01,3.4l-17.18,31.77c-.29.53-.76.94-1.32,1.15l-80.48,30.36c-.29.11-.58.16-.88.16Z"/>
    <path class="st0" d="M224.63,309.95c-.34,0-.7-.07-1.03-.22l-92.07-41.59c-.6-.27-1.07-.77-1.31-1.39l-31.71-83.01c-.49-1.29.15-2.74,1.45-3.24,1.29-.5,2.74.15,3.24,1.45l31.34,82.04,91.12,41.17c1.26.57,1.82,2.06,1.25,3.32-.42.93-1.33,1.48-2.29,1.48Z"/>
    <path class="st0" d="M202.9,284.62c-.35,0-.7-.07-1.03-.22l-58.57-26.46c-.6-.27-1.07-.77-1.31-1.39l-23.59-61.87c-.49-1.29.16-2.74,1.45-3.24,1.29-.49,2.74.16,3.24,1.45l23.22,60.9,57.63,26.03c1.26.57,1.82,2.06,1.25,3.32-.42.93-1.33,1.48-2.29,1.48Z"/>
    <path class="st0" d="M226.23,322.81c-.34,0-.7-.07-1.03-.22l-103.8-46.89c-.6-.27-1.07-.77-1.31-1.39l-23.23-60.8c-.49-1.29.15-2.74,1.45-3.24,1.29-.5,2.74.15,3.24,1.45l22.86,59.84,102.86,46.47c1.26.57,1.82,2.06,1.25,3.32-.42.93-1.33,1.48-2.29,1.48Z"/>
    <path class="st0" d="M53.33,263.36c-.7,0-1.4-.29-1.89-.86l-26.14-30.11c-.4-.46-.62-1.04-.61-1.65l.16-86.01c0-.66.26-1.3.73-1.77L105.27,63.03l-.22-53.53c0-1.38,1.11-2.51,2.5-2.52h.01c1.38,0,2.5,1.12,2.51,2.5l.22,54.57c0,.67-.26,1.31-.73,1.78L29.85,145.77l-.16,84.04,25.52,29.4c.91,1.05.8,2.63-.25,3.54-.47.41-1.06.61-1.64.61Z"/>
    <path class="st0" d="M64.43,260.46c-.7,0-1.4-.29-1.9-.87l-23.61-27.33c-.39-.46-.61-1.04-.61-1.64l.16-86.01c0-.66.26-1.29.73-1.76L118.42,63.2l.31-45.85c0-1.38,1.13-2.49,2.51-2.49h.02c1.38,0,2.5,1.14,2.49,2.52l-.32,46.88c0,.66-.27,1.29-.73,1.75l-79.21,79.65-.16,84.04,23,26.62c.91,1.05.79,2.63-.26,3.54-.47.41-1.06.61-1.64.61Z"/>
    <path class="st0" d="M78.11,260.55c-.7,0-1.4-.29-1.9-.87l-23.61-27.33c-.39-.46-.61-1.04-.61-1.64l.16-86.01c0-.66.26-1.29.73-1.76l79.22-79.65.31-45.85c0-1.38,1.13-2.49,2.51-2.49h.02c1.38,0,2.5,1.14,2.49,2.52l-.32,46.88c0,.66-.27,1.29-.73,1.75l-79.21,79.65-.16,84.04,23,26.62c.91,1.05.79,2.63-.26,3.54-.47.41-1.06.61-1.64.61Z"/>
    <path class="st0" d="M80.14,150.21c-.64,0-1.29-.25-1.78-.74-.98-.98-.98-2.57,0-3.55l71.54-71.33c.47-.47,1.1-.73,1.76-.73l88.86-.21h0c1.38,0,2.5,1.12,2.51,2.5,0,1.38-1.12,2.51-2.5,2.51l-87.82.21-70.81,70.6c-.49.49-1.13.73-1.77.73Z"/>
    <path class="st0" d="M111.53,138.88c-.64,0-1.29-.25-1.78-.74-.98-.98-.98-2.57,0-3.55l45.51-45.38c.47-.47,1.1-.73,1.77-.73l66.21-.12h0c1.38,0,2.5,1.12,2.51,2.5,0,1.38-1.12,2.51-2.5,2.51l-65.18.12-44.78,44.65c-.49.49-1.13.73-1.77.73Z"/>
    <path class="st0" d="M67.54,147.15c-.64,0-1.29-.25-1.78-.74-.98-.98-.98-2.57,0-3.55l80.66-80.42c.47-.47,1.1-.73,1.76-.73l65.09-.15h0c1.38,0,2.5,1.12,2.51,2.5,0,1.38-1.12,2.51-2.5,2.51l-64.06.15-79.92,79.69c-.49.49-1.13.73-1.77.73Z"/>
    <path class="st0" d="M374.78,221.81c-.57,0-1.15-.19-1.62-.59l-41.7-35.2c-.51-.43-.83-1.05-.88-1.71l-9.23-112.5-63.9-54.58-38.93.38h-.02c-1.37,0-2.49-1.11-2.51-2.48-.01-1.39,1.1-2.52,2.48-2.53l39.87-.39c.62,0,1.19.21,1.65.6l65.4,55.86c.5.43.82,1.04.87,1.7l9.22,112.49,40.91,34.53c1.06.89,1.19,2.48.3,3.53-.5.59-1.2.89-1.92.89Z"/>
    <path class="st0" d="M359.92,227.13c-.58,0-1.16-.2-1.64-.61l-35.49-30.63c-.5-.43-.81-1.04-.86-1.69l-9.32-111.95-63.9-54.58-35.18.26c-1.38.02-2.52-1.1-2.53-2.49-.01-1.38,1.1-2.52,2.49-2.53l36.11-.27h.02c.6,0,1.17.21,1.63.6l65.4,55.86c.5.43.82,1.04.87,1.7l9.32,111.95,34.72,29.96c1.05.9,1.17,2.49.26,3.54-.5.57-1.2.87-1.9.87Z"/>
    <path class="st0" d="M350.99,237.5c-.58,0-1.16-.2-1.64-.61l-35.49-30.63c-.5-.43-.81-1.04-.86-1.69l-9.32-111.95-63.9-54.59-35.18.26c-1.39,0-2.52-1.1-2.53-2.49s1.1-2.52,2.49-2.53l36.11-.27c.64.02,1.19.21,1.65.6l65.4,55.86c.5.43.82,1.04.87,1.7l9.32,111.95,34.72,29.96c1.05.9,1.17,2.49.26,3.54-.5.57-1.2.87-1.9.87Z"/>
    <path class="st0" d="M237.82,279.87c-.57,0-1.15-.2-1.62-.59-1.06-.9-1.19-2.48-.29-3.53l56.76-67.02-7.88-99.68c-.11-1.38.92-2.59,2.3-2.7,1.37-.1,2.59.92,2.7,2.3l7.96,100.71c.05.66-.16,1.31-.59,1.82l-57.43,67.8c-.5.59-1.2.89-1.91.89Z"/>
    <path class="st0" d="M237.82,257.17c-.57,0-1.15-.2-1.62-.6-1.06-.9-1.19-2.48-.29-3.53l42.15-49.71-4.98-63.04c-.11-1.38.92-2.59,2.3-2.7,1.37-.1,2.59.92,2.7,2.3l5.06,64.07c.05.66-.16,1.31-.59,1.82l-42.82,50.5c-.5.58-1.2.89-1.91.89Z"/>
    <path class="st0" d="M264.69,266.96c-.57,0-1.15-.2-1.62-.59-1.06-.9-1.19-2.48-.29-3.53l41.4-48.88-8.89-112.51c-.11-1.38.92-2.59,2.3-2.7,1.36-.11,2.59.92,2.7,2.3l8.97,113.54c.05.66-.16,1.31-.59,1.82l-42.07,49.67c-.5.59-1.2.89-1.91.89Z"/>
  </g>
</svg>