<?xml version="1.0" encoding="UTF-8"?>
<svg id="Pisos_y_Revestimientos" xmlns="http://www.w3.org/2000/svg" version="1.1" viewBox="0 0 330.37 339.1">
  <!-- Generator: Adobe Illustrator 30.5.1, SVG Export Plug-In . SVG Version: 2.1.4 Build 3)  -->
  <defs>
    <style>
      .st0 {
        fill: #fff;
        fill-rule: evenodd;
      }

      .st1 {
        opacity: .5;
      }
    </style>
  </defs>
  <g>
    <polygon class="st0" points="190.86 11.82 190.87 11.85 197.78 .43 197.7 .1 165.79 8.49 184.34 13.53 190.86 11.82"/>
    <polygon class="st0" points="135.49 16.46 135.49 16.46 124.79 19.28 124.79 19.27 106.91 23.97 118.79 30.77 131.6 27.4 132.59 27.14 132.59 27.14 161.81 19.45 143.26 14.41 135.49 16.46"/>
    <polygon class="st0" points="165.44 94.75 183.98 99.79 191.81 97.73 202.51 94.92 220.66 90.15 208.77 83.36 165.44 94.75"/>
    <polygon class="st0" points="137.4 102.12 130.26 113.92 161.56 105.69 143.01 100.65 137.4 102.12"/>
    <path class="st0" d="M135.16,97.5l-10.16-38.66-5.04,18.55c3.18,12.02,6.29,23.94,9.46,35.98l6.91-11.42-1.17-4.44Z"/>
    <polygon class="st0" points="106.09 24.67 114.07 55.01 119.11 36.46 117.77 31.34 106.09 24.67"/>
    <polygon class="st0" points="221.14 89.26 213.24 59.2 208.2 77.75 209.47 82.59 221.14 89.26"/>
    <polygon class="st0" points="192.14 16.69 192.15 16.69 194.97 27.4 194.96 27.39 202.31 55.37 207.35 36.82 198.14 1.78 191.23 13.2 192.14 16.69"/>
  </g>
  <g class="st1">
    <path class="st0" d="M165.06,21.84l-1.4,35.26,7.92-16.58-6.52-18.68Z"/>
    <path class="st0" d="M162.25,92.35l1.4-35.26-7.92,16.58,6.52,18.68Z"/>
    <path class="st0" d="M198.91,58.5l-35.26-1.4,16.58,7.92,18.68-6.52Z"/>
    <path class="st0" d="M128.4,55.69l35.26,1.4-16.58-7.92-18.68,6.52Z"/>
    <path class="st0" d="M189.58,33.16l-25.92,23.94,17.32-6.12,8.6-17.81Z"/>
    <path class="st0" d="M137.73,81.03l25.92-23.94-17.32,6.12-8.6,17.82Z"/>
    <path class="st0" d="M139.71,31.17l23.94,25.92-6.12-17.32-17.82-8.6Z"/>
    <path class="st0" d="M187.59,83.02l-23.94-25.92,6.12,17.32,17.82,8.6Z"/>
  </g>
  <g>
    <polygon class="st0" points="157.06 39.95 163.65 57.09 165.02 21.84 157.06 39.95"/>
    <polygon class="st0" points="180.8 50.5 163.65 57.09 198.91 58.47 180.8 50.5"/>
    <path class="st0" d="M163.65,57.1l-25.9,23.96,18.44-7.17,7.46-16.79h0s-1.37,35.26-1.37,35.26l7.96-18.11-6.59-17.15h0s0,0,0,0h0s0,0,0,0l-23.96-25.9,7.17,18.44,16.79,7.47h0s-35.26-1.37-35.26-1.37l18.11,7.96,17.15-6.59ZM163.65,57.1h0s0,0,0,0h0Z"/>
    <polygon class="st0" points="171.12 40.31 163.65 57.09 189.55 33.13 171.12 40.31"/>
    <polygon class="st0" points="180.44 64.56 163.65 57.09 187.61 83 180.44 64.56"/>
    <polygon class="st0" points="136.66 12.15 129.87 .56 125.1 18.13 135.8 15.33 136.66 12.15"/>
    <polygon class="st0" points="121.59 31.06 105.9 88.81 117.66 82.08 119.46 75.48 119.45 75.48 124.49 56.94 124.49 56.94 132.29 28.25 121.59 31.06"/>
    <polygon class="st0" points="209.64 32.11 195.02 85.91 205.72 83.11 221.39 25.43 209.64 32.11"/>
    <polygon class="st0" points="190.6 102.2 197.39 113.78 202.19 96.1 191.49 98.9 190.6 102.2"/>
    <polygon class="st0" points="182.05 100.3 182.01 100.31 163.43 95.28 163.5 95.26 133.47 87.1 136.27 97.8 144.91 100.15 144.96 100.13 163.52 105.17 163.46 105.19 196.44 114.15 189.51 102.33 182.05 100.3"/>
    <polygon class="st0" points="118.18 82.95 106.39 89.68 123.36 94.3 120.56 83.59 118.18 82.95"/>
    <polygon class="st0" points="193.81 27.08 191 16.38 130.71 0 137.64 11.82 193.81 27.08"/>
    <polygon class="st0" points="209.13 31.24 220.95 24.52 203.95 19.9 206.75 30.6 209.13 31.24"/>
  </g>
  <path class="st0" d="M27.82,268.53c-.48,3.68-1.23,7.36-2.13,10.98-.91,3.57-2.24,6.72-3.95,9.33-1.76,2.56-4.1,4.26-7.04,4.96-2.35.48-4.21.75-5.65.85-1.39.11-2.72.11-3.94.11-1.6,0-2.88.16-3.73.53-.91.32-1.39.91-1.39,1.71.05,1.39.59,2.35,1.71,2.82,1.07.48,2.4.75,4.05.69,2.61,0,5.38-.05,8.42-.16,2.98-.11,6.02-.21,8.95-.32,2.98-.11,5.7-.21,8.21-.32,2.51-.11,4.53-.16,6.08-.16,1.97,0,4.74.11,8.26.27,3.57.16,7.52.27,11.94.43,4.37.16,8.85.27,13.38.27,2.4.05,4.32-.21,5.65-.69,1.33-.48,2.03-1.44,2.03-2.82-.05-.8-.53-1.39-1.44-1.71-.91-.37-2.03-.53-3.36-.53-1.6,0-3.52-.11-5.76-.32-2.24-.21-4.8-.64-7.68-1.28-2.77-.59-5.06-1.71-6.82-3.31-1.81-1.6-2.72-3.94-2.77-6.93,0-2.51.11-4.9.27-7.25s.37-4.96.69-7.78l16.63-127.29h1.28c2.29,4.85,4.74,10.18,7.46,15.94,2.72,5.76,5.49,11.62,8.26,17.48,2.14,4.52,4.18,8.86,6.13,12.98.6-.66,1.22-1.3,1.85-1.93,3.61-3.61,7.59-6.84,11.97-9.46,5.3-3.16,10.92-5.85,16.82-7.65.82-.25,1.64-.49,2.47-.72l-51.13-105.63c-1.39-2.72-2.56-4.85-3.52-6.29-.96-1.44-1.87-2.4-2.67-2.93-.8-.48-1.6-.75-2.45-.69-1.28,0-2.4.69-3.3,2.13-.96,1.39-1.65,3.47-2.13,6.18l-31.66,208.52h0ZM107.38,220.84c.27-2.98.71-5.93,1.41-8.79,1.01-4.17,2.52-8.32,4.76-11.99,1.91-3.12,4.22-5.96,7.05-8.28,2.39-1.96,5.01-3.74,7.8-5.07,1.55-.74,3.14-1.4,4.76-1.94l23.8,49.16c-.5.95-.75,2.04-.72,3.2.07,2.42,1.43,4.46,3.62,5.49,1.25.59,2.6.79,3.97.79,1.11,0,2.21.02,3.31.1.69.05,1.43.12,2.11.28.6.14,1.85.45,2.36.83.25.19.36.36.46.65.33.98.41,2.23.43,3.25.07,2.84.13,5.69.14,8.53l.02,4.69-9.87,20.56c-.81,1.67-1.56,3.21-2.26,4.61h-.21c-6.13-.01-12.21-.86-18.02-2.83-1.09-.37-2.17-.78-3.23-1.21-1.18-2.3-2.66-5.15-4.42-8.51-2.13-4.05-4.42-8.58-6.98-13.49-2.51-4.96-5.12-9.97-7.73-15.08-2.61-5.17-5.06-10.02-7.41-14.66-1.95-3.82-3.65-7.26-5.14-10.28h0ZM187.55,230.72l9.19-19.14c-.48.09-.98.13-1.5.12-2.24-.05-4.26-1.1-5.43-3.03-.68-1.11-1.03-2.36-1.18-3.64-.15-1.27-.37-2.54-.65-3.79-.28-1.29-.76-2.54-1.32-3.74-.61-1.3-1.48-2.5-2.44-3.55-.1-.11-.21-.22-.32-.34l-17.45,36.62c2.52.03,5.04.06,7.56.12,2.89.08,5.79.13,8.68.22,1.61.05,3.23.1,4.84.13h0ZM202.28,200.05c.02-3.21.07-6.43.18-9.64.1-2.61.18-5.24.38-7.84.11-1.39.22-2.81.39-4.2.11-.88.19-1.76.21-2.64.04-1.82-.51-3.59-1.75-4.95-1.4-1.53-3.34-2.12-5.34-2.25l-.47-.03,51.98-109.13c1.23-2.56,2.4-4.48,3.41-5.76,1.01-1.28,2.24-1.92,3.62-1.92s2.67.8,3.62,2.45c.96,1.6,1.65,4.1,2.13,7.46l29.1,197.65c.91,6.72,2.03,12.26,3.2,16.68,1.23,4.42,2.82,7.94,4.8,10.45,1.97,2.51,4.53,4.26,7.68,5.17,4.64,1.39,8.58,2.29,11.83,2.67,3.25.43,5.92.59,8,.53,1.49,0,2.72.11,3.62.43.96.27,1.49.91,1.49,1.81-.05,1.28-.91,2.19-2.45,2.72-1.6.53-3.57.8-5.86.8-1.39,0-3.62-.05-6.66-.05-3.09-.05-6.72-.16-10.87-.21-4.16-.11-8.53-.21-13.11-.32-4.58-.16-9.11-.27-13.54-.43-4.42-.11-8.42-.27-12.05-.43-3.62-.16-6.5-.32-8.69-.48-3.57-.32-6.08-.75-7.41-1.28-1.28-.53-1.92-1.28-1.87-2.24,0-.8.32-1.44.91-1.97.64-.59,1.49-1.07,2.61-1.55,1.01-.27,1.65-1.55,2.03-3.73.32-2.24.21-5.54-.43-10.02l-19.19-140.72h-1.28l-30.23,62.96Z"/>
  <path class="st0" d="M198.87,268.5c0-4.19,0-7.96.03-11.32,0-3.35.06-6.29.14-8.8.06-2.91.59-5.14,1.56-6.68.98-1.51,2.57-2.49,4.81-2.88.98-.17,1.82-.31,2.52-.39.7-.08,1.37-.11,2.01-.11s1.12-.08,1.54-.31c.42-.2.61-.53.64-1.03,0-.67-.28-1.12-.87-1.34-.56-.25-1.4-.36-2.49-.34-1.87,0-4.02.06-6.37.14-2.38.08-4.75.14-7.07.22-2.35.08-4.39.14-6.18.14s-3.91-.06-6.59-.14c-2.68-.08-5.56-.14-8.66-.22-3.07-.08-6.09-.14-9.05-.14-1.17-.03-2.04.08-2.63.34-.59.22-.89.67-.89,1.34.03.5.25.84.7,1.03.45.22,1.06.31,1.82.31,1.23,0,2.43.03,3.66.11,1.2.08,2.18.22,2.88.39,1.84.39,3.27.95,4.3,1.73,1.03.78,1.76,1.79,2.21,3.07.42,1.28.67,2.85.7,4.75.08,2.49.14,5.36.14,8.63.03,3.24.03,6.96.03,11.15v15.76c.03,1.43-.2,2.68-.64,3.74-.45,1.03-1.31,1.87-2.54,2.46-1.37.61-2.85,1.03-4.5,1.29-1.65.28-3.33.45-5,.5-1.7.06-3.27.06-4.75.06-7.1-.03-13.64-1.06-19.65-3.1-6.01-2.04-11.4-4.95-16.18-8.72-4.75-3.74-8.83-8.24-12.18-13.47-3.35-5.2-5.9-10.98-7.66-17.35-1.79-6.37-2.68-13.16-2.68-20.4.03-6.85.64-12.88,1.9-18.08,1.26-5.17,3.05-9.67,5.37-13.44,2.29-3.77,5-6.96,8.16-9.56,2.93-2.4,5.9-4.33,8.83-5.73,2.96-1.43,5.87-2.46,8.72-3.13,2.85-.67,5.59-1.09,8.22-1.29,2.65-.2,5.11-.28,7.43-.25,4.75.03,9.11.45,13.13,1.29,4,.84,7.6,1.9,10.79,3.24,3.19,1.31,5.9,2.74,8.16,4.25,2.29,1.51,4.05,2.93,5.31,4.3,1.42,1.56,2.54,3.19,3.3,4.83.78,1.65,1.34,3.24,1.68,4.81.34,1.54.59,2.96.73,4.28.08.67.22,1.2.47,1.59.22.39.64.59,1.2.59.67.03,1.15-.22,1.43-.75.28-.53.42-1.45.42-2.77,0-5.2.06-9.5.2-12.88.11-3.38.25-6.06.39-8.05.17-1.96.28-3.47.42-4.44.11-1.01.17-1.7.17-2.12.03-.59-.11-1.06-.42-1.4-.31-.34-.95-.53-1.93-.62-1.31-.06-2.77-.2-4.36-.42-1.59-.2-3.19-.42-4.75-.7-1.54-.25-2.93-.5-4.14-.73-.87-.17-2.35-.42-4.42-.7-2.07-.31-4.53-.59-7.35-.89-2.79-.31-5.76-.56-8.86-.75-3.1-.22-6.12-.34-9.05-.34-4.69-.06-9.47.17-14.36.67-4.89.48-9.89,1.51-15.03,3.07-5.11,1.56-10.34,3.94-15.71,7.15-3.86,2.29-7.52,5.2-10.98,8.69-3.49,3.46-6.6,7.52-9.33,12.13-2.71,4.58-4.86,9.73-6.46,15.43-1.57,5.67-2.38,11.88-2.4,18.58.06,9.25,1.42,17.44,4.11,24.62,2.71,7.15,6.48,13.33,11.32,18.5,4.86,5.2,10.54,9.47,17.02,12.8,6.51,3.33,13.55,5.81,21.18,7.41,7.63,1.62,15.59,2.4,23.84,2.4,3.3,0,6.73-.11,10.31-.39,3.58-.25,7.13-.67,10.7-1.26,3.58-.56,7.01-1.34,10.31-2.32,3.33-.95,6.34-2.15,9.08-3.58.67-.36,1.15-.73,1.45-1.09.31-.36.53-.89.61-1.62.08-.75.11-1.84.11-3.33v-18.44Z"/>
  <path class="st0" d="M9.29,321.22l.6-.1c.58-.12,1.14-.26,1.65-.44.52-.18.97-.44,1.34-.79.38-.35.68-.81.89-1.38.21-.57.33-1.29.33-2.17,0-1.32-.35-2.28-1.05-2.88-.7-.6-1.63-.91-2.76-.91-.28,0-.57,0-.86.02-.29.01-.6.04-.92.09v17.66h-4.46v-19.54c.47-.03.97-.06,1.53-.08.55-.03,1.12-.06,1.71-.08.6-.02,1.19-.04,1.78-.04.6,0,1.17,0,1.72,0,1.35,0,2.53.13,3.52.39.99.26,1.81.63,2.46,1.12.66.48,1.14,1.07,1.45,1.75.32.69.48,1.47.48,2.33,0,.91-.18,1.76-.53,2.56-.35.79-.89,1.49-1.61,2.09-.73.6-1.66,1.06-2.79,1.4-1.12.34-2.46.51-4.02.51h-.2l-.27-1.51h0ZM26.68,330.32h-4.39v-13.12h4.39v13.12h0ZM24.4,309.77l2.78,2.45-2.78,2.47-2.75-2.47,2.75-2.45h0ZM42.05,326c0,.74-.18,1.34-.54,1.82-.36.47-.78.89-1.27,1.24-.25.18-.52.37-.8.55-.28.19-.6.35-.95.49-.35.14-.75.25-1.21.33-.45.09-.98.13-1.57.13-1.09,0-2.08-.09-2.98-.29-.89-.19-1.73-.49-2.52-.92l1.08-2.45c.33.17.68.36,1.06.57.38.21.78.41,1.21.59.43.17.87.32,1.34.44.46.12.94.18,1.43.18.33,0,.63-.02.92-.07.27-.04.5-.12.68-.23.15-.1.27-.28.34-.55.08-.26.11-.57.11-.94,0-.43-.19-.76-.56-1.01-.38-.25-.85-.46-1.42-.65-.56-.18-1.17-.36-1.82-.55-.66-.18-1.27-.43-1.83-.73-.57-.31-1.04-.7-1.42-1.17-.38-.47-.56-1.11-.56-1.88,0-.52.18-1.02.55-1.53.37-.5.77-.92,1.21-1.24.54-.41,1.13-.72,1.78-.92.65-.2,1.4-.3,2.26-.3.72,0,1.48.04,2.28.11.8.07,1.55.15,2.25.23l-.47,2.6c-.35-.09-.74-.2-1.15-.3-.41-.09-.81-.19-1.21-.28-.4-.09-.79-.15-1.16-.2-.38-.05-.72-.07-1.02-.07-.38,0-.68.01-.87.05-.21.04-.36.09-.48.14-.1.06-.18.18-.24.36-.06.19-.09.38-.09.57,0,.4.19.71.56.94.38.23.85.43,1.42.61.56.17,1.18.36,1.84.55.66.19,1.27.44,1.84.73.57.3,1.04.68,1.42,1.16.38.47.56,1.1.56,1.86h0ZM52.28,330.58c-2.52,0-4.43-.58-5.76-1.74-1.33-1.16-1.99-2.85-1.99-5.08,0-1.05.16-1.99.49-2.84.33-.84.81-1.56,1.47-2.15.65-.59,1.46-1.04,2.43-1.36.97-.32,2.09-.48,3.36-.48,2.55,0,4.48.59,5.78,1.77,1.31,1.18,1.96,2.86,1.96,5.03,0,1.06-.16,2.01-.49,2.86-.33.84-.81,1.56-1.47,2.15-.65.59-1.46,1.04-2.43,1.36-.97.32-2.09.48-3.35.48h0ZM49.09,323.74c0,1.72.24,2.98.73,3.79.49.81,1.3,1.21,2.44,1.21.43,0,.84-.03,1.22-.09.38-.07.7-.16.96-.29.16-.07.31-.24.44-.52.13-.28.23-.62.32-1.03.09-.41.16-.88.21-1.4.04-.52.06-1.07.06-1.64,0-1.67-.25-2.92-.74-3.76-.49-.83-1.29-1.24-2.4-1.24-.42,0-.82.04-1.22.11-.4.07-.75.18-1.06.34-.16.08-.31.26-.44.53-.13.27-.22.61-.3,1.02-.08.41-.13.87-.16,1.39-.03.51-.05,1.04-.05,1.6h0ZM74.34,326c0,.74-.18,1.34-.54,1.82-.36.47-.78.89-1.27,1.24-.25.18-.52.37-.8.55-.28.19-.6.35-.95.49-.35.14-.75.25-1.21.33-.45.09-.98.13-1.57.13-1.09,0-2.08-.09-2.98-.29-.89-.19-1.73-.49-2.52-.92l1.08-2.45c.33.17.68.36,1.06.57.38.21.78.41,1.21.59.43.17.87.32,1.34.44.46.12.94.18,1.43.18.33,0,.63-.02.92-.07.27-.04.5-.12.68-.23.15-.1.27-.28.34-.55.08-.26.11-.57.11-.94,0-.43-.19-.76-.56-1.01-.38-.25-.85-.46-1.42-.65-.56-.18-1.17-.36-1.82-.55-.66-.18-1.27-.43-1.83-.73-.57-.31-1.04-.7-1.42-1.17-.38-.47-.56-1.11-.56-1.88,0-.52.18-1.02.55-1.53.37-.5.77-.92,1.21-1.24.54-.41,1.13-.72,1.78-.92.65-.2,1.4-.3,2.26-.3.72,0,1.48.04,2.28.11.8.07,1.55.15,2.25.23l-.47,2.6c-.35-.09-.74-.2-1.15-.3-.41-.09-.81-.19-1.22-.28-.4-.09-.79-.15-1.16-.2-.38-.05-.72-.07-1.02-.07-.39,0-.68.01-.87.05-.21.04-.36.09-.48.14-.1.06-.18.18-.24.36-.06.19-.09.38-.09.57,0,.4.19.71.57.94.38.23.85.43,1.42.61.57.17,1.18.36,1.84.55.66.19,1.28.44,1.84.73.57.3,1.04.68,1.42,1.16.38.47.56,1.1.56,1.86h0ZM86.59,336.69c-.78.82-1.57,1.43-2.34,1.82-.77.39-1.57.59-2.36.59-.42,0-.87-.03-1.36-.09-.48-.06-.86-.12-1.15-.21v-1.26h.33c.53,0,1.15-.12,1.85-.39.7-.25,1.38-.63,2.01-1.11.35-.26.76-.59,1.22-1.01.47-.42.96-.88,1.45-1.37.5-.49.99-1.01,1.47-1.53.47-.52.91-1.03,1.29-1.51-.61-1.55-1.2-2.99-1.78-4.31-.59-1.33-1.13-2.5-1.63-3.52-.5-1.01-.95-1.84-1.34-2.49-.39-.65-.7-1.07-.93-1.27-.22-.18-.45-.3-.68-.35-.23-.05-.41-.07-.55-.07h-.13v-1.24c.19-.04.43-.08.72-.12.29-.04.6-.07.92-.09.32-.03.62-.06.92-.08.3-.02.56-.03.75-.03.44,0,.83.04,1.18.14s.64.25.87.48c.3.25.63.68.98,1.26.35.58.71,1.28,1.09,2.09.38.82.76,1.73,1.15,2.73.39,1,.77,2.06,1.14,3.16h.08c.5-.68.91-1.33,1.21-1.94.31-.61.56-1.21.74-1.81.19-.6.31-1.19.38-1.79.07-.6.1-1.23.1-1.89,0-.19,0-.39-.03-.59-.03-.2-.06-.41-.09-.6-.03-.19-.07-.36-.11-.52-.04-.15-.08-.27-.11-.34l3.41-.51c.08.2.15.49.22.89.07.38.1.76.1,1.11,0,.94-.18,1.89-.53,2.85-.35.95-.8,1.91-1.36,2.86-.57.95-1.18,1.89-1.86,2.83-.68.94-1.34,1.85-1.99,2.75-.7.92-1.28,1.69-1.75,2.31-.46.62-.87,1.16-1.24,1.61-.37.46-.72.88-1.07,1.27-.34.38-.74.81-1.19,1.29h0ZM113.51,322.23h-1.51v8.09h-4.46v-19.6c.91-.06,1.92-.1,3.06-.15,1.13-.04,2.22-.07,3.26-.07,2.65,0,4.67.44,6.05,1.3,1.38.87,2.07,2.22,2.07,4.06,0,.83-.12,1.54-.35,2.15-.23.61-.55,1.14-.93,1.6-.38.45-.82.84-1.33,1.15-.51.31-1.03.57-1.58.79.66,1.01,1.27,1.96,1.87,2.86.59.89,1.19,1.67,1.78,2.34.59.67,1.2,1.2,1.81,1.59.61.39,1.27.59,1.97.59h.15v1.26c-.36.1-.76.18-1.22.25-.45.07-.97.09-1.54.09-.82,0-1.53-.07-2.14-.19-.62-.13-1.21-.41-1.79-.84-.57-.42-1.17-1.05-1.79-1.87-.62-.82-1.34-1.94-2.16-3.34l-1.23-2.07h0ZM112.81,320.29c.62,0,1.22-.07,1.8-.2.57-.13,1.04-.3,1.37-.5.16-.09.33-.23.5-.38.17-.16.33-.36.45-.62.14-.26.25-.59.33-.98.09-.4.13-.89.13-1.5,0-.66-.09-1.23-.27-1.68-.17-.46-.44-.82-.79-1.1-.35-.28-.79-.47-1.31-.6-.52-.12-1.11-.18-1.78-.18-.19,0-.39,0-.62,0-.23,0-.43.03-.62.06v7.67h.8ZM134.04,316.92c.73,0,1.45.09,2.14.27.69.17,1.33.47,1.92.89.58.41,1.09.97,1.51,1.68.43.71.75,1.58.97,2.63v.17c-.13.16-.31.3-.54.43-.22.13-.52.24-.89.33-.37.09-.82.18-1.35.26-.54.07-1.18.14-1.93.17l-4.86.32v.56c0,1.02.32,1.86.95,2.53.64.67,1.59,1,2.86,1,.52,0,1.06-.04,1.63-.14.56-.09,1.1-.2,1.62-.33.5-.13.98-.26,1.4-.4.43-.13.74-.25.97-.35l.38.96c-.47.3-1,.6-1.58.92-.58.32-1.21.61-1.88.87-.67.25-1.37.47-2.11.63-.74.17-1.51.25-2.29.25-.92,0-1.78-.12-2.57-.35-.79-.24-1.47-.61-2.05-1.12-.57-.51-1.03-1.18-1.36-2.01-.33-.82-.51-1.82-.51-3,0-1.32.19-2.44.57-3.35.39-.92.92-1.66,1.61-2.22.68-.56,1.49-.97,2.41-1.22.93-.25,1.93-.38,3-.38h0ZM131.95,319.14c-.11.08-.22.24-.33.48-.11.23-.21.51-.29.83-.09.32-.15.65-.2,1-.05.34-.08.68-.08,1.01l4.83-.2c-.04-.38-.12-.78-.22-1.19-.1-.41-.25-.79-.44-1.13-.2-.34-.43-.62-.72-.85-.28-.23-.62-.34-1.03-.34-.28,0-.55.03-.8.09-.25.06-.49.15-.73.3h0ZM141.83,317.38c.17-.03.39-.06.67-.09.27-.04.57-.07.89-.11.32-.04.63-.07.94-.09.31-.02.58-.03.81-.03.54,0,.99.04,1.37.14.38.09.69.28.97.57.27.28.56.76.9,1.43.33.68.68,1.46,1.05,2.35.37.89.74,1.82,1.09,2.8.36.98.68,1.91.98,2.81h.03c.59-.91,1.05-1.71,1.4-2.41.34-.7.6-1.37.78-1.98.17-.62.28-1.21.33-1.79.05-.57.08-1.19.08-1.86,0-.28-.02-.6-.06-.96-.04-.36-.09-.61-.14-.76l3.31-.41c.09.17.15.39.2.67.05.28.08.55.08.82,0,1.05-.17,2.1-.51,3.14-.34,1.05-.79,2.06-1.33,3.07-.54,1-1.15,1.98-1.81,2.93-.66.95-1.31,1.86-1.94,2.73h-3.61c-.43-1.22-.89-2.44-1.36-3.65-.48-1.21-.95-2.33-1.4-3.36-.46-1.02-.89-1.9-1.28-2.65-.39-.75-.72-1.27-.99-1.55-.33-.34-.74-.51-1.22-.51h-.2v-1.24h0ZM167.68,316.92c.73,0,1.45.09,2.14.27.69.17,1.33.47,1.92.89.58.41,1.09.97,1.51,1.68.43.71.75,1.58.97,2.63v.17c-.13.16-.31.3-.54.43-.22.13-.52.24-.89.33-.37.09-.82.18-1.35.26-.54.07-1.18.14-1.93.17l-4.86.32v.56c0,1.02.32,1.86.95,2.53.64.67,1.59,1,2.86,1,.52,0,1.06-.04,1.63-.14.56-.09,1.1-.2,1.62-.33.5-.13.98-.26,1.4-.4.43-.13.74-.25.97-.35l.38.96c-.47.3-1,.6-1.58.92s-1.22.61-1.88.87c-.67.25-1.37.47-2.11.63-.74.17-1.51.25-2.29.25-.92,0-1.78-.12-2.58-.35-.79-.24-1.47-.61-2.05-1.12-.57-.51-1.03-1.18-1.36-2.01-.33-.82-.5-1.82-.5-3,0-1.32.19-2.44.57-3.35.38-.92.92-1.66,1.61-2.22.68-.56,1.49-.97,2.41-1.22.93-.25,1.93-.38,3-.38h0ZM165.59,319.14c-.11.08-.22.24-.33.48-.11.23-.21.51-.29.83-.09.32-.15.65-.2,1-.05.34-.08.68-.08,1.01l4.83-.2c-.04-.38-.12-.78-.22-1.19-.1-.41-.25-.79-.44-1.13-.2-.34-.43-.62-.72-.85-.28-.23-.62-.34-1.03-.34-.28,0-.55.03-.8.09-.25.06-.49.15-.73.3h0ZM188.51,326c0,.74-.18,1.34-.54,1.82-.36.47-.78.89-1.27,1.24-.25.18-.52.37-.8.55-.28.19-.6.35-.95.49-.35.14-.75.25-1.21.33-.45.09-.98.13-1.57.13-1.09,0-2.08-.09-2.98-.29-.89-.19-1.73-.49-2.52-.92l1.08-2.45c.33.17.68.36,1.06.57.38.21.78.41,1.21.59.43.17.87.32,1.34.44.46.12.94.18,1.43.18.33,0,.63-.02.92-.07.27-.04.5-.12.68-.23.15-.1.27-.28.34-.55.08-.26.11-.57.11-.94,0-.43-.19-.76-.56-1.01-.38-.25-.85-.46-1.42-.65-.56-.18-1.17-.36-1.82-.55-.66-.18-1.27-.43-1.83-.73-.57-.31-1.04-.7-1.42-1.17-.38-.47-.56-1.11-.56-1.88,0-.52.18-1.02.55-1.53.37-.5.77-.92,1.21-1.24.54-.41,1.13-.72,1.78-.92.65-.2,1.4-.3,2.26-.3.72,0,1.48.04,2.28.11.8.07,1.55.15,2.25.23l-.47,2.6c-.35-.09-.74-.2-1.15-.3-.41-.09-.81-.19-1.21-.28-.4-.09-.79-.15-1.16-.2-.38-.05-.72-.07-1.02-.07-.39,0-.68.01-.87.05-.21.04-.36.09-.48.14-.1.06-.18.18-.24.36-.06.19-.09.38-.09.57,0,.4.19.71.57.94.38.23.85.43,1.42.61.56.17,1.18.36,1.84.55.66.19,1.28.44,1.84.73.57.3,1.04.68,1.42,1.16.38.47.56,1.1.56,1.86h0ZM192.23,319.01l-1.65-.47v-.78l4.73-2.86h1.21l.05,2.3h4.69l-.21,1.45c-.35.06-.78.11-1.28.15-.51.04-1,.07-1.47.1-.55.04-1.12.09-1.7.13v7.37c0,.47.1.87.3,1.18.2.32.62.48,1.26.48.16,0,.39,0,.68-.02.28-.01.58-.04.89-.07.31-.03.61-.06.9-.09.29-.04.54-.07.74-.09v1.08c-.37.2-.8.41-1.28.61-.48.2-.99.39-1.54.55-.54.17-1.09.3-1.64.39-.55.1-1.08.15-1.57.15-.38,0-.76-.03-1.13-.09-.37-.07-.7-.19-.99-.37-.29-.19-.53-.44-.7-.78-.18-.33-.27-.77-.27-1.32v-9.01h0ZM208.76,330.32h-4.39v-13.12h4.39v13.12h0ZM206.48,309.77l2.78,2.45-2.78,2.47-2.75-2.47,2.75-2.45h0ZM223.1,330.32v-8.8c0-.78-.14-1.36-.41-1.73-.28-.37-.73-.55-1.37-.55-.47,0-1.01.11-1.63.33-.62.23-1.16.49-1.61.8v9.95h-4.39v-13.12h3.91l.38,1.53h.05c.3-.17.66-.36,1.07-.57.4-.2.85-.4,1.31-.58.47-.19.96-.34,1.47-.47.5-.12,1.02-.19,1.51-.19.82,0,1.56.16,2.21.49.65.33,1.15.83,1.48,1.49.32-.18.7-.39,1.15-.62.45-.23.93-.44,1.45-.65.51-.2,1.04-.38,1.57-.51.54-.14,1.06-.2,1.56-.2.57,0,1.1.08,1.59.25.5.16.92.4,1.29.72.37.32.66.72.86,1.21.21.48.32,1.05.32,1.7v9.52h-4.39v-8.8c0-.78-.14-1.36-.41-1.73-.28-.37-.74-.55-1.37-.55-.47,0-1.01.11-1.63.33-.62.23-1.16.49-1.61.8v9.95h-4.39ZM246.11,330.32h-4.39v-13.12h4.39v13.12h0ZM243.82,309.77l2.78,2.45-2.78,2.47-2.75-2.47,2.75-2.45h0ZM257.57,316.92c.73,0,1.45.09,2.14.27.69.17,1.33.47,1.92.89.58.41,1.09.97,1.51,1.68.43.71.75,1.58.97,2.63v.17c-.13.16-.31.3-.54.43-.22.13-.52.24-.89.33-.37.09-.82.18-1.35.26-.54.07-1.18.14-1.93.17l-4.86.32v.56c0,1.02.32,1.86.95,2.53.64.67,1.59,1,2.86,1,.52,0,1.06-.04,1.63-.14.56-.09,1.1-.2,1.62-.33.5-.13.98-.26,1.4-.4.43-.13.74-.25.97-.35l.38.96c-.47.3-1,.6-1.58.92s-1.21.61-1.88.87c-.67.25-1.37.47-2.11.63-.74.17-1.51.25-2.29.25-.92,0-1.78-.12-2.58-.35-.79-.24-1.47-.61-2.05-1.12-.57-.51-1.03-1.18-1.36-2.01-.33-.82-.5-1.82-.5-3,0-1.32.19-2.44.57-3.35.39-.92.92-1.66,1.61-2.22.68-.56,1.49-.97,2.41-1.22.93-.25,1.93-.38,3-.38h0ZM255.48,319.14c-.11.08-.22.24-.33.48-.11.23-.21.51-.29.83-.09.32-.15.65-.2,1-.05.34-.08.68-.08,1.01l4.83-.2c-.04-.38-.12-.78-.22-1.19-.1-.41-.25-.79-.44-1.13-.2-.34-.43-.62-.72-.85-.28-.23-.62-.34-1.03-.34-.28,0-.55.03-.8.09-.25.06-.49.15-.73.3h0ZM277.79,330.32v-8.8c0-.78-.15-1.36-.44-1.73-.29-.37-.79-.55-1.49-.55-.26,0-.53.03-.84.09-.31.06-.62.14-.93.24-.31.11-.61.23-.91.36-.31.14-.58.28-.83.44v9.95h-4.39v-13.12h3.91l.4,1.53h.05c.3-.17.66-.36,1.09-.57.43-.2.89-.4,1.39-.58.5-.19,1.02-.34,1.55-.47.54-.12,1.06-.19,1.58-.19.58,0,1.13.08,1.64.25.5.16.96.4,1.34.72.38.32.68.72.91,1.21.23.48.34,1.05.34,1.7v9.52h-4.39ZM287.18,319.01l-1.65-.47v-.78l4.73-2.86h1.21l.05,2.3h4.69l-.21,1.45c-.35.06-.78.11-1.28.15-.51.04-1,.07-1.47.1-.55.04-1.12.09-1.7.13v7.37c0,.47.1.87.3,1.18.21.32.62.48,1.26.48.16,0,.39,0,.68-.02.28-.01.58-.04.89-.07.31-.03.61-.06.9-.09.29-.04.54-.07.75-.09v1.08c-.37.2-.8.41-1.28.61-.48.2-.99.39-1.54.55-.54.17-1.09.3-1.64.39-.55.1-1.08.15-1.57.15-.38,0-.76-.03-1.13-.09-.37-.07-.7-.19-.99-.37-.29-.19-.53-.44-.7-.78-.18-.33-.27-.77-.27-1.32v-9.01h0ZM306,330.58c-2.52,0-4.43-.58-5.76-1.74-1.33-1.16-1.99-2.85-1.99-5.08,0-1.05.16-1.99.49-2.84.32-.84.81-1.56,1.47-2.15.65-.59,1.46-1.04,2.43-1.36.97-.32,2.09-.48,3.36-.48,2.55,0,4.48.59,5.78,1.77,1.31,1.18,1.96,2.86,1.96,5.03,0,1.06-.16,2.01-.49,2.86-.33.84-.81,1.56-1.47,2.15-.65.59-1.46,1.04-2.43,1.36-.97.32-2.09.48-3.35.48h0ZM302.81,323.74c0,1.72.24,2.98.73,3.79.49.81,1.3,1.21,2.44,1.21.43,0,.84-.03,1.22-.09.38-.07.7-.16.96-.29.16-.07.31-.24.44-.52.13-.28.23-.62.32-1.03.09-.41.16-.88.21-1.4.04-.52.06-1.07.06-1.64,0-1.67-.25-2.92-.75-3.76-.49-.83-1.29-1.24-2.4-1.24-.42,0-.82.04-1.22.11-.4.07-.75.18-1.06.34-.16.08-.31.26-.44.53-.13.27-.22.61-.3,1.02-.08.41-.13.87-.16,1.39-.03.51-.05,1.04-.05,1.6h0ZM328.05,326c0,.74-.18,1.34-.54,1.82-.36.47-.78.89-1.27,1.24-.25.18-.52.37-.8.55-.28.19-.6.35-.95.49-.35.14-.75.25-1.21.33-.45.09-.98.13-1.57.13-1.09,0-2.08-.09-2.98-.29-.89-.19-1.73-.49-2.52-.92l1.08-2.45c.33.17.68.36,1.06.57.38.21.78.41,1.21.59.43.17.87.32,1.34.44.46.12.94.18,1.43.18.33,0,.63-.02.92-.07.27-.04.5-.12.69-.23.15-.1.27-.28.34-.55.08-.26.11-.57.11-.94,0-.43-.19-.76-.56-1.01-.38-.25-.85-.46-1.42-.65-.57-.18-1.17-.36-1.82-.55-.66-.18-1.27-.43-1.83-.73-.57-.31-1.04-.7-1.42-1.17-.38-.47-.56-1.11-.56-1.88,0-.52.18-1.02.55-1.53.37-.5.77-.92,1.21-1.24.54-.41,1.13-.72,1.78-.92.65-.2,1.4-.3,2.26-.3.72,0,1.48.04,2.29.11.8.07,1.55.15,2.25.23l-.47,2.6c-.35-.09-.74-.2-1.15-.3-.41-.09-.81-.19-1.22-.28-.4-.09-.79-.15-1.16-.2-.38-.05-.72-.07-1.02-.07-.38,0-.68.01-.87.05-.21.04-.36.09-.48.14-.1.06-.18.18-.24.36-.06.19-.09.38-.09.57,0,.4.19.71.56.94.38.23.85.43,1.42.61.56.17,1.18.36,1.84.55.66.19,1.27.44,1.84.73.57.3,1.04.68,1.42,1.16.38.47.56,1.1.56,1.86Z"/>
</svg>