<?xml version="1.0" encoding="UTF-8"?>
<svg id="Capa_1" xmlns="http://www.w3.org/2000/svg" version="1.1" viewBox="0 0 748.12 84.95">
  <!-- Generator: Adobe Illustrator 30.5.1, SVG Export Plug-In . SVG Version: 2.1.4 Build 3)  -->
  <defs>
    <style>
      .st0 {
        fill: #fff;
      }

      .st1 {
        isolation: isolate;
      }
    </style>
  </defs>
  <g class="st1">
    <g class="st1">
      <path class="st0" d="M280.17,31.27v6.98h-29.12V.64h28.42v6.98h-19.77v8.17h17.46v6.77h-17.46v8.7h20.47Z"/>
      <path class="st0" d="M284.15,34.55l2.96-6.55c3.17,2.31,7.9,3.92,12.41,3.92,5.16,0,7.25-1.72,7.25-4.03,0-7.04-21.87-2.2-21.87-16.17,0-6.39,5.16-11.71,15.85-11.71,4.73,0,9.56,1.13,13.06,3.33l-2.69,6.61c-3.49-1.99-7.09-2.96-10.42-2.96-5.16,0-7.15,1.93-7.15,4.3,0,6.93,21.87,2.15,21.87,15.96,0,6.29-5.21,11.66-15.96,11.66-5.96,0-11.98-1.77-15.31-4.35Z"/>
      <path class="st0" d="M319.02,19.45c0-11.34,8.7-19.45,20.42-19.45,6.5,0,11.93,2.36,15.47,6.66l-5.59,5.16c-2.53-2.9-5.69-4.41-9.46-4.41-7.04,0-12.03,4.94-12.03,12.04s5,12.03,12.03,12.03c3.76,0,6.93-1.5,9.46-4.46l5.59,5.16c-3.55,4.35-8.97,6.72-15.53,6.72-11.66,0-20.36-8.11-20.36-19.45Z"/>
      <path class="st0" d="M360.12,21.71V.64h8.7v20.74c0,7.15,3.12,10.1,8.38,10.1s8.38-2.96,8.38-10.1V.64h8.6v21.06c0,11.07-6.34,17.19-17.03,17.19s-17.03-6.12-17.03-17.19Z"/>
      <path class="st0" d="M431.9,31.27v6.98h-29.12V.64h28.42v6.98h-19.77v8.17h17.46v6.77h-17.46v8.7h20.47Z"/>
      <path class="st0" d="M438.84.64h8.7v30.52h18.86v7.09h-27.56V.64Z"/>
      <path class="st0" d="M496.38,30.19h-17.46l-3.33,8.06h-8.92L483.43.64h8.6l16.82,37.61h-9.13l-3.33-8.06ZM493.64,23.59l-5.96-14.4-5.96,14.4h11.93Z"/>
    </g>
  </g>
  <g class="st1">
    <g class="st1">
      <path class="st0" d="M0,65.5c0-11.34,8.7-19.45,20.42-19.45,6.5,0,11.93,2.36,15.47,6.66l-5.59,5.16c-2.53-2.9-5.69-4.41-9.46-4.41-7.04,0-12.03,4.94-12.03,12.04s5,12.03,12.03,12.03c3.76,0,6.93-1.5,9.46-4.46l5.59,5.16c-3.55,4.35-8.97,6.72-15.53,6.72-11.66,0-20.36-8.11-20.36-19.45Z"/>
      <path class="st0" d="M65.76,76.24h-17.46l-3.33,8.06h-8.92l16.76-37.61h8.6l16.82,37.61h-9.13l-3.33-8.06ZM63.02,69.64l-5.96-14.4-5.96,14.4h11.93Z"/>
      <path class="st0" d="M106.11,84.3l-7.25-10.48h-8v10.48h-8.7v-37.61h16.28c10.05,0,16.33,5.21,16.33,13.65,0,5.64-2.85,9.78-7.74,11.87l8.44,12.09h-9.35ZM97.95,53.79h-7.09v13.11h7.09c5.32,0,8-2.47,8-6.55s-2.69-6.55-8-6.55Z"/>
      <path class="st0" d="M119.28,65.5c0-11.18,8.7-19.45,20.58-19.45s20.58,8.22,20.58,19.45-8.76,19.45-20.58,19.45-20.58-8.27-20.58-19.45ZM151.62,65.5c0-7.15-5.05-12.04-11.77-12.04s-11.77,4.89-11.77,12.04,5.05,12.03,11.77,12.03,11.77-4.89,11.77-12.03Z"/>
      <path class="st0" d="M166.99,46.69h8.7v30.52h18.86v7.09h-27.56v-37.61Z"/>
      <path class="st0" d="M199.44,46.69h8.7v37.61h-8.7v-37.61Z"/>
      <path class="st0" d="M251.56,46.69v37.61h-7.15l-18.75-22.83v22.83h-8.6v-37.61h7.2l18.7,22.83v-22.83h8.6Z"/>
      <path class="st0" d="M285.25,76.24h-17.46l-3.33,8.06h-8.92l16.76-37.61h8.6l16.82,37.61h-9.13l-3.33-8.06ZM282.51,69.64l-5.96-14.4-5.96,14.4h11.93Z"/>
      <path class="st0" d="M324.63,53.79h-12.04v-7.09h32.77v7.09h-12.04v30.52h-8.7v-30.52Z"/>
      <path class="st0" d="M347.15,65.5c0-11.18,8.7-19.45,20.58-19.45s20.58,8.22,20.58,19.45-8.76,19.45-20.58,19.45-20.58-8.27-20.58-19.45ZM379.49,65.5c0-7.15-5.05-12.04-11.77-12.04s-11.77,4.89-11.77,12.04,5.05,12.03,11.77,12.03,11.77-4.89,11.77-12.03Z"/>
      <path class="st0" d="M429.35,74.04c0,6.5-5.16,10.26-15.04,10.26h-19.45v-37.61h18.38c9.4,0,14.24,3.92,14.24,9.78,0,3.76-1.93,6.66-5,8.27,4.19,1.34,6.88,4.57,6.88,9.29ZM403.51,53.25v8.87h8.65c4.25,0,6.55-1.5,6.55-4.46s-2.31-4.41-6.55-4.41h-8.65ZM420.59,73.13c0-3.17-2.42-4.67-6.93-4.67h-10.15v9.29h10.15c4.51,0,6.93-1.4,6.93-4.62Z"/>
      <path class="st0" d="M460.73,76.24h-17.46l-3.33,8.06h-8.92l16.76-37.61h8.6l16.82,37.61h-9.13l-3.33-8.06ZM457.99,69.64l-5.96-14.4-5.96,14.4h11.93Z"/>
      <path class="st0" d="M501.08,84.3l-7.25-10.48h-8v10.48h-8.7v-37.61h16.28c10.05,0,16.33,5.21,16.33,13.65,0,5.64-2.85,9.78-7.74,11.87l8.43,12.09h-9.35ZM492.91,53.79h-7.09v13.11h7.09c5.32,0,8-2.47,8-6.55s-2.69-6.55-8-6.55Z"/>
      <path class="st0" d="M557.23,64.91h7.95v15.26c-4.14,3.12-9.83,4.78-15.2,4.78-11.82,0-20.52-8.11-20.52-19.45s8.7-19.45,20.68-19.45c6.61,0,12.09,2.26,15.74,6.5l-5.59,5.16c-2.74-2.9-5.91-4.24-9.72-4.24-7.31,0-12.3,4.89-12.3,12.04s5,12.03,12.2,12.03c2.36,0,4.57-.43,6.77-1.61v-11.01Z"/>
      <path class="st0" d="M598.01,76.24h-17.46l-3.33,8.06h-8.92l16.76-37.61h8.6l16.82,37.61h-9.13l-3.33-8.06ZM595.27,69.64l-5.96-14.4-5.96,14.4h11.93Z"/>
      <path class="st0" d="M638.36,84.3l-7.25-10.48h-8v10.48h-8.7v-37.61h16.28c10.05,0,16.33,5.21,16.33,13.65,0,5.64-2.85,9.78-7.74,11.87l8.43,12.09h-9.35ZM630.19,53.79h-7.09v13.11h7.09c5.32,0,8-2.47,8-6.55s-2.69-6.55-8-6.55Z"/>
      <path class="st0" d="M651.52,65.5c0-11.34,8.7-19.45,20.42-19.45,6.5,0,11.93,2.36,15.47,6.66l-5.59,5.16c-2.52-2.9-5.69-4.41-9.46-4.41-7.04,0-12.04,4.94-12.04,12.04s5,12.03,12.04,12.03c3.76,0,6.93-1.5,9.46-4.46l5.59,5.16c-3.55,4.35-8.97,6.72-15.53,6.72-11.66,0-20.36-8.11-20.36-19.45Z"/>
      <path class="st0" d="M699.98,35.9h9.03l-9.72,7.74h-6.55l7.25-7.74ZM693.27,46.69h8.7v37.61h-8.7v-37.61Z"/>
      <path class="st0" d="M735.66,76.24h-17.46l-3.33,8.06h-8.92l16.76-37.61h8.6l16.82,37.61h-9.13l-3.33-8.06ZM732.92,69.64l-5.96-14.4-5.96,14.4h11.93Z"/>
    </g>
  </g>
</svg>