<?xml version="1.0" encoding="UTF-8"?>
<svg id="Capa_1" xmlns="http://www.w3.org/2000/svg" version="1.1" viewBox="0 0 470.33 144.19">
  <!-- Generator: Adobe Illustrator 30.5.1, SVG Export Plug-In . SVG Version: 2.1.4 Build 3)  -->
  <defs>
    <style>
      .st0 {
        fill: #fff;
      }

      .st1 {
        isolation: isolate;
      }
    </style>
  </defs>
  <g class="st1">
    <g class="st1">
      <path class="st0" d="M87.11,57.51v-1.2h1.6V2.8h-1.6v-1.2h33.15c2.5,0,4.89.27,7.15.8,2.26.53,4.29,1.45,6.07,2.76,1.78,1.31,3.2,3.1,4.23,5.39,1.04,2.29,1.56,5.17,1.56,8.63s-.52,6.32-1.56,8.59c-1.04,2.26-2.45,4.05-4.23,5.35-1.78,1.31-3.81,2.24-6.07,2.8-2.26.56-4.65.84-7.15.84h-18.77v19.57h1.6v1.2h-15.98v-.02ZM119.46,12.78h-17.97v12.78h17.97c1.97,0,3.57-.41,4.79-1.24s1.84-2.54,1.84-5.15-.61-4.39-1.84-5.19c-1.23-.8-2.82-1.2-4.79-1.2Z"/>
      <path class="st0" d="M140.07,57.51v-1.2h1.28L163.15,2.8h-1.12v-1.2h19.49v1.2h-1.12l21.81,53.52h1.28v1.2h-16.54v-1.2h1.52l-4.47-11.74h-24.44l-4.47,11.74h1.52v1.2h-16.54ZM171.78,12.7l-8.31,21.65h16.62s-8.31-21.65-8.31-21.65Z"/>
      <path class="st0" d="M209.48,38.58l1.04.64-.56,1.28c2.61,1.65,5.74,3.13,9.39,4.43,3.65,1.31,8.21,1.96,13.7,1.96,5,0,8.73-.49,11.18-1.48,2.45-.99,3.67-2.57,3.67-4.75s-1.33-3.73-3.99-4.63c-2.66-.91-6.98-1.6-12.94-2.08-8.52-.69-14.74-2.34-18.65-4.95-3.91-2.61-5.87-6.44-5.87-11.5,0-4.1,1.18-7.44,3.55-10.03,2.37-2.58,5.55-4.47,9.55-5.67s8.36-1.8,13.1-1.8c5.91,0,10.82.65,14.74,1.96,3.91,1.31,7.18,2.81,9.79,4.51l.48-.8,1.04.64-6.79,11.1-1.04-.64.64-1.12c-1.92-1.17-4.59-2.21-8.03-3.12-3.43-.9-7.31-1.36-11.62-1.36s-7.36.53-9.47,1.6c-2.1,1.07-3.16,2.45-3.16,4.15,0,1.49.54,2.65,1.64,3.47,1.09.83,2.9,1.47,5.43,1.92s5.92.84,10.18,1.16c8.15.64,14.12,2.25,17.93,4.83s5.71,6.72,5.71,12.42c0,3.94-1.17,7.23-3.51,9.87s-5.59,4.59-9.75,5.87c-4.15,1.28-8.89,1.89-14.22,1.84-6.98-.11-12.7-.91-17.17-2.4s-7.78-3.12-9.91-4.87l-.64,1.44-1.04-.64,5.59-13.26h.01Z"/>
      <path class="st0" d="M265.72,57.51v-1.2h1.6V2.8h-1.6v-1.2h49.61V.4h1.2v14.38h-1.2v-2h-35.23v10.78h21.65v-1.2h1.2v13.18h-1.2v-1.2h-21.65v11.98h35.23v-2.4h1.2v14.38h-1.2v-.8h-49.61Z"/>
      <path class="st0" d="M319.72,29.56c0-4.69.85-8.81,2.56-12.38,1.7-3.57,4.06-6.56,7.07-8.99,3.01-2.42,6.46-4.26,10.34-5.51,3.89-1.25,8.01-1.88,12.38-1.88s8.49.63,12.38,1.88,7.33,3.09,10.34,5.51,5.36,5.42,7.07,8.99c1.7,3.57,2.56,7.7,2.56,12.38s-.85,8.81-2.56,12.38-4.06,6.56-7.07,8.99c-3.01,2.42-6.46,4.26-10.34,5.51-3.89,1.25-8.02,1.88-12.38,1.88s-8.49-.63-12.38-1.88-7.34-3.09-10.34-5.51c-3.01-2.42-5.37-5.42-7.07-8.99-1.71-3.57-2.56-7.7-2.56-12.38ZM332.9,29.56c0,3.83.87,7.06,2.6,9.67s4.05,4.58,6.95,5.91c2.9,1.33,6.11,2,9.62,2s6.79-.67,9.67-2,5.18-3.3,6.91-5.91,2.6-5.83,2.6-9.67-.87-7.06-2.6-9.67-4.03-4.58-6.91-5.91-6.1-2-9.67-2-6.72.67-9.62,2-5.22,3.3-6.95,5.91-2.6,5.83-2.6,9.67Z"/>
    </g>
    <g class="st1">
      <path class="st0" d="M0,143.37v-1.2h1.28l21.81-53.52h-1.12v-1.2h19.49v1.2h-1.12l21.81,53.52h1.28v1.2h-16.54v-1.2h1.52l-4.47-11.74h-24.44l-4.47,11.74h1.52v1.2H0ZM31.71,98.56l-8.31,21.65h16.62s-8.31-21.65-8.31-21.65Z"/>
      <path class="st0" d="M76.21,115.42c0,5.49,1.81,9.79,5.43,12.9,3.62,3.12,8.73,4.67,15.34,4.67,2.82,0,5.38-.36,7.67-1.08s4.39-1.61,6.31-2.68v-6.23h-13.02v2.4h-1.2v-13.58h1.2v1.2h27v1.2h-1.6v21.17h1.6v1.2h-1.6c-1.81,1.12-3.89,2.26-6.23,3.44-2.34,1.17-5.14,2.16-8.39,2.96s-7.16,1.2-11.74,1.2c-6.5,0-12.3-1.16-17.41-3.47s-9.15-5.62-12.1-9.91c-2.96-4.29-4.43-9.41-4.43-15.38s1.48-11.09,4.43-15.38c2.96-4.29,6.99-7.59,12.1-9.91s10.92-3.47,17.41-3.47c4.42,0,8.23.44,11.42,1.32,3.2.88,5.92,1.93,8.19,3.16,2.26,1.23,4.19,2.4,5.79,3.52l.56-.72,1.04.64-8.55,11.34-1.04-.64.8-1.04c-1.97-1.65-4.45-3.13-7.43-4.43s-6.58-1.96-10.78-1.96c-6.6,0-11.72,1.54-15.34,4.63-3.62,3.09-5.43,7.4-5.43,12.94h0Z"/>
      <path class="st0" d="M132.12,143.37v-1.2h1.6v-53.52h-1.6v-1.2h35.15c3.36,0,6.47.55,9.35,1.64s5.2,2.86,6.99,5.31c1.78,2.45,2.68,5.73,2.68,9.83,0,3.57-.69,6.43-2.08,8.59-1.38,2.16-3.25,3.77-5.59,4.83-2.34,1.07-4.93,1.73-7.75,2l15.9,22.53h1.68v1.2h-19.57v-1.2h1.68l-13.02-22.37h-11.02v22.37h1.6v1.2h-16ZM166.47,98.64h-19.97v11.18h19.97c4.95,0,7.43-1.86,7.43-5.59s-2.48-5.59-7.43-5.59Z"/>
      <path class="st0" d="M192.83,143.37v-1.2h1.6v-53.52h-1.6v-1.2h16.77v1.2h-1.6v53.52h1.6v1.2h-16.77ZM193.81,76.71l.82.68,9.51-10.19-.75-.61.68-.75,9.37,7.4-.68.75-.75-.61-11.13,9.3.81.68-.68.75-7.88-6.65.68-.75h0Z"/>
      <path class="st0" d="M229.97,115.42c0,5.49,1.78,9.79,5.35,12.9,3.57,3.12,8.71,4.67,15.42,4.67,4.21,0,7.97-.8,11.3-2.4,3.33-1.6,6.16-3.41,8.51-5.43l-.64-.8,1.04-.64,8.55,11.18-1.04.64-.72-.96c-1.86,1.39-4.1,2.82-6.71,4.31-2.61,1.49-5.61,2.74-8.99,3.75s-7.15,1.52-11.3,1.52c-6.98,0-13.01-1.21-18.09-3.63-5.09-2.42-9-5.79-11.74-10.1-2.74-4.31-4.11-9.32-4.11-15.02s1.37-10.7,4.11-15.02c2.74-4.31,6.66-7.68,11.74-10.1s11.12-3.63,18.09-3.63c4.15,0,7.84.44,11.06,1.32s6.02,1.93,8.39,3.16c2.37,1.23,4.35,2.4,5.95,3.52l.56-.72,1.04.64-8.47,11.34-1.04-.64.8-1.04c-1.97-1.65-4.46-3.13-7.47-4.43s-6.62-1.96-10.82-1.96c-6.71,0-11.85,1.54-15.42,4.63-3.57,3.09-5.35,7.4-5.35,12.94h0Z"/>
      <path class="st0" d="M283.09,115.42c0-4.69.85-8.81,2.56-12.38,1.7-3.57,4.06-6.56,7.07-8.99,3.01-2.42,6.46-4.26,10.34-5.51,3.89-1.25,8.01-1.88,12.38-1.88s8.49.63,12.38,1.88,7.33,3.09,10.34,5.51c3.01,2.42,5.36,5.42,7.07,8.99,1.7,3.57,2.56,7.7,2.56,12.38s-.85,8.81-2.56,12.38-4.06,6.56-7.07,8.99c-3.01,2.42-6.46,4.26-10.34,5.51-3.89,1.25-8.02,1.88-12.38,1.88s-8.49-.63-12.38-1.88-7.34-3.09-10.34-5.51c-3.01-2.42-5.37-5.42-7.07-8.99-1.71-3.57-2.56-7.7-2.56-12.38ZM296.27,115.42c0,3.83.87,7.06,2.6,9.67s4.05,4.58,6.95,5.91c2.9,1.33,6.11,2,9.62,2s6.79-.67,9.67-2,5.18-3.3,6.91-5.91,2.6-5.83,2.6-9.67-.87-7.06-2.6-9.67-4.03-4.58-6.91-5.91-6.1-2-9.67-2-6.72.67-9.62,2-5.22,3.3-6.95,5.91-2.6,5.83-2.6,9.67Z"/>
      <path class="st0" d="M354.98,143.37v-1.2h1.6v-53.52h-1.6v-1.2h16.38v1.2h-1.6v43.53h35.15v-2.4h1.2v14.38h-1.2v-.8h-49.93Z"/>
      <path class="st0" d="M406.9,143.37v-1.2h1.28l21.81-53.52h-1.12v-1.2h19.49v1.2h-1.12l21.81,53.52h1.28v1.2h-16.54v-1.2h1.52l-4.47-11.74h-24.44l-4.47,11.74h1.52v1.2h-16.55ZM438.62,98.56l-8.31,21.65h16.62l-8.31-21.65Z"/>
    </g>
  </g>
</svg>