<?xml version="1.0" encoding="UTF-8"?>
<svg id="Capa_1" xmlns="http://www.w3.org/2000/svg" version="1.1" viewBox="0 0 1076.87 328.4">
  <!-- Generator: Adobe Illustrator 30.5.1, SVG Export Plug-In . SVG Version: 2.1.4 Build 3)  -->
  <defs>
    <style>
      .st0 {
        stroke: #fff;
        stroke-miterlimit: 10;
      }

      .st0, .st1 {
        fill: #fff;
      }
    </style>
  </defs>
  <path class="st1" d="M440.45,259.64c-32.09,2.12-83.06,6.9-133.96,12.74-6.05.73-12.18,1.52-18.3,2.45,5.72-23.34,6.18-49.42,6.07-72.32.07,0-.23-8.94-.19-8.94-1.21-29.71-3.85-68.91-16.74-96.04-.98-1.88-2.05-3.11-3.79-4.34-1.77-1.15-3.32-1.66-5.42-1.84-2.12-.1-3.69.2-5.62,1.11-1.87.96-3.1,2.05-4.29,3.76l-2.99,4.63c-8.57-33-19.31-65.75-34.63-96.13-.8-1.44-1.64-2.36-3-3.29-1.39-.87-2.59-1.26-4.21-1.39-1.64-.08-2.84.13-4.34.8-1.48.73-2.41,1.52-3.4,2.84l-1.29,1.82c-30.17,44.94-42.76,108.21-49.29,161.42l-5.62-4.3.03-.19-.05.18-8.36-6.39c-.73-.54-1.34-.82-2.24-.99-.88-.12-1.57-.03-2.41.27-.83.34-1.38.7-1.97,1.38-.56.68-.85,1.32-1.04,2.17-.45,2.94-.92,6.79-1.32,11.03-.44-.28-.88-.57-1.33-.92l1.31,1.04c-.99,10.67-1.5,23.8-.11,31.29.42-12.12,0-20.12.99-30.61l1.84,1.46c-1.25,15.13-.36,29.36,1.65,45.15,1.01,7.12,3.29,21.82,4.56,17.2.28-3.31,7.54,41.29,14.48,46.42.46-2.06-11.19-50.93-12.31-59.51-1.54-15.1-2.28-29.11-1.17-43.57l1.43,1.12c-1.12,24.68,1.49,54.64,8.65,74.95.75-27.79-6.49-41.8-4.75-71.94,1.94,1.29,3.82,2,6.31,2.42,3.03.39,5.33.12,8.19-.97,2.82-1.18,4.65-2.58,6.58-4.96,1.81-2.41,2.73-4.62,3.19-7.6l.31-2.27c6.91-47.71,17.06-93.11,39.63-135.14,11.45,27.37,19.79,57.41,25.91,85.68.75,3.3,1.97,5.58,4.31,8.03,2.42,2.31,4.7,3.52,7.95,4.25,3.28.59,5.86.35,8.97-.85,1.88-.81,3.35-1.74,4.67-2.97,4.59,21.55,5.8,47.76,6.26,66.12.2,30.41-.88,51-6.78,80.38-.56,3.28-1.08,5.79-2.53,8.82-1.17,2.45-1.55,4.55-1.35,7.25.32,2.73,1.09,4.7,2.7,6.9,1.68,2.14,3.37,3.39,5.89,4.4,2.58.93,4.65,1.07,7.34.6,0,0,.72-.04.72-.06,49.72-6.86,176.54-18.49,220.71-14.64-27.64,2.21-204.38,10.32-215.94,18.03,7.78.32,52.5-6.46,65.28-7.61-.06-.7,114.4-6.24,123.41-6.77l236.64-.73c96.05,3.26,165.02,20.18,251.94,28.29-5.46-10.15-111.84-24.93-127.9-26.71-.69-.07-20.7-1.86-14.12-2.93,61.53,3.82,141.13,19.7,199.86,39.21.95.27,1.73.58-16.18-8.28-39.57-10.79-73.44-22.75-114.03-29.68-19.05-2.8-55.17-3.98-65.48-7.5,25.39-3.68,22.51-2.05,54,2.51,19.19-1.59-47.93-9.45-60.59-10.32-82.81-4.39-175.87-13.36-258.01-10.14,0-.13-203.05,10.56-203.03,10.89-3.01.14-10.67.75,27.42-3.53,89.07-11.19,213.62-11.82,303.46-6.78,3.66.23,30.06,2.44,34.92-.85,23.04,1.35,45.99,3.53,68.99,4.94,16.18-5.12-57.75-10.81-72.5-11.61-17-.78-33.98-1.67-50.97-2.33-48.12-1.49-95.04,1-143.05.76-31.15-.27-49.43-.28-79.93,3.25M258.71,111.25l-.63.9-.21-.87.53-.81.31.79ZM258.79,109.87l6.03-9.12c.31-.48.67-.79,1.17-1.04.53-.26.96-.34,1.54-.31.59.06,1,.18,1.51.5.47.33.77.69,1.04,1.19,1.48,3.28,2.8,6.78,3.99,10.45-.27.19-.55.39-.86.56-1.19-3.82-2.53-7.37-4.03-10.57-.18-.34-.38-.59-.7-.8-.34-.23-.62-.32-1.02-.35-.39-.03-.7.03-1.05.21-.34.18-.59.39-.8.7,0,0-.08.11-.08.13l-6.24,8.99c-.18-.18-.34-.36-.5-.54ZM274.3,112.28c7.78,24.5,9.63,56.3,9.98,80.19v1.22c.06,24.95.33,50.2-4.7,74.75-.65,2.75-1.33,5.51-2.13,8.23l-1.3.25c7.01-25.63,7.42-59.28,7.18-83.22-.68-21.64-2.44-56.1-9.74-80.36l.71-1.06ZM202.91,14.78c-27.65,46.95-38.71,100.41-45.16,154.31-.05.36-.13.61-.34.91-.23.29-.43.44-.77.6-.34.13-.6.18-.97.14-.38-.06-.62-.16-.93-.39l-5.79-4.42.3-2.04c2.31,1.74,4.49,3.38,5.66,4.33l-.05.47c.03-.14.08-.26.15-.38.49.38.78.64.8.71.03,0,.07.04.11.02,0,0,.08-.03.09-.03.03-.02.05-.03.05-.07v-.08l.11-1.01c.1.02.2.07.28.12l-.27-.2c3.83-31.59,9.08-60.58,17.74-91.22,7.88-26.96,16.5-49.11,32.3-72.5.89-1.21,1.77-1.94,3.12-2.61,1.38-.62,2.52-.84,4.02-.76,1.51.14,2.59.49,3.87,1.3,1.25.84,2.04,1.71,2.77,3.03,15.62,30.27,26.3,64.02,34.16,97.43l-1.36,2.11c-3.6-13.53-7.58-26.73-11.87-40.22-6.55-20.21-13.48-39.17-23.43-57.99-.49-.86-.99-1.43-1.82-1.99-.82-.5-1.58-.75-2.55-.82-.96-.04-1.73.1-2.61.5-.88.44-1.44.93-2.03,1.72-1.94,2.98-3.78,5.98-5.57,9.01l-.27-.46.25.49ZM132.98,170.53c.33-3.42.81-7.11,1.5-11.28.14-.67.37-1.17.79-1.69.46-.51.89-.8,1.53-1.06.66-.23,1.18-.29,1.87-.19.66.11,1.19.35,1.71.76-.07.09,4.53,3.53,8.72,6.71-.21.6-.44,1.16-.73,1.7l-3.55-2.7c-.31,2.32-.57,4.76-.8,7.29-.41.23-.85.46-1.32.66.25-2.09.55-4.2.89-6.32.45-.57.79-1.14,1.05-1.78l-.67-.53.15-.84c-.06.29-.14.55-.22.78l-4.67-3.55c-.29-.21-.52-.32-.88-.38-.33-.03-.6,0-.91.13-.34.14-.51.26-.75.54-.21.27-.31.5-.37.83-.32,2.03-.6,4.02-.84,6-.44-.21-.84-.46-1.28-.8l1.26,1-.08.7c.47.19.97.34,1.53.44l5.14,4.05h-.03c-.3.12-.59.2-.87.28l-5.82-4.49c-.18,1.49-.33,2.97-.46,4.46-.67-.19-1.3-.43-1.9-.72ZM147.81,175.55l1.72,1.37c1.55,1.22,2.97,1.82,4.91,2.14,1.97.26,3.45.07,5.32-.63,1.81-.77,3.04-1.7,4.27-3.24,1.18-1.57,1.76-2.99,2.06-4.94,2.59-20.31,5.87-39.33,10.41-58.98-3.78,18.62-10.83,58.94-9.77,59.09-.32,2.08-.94,3.57-2.2,5.27-1.32,1.64-2.61,2.6-4.55,3.42-1.95.75-3.57.95-5.63.69-2.06-.34-3.57-1.01-5.23-2.29l-1.38-1.06.08-.84ZM143.76,173.3l-1.24-.95.1-.88,1.21.94-.07.89ZM144.82,162.78l-.18-.14c.15-.37.26-.76.36-1.2l-.18,1.34ZM135.36,166.53l-.03.27-1.62-1.26c.55.43,1.08.75,1.66.99ZM133.7,165.54l-.06-.04.06.04ZM253.51,107.18l1.32-1.95.33,1.44-1.27,1.99-.38-1.48ZM254.26,110.11c.7.19,1.31.46,1.87.85l.48,2.21.74-1.12c.15.18.3.36.42.55l-.97,1.41.25,1.17c-.09-.38-.21-.71-.36-1.02-1.29,1.86-2.18,3.16-2.17,3.18-.28.38-.53.6-.96.78-.42.16-.77.18-1.22.1-.43-.1-.76-.26-1.07-.58-.31-.32-.47-.65-.56-1.08l-.45-2.21c.12-.16.25-.29.38-.42.35,1.47.56,2.46.51,2.54.1.35.2.58.46.83.25.24.5.36.85.42.34.07.6.04.92-.09.31-.13.51-.33.7-.6l1.38-2.1.1.27-.08-.3.87-1.32c-.14-.19-.3-.39-.48-.59-.36-.34-.69-.58-1.06-.79l-.54-2.1ZM255.55,115.2l.08.33-.08-.33ZM250.25,114.35l-.33-1.59c-.28.23-.53.51-.78.86l.73-1.07-.36-1.72.31-.18.36,1.43,1.4-2.05c.49-.1.99-.13,1.5-.09l-1.2,1.87c-.25.07-.5.13-.78.24-.31.13-.57.27-.82.44l.32,1.31-.35.55ZM256.27,104.92l-.34-1.33,4.14-6.11c.95-1.36,1.94-2.21,3.42-2.96,1.52-.71,2.79-.94,4.46-.85,1.68.15,2.86.56,4.27,1.48,1.38.98,2.18,1.94,2.97,3.44,2.65,5.59,4.28,10.86,5.85,16.83l-6.46-16.54c-.7-1.36-1.51-2.29-2.77-3.15-1.28-.82-2.41-1.19-3.93-1.32-1.55-.08-2.65.14-4.07.8-1.37.73-2.2,1.47-3.09,2.73l-4.46,6.98ZM250.19,112.08l.1.41c-.13.08-.25.17-.36.27l-.05-.21.31-.47ZM256.34,113.59l.27-.42.19.84-.11.15c-.1-.19-.22-.39-.35-.57ZM156.46,167.96l.12.09-.12-.09ZM249.32,109.96c-.77-3.52-1.57-7.04-2.41-10.57.21.82,1.53,5.83,2.64,10.21l-.23.37ZM285.18,285.32c26.51-3.74,61.54-7.09,84.15-7.21l-84.8,9.11.65-1.9ZM282.44,292.69c-.14.41-.32.83-.52,1.25l.52-1.25ZM282.94,287.39l-3.63.39c2.54-.6,1.17-1.2,3.31-1.9.13.48.24.97.32,1.51ZM276.73,279.07c-1.13,3.5-2.48,6.9-4.22,10.15.01-.06,0-.13,0-.19s-.05-.13-.1-.15c0-.02-.16,0-.16,0-.02,0-.02,0-.04.12.01.03.02.08-.04.08,0,0-.06-.02-.07,0-.02.02-.02-.03-.02-.07,1.35-3.24,2.54-6.72,3.6-10.36l.34.12.72.32ZM274.73,225.97h-.04l1.66.09c.45,18.2-2.74,43.37-10.62,59.75-.63,1.33-.85,2.45-.75,3.93.16,1.48.59,2.54,1.45,3.74.93,1.17,1.81,1.84,3.2,2.41,1.42.49,2.51.58,4,.32,1.71-.21,10.92-1.39.31,1.65-1.81.33-3.16.22-4.91-.39-1.7-.69-2.83-1.53-3.97-2.97-1.08-1.49-1.59-2.78-1.81-4.62-.13-1.82.13-3.22.91-4.87.55-1.12,1.05-2.21,1.53-3.35,5.63-14,9.07-40.6,9.04-55.7Z"/>
  <path class="st1" d="M142.69,170.07c.23-1.85.5-3.69.78-5.54l.04-.23.15-.18c.24-.3.46-.63.65-.97l-.53-.39-4.31-3.3c-.17-.12-.27-.17-.46-.19-.2-.02-.31,0-.49.07-.2.08-.26.11-.39.28-.12.15-.15.23-.18.42-.34,1.97-.59,3.97-.83,5.95l-.03.2c.24.07.49.13.73.18l.22.04,4.67,3.67ZM274.62,226.89l-.15-.05.26-1.55,3.24.18.02.81c.46,18.41-2.72,43.52-10.7,60.16-.57,1.19-.78,2.16-.66,3.46.11,1.32.49,2.24,1.28,3.3.8,1.06,1.58,1.65,2.8,2.11,1.27.5,2.23.5,3.56.28.86-.13,1.79-.18,2.65-.22.9-.04,3.51-.34,3.75.93.3,1.67-4.82,2.46-5.75,2.67-1.96.47-3.54.29-5.41-.41-1.87-.7-3.15-1.67-4.36-3.26-1.21-1.59-1.79-3.07-1.99-5.07-.18-1.99.14-3.56,1.01-5.34.52-1.09,1.04-2.19,1.5-3.3,5.69-14,8.92-39.21,8.97-54.7ZM284.02,293.25c-.16.44-.34.89-.55,1.32l-.37.78-1.56-.7,1.18-2.82,1.59.62-.3.8ZM168.23,169.83l.25.03-.14.88c-.35,2.23-.99,3.89-2.37,5.67-1.38,1.79-2.83,2.87-4.92,3.71-2.07.84-3.88,1.06-6.08.74-2.21-.33-3.87-1.09-5.63-2.46l-1.77-1.37.28-2.92,2.99,2.36c1.41,1.12,2.7,1.71,4.48,1.97,1.82.26,3.18.09,4.88-.59,1.66-.67,2.8-1.53,3.91-2.97,1.1-1.41,1.63-2.73,1.87-4.52,2.79-19.82,5.91-39.53,10.41-59.05l.2-.84,1.68.37-.17.85c-1.66,8.23-3.19,16.49-4.66,24.75-1.33,7.47-2.62,14.98-3.79,22.46-.25,1.59-1.45,8.68-1.42,10.92ZM284.71,288.42h0l-5.36.58-.28-1.64.81-.19c1.85-.44,1.28-1.24,3.23-1.87l.86-.28.25.86c.12.4.21.8.28,1.2l.79-2.31.53-.07c11.49-1.63,23.03-2.97,34.59-4.13,16.37-1.62,33.23-3.01,49.68-3.1h.83s.09,1.68.09,1.68l-86.3,9.27ZM254.3,111.09l-1.12,1.75-.36.08c-.21.04-.42.1-.62.18-.05.02-.1.04-.15.06l.12.51.13.51c.15.57.43,1.62.46,2.35.04.16.08.26.21.39.13.13.23.16.39.19.17.03.27.02.42-.04.15-.06.22-.14.32-.28l1.19-1.79h0s.72-1.11.72-1.11c0,0-.01-.02-.02-.03-.26-.25-.53-.45-.85-.63l-.34-.18-.5-1.98ZM259.6,112.84h0l-1.11,1.6.35,1.63-1.69.39-.02-.08c-.28.38-.55.78-.8,1.17l.03.03-.37.53c-.36.49-.76.84-1.34,1.07-.58.23-1.12.27-1.73.14-.6-.13-1.08-.38-1.51-.83-.44-.42-.68-.91-.81-1.51l-.41-2.02-.08.11-1.41-1,1-1.47-.25-1.15-.23-1.07c-.77-3.52-1.57-7.04-2.4-10.56l-.21-.86,1.68-.41.22.84c.88,3.39,1.77,6.77,2.64,10.16h0s.16.65.16.65l.5-.74.35-.08c.55-.11,1.11-.14,1.67-.11l-.53-2.03,6.8-10.04c1.01-1.49,2.15-2.47,3.76-3.25,1.64-.8,3.09-1.07,4.91-.94,1.83.13,3.19.61,4.7,1.64,1.52,1.03,2.44,2.14,3.26,3.79,2.71,5.49,4.36,11.08,5.91,16.99l.21.8-1.57.51-6.77-17.31c-.49-1.26-1.34-2.01-2.43-2.73-1.14-.76-2.14-1.11-3.51-1.18-1.39-.09-2.37.09-3.63.7-1.23.62-2,1.25-2.75,2.42l-5.53,8.7-1.39,2.17c.74.2,1.44.5,2.07.96l.29.19.11.52.23-.34h0l.44-.66h0l6.41-9.68c.39-.6.87-1.01,1.51-1.34.66-.33,1.25-.44,1.99-.39.74.05,1.3.23,1.92.65.61.4,1.03.88,1.35,1.55,1.48,3.08,2.65,6.32,3.72,9.58h0s.41,1.28.41,1.28l.09.28h0l.04.14c11.59,36.48,13.69,118.54,5.32,156.6-.62,2.8-1.35,5.56-2.16,8.29l-.15.52-2.1.41.29.09,1.46.65-.24.75c-1.14,3.56-2.52,7.02-4.28,10.3l-.36.69-1.44-.57.02-.08c-.21-.19-.34-.5-.28-.81v-.1s.05-.1.05-.1c1.4-3.35,2.56-6.78,3.57-10.27l.25-.88.23-.81c9.84-35.99,8.7-90.74,4.12-128.69-1.39-11.45-3.35-23.34-6.67-34.41l-.13-.4h0l-.25-.81c-1.11-3.53-2.36-7.1-4-10.43-.1-.23-.2-.34-.4-.47-.21-.14-.35-.19-.6-.21-.23-.02-.39,0-.61.12-.19.1-.34.23-.47.42-.02.04-.06.08-.08.13l-7.4,10.65ZM255.87,102.85h0l-2.64,4.09-.5-1.92c-3.6-13.49-7.58-26.87-11.86-40.17-6.41-19.97-13.3-39.39-23.37-57.84-.41-.74-.82-1.2-1.52-1.66-.69-.44-1.31-.64-2.13-.69-.8-.06-1.44.06-2.18.4-.75.35-1.22.75-1.7,1.43-2.01,2.88-3.75,5.95-5.53,8.97l-.39.64c-27.36,46.77-38.06,100.12-44.68,153.36-.06.5-.21.9-.51,1.31-.31.44-.64.68-1.12.89-.48.2-.91.28-1.43.2-.53-.07-.92-.23-1.34-.55l-6.04-4.61-2.69-2.05c-.24,1.91-.43,3.83-.6,5.74l-.04.45-.39.24c-.24.13-.48.27-.73.39l.02.02h0l.98.77-.22,2.99-2.92-2.26.07-.59h-.01v-.09c-.08.02-.17.05-.27.08l-.42.12-4.93-3.82c-.1.96-.19,1.92-.29,2.88l-.05.57h0l-.03.48c-1.26,15.18-.38,29.88,1.64,44.96.29,2.2,1.87,13.18,3.07,16.56.12-.14.3-.25.54-.29,1.17-.18,1.44,1.97,1.61,2.72.43,1.84.82,3.67,1.22,5.5,1.2,5.53,2.42,11.06,3.8,16.55.93,3.66,3.77,14.86,6.75,19.88-.47-2.63-1.33-6.25-1.58-7.43-1.42-6.64-2.91-13.27-4.39-19.91-1.31-5.94-2.64-11.88-3.89-17.83-.77-3.67-1.72-7.72-2.15-11.44-1.71-14.59-2.3-29.07-1.18-43.73l.13-1.64,3.07,2.42-.03.45c-.96,21.25.68,48.39,6.93,69.47-.11-9.11-1.12-17.76-2.41-26.94-1.92-13.69-3.18-25.7-2.38-39.61l.09-1.53,1.26.84c1.9,1.27,3.71,1.95,5.96,2.29,2.86.43,5.06.16,7.74-.91,2.68-1.08,4.44-2.42,6.23-4.7,1.74-2.25,2.59-4.37,3-7.19.1-.75.21-1.51.32-2.26,6.67-47.24,17.02-93.16,39.73-135.44l.87-1.62.7,1.69c11.49,27.45,19.53,56.78,25.95,85.82.7,3.14,1.8,5.32,4.07,7.59,2.23,2.24,4.42,3.4,7.51,4.02,3.09.63,5.56.39,8.47-.8,1.66-.67,3.08-1.57,4.4-2.79l1.12-1.06.32,1.52c4.52,21.17,5.94,44.68,6.28,66.29.21,13.87-.03,27.66-1.23,41.48-1.16,13.14-3.15,26.11-5.56,39.08-.6,3.25-1.17,6.03-2.6,9.04-1.09,2.3-1.51,4.24-1.27,6.79.24,2.56.98,4.41,2.52,6.45,1.54,2.02,3.14,3.2,5.51,4.11,2.42.92,4.43.85,6.95.55.01,0,.1,0,.3-.02l.38-.05c15.6-2.15,31.31-3.88,46.97-5.49,20.1-2.07,40.23-3.88,60.36-5.45,21.66-1.69,43.38-3.12,65.08-3.92,9.12-.34,18.25-.56,27.37-.54,7.02.02,14.13.15,21.13.75l.8.07v1.63s-.8.07-.8.07c-10.27.82-20.63,1.38-30.96,1.95,1.22-.03,2.43-.05,3.63-.05l236.64-.74c26.84-.08,53.5,1.51,80.17,4.43,24.38,2.67,48.59,6.39,72.82,10.25,32.16,5.12,64.17,10.26,96.6,13.39-14.33-9.61-111.03-23.19-125.64-24.72-2.6-.27-5.18-.51-7.78-.83-1.78-.23-3.58-.46-5.35-.8-.87-.17-3.13-.47-3.1-1.71.02-1.01,1.3-1.21,2.06-1.34h.09s.09,0,.09,0c34.13,2.12,68.79,7.75,102.27,14.6,29.95,6.12,59.89,13.48,89.27,22.1-2.73-1.37-5.48-2.72-8.21-4.08-38.11-10.4-74.66-23.4-113.86-29.63-9.21-1.47-18.81-2.15-28.12-2.92-7.39-.6-14.8-1.16-22.17-1.96-4.67-.52-10.9-1.14-15.33-2.65l-3.47-1.18,3.62-.52c7.4-1.07,15.4-2.34,22.91-1.98,3.96.2,7.91.81,11.82,1.43,6.46,1.03,12.93,2.09,19.42,3.04.29-.03.85-.07,1.38-.14-8.74-2.85-54.86-7.97-62.06-8.42-40.94-2.49-81.84-5.57-122.8-7.82-44.9-2.47-90.18-4.08-135.13-2.31l-.86.03v-.03c-2.77.05-5.74.3-8.48.44-7.69.39-15.39.8-23.08,1.19-23.03,1.19-46.05,2.41-69.09,3.63-22.94,1.22-45.89,2.45-68.83,3.71-7.7.43-15.4.86-23.1,1.3-2.24.13-4.49.26-6.73.4-.61.03-1.32.06-1.97.12v.06l-.88.04c-.29,0-.6.03-.9.05-.66.04-2.59.49-2.71-.68-.12-1.1,1.35-1.08,1.99-1.17,1.53-.19,3.06-.39,4.59-.57,8.1-.99,16.2-1.95,24.32-2.91,50.29-6,101.75-8.48,152.38-9.46,50.27-.97,101.03-.4,151.23,2.68,6.1.37,29.99,2.26,34.36-.7l.25-.17.29.02c22.97,1.34,45.88,3.51,68.84,4.91.39-.13,1.13-.4,1.44-.63-2.65-2.72-33.6-5.89-37.57-6.29-12-1.21-24.26-2.31-36.31-2.92-16.99-.85-33.97-1.73-50.96-2.31-47.68-1.68-95.35,1.07-143.02.75-13.62-.08-27.22-.02-40.83.54-13.03.54-26.02,1.53-39.02,2.71-44.71,4.06-89.32,7.46-133.93,12.75-6.1.72-12.2,1.51-18.28,2.44l-1.29.19.32-1.27c10.88-44.41,7.98-138.85-10.8-176.69-.88-1.76-1.87-2.91-3.5-4.01-1.61-1.09-3.05-1.57-4.99-1.69-1.95-.13-3.41.14-5.17,1.01-1.72.84-2.89,1.82-3.95,3.45l-3.82,5.93Z"/>
  <path class="st1" d="M142.04,168.47c.19-1.35.38-2.71.6-4.06l.07-.45.28-.36c.06-.08.13-.15.18-.23l-4.34-3.24s-.05.02-.05.07c-.31,1.77-.53,3.56-.75,5.34l.37.08,3.65,2.86ZM253.96,113.2l-.25.4-.64.13.06.26c.16.65.36,1.37.44,2.05l1.01-1.53.29-.44s-.08-.05-.12-.07l-.67-.36-.11-.44ZM169.09,169.1l.37.05-.27,1.73c-.37,2.36-1.07,4.17-2.54,6.05-1.47,1.9-3.05,3.08-5.28,3.98-2.2.89-4.18,1.12-6.52.78-2.36-.34-4.16-1.18-6.04-2.62l-2.13-1.64.47-4.95,4.21,3.33c1.29,1.02,2.45,1.56,4.08,1.79,1.65.24,2.88.08,4.42-.54,1.53-.6,2.54-1.38,3.55-2.68,1.01-1.31,1.48-2.49,1.71-4.13,2.78-19.82,5.93-39.6,10.43-59.13l.38-1.66,3.33.73-.34,1.68c-1.67,8.21-3.18,16.46-4.65,24.72-1.33,7.47-2.62,14.95-3.79,22.45-.46,2.96-1.3,6.99-1.41,10.06ZM281.17,295.41c.15.2.26.46.31.75.47,2.56-4.68,3.27-6.39,3.66-2.13.5-3.88.3-5.91-.45-2.01-.75-3.44-1.83-4.74-3.53-1.31-1.73-1.96-3.37-2.15-5.52-.21-2.13.15-3.88,1.08-5.79.52-1.07,1.03-2.16,1.48-3.26,5.75-14.16,8.77-38.15,8.91-53.73l-.26-.08.5-3.06,4.8.28.04,1.59c.47,18.63-2.69,43.7-10.78,60.56-.5,1.04-.68,1.87-.59,3.02.11,1.15.42,1.95,1.12,2.85.7.93,1.35,1.42,2.43,1.84,1.12.44,1.96.41,3.13.23.91-.13,1.81-.19,2.73-.23.99-.05,2.61-.19,3.66.35l1.74-4.15,3.14,1.22-.57,1.59c-.17.47-.37.94-.59,1.4l-.73,1.53-2.33-1.06ZM371.67,276.63h.05l.18,3.3-93.26,10.01-.55-3.22,1.59-.37c1.27-.29,1.53-1.32,3.16-1.85l1.7-.54.06.2.05-.14,1.04-.15c11.51-1.61,23.06-2.97,34.62-4.12,9.49-.95,19.02-1.79,28.56-2.37-.21-.23-.36-.55-.41-.99-.19-1.75,1.5-1.93,2.73-2.1,1.53-.21,3.07-.39,4.6-.58,8.1-.99,16.2-1.95,24.31-2.91,50.56-6.03,101.58-8.49,152.47-9.47,50.43-.97,100.94-.39,151.29,2.68,5.81.34,29.78,2.21,33.84-.55l.49-.34.58.04c22.59,1.32,45.13,3.44,67.71,4.84-7.16-2.21-30.79-4.73-35.13-5.17-12.07-1.21-24.16-2.3-36.27-2.9-16.98-.86-33.96-1.74-50.95-2.32-47.66-1.67-95.33,1.07-142.99.75-13.6-.08-27.2-.03-40.79.54-13.01.54-26,1.53-38.98,2.7-44.66,4.06-89.38,7.47-133.91,12.75-6.1.72-12.18,1.5-18.25,2.44l-2.56.39.62-2.52c8.97-36.59,8.88-112.63-3.88-157.67l-2.59.85-7.07-18.07c-.42-1.08-1.17-1.71-2.1-2.34-1.01-.67-1.88-.96-3.09-1.04-1.24-.08-2.08.08-3.19.63-1.1.54-1.75,1.08-2.41,2.11l-5.54,8.7-.8,1.27c.39.17.78.38,1.15.61l6.39-9.65c.47-.73,1.07-1.26,1.84-1.64.79-.39,1.54-.54,2.43-.48.89.07,1.61.29,2.35.79.73.49,1.25,1.1,1.64,1.89,1.23,2.57,2.24,5.23,3.17,7.93l.03-.04,1.07,3.39.04.14c3.37,11.2,5.3,23.49,6.74,35.08,1.78,14.48,2.79,29.13,3.26,43.7.46,14.34.4,28.78-.42,43.11-.65,11.59-1.75,23.8-4.24,35.15-.62,2.8-1.35,5.58-2.17,8.34l-.28.94h.01l-.48,1.5c-1.16,3.6-2.55,7.11-4.34,10.45l-.72,1.35-2.86-1.11.12-.43c-.19-.34-.26-.74-.2-1.12l.03-.21.07-.19c1.38-3.32,2.54-6.73,3.54-10.18l.26-.87.23-.81c5.76-21,7.31-45.26,7.48-66.98.17-20.38-.95-41.14-3.4-61.38-1.38-11.5-3.29-23.16-6.64-34.27l-.12-.39-.25-.8c-1.08-3.52-2.32-7.02-3.94-10.33-.04-.08-.05-.08-.11-.13-.07-.05-.08-.05-.18-.06-.08,0-.1,0-.16.02-.07.03-.1.07-.14.13-.03.05-.06.1-.1.15l-8.29,11.95.45,2.08-2.27.52c-.07.09-.14.19-.21.3l.04.05-.73,1.02c-.47.65-.99,1.08-1.73,1.38-.73.3-1.44.35-2.21.18-.75-.16-1.4-.49-1.95-1.05-.55-.55-.87-1.19-1.03-1.95l-.3-1.49-1.94-1.38,1.26-1.85-.17-.8-.23-1.06c-.77-3.52-1.57-7.04-2.4-10.54l-.39-1.67,3.32-.84.43,1.67c.81,3.14,1.63,6.27,2.44,9.42l.21-.04c.25-.05.5-.08.74-.11l-.35-1.36-.49-1.85c-3.58-13.49-7.57-26.86-11.84-40.14-6.36-19.81-13.3-39.37-23.3-57.69-.34-.61-.65-.99-1.24-1.35-.56-.37-1.05-.52-1.71-.56-.66-.04-1.16.04-1.76.34-.61.29-.98.58-1.36,1.14-2,2.86-3.73,5.89-5.5,8.91l-.38.65c-27.48,46.56-38.03,100.02-44.58,153.02-.08.65-.28,1.18-.67,1.72-.4.54-.85.88-1.47,1.16-.62.27-1.21.36-1.88.28-.67-.08-1.21-.31-1.75-.73l-7.53-5.76c-.16,1.42-.3,2.83-.43,4.25l-.08.88-.39.24.35.27-.38,5.04-4.27-3.3-.34.12.04-.35-3.95-3.06c-.04.44-.08.91-.12,1.35l-.09,1.05c-1.22,15.03-.36,29.85,1.64,44.77.39,2.88.84,5.78,1.34,8.64.36,2.09.78,4.74,1.41,6.89,1.79-.18,2.14,2.09,2.45,3.39.43,1.84.82,3.67,1.22,5.52,1.2,5.52,2.42,11.04,3.79,16.52.81,3.22,1.91,7.54,3.24,11.59-1.33-6.23-2.73-12.44-4.11-18.65-1.32-5.94-2.64-11.88-3.89-17.84-.8-3.82-1.72-7.64-2.16-11.51-1.7-14.57-2.3-29.26-1.17-43.89l.24-3.25,4.67,3.7-.03.89c-.92,19.34.3,42.16,4.92,61.72-.42-6.4-1.21-12.75-2.09-19.12-1.89-13.41-3.18-26.21-2.39-39.78l.18-3.02,2.5,1.68c1.79,1.17,3.49,1.84,5.61,2.15,2.69.4,4.76.15,7.3-.86,2.52-1.02,4.18-2.29,5.87-4.43,1.65-2.13,2.46-4.13,2.83-6.79.11-.75.21-1.5.32-2.26,6.6-47.23,17.1-93.38,39.81-135.73l1.72-3.2,1.4,3.35c11.53,27.62,19.54,56.8,26,85.98.66,2.95,1.69,5.01,3.84,7.16,2.11,2.11,4.16,3.2,7.07,3.79,2.91.59,5.23.38,7.98-.75,1.55-.64,2.9-1.48,4.13-2.63l2.23-2.09.64,3c4.58,21.54,5.95,44.45,6.3,66.45.21,13.88-.03,27.76-1.25,41.57-1.15,13.14-3.17,26.19-5.57,39.16-.6,3.26-1.22,6.22-2.67,9.25-1.02,2.16-1.41,3.97-1.19,6.35.23,2.37.91,4.09,2.36,6,1.43,1.88,2.91,2.99,5.13,3.83,2.27.86,4.21.7,6.57.49.11,0,.16,0,.26,0l.38-.05c15.63-2.18,31.32-3.88,47-5.49,20.1-2.07,40.24-3.89,60.39-5.45,21.68-1.69,43.38-3.13,65.11-3.93,9.13-.34,18.26-.56,27.39-.54,7.07.02,14.15.16,21.2.76l1.59.14v3.18s-1.6.13-1.6.13c-.46.03-.92.08-1.39.12l210.63-.65c26.82-.08,53.62,1.52,80.26,4.42,24.38,2.67,48.64,6.41,72.86,10.26,30.6,4.87,61.21,9.78,92.05,12.93-5.87-2.41-14.56-4.43-19.16-5.52-12.78-3-25.79-5.39-38.72-7.63-13.11-2.26-26.27-4.33-39.45-6.24-7.92-1.14-16-2.35-23.97-3.19-2.61-.27-5.22-.5-7.8-.84-1.81-.21-3.62-.46-5.41-.8-1.41-.28-3.83-.67-3.79-2.57.02-1.55,1.53-1.96,2.77-2.15l.19-.03.2.02c34.35,2.31,68.66,7.71,102.38,14.61,22.18,4.54,44.24,9.72,66.12,15.6-32.85-9.49-65.36-20.13-99.23-25.52-9.28-1.48-18.68-2.15-28.04-2.92-7.41-.6-14.82-1.17-22.2-1.97-4.97-.54-10.78-1.07-15.52-2.68l-6.82-2.32,7.13-1.03c5.49-.8,11.12-1.67,16.71-1.95-3.76-.44-7.53-.87-11.3-1.28-3.9-.41-7.94-.89-11.87-1.13-40.93-2.49-81.83-5.58-122.79-7.82-44.95-2.47-90.03-4.1-135.04-2.33l-1.74.07v-.03c-2.54.08-5.06.3-7.6.42-7.7.39-15.39.8-23.09,1.18-23.02,1.21-46.05,2.42-69.08,3.64-22.94,1.22-45.89,2.44-68.82,3.71-4.66.25-9.32.51-13.97.77Z"/>
  <path class="st1" d="M141.39,166.85c.13-.86.26-1.72.39-2.57l.11-.68.06-.08-2.51-1.92c-.18,1.12-.32,2.24-.46,3.35l2.42,1.9ZM143.26,232.54c-.74-3.44-1.52-6.91-1.93-10.43-1.7-14.61-2.3-29.36-1.17-44.06l.23-3.02-.04.02.12-.88.03-.44-2.29-1.77-.03.34-.03.47c-1.22,14.97-.36,29.73,1.63,44.59.39,2.87.84,5.75,1.33,8.6.32,1.84.69,4.2,1.22,6.19.37.06.68.19.95.39ZM347.6,276.58s0-.08,0-.11c-.25-2.34,1.74-2.82,3.48-3.04,1.53-.21,3.07-.4,4.6-.59,8.1-.99,16.22-1.95,24.32-2.92,50.58-6.02,101.64-8.48,152.55-9.47,50.44-.97,100.99-.4,151.36,2.67,5.47.34,29.56,2.15,33.3-.39l.74-.5.87.05c17.53,1.02,35,2.53,52.51,3.81-8.32-1.15-17.21-2.11-20.07-2.38-12.06-1.22-24.12-2.31-36.23-2.91-16.97-.86-33.94-1.74-50.93-2.33-47.65-1.65-95.32,1.07-142.96.76-13.58-.1-27.17-.03-40.75.54-13,.54-25.97,1.53-38.93,2.71-44.65,4.06-89.36,7.46-133.89,12.74-6.08.72-12.16,1.5-18.22,2.42l-3.84.6.93-3.78c8.87-36.18,8.84-111.39-3.64-156.36l-2.5.82-2.59-6.64c3.28,11.11,5.19,23.25,6.61,34.72,1.78,14.5,2.8,29.18,3.27,43.78.46,14.36.4,28.83-.42,43.18-.65,11.65-1.76,23.9-4.27,35.29-.63,2.83-1.36,5.63-2.18,8.39l-.06.21h.02s-.39,1.22-.39,1.22l-.02.08h0l-.31.95c-.63,1.95-1.33,3.88-2.12,5.77l1.65-.39c.97-.23,1.46-1.3,3.09-1.84l2.55-.82.06.21.39-.05c11.52-1.62,23.07-2.98,34.65-4.13,9.1-.9,18.24-1.74,27.38-2.3ZM280.22,299.26c14.23-1.9,28.51-3.44,42.78-4.91,20.12-2.07,40.25-3.89,60.41-5.46,21.69-1.69,43.41-3.13,65.15-3.93,9.14-.33,18.28-.57,27.43-.54,7.09.02,14.2.18,21.27.78l2.38.2v3.35s206.76-.65,206.76-.65c26.86-.08,53.68,1.52,80.37,4.43,24.39,2.67,48.67,6.41,72.89,10.26,28.02,4.46,56.03,8.96,84.21,12.11-4.37-1.28-8.85-2.32-11.67-2.98-12.75-3-25.75-5.4-38.66-7.62-13.11-2.27-26.26-4.34-39.43-6.24-7.92-1.14-15.98-2.36-23.94-3.18-2.61-.28-5.22-.51-7.82-.85-1.83-.23-3.66-.46-5.47-.8-1.9-.37-4.54-.97-4.5-3.45.04-2.03,1.82-2.73,3.51-3l.29-.05.29.02c34.4,2.34,68.73,7.73,102.49,14.64,8.53,1.74,17.04,3.57,25.52,5.51-19.4-5.53-38.92-10.54-58.95-13.73-9.25-1.47-18.63-2.14-27.97-2.89-7.41-.6-14.83-1.17-22.23-1.99-5.04-.55-10.9-1.09-15.7-2.73l-10.24-3.49,10.7-1.55c2.78-.4,5.59-.82,8.41-1.17-.99-.12-1.99-.22-2.98-.33-3.89-.43-7.9-.9-11.82-1.13-40.93-2.5-81.83-5.58-122.79-7.82-44.91-2.47-89.97-4.1-134.96-2.31l-2.6.1v-.04c-2.25.08-4.48.28-6.72.39-7.7.39-15.39.78-23.08,1.18-23.03,1.19-46.06,2.41-69.09,3.62-22.94,1.22-45.88,2.45-68.82,3.71-4.36.24-8.7.48-13.05.72l.18,3.25-89.31,9.58,2.99,1.18-.86,2.38c-.18.5-.39,1-.62,1.48l-1.1,2.29-1.56-.7c-.18,1.07-1.04,1.82-2.15,2.35ZM170.11,168.38c6.62-47.24,17.16-93.4,39.88-135.75l2.58-4.81,2.1,5.03c11.56,27.68,19.58,56.89,26.05,86.13.62,2.8,1.57,4.71,3.61,6.75,1.98,1.98,3.87,2.99,6.63,3.53,2.74.56,4.88.36,7.47-.7,1.46-.6,2.72-1.38,3.87-2.46l3.36-3.14.96,4.5c4.59,21.61,5.97,44.56,6.31,66.63.22,13.9-.03,27.81-1.25,41.66-1.16,13.17-3.17,26.25-5.58,39.24-.02.1-.04.2-.05.31,4.33-13.97,6.65-33.57,6.83-47.11l-.38-.11.77-4.6,6.37.37.07,2.39c.47,18.78-2.72,43.96-10.88,60.96-.43.9-.59,1.58-.51,2.57.09.99.35,1.63.94,2.41.6.79,1.12,1.18,2.05,1.53.96.37,1.66.34,2.68.19.93-.14,1.88-.2,2.82-.25.96-.04,2.16-.1,3.21.13l1.38-3.28-3.49.38-.63-3.74c-.54,1.2-1.11,2.39-1.74,3.56l-1.09,2.03-4.29-1.68.22-.87c-.15-.43-.21-.89-.13-1.34l.05-.31.12-.29c1.36-3.3,2.51-6.67,3.5-10.09l.26-.86.22-.81c5.74-20.92,7.29-45.11,7.46-66.76.16-20.35-.95-41.06-3.4-61.26-1.38-11.45-3.27-23.06-6.61-34.12l-.12-.39-.25-.82c-.98-3.17-2.09-6.34-3.5-9.37l-7.66,11.04.56,2.54-2.69.63-.81,1.12c-.56.78-1.21,1.32-2.1,1.68-.9.36-1.78.44-2.73.23-.92-.2-1.71-.61-2.38-1.28-.67-.69-1.07-1.48-1.26-2.41l-.24-1.14-2.35-1.67,1.53-2.27-.09-.42-.23-1.06c-.76-3.51-1.57-7.02-2.4-10.52l-.59-2.5,4.11-1.02c-2.94-10.51-6.1-20.95-9.43-31.34-6.34-19.76-13.27-39.25-23.24-57.54-.27-.47-.48-.73-.94-1.04-.44-.28-.79-.39-1.3-.42-.52-.03-.87.03-1.33.25-.48.23-.73.44-1.02.86-1.99,2.84-3.71,5.86-5.47,8.85l-.38.65c-27.41,46.44-37.93,99.81-44.46,152.69-.09.8-.35,1.48-.83,2.12-.49.69-1.06,1.12-1.82,1.44-.76.34-1.51.45-2.34.34-.83-.11-1.5-.39-2.16-.9l-6.31-4.82c-.09.88-.18,1.79-.26,2.69l-.08.92,4.62,3.66c1.16.92,2.2,1.39,3.67,1.62,1.5.22,2.57.08,3.97-.49,1.38-.55,2.28-1.22,3.19-2.41.91-1.18,1.32-2.23,1.53-3.71,2.79-19.85,5.94-39.65,10.44-59.2l.58-2.51,5.01,1.11-.51,2.51c-1.68,8.22-3.18,16.46-4.66,24.7-1.33,7.47-2.62,14.93-3.78,22.43-.41,2.68-1.16,6.28-1.36,9.18l.12.02Z"/>
  <path class="st1" d="M140.73,165.21c.05-.35.11-.72.16-1.08l.04-.25-.85-.65c-.06.44-.12.89-.18,1.33l.83.65ZM269.39,290.58l.1-.36c-.14-.49-.18-1.01-.1-1.52l.07-.41.15-.39c.27-.65.53-1.3.79-1.96-.25.55-.51,1.11-.76,1.65-.36.74-.5,1.26-.42,2.1.03.34.08.63.17.89ZM273.03,293.12l-2.69-1.05c.35.39.72.6,1.3.82.52.19.93.24,1.39.23ZM279.48,292.81l.53-1.26-2.83.3-.3-1.79c-.18.37-.36.72-.55,1.06l-.94,1.74c.46-.04.92-.07,1.38-.08.85-.04,1.79-.08,2.7.03ZM593.86,259.21c30.06.25,60.11,1.2,90.1,3.04,5.13.31,29.34,2.06,32.75-.24l.31-.21c-.67-.03-1.36-.08-2.04-.11-16.96-.85-33.94-1.73-50.92-2.32-23.4-.81-46.8-.57-70.2-.15ZM442.54,263.27c22.74-1.54,45.52-2.53,68.3-3.19-10.14,0-20.29.16-30.43.57-12.64.53-25.26,1.48-37.87,2.62ZM878.89,293.13c8.6,1.38,17.18,2.9,25.73,4.51-6.36-1.35-12.74-2.57-19.18-3.6-2.17-.34-4.36-.65-6.55-.91ZM138.73,197.25c-.11-6.42.05-12.85.54-19.26l.12-1.63-.11.05.28-2.27-.61-.47c-.62,7.89-.64,15.75-.22,23.58ZM346.7,275.74c.17-2.21,2.23-2.93,4.26-3.19,1.53-.21,3.07-.39,4.61-.58,8.1-.99,16.21-1.95,24.33-2.92,3.27-.39,6.54-.76,9.82-1.13-27.39,2.41-54.75,4.95-82.05,8.18-6.08.72-12.14,1.49-18.18,2.42l-5.15.8,1.24-5.07c8.78-35.79,8.8-110.12-3.38-155.02l-1.61.53c2.1,8.92,3.5,18.22,4.6,27.13,1.8,14.52,2.81,29.23,3.27,43.86.47,14.39.4,28.88-.41,43.26-.66,11.69-1.77,23.99-4.29,35.43-.58,2.66-1.27,5.29-2.03,7.91l.06.02-.65,1.98-.17.6h-.02s-.14.46-.14.46c-.47,1.43-.96,2.84-1.51,4.23.07-.02.15-.02.21-.05,1.09-.92,1.31-1.27,2.79-1.76l1.01-.32.03-.08.38-.06,2.01-.64.11.34c11.4-1.59,22.84-2.93,34.3-4.08,8.83-.88,17.69-1.68,26.56-2.26ZM284.84,297.76c12.67-1.63,25.36-2.99,38.07-4.29,20.12-2.07,40.26-3.9,60.43-5.47,21.71-1.69,43.43-3.13,65.19-3.92,9.15-.35,18.31-.57,27.47-.54,7.11.02,14.25.16,21.35.77l3.19.28v3.26s205.87-.64,205.87-.64c26.88-.08,53.74,1.53,80.47,4.44,24.41,2.67,48.69,6.42,72.94,10.26,23.46,3.75,46.93,7.5,70.5,10.47-12.19-2.81-24.59-5.09-36.91-7.22-13.1-2.26-26.25-4.33-39.4-6.23-7.91-1.14-15.96-2.35-23.91-3.17-2.62-.28-5.22-.53-7.83-.84-1.85-.23-3.69-.48-5.53-.84-2.36-.45-5.27-1.29-5.22-4.32.05-2.52,2.11-3.51,4.24-3.87l.39-.07.39.03c.52.03,1.05.07,1.56.1l-12.45-4.23,14.34-2.1c.44-.06.89-.13,1.34-.19-2.56-.28-5.12-.52-7.65-.68-40.93-2.49-81.83-5.58-122.78-7.82-44.9-2.47-89.93-4.11-134.87-2.32l-3.51.14v-.04c-1.94.09-3.87.25-5.81.35-7.69.38-15.38.78-23.08,1.17-23.03,1.21-46.06,2.42-69.09,3.64-22.94,1.22-45.88,2.45-68.82,3.7-4.05.23-8.11.45-12.17.68l.18,3.2-86.57,9.3.44.17-1.15,3.19c-.19.54-.41,1.06-.66,1.56l-.97,2.06ZM180.47,108.66c6.6-26.4,15.66-52.05,28.74-76.45l3.46-6.45,2.82,6.76c11.58,27.72,19.61,56.98,26.1,86.27.59,2.63,1.45,4.4,3.37,6.31,1.87,1.86,3.6,2.78,6.18,3.3,2.57.53,4.54.34,6.96-.65,1.36-.55,2.53-1.28,3.61-2.28l4.49-4.21,1.29,6.03c4.6,21.66,5.98,44.68,6.33,66.79.15,9.52.08,19.03-.36,28.53l7.06.41.07,2.64c.24-5.41.36-10.74.4-15.93.16-20.31-.95-41-3.39-61.14-1.38-11.41-3.25-22.98-6.57-33.99l-.12-.39-.24-.8c-.82-2.65-1.73-5.28-2.83-7.84l-6.55,9.44.66,3.02-3.21.75-.62.86c-.66.91-1.45,1.57-2.49,1.98-1.05.43-2.12.51-3.23.28-1.1-.23-2.04-.74-2.83-1.53-.78-.8-1.27-1.74-1.5-2.83l-.16-.81-2.78-1.95,1.81-2.67-.24-1.12c-.76-3.51-1.57-7.02-2.39-10.52l-.79-3.35,4.08-1.02c-2.86-10.2-5.94-20.33-9.18-30.41-6.34-19.71-13.24-39.18-23.18-57.39-.2-.36-.31-.51-.65-.73-.31-.2-.52-.26-.88-.28-.36-.02-.57,0-.9.16-.33.17-.47.26-.67.56-1.97,2.83-3.68,5.84-5.43,8.8l-.38.65c-27.34,46.33-37.83,99.61-44.34,152.34-.12.95-.43,1.79-1.01,2.55-.59.8-1.27,1.34-2.18,1.74-.9.39-1.81.53-2.8.39-.98-.12-1.8-.46-2.58-1.07l-5.05-3.85c-.03.36-.06.73-.1,1.1l-.03.45,4.24,3.35c1.04.83,1.92,1.24,3.25,1.43,1.35.2,2.26.08,3.52-.43,1.23-.5,2-1.08,2.82-2.14.81-1.05,1.17-1.96,1.35-3.28,2.8-19.88,5.95-39.72,10.46-59.28l.77-3.36,5.84,1.27Z"/>
  <path class="st1" d="M664.74,260.29c6.44.3,12.86.66,19.29,1.06,3.62.22,16.02,1.1,24.45.91-14.57-.74-29.15-1.46-43.74-1.97M838.24,297.62c7.24,1.12,14.49,2.25,21.73,3.4,13.77,2.21,27.53,4.39,41.32,6.43-2.68-.48-5.36-.94-8.03-1.4-13.09-2.26-26.23-4.33-39.38-6.22-5.18-.75-10.41-1.53-15.64-2.21ZM345.93,274.89c.26-.96.86-1.68,1.64-2.18-13.27,1.3-26.54,2.72-39.8,4.28-6.06.72-12.12,1.5-18.15,2.43l-6.49.99,1.56-6.38c8.52-34.73,8.75-106.15-2.48-151.16,1.7,7.92,2.9,16.07,3.87,23.91,1.79,14.56,2.81,29.29,3.27,43.94.46,14.42.4,28.93-.41,43.34-.66,11.74-1.78,24.07-4.31,35.57-.53,2.42-1.15,4.82-1.83,7.2l.08.03-.9,2.74-.33,1.11h-.03c-.17.53-.34,1.07-.53,1.59.27-.12.57-.23.93-.34l.57-.18.06-.18.85-.12,2.83-.91.13.5c11.17-1.56,22.36-2.87,33.57-3.98,8.61-.85,17.24-1.63,25.88-2.2ZM286.37,296.65c12.13-1.53,24.29-2.83,36.45-4.08,20.13-2.07,40.28-3.89,60.45-5.47,21.72-1.69,43.46-3.12,65.23-3.92,9.16-.34,18.33-.57,27.5-.55,7.14.02,14.31.17,21.42.77l4.02.34v3.19s204.97-.63,204.97-.63c26.91-.08,53.81,1.52,80.56,4.44,8.84.96,17.66,2.06,26.46,3.27-1.62-.77-2.84-2.05-2.8-4.27.04-2.28,1.43-3.59,3.23-4.29l-12.02-4.09,11.76-1.72c-40.91-2.49-81.79-5.57-122.72-7.81-44.86-2.46-89.87-4.09-134.79-2.32l-4.42.18v-.03c-1.63.1-3.26.22-4.89.3-7.7.39-15.39.79-23.07,1.18-23.03,1.21-46.07,2.41-69.09,3.64-22.94,1.21-45.88,2.44-68.82,3.7-3.75.21-7.51.42-11.26.62l.17,3.16-86.34,9.27-1.03,2.88c-.21.57-.44,1.11-.7,1.65l-.26.56ZM179.81,107.59c6.59-26.17,15.62-51.6,28.61-75.8l4.36-8.13,3.55,8.5c11.61,27.77,19.64,57.09,26.14,86.43.55,2.47,1.33,4.08,3.13,5.87,1.74,1.74,3.32,2.57,5.72,3.06,2.4.48,4.18.31,6.45-.61,1.25-.52,2.33-1.18,3.32-2.11l5.67-5.3,1.61,7.6c4.62,21.72,6,44.78,6.35,66.97.14,9.24.08,18.46-.33,27.69l5.43.31c.15-4.18.23-8.32.26-12.35.16-20.28-.95-40.9-3.39-61.02-1.37-11.35-3.24-22.88-6.54-33.83l-.12-.39-.25-.8c-.65-2.1-1.35-4.18-2.16-6.23l-5.37,7.75.76,3.51-3.75.87-.42.57c-.75,1.06-1.69,1.81-2.89,2.3-1.22.49-2.47.59-3.75.33-1.27-.28-2.37-.86-3.29-1.79-.91-.92-1.48-2.01-1.74-3.29l-.1-.46-3.2-2.26,2.09-3.09-.15-.74c-.77-3.51-1.57-7.01-2.4-10.5l-.99-4.22,4.04-1.01c-2.79-9.89-5.77-19.71-8.91-29.49-6.32-19.66-13.2-39.07-23.11-57.23-.13-.22-.15-.27-.34-.39-.18-.12-.23-.13-.44-.13-.21-.02-.27,0-.46.08-.19.09-.2.09-.33.26-1.95,2.8-3.64,5.79-5.38,8.73l-.39.65c-22.78,38.61-33.83,82.08-40.64,126.02,1.87-11.18,3.98-22.33,6.53-33.37l.97-4.23,5.86,1.27Z"/>
  <path class="st1" d="M345.26,274.01c.02-.05.05-.1.07-.15-1.76.17-3.53.35-5.3.53,1.74-.13,3.49-.27,5.23-.38M287.89,295.54c11.59-1.45,23.21-2.69,34.83-3.88,20.14-2.07,40.3-3.89,60.48-5.46,21.73-1.7,43.48-3.14,65.26-3.94,9.18-.34,18.36-.56,27.54-.54,7.17.02,14.35.16,21.5.77l4.86.42v3.12s204.04-.64,204.04-.64c26.95-.08,53.88,1.52,80.67,4.44,7.82.86,15.61,1.82,23.4,2.86-.5-.79-.79-1.76-.77-2.96.04-1.8.8-3.12,1.94-4.05l-13.72-4.67,6.74-.97c-37.95-2.39-75.87-5.19-113.84-7.27-44.84-2.47-89.82-4.09-134.7-2.31l-5.35.22h0c-1.32.08-2.63.16-3.95.23-7.69.38-15.39.78-23.07,1.18-23.03,1.19-46.06,2.41-69.09,3.63-22.94,1.22-45.88,2.44-68.81,3.71-3.45.18-6.9.38-10.35.57l.18,3.11-86.63,9.31-.85,2.34c-.09.26-.19.53-.3.78ZM242.66,115.24c.23,1.05.47,2.1.7,3.15.51,2.3,1.21,3.75,2.88,5.42,1.61,1.62,3.02,2.36,5.26,2.81,2.22.44,3.82.3,5.91-.55,1.15-.49,2.14-1.09,3.05-1.94l6.86-6.42,1.95,9.19c4.62,21.79,6.02,44.9,6.37,67.15.14,8.95.08,17.9-.29,26.84l3.58.2c.13-3.85.19-7.65.23-11.39.16-20.23-.95-40.83-3.38-60.92-1.37-11.29-3.22-22.76-6.51-33.66l-.12-.39-.25-.8c-.47-1.52-.96-3.04-1.52-4.55l-4.16,6,.86,4.01-4.29.99-.21.29c-.85,1.19-1.92,2.07-3.3,2.62-1.4.54-2.82.66-4.29.35-1.45-.29-2.71-.98-3.75-2.03-1.04-1.06-1.7-2.31-1.98-3.75l-.03-.1-3.58-2.54ZM179.13,106.51c6.59-25.94,15.59-51.15,28.47-75.17l5.27-9.81,4.29,10.29c11.19,26.79,19.09,55.02,25.46,83.32l2.34-3.45-.07-.35c-.77-3.5-1.57-6.99-2.39-10.47l-1.19-5.11,4-1c-2.72-9.56-5.61-19.08-8.65-28.54-6.29-19.6-13.16-38.96-23.04-57.08-.01-.02-.02-.03-.03-.06h0c-1.93,2.78-3.6,5.72-5.31,8.63l-.39.65c-16.02,27.14-26.22,56.71-33.22,87.16l4.48.99Z"/>
  <path class="st1" d="M289.3,294.42c11.1-1.37,22.21-2.56,33.33-3.69,20.14-2.08,40.31-3.91,60.5-5.48,21.74-1.69,43.51-3.13,65.31-3.94,9.19-.34,18.38-.56,27.57-.54,7.19.02,14.4.16,21.57.78l5.73.49v3.04s203.1-.63,203.1-.63c26.98-.09,53.95,1.52,80.78,4.45,7.27.8,14.54,1.69,21.79,2.64-.14-.55-.21-1.17-.19-1.84.03-1.46.45-2.66,1.17-3.61l-16.01-5.46,1.69-.23c-34.95-2.26-69.89-4.79-104.86-6.71-44.8-2.45-89.76-4.08-134.62-2.31l-5.63.22c-1.22.08-2.44.16-3.66.23-7.69.39-15.38.78-23.07,1.18-23.03,1.2-46.06,2.41-69.09,3.64-22.94,1.22-45.88,2.44-68.82,3.71-3.13.17-6.27.34-9.42.51l.18,3.07-86.94,9.34-.41,1.13ZM264.9,118.69l2.98-2.79,2.3,10.8c4.64,21.86,6.05,45.03,6.39,67.32.13,8.67.09,17.33-.25,25.99l1.7.09c.11-3.52.17-6.99.2-10.41.16-20.18-.94-40.75-3.37-60.8-1.35-11.24-3.21-22.65-6.48-33.5l-.12-.38-.24-.81c-.29-.93-.58-1.86-.9-2.78l-2.89,4.15.68,3.11ZM244.11,117.4c.06.26.11.53.17.79.47,2.12,1.09,3.41,2.63,4.97,1.48,1.47,2.73,2.12,4.78,2.53,2.04.42,3.45.29,5.37-.51,1.05-.42,1.93-.97,2.77-1.74l2.97-2.78-2.44.57h0c-.96,1.34-2.18,2.32-3.71,2.94-1.56.63-3.2.75-4.83.41-1.63-.35-3.06-1.11-4.22-2.3-1.09-1.11-1.82-2.44-2.18-3.96l-1.31-.92ZM178.46,105.39c6.59-25.69,15.55-50.69,28.33-74.49l6.2-11.56,5.05,12.1c10.93,26.18,18.73,53.73,25.03,81.37l.91-1.32c-.76-3.48-1.56-6.96-2.38-10.43l-1.4-5.99,3.95-1c-2.63-9.24-5.44-18.43-8.38-27.59-6.13-19.05-12.78-37.89-22.28-55.61-1.56,2.37-2.98,4.86-4.42,7.3l-.39.65c-15.8,26.79-25.93,55.95-32.9,85.98l2.68.59Z"/>
  <path class="st1" d="M377.65,284.73c1.8-.14,3.61-.29,5.4-.43,21.76-1.69,43.53-3.13,65.34-3.93,9.21-.34,18.41-.58,27.61-.55,7.22.02,14.46.17,21.66.78l6.6.57v2.96s202.14-.63,202.14-.63c27.02-.08,54.03,1.53,80.88,4.45,6.86.75,13.71,1.58,20.56,2.49-.02-.24-.03-.49-.02-.75.02-1.17.27-2.18.69-3.07l-16.05-5.48c-33.92-2.2-67.81-4.64-101.75-6.5-44.77-2.45-89.69-4.08-134.52-2.31l-5.63.23c-1.22.08-2.42.16-3.65.23-7.69.39-15.38.79-23.07,1.18-23.03,1.19-46.06,2.41-69.08,3.63-22.94,1.22-45.88,2.45-68.81,3.7-2.82.16-5.64.31-8.45.48l.16,2.94ZM265.48,116.85l1.82-1.7-.2-.65c-.1-.32-.19-.63-.29-.94l-1.56,2.23.23,1.07ZM177.76,104.27c6.59-25.47,15.52-50.21,28.18-73.82l7.15-13.32,5.83,13.94c8.54,20.44,15.15,41.68,20.65,63.17l3.39-.84c-2.55-8.92-5.26-17.78-8.1-26.61-5.94-18.5-12.39-36.8-21.45-54.02-1.22,1.93-2.36,3.92-3.52,5.89l-.39.65c-15.58,26.41-25.63,55.17-32.57,84.77l.82.18Z"/>
  <path class="st1" d="M192.96,55.48c3.61-8.63,7.63-17.13,12.12-25.49l7.52-14.01c-.63,1.06-1.25,2.13-1.87,3.19l-.38.65c-6.78,11.48-12.5,23.42-17.38,35.67M378.57,283.68c1.47-.12,2.94-.23,4.41-.35,21.77-1.69,43.56-3.13,65.38-3.93,9.22-.34,18.43-.57,27.65-.54,7.25.02,14.51.17,21.73.78l7.5.65v2.88s201.15-.62,201.15-.62c27.06-.08,54.1,1.52,80.99,4.45,6.5.72,13,1.5,19.48,2.34.03-.75.17-1.46.38-2.1l-14.98-5.11c-33.85-2.19-67.71-4.63-101.6-6.48-44.74-2.45-89.63-4.08-134.43-2.31l-5.63.23c-1.22.07-2.42.15-3.63.22-7.69.38-15.38.79-23.07,1.18-23.03,1.19-46.06,2.41-69.08,3.63-22.93,1.22-45.87,2.44-68.81,3.71-2.49.13-4.99.27-7.48.41l.05.98ZM240.27,93.06l1.46-.36c-2.47-8.57-5.08-17.11-7.81-25.61-5.75-17.89-11.98-35.62-20.59-52.35-.04.06-.08.13-.11.18l6.59,15.79c8.42,20.16,14.99,41.14,20.46,62.34Z"/>
  <path class="st1" d="M485.21,277.98c4.21.1,8.42.31,12.62.66l8.41.73v2.78s200.16-.63,200.16-.63c27.09-.08,54.17,1.53,81.09,4.47,6.17.69,12.34,1.43,18.49,2.21.02-.11.04-.23.07-.34l-13.97-4.76c-33.83-2.2-67.63-4.62-101.46-6.47-44.71-2.46-89.58-4.08-134.34-2.31l-5.64.22c-1.21.08-2.41.16-3.61.22-7.69.39-15.38.79-23.07,1.19-12.91.67-25.83,1.34-38.74,2.03"/>
  <path class="st1" d="M502.87,278.06l4.38.37v2.7s199.13-.61,199.13-.61c27.13-.08,54.25,1.53,81.21,4.48,3.46.38,6.92.77,10.37,1.2l-6.1-2.09c-33.78-2.19-67.54-4.61-101.32-6.47-44.68-2.45-89.51-4.08-134.25-2.31l-5.64.23c-1.2.08-2.4.15-3.6.22-7.69.39-15.38.79-23.07,1.19-7.04.36-14.08.73-21.12,1.1"/>
  <path class="st1" d="M508.29,278.82v1.27s196.37-.6,196.37-.6c-4.72-.29-9.44-.55-14.17-.82-44.64-2.44-89.45-4.08-134.15-2.3l-5.65.23c-1.19.08-2.38.15-3.57.22-7.69.38-15.39.78-23.07,1.18-5.25.28-10.51.55-15.76.83"/>
  <path class="st1" d="M525.55,278.98l141.48-.44c-36.85-1.71-73.78-2.57-110.64-1.12l-5.65.22c-1.19.08-2.38.18-3.56.23-7.21.35-14.42.72-21.62,1.11"/>
  <path class="st1" d="M160.07,247.11v-.36l.04.14.08.12.11.08.15.03h-.38ZM159.83,290.65c-.78-.04-.55-.04-.35-.03l.35.03ZM159.91,290.65h-.08.08ZM160.32,291.19l.02-.11.15-.22s.23-.13.23-.13l.16-.02h.1s-.26.05-.26.04c0,0-.23.14-.23.14,0,0-.13.2-.13.2,0,0-.08.26-.05.26v-.16ZM156.84,247.09c1.22.29,2.1.35,2.89.38.09,14.4.46,28.79.55,43.19l-.36-.02.36.02v.69s.05-.16.05-.16v-.52l.57.03.1-.02-.68-.03c-.01-14.41-.27-28.79-.26-43.18h.38l-.28-.07-.1-.07v-.23h-.24l-.05-.07-.06-.29v.36s-2.89-.02-2.89-.02ZM151.77,245.23c2.23.99,3.83,1.55,5.07,1.86l-3.62-.03c-.64-.79-1.1-1.37-1.45-1.84ZM150.77,243.61c-.44.63-.44.8-.44.96.5.23.99.45,1.44.65-.78-1.03-.96-1.41-1-1.62ZM150.95,243.36l-.18.25c0-.08,0-.13,0-.17l.18-.08ZM158.32,241.35c-1.5-.71-3.83-.82-5.11-.82-1.16,1.38-1.85,2.26-2.27,2.83,2.45-1.11,5.15-1.69,7.37-2.01ZM159.73,243.2c-.02.1-.02.17-.02.24l.02-.24ZM160.23,241.13l-.05.29.36-.3.51-.04-.39.53.58-.54c.61-.03,1.08-.04,1.38-.04-1.99,1.72-2.34,1.64-2.39,1.21-.34.51-.46.79-.49.97.01-.86-.57-1.45-1.41-1.85.7-.09,1.34-.16,1.91-.22ZM192.64,235.85l-.29-.85c-4.92,1.67-9.11,2.52-14.21,2.18v-.02.02s-.86-.06-.86-.06c0,0-.05,0-.05,0,.01,0-.04.03-.03.03,0,0-.02.03-.03.03.02,0,0,.06,0,.04,0,.03.01.4.05.85h-.07s.07,0,.07,0c.07.77.16,1.78.13,1.78v.02s.03,0,.03,0h.04s9-.05,8.52-.05c7.11-.66-.21-.86-2.01-.92h-5.68s-.06-.78-.06-.78c5.18.33,9.44-.55,14.44-2.28ZM162.74,239.09h-2.08l-.42,2.04.3-.02,1.4-1.18c-.35.44-.64.81-.89,1.14h.19c1.59-1.48,1.69-1.47,1.78-1.47-.1-.12-.18-.27-.26-.46,0-.02,0-.04-.02-.05ZM61.93,299.69l7.05-.55-7.05.55ZM29.25,301.67h0,0ZM27.98,301.87l1.27-.21c-9.71.47-29.04,2.47-29.04,2.47l27.76-2.26ZM250.87,239.17l.07.89h0l.05-.3.18-.3c.08-.08.18-.16.3-.2l.33-.08h-.94ZM221.89,223.05h-.33s-.01.04-.01.04c-.02.12-.05.15-.09.22l.28.24h.31s.2.02.47.04l-.63-.54ZM226.64,243.12c-16.39-.12-32.83-.08-49.23-.08-.43,0-.77-.07-1.17-.23-.4-.17-.67-.34-.98-.63-.33-.32-.48-.55-.69-.94-.18-.42-.27-.72-.31-1.18l-.17-2.62c-.03-.5.03-.92.19-1.38.2-.48.42-.81.79-1.16.37-.35.7-.56,1.17-.74.49-.15.87-.18,1.38-.13,4.98.44,9.01-.33,13.71-1.95,0-.08,1.9-.68,1.87-.74.8-.49-.46.07-1.92.59-4.67,1.54-8.67,2.24-13.61,1.74-.58-.05-.96-.03-1.53.14-.53.19-.91.43-1.32.8-.42.43-.65.75-.87,1.29-.2.56-.26.96-.24,1.54.01,0,.14,2.62.15,2.62.04.5.13.87.34,1.33.24.46.41.7.78,1.07.36.33.67.54,1.12.72.47.19.82.27,1.33.28l41.57.3c3.58-.03,4.88-.61,7.66-.66ZM224.77,226.05l.25-.34-1-.8-.44-.38s-.54-.51-1.05-.94c.76.02,2.16.04,2.16.04l1.13-.03c.03-.18.04-.35.05-.53l-1.18.05c-.02-.08-2.6-.07-2.6-.07h-.19s-.18-.16-.18-.16l-.18-.2s.02.09.03.13c.01.09.02.14,0,.22h-.38l.18.2.1.07-.05.07c-.09.08-.1.07-.17.13-.04.03,0,.02.07.02.04,0,.23,0,.42.02.54.47,1.52,1.37,1.54,1.33.5.4,1,.79,1.49,1.16ZM227.8,227.71l-.64.04c3.03,2.03,6.12,3.58,9.78,4.98,4.88,1.74,9.22,2.69,14.4,2.15,0-.09,1.12.08,1.12.08.41.13.65.25.98.53.31.26.52.51.72.87.18.36.26.68.29,1.09l.18,2.44c.02.43,0,.73-.15,1.15-.15.4-.31.66-.6.99-.3.32-.55.5-.94.69-.41.18-.7.23-1.14.24-9.53.66-4.07.52,0,.55.52,0,.89-.07,1.37-.26.46-.21.79-.44,1.14-.8.34-.37.57-.74.75-1.19,0,0,.19-.61.16-.62.04-.25.06-.53.04-.78-.08-.02-.15-2.44-.15-2.44-.04-.54-.14-.89-.36-1.36-.23-.45-.49-.78-.87-1.09-.4-.34-.74-.52-1.24-.67-.49-.13-.88-.16-1.38-.11-5.11.54-9.32-.27-14.16-1.89-3.53-1.28-6.44-2.7-9.31-4.59ZM266.43,242.07h.02c-.3-1.59-4.57-22.62-4.53-22.39-.06-.26-.51-2.36-.51-2.36l-.2-.58c-.53-.99-1.01-1.78-1.79-2.62-.65-.67-1.26-1.13-2.18-1.34-.45-.08-.82-.07-1.26.02-.52.13-.91.31-1.37.6-1.29.83-2.21,1.96-3.11,3.2-2.2,3.08-18.67,6-22.79,6.32l.71.49c7.54-.6,14.04-2.31,21.42-5.61.47-.23.77-.47,1.07-.88.86-1.21,1.72-2.26,2.95-3.1.42-.24.75-.4,1.22-.53.39-.08.66-.08,1.05-.02.84.18,1.35.58,1.95,1.18.73.78,1.21,1.57,1.72,2.5.08.18.11.27.16.45-.03.02,5.11,23.13,5.45,24.67ZM258.5,218.05l.05.08s-.06-.13-.07-.18l.02.1ZM264.85,243.5c-.14-.28-.24-.58-.33-.93.04-.03-5.3-22.73-5.72-24.58-.39-.69-.82-1.4-1.39-1.95-.11-.11-.53-.5-.72-.46l-.1.05s-.46.24-.45.25l-.41.41c.14-.13.29-.23.45-.34l.43-.21s.05,0,.05,0c.15,0,.49.35.6.46.51.54.89,1.18,1.24,1.84,1.73,8.23,3.45,16.46,5.17,24.7.15.65.36,1.18.66,1.66.15-.33.32-.62.52-.9ZM265.45,245.69c.05-.19,16.44-.91,16.53-1.11l.11-1.36c-.35-.31-16.9.92-17.11.54-.16.25-.32.51-.47.83l-.03.06c.25.37.57.7.96,1.03ZM239.01,239.96c-.52-.13-1.04-.29-1.57-.46-3.39.26-1.71.39,1.57.46ZM249.36,237.72h0c-.29.32-.48.6-.64.95.67,0,1.38-.03,2.11-.08l.04.58h-2.29s0,0,0,0c.18.36.36.62.61.87h1.75v.05-.04s.88,0,.88,0h.02s.01,0,.01,0h0c0-.08-.01-.45-.04-.89h0,0l-.04-.65-.94.07-.05-.92.09.34c.07.12.13.23.22.3,0,0,.33.17.33.17l.35.04-.06-.91s0-.03,0-.02c0,.03-.02,0-.02,0t0,0s-.04,0-.02,0c-.81.08-1.57.12-2.3.14ZM238.74,237.13c1.2,0,2.36,0,3.52-.02-2-.39-4.03-.94-6.34-1.59h-.02c-1.08-.24-.75.12-.24.65l.03.02c1.08.34,2.09.65,3.05.94ZM182.5,211.54l-.92-.4c.69.34,1.22.78,1.68,1.4-.26-.34-.51-.67-.76-1ZM201.97,235.58h-2.23c-.75.39-1.5.75-2.27,1.09h2.47c.69-.34,1.37-.7,2.03-1.09ZM201.43,234.67l2.11-.02c1.88-1.18,3.73-2.52,5.62-4.09-.03-.07,2.27-2,2.27-2,.74-.73,1.19-1.34,1.66-2.28.27-.59.44-1.08.56-1.73.17-1.01.15-1.77-.07-2.78-.29-1.17-.75-2.02-1.53-2.93-.61-.65-1.13-1.06-1.93-1.48-1.16-.55-2.06-.79-3.32-.8,0,.03-1.22.03-1.22.03,0,.03-2.19.08-2.19.08-8.03-.21-13.76-2-20.9-5.13-1.23-1.53-2.46-2.75-4.23-3.88-1.15-.69-2.09-1.09-3.4-1.38-1.4-.28-2.46-.28-3.87,0-2.36.56-3.87,1.52-5.53,3.27-1.18,1.33-1.91,2.5-2.71,4.08-.39.78-.59,1.37-.77,2.22l-1.12,6.73c.13.13,1.49-6.23,1.59-6.66.17-.77.37-1.35.73-2.05.79-1.49,1.56-2.67,2.71-3.92,1.56-1.61,3.01-2.52,5.22-3.03,1.31-.24,2.29-.23,3.59.03,1.22.29,2.11.67,3.17,1.32,1.76,1.15,2.96,2.41,4.17,3.98,7.25,3.3,13.14,5.18,21.32,5.45.01-.08,2.26-.07,2.26-.07,0-.02,1.14-.03,1.14-.03,1.12.03,1.83.18,2.88.69.65.34,1.12.7,1.62,1.24.64.75,1.02,1.43,1.28,2.37.21.89.25,1.56.1,2.47-.11.55-.24.96-.48,1.48-.42.84-.8,1.34-1.46,1.98-.71.69-1.38,2.3-2.13,2.92-2.38,1.97-4.75,2.57-7.16,3.94ZM180.98,236.62l-.28-.29c-.4-.37-.77-.62-1.24-.85h-1.99c.59,0,1.02.08,1.58.3.51.23.9.45,1.31.83h.62ZM181.69,238.96h0s.03-.1.03-.1l-.08-1.29-.04-.08c-.02.26-.06.51-.13.77.09.23.16.45.21.7ZM178.83,241.73c.69-.25,1.18-.55,1.71-1.05l.03-.02h-.6c-.4.31-.82.54-1.34.72-.61.18-1.13.27-1.76.21.67.07,1.32.11,1.96.14ZM176.9,241.99l-.19-.02h.05s.14.02.14.02ZM203.04,235.59c-.65.39-1.3.75-1.97,1.09,9.95.03,19.91.08,29.79.28-1.1-.51-2.16-1.03-3.19-1.6-4.08.2-14.38.24-24.64.23ZM160.78,286.2l.53.02c-.19-.02-.36-.02-.53-.02ZM200.66,225.69l.13-.08h-.16s.04.08.04.08ZM192.13,229.4c-.52.22-1.03.43-1.53.62-4.32,1.5-8.15,2.28-12.74,1.9-.83-.08-1.49,0-2.28.24-.79.29-1.35.63-1.96,1.22-.57.59-.96,1.15-1.25,1.91-.21.6-.44,1.64-.29,2.27,0,0,0,0,0,0,.13-.99,0-1.08.41-2.21.31-.75.68-1.27,1.27-1.84.61-.54,1.12-.85,1.89-1.12.79-.23,1.35-.27,2.17-.18,0,.15,4.81.3,4.81.15,2.98-.22,5.35-.76,8.2-1.7.92-.33,1.81-.65,2.66-1.03l-1.35-.23ZM197.24,226.83l5.35-4.14-2.24,1.76.09.49c.06.22.12.44.19.65-.53-.03-1.06-.09-1.57-.14l-1.36,1.08-.46.29ZM197.24,226.83l1.48.14c.65-.4,1.3-.84,1.95-1.28.18.5.41.97.7,1.42.65.03,1.3.03,1.97.03.18-.84,5.43,1.05,2.09-.55-.14-.02-1.01-.79-1.01-.79l-.09-.1-.98.02c-.88-.03-1.74-.06-2.56-.11.85-.61,1.71-1.27,2.58-1.98l.11-.11c-.02-.26,0-.52.04-.83.07-.34.15-.59.29-.88l-6.57,5.02ZM172.67,216.8,164.49,244.52c-1.79,1.82-1.82,1.86-1.48,1.86.53-.61,1.02-1.23,1.48-1.86ZM157.4,243.84c.13,0,.14-.17.14-.39l-.14.39ZM166.08,243.61c-.08-.15-.16-.3-.26-.44h0c.03.08.03.18.03.28l-.47.23c.09.16.18.34.28.51l.43-.58ZM158.38,241.1l-.23-.49c-2.49,2.34-2.58,2.19-2.58,1.4l1.8-1.77-4.16-.03c1.55,1.48,2.55,2.41,3.19,2.95-.08-1.23.88-1.81,1.98-2.07ZM166.18,246.05l.58-.56v-.03s-.61.36-.61.36l.03.23ZM169.94,243.81l-.2.17c.27.87.39,1.69.42,2.73l.65,33.64c0,.85-.13,10.96-.13,10.96-.02,1.43-.25,2.59-.8,3.91-.6,1.33-1.24,2.23-2.29,3.25-1.08.99-2.02,1.55-3.38,2.07-1.38.45-2.44.61-3.89.52l-3.3-.2c-36.02-1.9-28.48-2.3-26.02-2.52,8.27-.59,16.85-.73,25.13-.44,1.09-1.43,3.68-1.07,4.45-.98.83.05,1.46-.02,2.24-.29.79-.28,1.34-.62,1.96-1.18.61-.56.99-1.09,1.34-1.84.34-.8.45-1.41.48-2.27,0,0,.1-2.57.1-2.57.46-13.9.15-28.11.17-42.03l-.02-.46-.64.51c-.14,14.84-.21,29.71-.47,44.55-.02.72-.12,1.26-.4,1.92-.3.65-.63,1.11-1.14,1.59-.52.47-1,.76-1.66,1.01-.68.22-1.2.28-1.91.23-12.71-1.21-29.88.29-42.65,1.58-6.29.58-47.67,3.48-34.49,1.09,15.42-1.11,17.63-.4,30.47-4.03l-37.84,3.15c-22.77,1.72-45.62,1.43-68.27,4.46-8.4-.2-8.09-.23-7.72-.31,37.55-5.55,77.69-6.78,115.52-10.41,3.06-1.02-7.24-.18-7.77-.14-8.28.6-76.73,6.11-78.86,4.2,27.65-5.72,94.44-9.63,126.7-9.57-.15-11.46-.31-22.92-.32-34.38h-2.2c-7.1-7.68-7.09-7.99-7.09-8.29,9.6-5.99,12.92-6.93,15.24-7.07,1.52-1.45,1.41-2.17,1.47-2.17-4.77-1.63-2.72-13.03-1.63-18.57.17-.87.44-1.62.84-2.4.83-1.64,1.62-2.9,2.85-4.27,1.79-1.89,3.42-2.9,5.96-3.52,0,0,.54-.11.54-.1,1.32-.18,2.34-.14,3.65.1,1.43.33,2.42.75,3.67,1.49,1.81,1.16,3.06,2.36,4.3,3.9,6.93,3.02,12.62,4.84,20.39,5.12.02-.06,2.16-.04,2.16-.04,0,0,1.25-.03,1.25-.03,1.41.03,2.33.24,3.64.86.84.45,1.44.91,2.1,1.63.8.93,1.34,1.88,1.65,3.08.28,1.17.32,2,.12,3.19-.13.7-.31,1.26-.61,1.91-.52,1.03-.99,1.65-1.79,2.45-.75.7-1.55,1.35-2.34,2.01-1.68,1.36-3.3,2.54-4.96,3.6,7.99-.08,15.85-.04,22.43.37-2.63-1.51-5.12-3.24-7.72-5.36.03-.05-2.24-1.94-2.24-1.94-.68-.66-1.09-1.22-1.53-2.07-.24-.53-.41-.99-.52-1.56-.15-.93-.14-1.64.08-2.58.26-.98.65-1.79,1.33-2.55.56-.6,1-.97,1.73-1.37,1.13-.53,1.86-.7,3.07-.73.02.03,1.17.03,1.17.03,0,.03,2.24.06,2.24.06,8.39-.21,15-1.53,22.64-4.78,1.22-1.56,2.42-2.78,4.18-3.93,1.1-.66,2.02-1.06,3.27-1.35,1.37-.27,2.33-.27,3.69-.03,2.3.55,3.75,1.44,5.38,3.13,1.18,1.3,1.91,2.45,2.73,3.99.36.73.57,1.29.74,2.09-.03.02,3.11,14.83,4.52,21.58l6.31-.24c2-.03,3.54.44,5.2,1.6,1.6,1.24,2.49,2.57,3.07,4.52-.07.04.35,1.3.35,1.3-6.95,3.92-10.93,5.42-13.64,5.89l.49,36.1c19.83-3.54,39.22-6.37,59.36-8.2,10.01-.89,61.11-4.29,66.7-.6-37.36.11-66.8,1.69-103.87,7.97l86.53-7.1c5.56.1,28.55-.15,33.03,2.43-31.27-.66-28.94-.6-26.76-.53,1.9.96-4.73.8-8.66.91-38.24,1.32-72.1,5.87-109.64,13.16-.52.09-.91.08-1.43-.03-.51-.13-.86-.32-1.27-.65-.39-.34-.67-.65-.9-1.12-.23-.49-.31-.87-.33-1.41,0,0-1.05-44.88-1.02-44.88l.02-.4-.19-.13c-.34-.29-.65-.56-.89-.87-.12.45-.18.9-.17,1.42.27,14.97.61,29.92,1.09,44.88.03.72.15,1.25.45,1.9.34.64.65,1.05,1.22,1.52.56.44,1.04.68,1.72.87.7.15,1.2.16,1.91.03,4.72-.99,9.44-1.95,14.17-2.88,25.7-4.95,61.46-10.22,87.38-9.86-36.71,4.74-62.27,5.3-101.47,13.11-.78.13-1.3.13-2.08-.05-.78-.21-1.23-.44-1.86-.93-.6-.5-.96-.95-1.32-1.65-.33-.69-.46-1.28-.49-2.05,0,0-.65-22.35-.6-22.35-.1-7.52-.24-15.03-.39-22.53,0-.61.06-1.13.23-1.67-.47-.63-.77-1.32-.99-2.2.03-.03-4.89-21.42-5.57-24.39-.25-.44-.55-.92-.89-1.31-.54.49-1.63,1.97-1.63,1.97-.73,1-1.44,1.58-2.54,2.14-5.91,2.72-11.24,4.45-16.95,5.47,1.03.46,2.08.9,3.2,1.3,4.04,1.4,7.76,2.26,12.06,1.78,1.12-.13,2.05-.05,3.13.26,1.09.34,1.89.77,2.78,1.49.87.74,1.45,1.46,1.98,2.48.51,1.03.73,1.9.83,3.05l.18,2.45c.06,1.17-.06,2.07-.44,3.18-.41,1.11-.88,1.86-1.66,2.74-.84.86-1.52,1.37-2.62,1.86-1.08.46-1.97.65-3.14.67l-55.8.25c-1.49,0-18.6.07-18.6.07-1.16-.02-2.05-.19-3.14-.62-1.04-.44-1.76-.9-2.62-1.67-.74-.73-1.23-1.35-1.69-2.24ZM191.63,225.93c.82-.37,1.6-.76,2.36-1.17-5.45-1.02-10.39-2.84-16.18-5.41-.8-.4-1.28-.79-1.82-1.51-.68-.91-1.46-1.89-2.44-2.5-.2-.11-.35-.18-.57-.24h-.21c-.28.1-.58.39-.78.61-.52.6-.91,1.27-1.27,1.96-.56,2.93-4.16,15.71-2.86,16.96.7-1.5.64,2.14,1.11.54.41-1.68,19.75-8.13,22.64-9.24Z"/>
  <path class="st1" d="M175.86,241.49l.06-.5.16.02.02-.39.67.05-.81-1.63.46-.03c0-.12-.03-.24-.04-.37l-1.19.65c0,.24,0,.48-.04.68.05.34.09.55.24.86.13.28.25.44.48.65M176.58,235.01s-.03,0-.05.02c-.35.11-.57.26-.85.52-.26.25-.42.49-.55.83-.13.34-.16.64-.14,1v.09c.03.18.06.44.1.76l1.25-1.47.04-.55h.18l.02-1.2ZM318.33,288.34c3.01-.34,6.03-.68,9.04-1.01,7.99-.87,15.97-1.7,23.94-2.58-8.04.56-16.08,1.43-23.94,2.39-3.01.39-6.02.77-9.04,1.2ZM151.16,241.43c-1.44.84-2.78,1.66-3.86,2.34.26.38.68.89,1.17,1.46l1.65-2.29,1.04-1.51ZM151.39,241.3s-.08.04-.12.07l.02.06s.07-.08.1-.13ZM160.7,242.42l-.15,1.96-1.74-.08v-.86c0-.23-.04-.05.04-.42l.17-.84,1.69.23ZM238.99,240.86c-.8-.02-4.27.28-4.31-1.09-.03-1.2,1.95-1.12,2.7-1.17l.18-.02.17.05c.51.17,1.02.31,1.54.45l.77.21-.23,1.58-.8-.02ZM238.48,237.99c-1.03-.3-2.05-.6-3.07-.92l-.21-.08-.17-.18c-1.29-1.29-.8-2.52,1.06-2.18,2.12.48,4.22,1.19,6.34,1.6l.8.16-.14,1.61-.81.02c-1.19.03-2.37.03-3.56,0h-.12l-.13-.03ZM199.45,224.59l-.1-.52,6.78-5.19-1.5,3.3c-.11.23-.18.42-.22.67-.03.2-.05.41-.04.61l.02.41-.39.39c-.18.18-.38.37-.58.54l1.32-.02.27.33.09.11c.09.1.25.26.7.54l.02.02c.65.31,1.94.79,1.56,1.78-.43,1.14-2.26.31-3.27.26l-.05.23h-.72c-.67,0-1.34,0-2.01-.03l-.47-.02-.25-.39c-.12-.19-.24-.38-.34-.56-.36.23-.72.47-1.08.69l-.26.15-4.36-.38,2.57-1.7,1.63-1.28.36.03c.1.02.21.02.31.03ZM251.72,240.98v.08s-1.67-.09-1.67-.09h-1.26s-.26-.29-.26-.29c-.31-.33-.56-.67-.76-1.08h-.44s.22-.49.22-.49l-.4-.82h.76c.2-.44.45-.78.76-1.14l.27-.31h.39c.74-.03,1.48-.08,2.22-.15.08,0,.16,0,.25,0l.34.04.45.58v.27l.1,1.54c.02.31.06.72.03,1.01l-.02.28-.56.69-.45-.11ZM224.56,227.03l-.33-.26c-.5-.38-1-.77-1.5-1.17-.12-.08-.24-.18-.34-.27-.22-.19-.44-.38-.67-.59-.1-.09-.22-.2-.33-.29h-.07c-.58,0-1.02-.5-.99-1l-1.14-1.2,1.56-.08.86-.69.57.6s.04.05.07.08c.55-.02,1.61-.1,2.39.08l1.19-.07.97-.03-.03.97c0,.2-.03.41-.06.61l-.1.76-1.61.05,1.28,1.01-1.06,1.43,2.83-.2.26.18c2.88,1.9,5.84,3.35,9.1,4.49,4.67,1.62,8.81,2.36,13.76,1.84.62-.07,1.13-.03,1.73.13.61.18,1.07.44,1.55.85.48.39.83.82,1.11,1.38.29.58.42,1.07.45,1.74,0,0-.06.75.03,1.66h.06s.05.74.05.74c.03.32,0,.67-.05.99-.02.12-.04.22-.07.32l.02.03-.16.43c-.21.58-.51,1.06-.93,1.51-.43.45-.87.77-1.45,1.02-.58.23-1.09.34-1.72.34-.35,0-.71,0-1.07,0-.98,0-1.96-.02-2.93-.05-.7-.03-2.17.1-2.2-.99-.03-1.07,1.32-1.03,2.02-1.09,1.38-.1,2.76-.18,4.14-.24.31,0,.52-.02.81-.15.28-.13.44-.25.64-.48.21-.23.31-.39.42-.69.1-.29.11-.48.1-.78-.03-.4-.26-1.56-.13-2.41-.08-.29-.12-.51-.25-.76-.13-.25-.26-.41-.48-.59-.21-.18-.31-.29-.58-.34-.21-.02-.47-.07-.7-.08h-.15c-5.31.59-9.84-.34-14.81-2.18-3.57-1.32-6.83-2.97-9.98-5.08l-2.2-1.46h.1ZM161.23,291.57v.44l-.19.06-.07.28-1.59-.18v-.64s-.42-.02-.42-.02l.09-1.79.3.02c-.1-13.8-.43-27.59-.53-41.38-.74-.07-1.46-.18-2.21-.38l-.78-.18.2-1.6,2.78.02v-.25l1.63-.17.09.44h.44v.47l.46.09-.16,1.62h-.29c0,12.31.19,24.6.24,36.91.04,0,.08,0,.13,0l.89.05-.08,1.77-.94-.02c0,.9,0,1.79,0,2.67l.63.03.08,1.65-.7.1ZM255.36,217.21l-.86-.94.88-.9c.15-.19.36-.37.62-.48l.04-.1.49-.09c.58-.11,1.12.32,1.51.7.64.62,1.12,1.38,1.54,2.15l.07.11.02.13c.93,4.08,1.9,8.16,2.86,12.23.66,2.82,1.32,5.65,1.98,8.48.13.53.8,2.59.82,3.85.1.21.17.42.26.62,3.3.24,16.14-1.29,17.11-.41l.33.31-.16,1.94-.06.14c-.36.82-2.67.72-3.37.77-1.89.11-3.78.22-5.66.33-1.78.09-3.56.18-5.32.29-.62.04-1.48.05-2.19.13l-.02.3c-.03,2.36.1,4.85.16,7.23.11,5.05.23,10.1.34,15.14.13,5.14.24,10.29.36,15.43.04,1.7.08,3.39.12,5.09,0,.39.15,1.24.03,1.9.03.41.08.69.26,1.06.16.34.36.58.65.81.31.25.54.37.92.48.39.08.66.08,1.04,0,36.61-7.03,72.47-12.04,109.78-13.17.99-.02,4.43,0,6.65-.13.07-1.03,1.41-.81,2.01-.8,1.39.02,2.78.05,4.16.08,3.82.09,7.62.17,11.43.24-8.17-.65-18.32-.67-21.76-.39l-87.39,7.16-.21-1.7.86-.14c17.37-2.96,34.78-5.1,52.37-6.35,12.38-.87,24.78-1.32,37.19-1.52-17.57-.21-45.74,1.71-52.17,2.29-19.89,1.79-39.63,4.67-59.28,8.18l-1.05.18-.52-37.94.76-.13c4-.7,9.04-3.37,12.7-5.43-.06-.21-.11-.44-.13-.67-.52-1.72-1.27-2.92-2.73-3.99-1.45-1.07-2.83-1.49-4.62-1.42l-7.07.27-.16-.75c-.65-3.04-1.28-6.1-1.92-9.14-.6-2.85-1.21-5.69-1.8-8.54-.2-.94-.39-1.87-.59-2.81-.05-.29-.17-.69-.2-1.06-.16-.7-.35-1.25-.68-1.89-.74-1.43-1.48-2.6-2.6-3.77-1.45-1.57-2.78-2.43-4.89-2.87-1.22-.25-2.11-.22-3.33.03-1.13.24-2,.61-2.97,1.23-1.63,1.03-2.78,2.21-3.95,3.71l-.15.18-.22.09c-7.72,3.29-14.58,4.8-23,4.85-.42,0-1.46.11-2.23-.08-.32,0-.75.05-1.16-.02-1.08.02-1.71.14-2.68.65-.63.32-1,.65-1.47,1.16-.57.65-.91,1.32-1.12,2.16-.2.8-.2,1.42-.06,2.22.09.47.23.87.43,1.31.36.75.69,1.22,1.31,1.79.38.3.75.62,1.13.94.27.23.53.44.79.69.09.08.18.16.27.24.03.04.07.08.1.12,2.38,1.93,4.86,3.68,7.53,5.2l.41.23h0l.22.12c1.02.57,2.07,1.09,3.13,1.58l3.9,1.8-4.3-.08c-9.92-.19-19.84-.24-29.77-.28h-3.51s-4.31-.02-4.31-.02l3.84-1.72c.75-.34,1.5-.7,2.23-1.07l.2-.1h.05l1.4-.8c2.39-1.36,4.86-2.05,7.04-3.83.71-.61,1.28-2.11,2.07-2.88.57-.55.93-1.01,1.28-1.73.2-.42.32-.79.4-1.24.15-.77.11-1.33-.08-2.09-.2-.8-.53-1.37-1.08-1.99-.41-.46-.8-.76-1.35-1.04-.89-.45-1.48-.59-2.47-.59-.08,0-.16,0-.25,0v.03h-.9s-.69-.06-1.49-.02l-.02.1-.77-.03c-8.17-.26-14.3-2.16-21.67-5.52l-.21-.1-.14-.18c-1.16-1.52-2.29-2.72-3.93-3.76-.94-.6-1.79-.96-2.88-1.21-1.15-.24-2.05-.27-3.21-.03-2.03.43-3.34,1.28-4.75,2.78-1.08,1.14-1.84,2.31-2.56,3.7-.31.62-.5,1.16-.65,1.84-.24,1.11-.49,2.23-.73,3.34-.18.78-.36,1.56-.55,2.35-.06.26-.13.53-.22.79-.13.46-.53.9-.98.91-.41,4.39-.22,9.01,2.24,9.86l3.77,1.27c-.91-3.21,2.47-14.54,2.96-17.13l.02-.12.06-.11c.4-.78.81-1.52,1.39-2.16.33-.36.72-.72,1.19-.86l.11-.03h.33s.11,0,.11,0l.11.02c.32.07.57.18.84.35,1.1.67,1.93,1.71,2.69,2.72.45.6.81.91,1.48,1.22,5.19,2.42,10.33,4.3,15.97,5.36l2.51.46-2.24,1.22c-.81.43-1.61.86-2.45,1.2-1.77.75-7.04,2.54-12,4.37,3.58.04,6.81-.69,10.31-1.96.5-.18,1.01-.39,1.5-.6l.24-.09,4.69.77-2.78,1.18c.13.07.25.18.32.33.32.65-.13,1.07-.6,1.34-.38.26-.93.42-1.38.57v.03s-.67.24-.67.24c-3.8,1.32-7.24,2.1-11.03,2.12.27.18.53.39.77.65l.58.6c3.45-.19,6.64-.96,10.12-2.16l.86-.29.87,2.56-.84.29c-1.71.6-3.41,1.11-5.13,1.51,1.01.12,2.09.39,2.1,1.22.01,1.38-3.04,1.24-3.91,1.28-.55.03-2.43.12-4.35.13l-.47.46c-.35.36-.72.63-1.11.85,15.53.16,31.05-.07,46.58.05h.89s0,1.79,0,1.79l-.89.02c-2.6.05-4.96.68-7.68.66l-41.58-.3c-.62,0-1.1-.11-1.68-.34-.54-.23-.97-.5-1.4-.91-.44-.42-.7-.79-.96-1.34-.27-.55-.38-1.05-.36-1.68-.17-.59-.18-1.36-.19-1.94l-.24.14c-.21.15-1.31.34-1.4-.65-.16-.8.06-1.92.33-2.68.08-.21.16-.41.25-.6-.97.46-1.65.84-1.93,1.13-.16.52-.47,1.01-1.1.96-.48-.04-.71-.29-.84-.6l-.64-.63c-.05-.04-.1-.1-.14-.16h-3.64c-.33.73-.89,1.36-1.48,1.91l-.24.23-.33.02c-1.78.11-4.04.95-6.32,2.05l2.93.02.46-1.32v1.14s.08.18.08.18h1.02l-.7.69.35.75.13.07.54-2.65h3.03l.19.1c.31.14.5.37.54.67,0,0,.01.02.02.03l1.36,1.51h-1.83c-.42.31-1.04.92-1.38,1.22l-.24.23-.7.03h0s-1.38.11-1.38.11l-1.07.15v1.2c0,.65-.27,1.26-1.01,1.3h-.03l.03.52-.56-.49-.78.04.19-.54-.49-.41c-.33-.29-.66-.6-.99-.89-.97.25-1.95.56-2.89.96.21.29.46.62.55.76l2.13,2.79-3.21-1.43c-.48-.22-.97-.44-1.45-.67l-.52-.23v-.11l-.8.37c1.66,1.89,4.06,4.42,5,5.42l2.7.02v.9c.01,11.46.18,22.92.33,34.38v.91s-.91,0-.91,0c-20.18-.06-40.73,1-60.86,2.31-12.34.82-24.69,1.81-36.98,3.13-6.98.75-14.14,1.57-21.16,2.72,10.52-.23,28.89-1.53,32.1-1.74,13.01-.87,25.99-1.9,38.99-2.86,1.39-.1,2.77-.21,4.16-.29.96-.04,4.91-.58,5.13.88.11.76-.58,1.11-1.17,1.3l-.1.03h-.1c-35.21,3.39-71.03,3.43-106.03,8.82,22.13-1.21,44.26-2.51,66.34-4.35l38.66-3.24.29,1.63-.79.22c-2.96.84-5.82,1.53-8.77,2.01,4.17-.2,8.38-.43,12.45-.83,13.68-1.32,29.12-2.64,42.81-1.59.57.04.99,0,1.54-.19.54-.19.91-.44,1.34-.82.42-.39.68-.75.91-1.27.24-.54.32-.99.34-1.58.31-14.85.34-29.7.47-44.53v-.36s-.14-1.07-.14-1.07h.02s-.07-.15-.07-.15c-.45.61-.92,1.19-1.42,1.78l-.27.31h-.42c-.36,0-.7-.11-.91-.44-.64-.96,1.16-2.37,1.74-2.96l.36-.38-.11-.2.73-.37v-.05s1.13-1.15,1.13-1.15l.61.93c.11.16.21.34.31.5l.28.52-.65.86.91-.55.11.59.17-.14.1,2.24c.61,14.02.29,28.07-.23,42.11.16.86-.03,2.04-.04,2.5v.06c-.04.96-.17,1.73-.57,2.62-.39.86-.86,1.5-1.55,2.15-.7.65-1.38,1.06-2.28,1.37-.89.31-1.67.4-2.61.33-1.03-.08-2.93-.3-3.66.64l-.28.37-.47-.02c-5.8-.2-11.64-.23-17.46,0,6.14.44,12.3.79,18.43,1.15,1.1.07,2.21.13,3.31.2,1.31.08,2.29-.03,3.53-.46,1.25-.44,2.1-.97,3.06-1.89.96-.9,1.55-1.73,2.08-2.93.52-1.2.71-2.26.73-3.56.05-3.61.2-7.35.12-10.93l-.65-33.64c-.02-.88-.13-1.66-.38-2.49l-.18-.59,1.54-1.22.5.96c.42.8.86,1.38,1.52,2,.73.7,1.4,1.12,2.34,1.5.96.39,1.77.54,2.81.54,0,0,14.1-.04,18.59-.07l55.8-.25c1.03,0,1.83-.16,2.78-.58.98-.43,1.6-.86,2.32-1.66.71-.76,1.12-1.44,1.47-2.42.35-.98.45-1.79.39-2.81-.06-.82-.12-1.64-.18-2.45-.08-1.01-.27-1.8-.73-2.72-.47-.91-.98-1.54-1.75-2.19-.78-.65-1.49-1.04-2.46-1.32-.95-.29-1.79-.34-2.77-.23-4.42.5-8.31-.34-12.46-1.82-1.11-.39-2.2-.85-3.27-1.32l-2.64-1.21,2.86-.52c5.9-1.05,11.31-2.81,16.72-5.39.98-.47,1.57-.98,2.21-1.85.32-.44.7-.95,1.09-1.41Z"/>
  <path class="st1" d="M194.61,235.95l2.1-.95c.74-.34,1.47-.68,2.18-1.06l.4-.2h.04l1.19-.67c2.31-1.32,4.83-2.02,6.9-3.76.57-.47,1.25-2.06,2.02-2.83.5-.48.78-.83,1.09-1.47.17-.34.25-.63.32-1.01.13-.64.09-1.07-.07-1.69-.16-.65-.42-1.09-.86-1.59-.33-.37-.62-.61-1.07-.84-.53-.27-.91-.39-1.38-.44h-.58l-1.41,3.1c-.07.15-.12.28-.14.44-.03.14-.04.27-.03.4l.04.65.38.45c.18.15.37.32.55.45.32.15.65.31.96.5.83.49,1.4,1.39,1.02,2.41-.65,1.72-2.16,1.22-3.42.97l-.03.13h-1.48c-.67,0-1.36-.02-2.03-.03l-.96-.03-.37-.57c-.11.06-.2.13-.3.19l-.52.31-7.31-.65,1.69-1.12c-.39.19-.79.38-1.2.55-3.64,1.51-7.67,2.76-11.4,4.13-.83.32-2.87,1.05-4.95,1.87l3.89.02.37.17c.68.33,1.24.68,1.77,1.23l.28.29c3.2-.23,6.19-.96,9.45-2.09l1.74-.59,1.13,3.28ZM163.27,241.68l.97.46.71-.7h-1.41c-.09.08-.18.17-.27.24ZM161.59,242.89l-.18,2.27c.43-.68,1.12-1.29,1.63-1.79l-.26-.44.95-.49-1.53.22-.23.21-.39.02ZM155.06,246.54l.09-.74-.39.02.44-1.25c-.21-.2-.43-.38-.63-.57-.39.11-.78.23-1.16.35l1.65,2.19ZM157.56,299.05c.96.07,1.92.13,2.87.18,1.18.07,2.05-.03,3.17-.42,1.12-.4,1.87-.86,2.73-1.69.87-.8,1.38-1.54,1.86-2.63.47-1.08.64-2.02.65-3.2.05-3.59.2-7.32.13-10.9l-.09-4.49c-.1,4.31-.24,8.62-.39,12.92.1.88-.02,1.86-.05,2.47v.1c-.03,1.07-.2,1.96-.64,2.95-.44.97-.98,1.73-1.77,2.45-.8.73-1.59,1.22-2.6,1.57-1.02.36-1.92.47-3,.38-.6-.06-2.44-.25-2.84.27l-.02.03ZM151.44,247.1c.86.94,1.72,1.87,2.58,2.79l3.22.03v1.82c.02,11.45.18,22.91.33,34.36l.02,1.86h-1.87c-20.15-.05-40.69,1-60.8,2.31-10.84.72-21.7,1.58-32.51,2.67,2.12-.15,4.24-.29,6.36-.43,13.01-.87,25.99-1.9,38.99-2.86,1.39-.1,2.78-.21,4.18-.29,1.61-.08,5.75-.71,6.1,1.67.19,1.26-.78,1.99-1.8,2.32l-.2.07-.21.02c-.07.02-.14.03-.21.03l.45,2.53c.58-.05,1.16-.1,1.74-.15,13.74-1.34,29.22-2.66,42.97-1.6.45.03.74,0,1.17-.15.42-.14.68-.32,1.01-.62.33-.3.52-.57.7-.97.19-.43.24-.75.25-1.22.31-14.55.34-29.11.47-43.68l-.52.61h-.84c-.28,0-.54-.04-.78-.13l-.13,1.22h-.2c0,11.71.18,23.41.24,35.11l1.05.07-.14,3.6-.91-.02v.83l.6.03.15,3.36-.75.11v.29l-.32.11-.14.58-3.23-.37v-.59s-.47-.03-.47-.03l.17-3.65h.26c-.11-13.19-.42-26.38-.52-39.57-.33-.04-.66-.1-.99-.18l.61.8-6.08-2.68ZM161.78,224.13c-.33,3.87-.16,7.72,1.64,8.34l2.36.81c-.06-2.69.92-6.38,1.26-7.92.59-2.66,1.38-5.38,1.89-8.03l.05-.26.12-.23c.43-.85.89-1.64,1.52-2.35.44-.5.97-.95,1.62-1.14l.23-.07h.23c.21-.02,0,0,.21-.02h.23s.23.04.23.04c.91.21.41.03,1.11.46,1.22.75,2.11,1.84,2.96,2.97.34.47.59.69,1.13.94,5.11,2.39,10.19,4.23,15.73,5.27l3.99.75h0v-.03l5.42-4.15h-.42c-8.3-.27-14.54-2.2-22.04-5.62l-.42-.19-.28-.36c-1.09-1.43-2.16-2.57-3.69-3.55-.85-.54-1.6-.86-2.59-1.07-1.02-.22-1.79-.24-2.82-.03-1.84.39-2.98,1.14-4.26,2.5-1.02,1.08-1.74,2.2-2.41,3.5-.29.55-.44,1.01-.57,1.61-.24,1.12-.49,2.23-.74,3.34-.18.8-.36,1.59-.55,2.36-.07.29-.14.56-.22.84-.16.54-.52,1-.97,1.28ZM267.17,247.3c-.01,7.19.33,14.62.49,21.82.12,5.15.24,10.29.36,15.44.03,1.69.08,3.38.12,5.08,0,.53.09,1.23.03,1.89.02.29.04.44.16.7.11.22.22.34.4.49.21.16.31.23.56.29.25.06.39.05.64,0,11.26-2.16,22.46-4.13,33.65-5.86l-9.41.77-.33-2.65c-6.66,1.02-13.3,2.14-19.94,3.32l-2.13.39-.54-39.84,1.54-.27c1.97-.34,4.23-1.2,6.45-2.21-1.81.11-3.61.2-5.42.3-1.98.12-4.52.13-6.65.34ZM225.16,228.63l-.02.02-.27-.22-3.2-2.14.37-.03c-.09-.07-.18-.14-.27-.22-.23-.2-.46-.4-.67-.6-.04-.03-.07-.06-.11-.09-.79-.13-1.37-.75-1.54-1.46l-2.33-2.46,3.28-.18,1.29-1.03.96,1c.6-.02,1.33-.04,1.99.08l3.11-.12-.06,1.97c0,.23-.02.46-.06.7l-.19,1.44.1.08-.39.55,1.14-.08.52.34c2.81,1.87,5.7,3.26,8.9,4.39,4.54,1.58,8.54,2.31,13.36,1.79.74-.08,1.38-.05,2.1.16.73.23,1.3.54,1.89,1.01.57.49,1.01,1.01,1.34,1.69.34.7.51,1.32.54,2.14,0,.03-.03.33,0,.9h.04l.11,1.45c.07.91.09.34-.07,1.17l.08.13-.32.88c-.26.69-.62,1.27-1.13,1.81-.52.54-1.07.95-1.77,1.23-.7.3-1.33.42-2.09.41h-1.07c-.99,0-1.97-.02-2.96-.05-1.24-.03-3.04,0-3.1-1.9-.05-1.87,1.66-1.95,2.87-2.05.1,0,.21,0,.32-.02v-.02c-.25-.25-.46-.51-.64-.79h-1.33s.63-1.43.63-1.43l-.83-1.76h1.67c.1-.17.21-.34.33-.49-3.9-.09-7.51-.97-11.38-2.41-3.63-1.33-6.96-3.02-10.17-5.17l-.97-.65ZM179.21,246.5c3.95,0,13.27-.04,16.77-.06l55.8-.27c.9,0,1.58-.12,2.41-.49.86-.39,1.38-.76,2.01-1.44.62-.68.97-1.24,1.28-2.11.3-.85.39-1.53.34-2.43-.06-.82-.12-1.63-.18-2.43-.07-.9-.23-1.57-.64-2.36-.39-.8-.83-1.34-1.51-1.9-.67-.57-1.28-.89-2.13-1.15-.83-.24-1.54-.28-2.4-.18-4.57.51-8.59-.34-12.89-1.87-1.14-.41-2.24-.87-3.34-1.37l-5.35-2.44,5.79-1.03c5.82-1.04,11.15-2.78,16.48-5.33.85-.39,1.31-.8,1.86-1.56.19-.25.39-.54.62-.82l-.92-1,1.24-1.27c.2-.29.47-.53.8-.71l.12-.29.99-.19c.91-.16,1.71.35,2.34.95.7.69,1.22,1.52,1.71,2.36l.13.23.06.25c.93,4.08,1.9,8.15,2.86,12.23.66,2.83,1.32,5.65,1.98,8.49.18.76.73,2.39.81,3.76,2.13.06,5.35-.27,7.21-.37,1.93-.1,3.87-.21,5.81-.29,1.09-.04,3.21-.31,4.08.49l.67.6-.15,1.83c.25-.13.5-.27.74-.4,0,0,0-.03,0-.04-.46-1.47-1.1-2.47-2.36-3.41-1.28-.95-2.44-1.31-4.03-1.24l-7.86.3-.31-1.52c-.65-3.04-1.29-6.1-1.93-9.15-.6-2.84-1.2-5.69-1.79-8.53-.16-.79-.72-2.47-.73-3.87-.21-.6-.37-1.09-.66-1.65-.7-1.36-1.39-2.46-2.44-3.57-1.34-1.42-2.49-2.19-4.41-2.58-1.09-.23-1.85-.21-2.93.03-1.02.23-1.8.55-2.68,1.11-1.54.98-2.62,2.09-3.72,3.51l-.29.38-.44.18c-7.84,3.34-14.83,4.89-23.36,4.93-.57,0-1.45.06-2.23-.06-.39,0-.82.03-1.24-.03-.88.03-1.36.13-2.18.54-.52.27-.81.53-1.2.96-.47.52-.74,1.06-.91,1.75-.16.67-.16,1.15-.05,1.82.08.39.18.72.35,1.07.32.64.56,1.01,1.08,1.48.39.34.75.63,1.12.96.28.23.54.45.81.69.1.1.21.18.3.29.03.03.07.06.1.09,2.32,1.9,4.74,3.6,7.34,5.07l.3.18.32.18c1,.55,2.03,1.07,3.07,1.53l5.19,2.41c.17,0,.33-.02.47-.02l.35-.03.33.12c.5.15,1.01.29,1.51.44l1.56.43-.47,3.21-1.62-.05c-1.45-.02-5.16.37-5.22-1.99,0-.39.06-.7.19-.95l-3.1-.06c-9.92-.19-19.84-.24-29.75-.27h-3.32s-7.17-.03-7.17-.03c.16.25.25.55.25.93.02,2.3-3.27,2.14-4.79,2.23-1.28.07-2.65.04-3.94.04l-.27.28c-.71.71-1.45,1.14-2.39,1.47l-.24.08v2.97ZM171.3,242.46l.26.5c.38.7.75,1.2,1.33,1.75.65.6,1.22.97,2.05,1.3.85.34,1.55.49,2.46.49h1.24l-1.32-2.64-.69-.06c-.06,0-.11,0-.17-.02l-1.77-.24.36-3.11-3.74,2.04ZM168.16,242.89l2.37-1.89.36.68,4.54-5.29.07-1.12h.13l.02-1.53c-1.37.55-2.73,1.12-3.74,1.61l1.99.68h-3.22s-.06.04-.08.06c-.33.79-.95,1.39-1.95,1.32,0,0-.03,0-.04,0l-.15.34-.49-.47c-.41-.17-.65-.45-.81-.8l-.46-.44h-2.67c-.27.44-.6.85-.96,1.23h.08l.37.18c.49.23.84.6.99,1.07l1.59,1.76h0l.02.03,1.01,1.12h-.26l.48.72c.12.18.23.38.34.58l.02.02.39-.23.06.38Z"/>
  <path class="st1" d="M163.09,283.44c.18-11.43.21-22.85.31-34.25h-.32l-.13,1.09h-.1c.02,11.05.17,22.1.23,33.16M157.2,288.92h-1.47c-12.28-.03-24.71.34-37.09.95.16.29.29.64.35,1.04.24,1.66-.89,2.78-2.27,3.3l.14.78c.28-.03.57-.05.86-.08,12.53-1.22,26.48-2.41,39.29-1.84l.19-4.15ZM203.19,218.75c-7.94-.31-14.07-2.21-21.3-5.35l-.62-.27-.43-.54c-1.08-1.34-2.13-2.36-3.61-3.28-.94-.58-1.69-.9-2.78-1.13-.96-.19-1.72-.2-2.7-.07l-.31.04c-1.97.49-3.14,1.21-4.52,2.71-1.04,1.12-1.72,2.27-2.42,3.64-.27.55-.47,1.07-.58,1.67-.49,2.43-.92,4.87-1.16,7.35-.11,1.17-.52,7.54.96,8.04l1.13.39c.17-2.52.91-5.27,1.25-6.8.6-2.64,1.38-5.36,1.89-8l.07-.39.19-.36c.47-.92.98-1.77,1.67-2.55.57-.63,1.23-1.17,2.05-1.41l.35-.11.36-.02h.21l.35-.02.35.09c1.04.22.65.11,1.41.57,1.34.81,2.29,1.98,3.22,3.2.26.35.38.46.77.65,5.04,2.36,10.04,4.17,15.51,5.2l3.55.66,5.13-3.92ZM209.31,227.61c.22-.2.43-.39.65-.6.57-.56.88-.96,1.23-1.68.2-.4.29-.74.37-1.17.14-.8.1-1.27-.09-2.05-.18-.74-.51-1.3-1.02-1.87-.4-.45-.73-.72-1.27-.98-.36-.18-.66-.32-.96-.41l-1.87,4.1c-.03.08-.06.13-.08.22,0,.07-.01.12,0,.18l.02.33.13.15c.12.1.24.2.37.3.31.15.63.31.94.5,1.07.62,1.77,1.74,1.59,2.98ZM202.3,232.8l.8-.52c1.1-.7,2.17-1.45,3.2-2.22-.26-.02-.5-.08-.76-.13h-2.2c-.69,0-1.38,0-2.06-.03l-1.13-.03-3.93,1.66c-.1.75-.52,1.47-1.17,1.95-.07.05-.15.1-.22.15t0,0l.36,1.01,1.15-.52c.73-.33,1.44-.67,2.14-1.03l.6-.3h3.24ZM217.76,223.49s0,.07.01.09c.05.3.13.55.28.81.23.49.42.78.79,1.12l.41-.03c-.27-.26-.49-.6-.64-1-.02-.06-.04-.11-.05-.17l-.79-.84ZM220.88,219.64c-.54.03-.88.13-1.46.42-.2.1-.34.2-.48.31l1.1-.05.83-.68ZM268.13,248.2c.02,6.93.34,13.99.49,20.9.12,5.14.24,10.29.36,15.44.04,1.69.07,3.37.11,5.08.02.56.06,1.22.03,1.87.02.16,0,.18.08.33.04.08.07.1.14.16.03.02.07.05.1.08.03,0,.06,0,.08.02.03,0,.06.02.09.02.04,0,.1,0,.14-.02,7.84-1.5,15.66-2.92,23.45-4.22l-.18-1.49c-6.33.99-12.64,2.05-18.94,3.17l-3.25.58-.57-41.78,1.95-.33c-1.33.06-2.75.1-4.09.19ZM228.92,225.09l6.09-1.08c5.73-1.01,10.98-2.72,16.23-5.24.7-.34,1.04-.65,1.51-1.27.04-.07.09-.13.14-.19l-1-1.1,2.28-2.3c.09-.09.19-.18.29-.26l.22-.53,1.51-.28c1.23-.23,2.32.38,3.17,1.19.79.75,1.35,1.64,1.88,2.58l.2.35.08.39c.94,4.08,1.91,8.14,2.86,12.21.66,2.83,1.32,5.66,1.98,8.49.18.8.54,1.9.73,3.03,2.05-.02,4.56-.26,6.31-.36,1.94-.1,3.88-.21,5.82-.29.28,0,.58-.03.89-.05-.57-.18-1.17-.25-1.88-.23l-8.67.34-.49-2.31c-.64-3.05-1.29-6.1-1.92-9.15-.6-2.85-1.2-5.69-1.79-8.54-.21-.97-.68-2.47-.75-3.86-.16-.54-.3-.94-.55-1.43-.66-1.28-1.3-2.3-2.28-3.35-1.2-1.27-2.18-1.95-3.9-2.3-.96-.21-1.59-.18-2.54.03-.92.2-1.59.48-2.38.99-1.44.9-2.43,1.94-3.47,3.27l-.45.57-.66.29c-7.95,3.39-15.09,4.95-23.74,5.01-.61-.02-1.38.02-2.14-.06l.55.6c.55-.02,1.15-.02,1.72.07l3.98-.15-.1,2.99c-.01.27-.03.54-.07.8l-.11.87h.08l.37.24ZM229.45,245.32l15-.07c-.44-.44-.71-1.02-.73-1.84-.03-1.04.29-1.71.81-2.15l.95-2.15-.71-1.52c-2.94-.36-5.79-1.15-8.79-2.25-3.7-1.37-7.09-3.09-10.37-5.28l-.21-.14-.04.06-1.01-.77-5.43-3.63h0c.38.32.75.62,1.11.94.28.23.55.47.82.7.11.1.22.19.34.32.03.03.06.05.08.08,2.27,1.83,4.63,3.5,7.16,4.94l.31.17.3.17c.99.54,2,1.04,3.02,1.52l4.97,2.31c.08,0,.15,0,.22-.02l.53-.04.51.17c.5.14.99.29,1.49.44l2.37.65-.16,1.11,2.09.97-2.22-.04-.41,2.84-2.47-.05c-2.07-.04-6.08.34-6.16-2.93,0,0,0-.02,0-.03l-1.97-.04c-9.92-.19-19.83-.24-29.74-.27h-2.9s-6.38-.02-6.38-.02c0,.33-.04.61-.11.88,11.66,0,23.32-.09,34.98,0l2.76.02.03,4.98ZM168.82,241.14l.59-.47h0l1.08-.85c-.51-.36-.91-.87-1.09-1.49-.06.02-.11.02-.17.03l-.47,1.01-1.32-1.29c-.47-.22-.78-.56-1.02-.97l-.11-.12h-1.71c.33.29.59.63.75,1.01l.8.88.11-.11.62.93,1.41,1.57.51-.3.02.16Z"/>
  <path class="st1" d="M208.02,221.67l-.73,1.61s0,0,.02.02c.3.14.61.31.91.48.2.12.39.25.57.4.08-.18.11-.31.15-.51.07-.35.05-.5-.04-.86-.08-.35-.19-.51-.43-.78-.15-.17-.25-.27-.44-.36M195.75,233.3l.17-.08c.7-.31,1.4-.65,2.09-1.01l.72-.37.83-.47c.32-.18.66-.35,1-.53h-.23s-4.73,1.99-4.73,1.99l.16.46ZM156.17,289.9h-.43c-11.84-.03-23.82.33-35.76.89.17,1.19-.21,2.21-.88,2.99,11.87-1.14,24.89-2.19,36.98-1.74l.1-2.14ZM163.65,225.06c-.17,2.27-.13,4.35.37,5.35.29-2.06.82-4.09,1.13-5.47.59-2.64,1.37-5.35,1.88-7.98l.1-.53.25-.48c.51-1,1.06-1.93,1.81-2.76.7-.77,1.5-1.4,2.51-1.7l.47-.15.49-.02h.21l.49-.02.47.12c1.18.27.88.19,1.7.7,1.46.88,2.49,2.11,3.5,3.45.16.23.16.25.4.36,4.96,2.31,9.89,4.1,15.28,5.12l3.12.6.68-.54c-6.35-.74-11.77-2.59-18-5.43l-.85-.39-.58-.75c-.95-1.25-1.86-2.25-3.19-3.09-.66-.41-1.19-.65-1.95-.81-.76-.17-1.25-.19-2.01-.03-1.45.29-2.24.86-3.25,1.92-.89.95-1.5,1.91-2.1,3.05-.21.39-.3.7-.39,1.13-.26,1.12-.49,2.24-.75,3.35-.18.8-.37,1.61-.57,2.41-.07.3-.15.61-.24.91-.19.64-.53,1.2-.97,1.66ZM269.12,249.13c.05,5.62.25,11.29.42,16.93l-.23-16.94c-.06,0-.12,0-.18,0ZM229.58,223.98l5.26-.94c5.64-1.01,10.8-2.68,15.97-5.17.36-.16.58-.31.78-.51l-1.06-1.17,2.94-2.96c.05-.06.11-.11.17-.18l.32-.8,2.05-.38c.3-.05.6-.07.88-.06h0s0,0,0,0c1.2.06,2.28.68,3.14,1.52.86.83,1.47,1.79,2.05,2.81l.27.47.12.54c.93,4.07,1.9,8.14,2.86,12.2.66,2.84,1.32,5.67,1.98,8.49.16.66.38,1.43.57,2.23.19,0,.38-.02.58-.03l-.35-1.65c-.64-3.05-1.28-6.1-1.92-9.15-.6-2.84-1.2-5.69-1.79-8.54-.23-1.06-.64-2.47-.77-3.84-.13-.45-.23-.78-.44-1.19-.61-1.19-1.2-2.15-2.13-3.13-1.06-1.12-1.87-1.7-3.39-2-.83-.18-1.32-.17-2.13.02-.81.17-1.36.4-2.05.85-1.34.85-2.25,1.81-3.22,3.04l-.6.78-.9.38c-6.46,2.75-12.41,4.32-19.04,4.86l-.09,2.72c-.02.64,0,.34-.06.77ZM253.44,233.95c-.19-.09-.38-.17-.62-.24-.59-.18-1.04-.19-1.64-.13-4.88.55-9.18-.33-13.75-1.96-1.19-.42-2.35-.91-3.5-1.43l-5.63-2.56-1.88,2.55c.8.53,1.63,1.04,2.48,1.52l.26.14.34.18c.97.54,1.96,1.03,2.95,1.49l4.74,2.21.67-.05.69.21c.48.15.96.29,1.45.43l3.22.89-.18,1.24,1.3.6-1.71-3.66h3.74c.04-.05.09-.11.14-.16l1.09-1.24,1.65-.05c.66,0,1.31-.05,1.96-.12.3-.03.61-.03.92.02l1.3.12ZM254.27,243.4c.17-.13.33-.29.51-.48.44-.49.65-.82.88-1.44.21-.6.26-1.01.23-1.65-.07-.82-.13-1.6-.18-2.42-.05-.64-.14-1.06-.44-1.63-.28-.56-.55-.89-1.02-1.29-.16-.13-.32-.24-.47-.34l1.7,2.15v1.2l.1,1.44c.03.45.07.96.04,1.4l-.09,1.19-1.19,1.45-.07.43ZM181.68,244.54c4.77,0,9.53-.02,14.3-.05l55.8-.26c.32,0,.58-.03.84-.07l-.92-.23-1.85-.11h-2.28s-.11-.13-.11-.13h-.16s0-.18,0-.18l-.83-.86c-.06-.07-.11-.13-.16-.18l-3.38.04.68-1.53-.89-.02-.42,2.84-3.34-.07c-2.41-.05-6.33.24-7.02-2.99l-1.11-.02c-9.91-.18-19.81-.23-29.73-.27h-2.81l-5.58-.03c-.62,2.97-4.13,3.04-6.54,3.16-1.06.06-2.16.05-3.25.05-.39.35-.79.65-1.22.9Z"/>
  <path class="st1" d="M144.31,291c-7.75.13-15.53.4-23.3.75-.02.29-.07.56-.16.83,7.58-.7,15.57-1.36,23.45-1.59M197.87,220.3c-5.84-.8-10.98-2.54-16.78-5.06l-1.07-.47-.74-.91c-.93-1.17-1.82-2.05-3.1-2.83-.75-.46-1.27-.7-2.13-.87-.73-.16-1.26-.15-2-.05h-.03s-.03,0-.05,0c-1.6.39-2.44.91-3.56,2.1-.91,1-1.5,2-2.1,3.19-.2.4-.33.74-.41,1.17-.15.76-.42,2.16-.66,3.78.29-1.21.57-2.41.8-3.58l.14-.68.31-.61c.55-1.07,1.14-2.06,1.96-2.98.82-.91,1.78-1.63,2.98-1.99l.6-.18.63-.02h.2s.61-.03.61-.03l.6.13c1.31.3,1.12.29,2.01.82,1.57.96,2.68,2.26,3.77,3.72,0,0,.02.02.03.03,4.87,2.28,9.72,4.05,15.01,5.04l2.68.5.04-.03h0l.28-.22ZM209.63,223.56c.03-.34,0-.55-.1-.96-.08-.34-.22-.59-.42-.85l-.5,1.09s.08.04.12.07c.33.18.63.4.9.65ZM243.68,234.37c-2.2-.38-4.36-1-6.59-1.79-1.22-.44-2.41-.93-3.58-1.46l-4.88-2.23-.74,1.02c.5.31,1,.61,1.52.9l.3.18.29.16c.95.52,1.92,1,2.89,1.46l4.5,2.09.6-.05.87.28c.48.13.95.28,1.43.41l1.39.39-.64-1.35h2.65ZM231.44,243.31h.72c-.29-.25-.52-.54-.73-.89v.89ZM155.1,290.92c-1.17,0-2.33,0-3.5,0,1.17,0,2.34.03,3.5.07v-.08Z"/>
  <path class="st0" d="M1070.7,230.55v-39.28c0-3.65-1.28-6.75-3.87-9.3-2.56-2.55-5.63-3.82-9.18-3.82h-34.27c-3.63,0-6.72,1.27-9.24,3.82-2.54,2.55-3.81,5.65-3.81,9.3v39.28c0,3.66,1.27,6.76,3.81,9.31,2.52,2.55,5.61,3.82,9.24,3.82h34.27c3.56,0,6.62-1.27,9.18-3.82,2.58-2.55,3.87-5.65,3.87-9.31ZM1076.37,230.55c0,5.18-1.84,9.61-5.51,13.3-3.66,3.69-8.07,5.53-13.22,5.53h-34.27c-5.14,0-9.55-1.84-13.22-5.53-3.67-3.69-5.51-8.12-5.51-13.3v-39.28c0-5.17,1.84-9.6,5.51-13.29,3.66-3.7,8.07-5.54,13.22-5.54h34.27c5.14,0,9.55,1.84,13.22,5.54,3.67,3.69,5.51,8.13,5.51,13.29v39.28ZM993.55,249.38h-37.67c-5.15,0-9.55-1.84-13.22-5.53-3.67-3.69-5.51-8.12-5.51-13.3v-58.11h5.68v58.11c0,3.66,1.26,6.76,3.8,9.31,2.54,2.55,5.62,3.82,9.25,3.82h37.67v5.7ZM930.44,230.55c0,5.18-1.83,9.61-5.49,13.3-3.67,3.69-8.08,5.53-13.22,5.53h-34.27c-5.14,0-9.55-1.84-13.22-5.53-3.67-3.69-5.51-8.12-5.51-13.3v-58.11h5.68v58.11c0,3.66,1.27,6.76,3.81,9.31,2.53,2.55,5.61,3.82,9.24,3.82h34.27c3.55,0,6.62-1.27,9.19-3.82,2.57-2.55,3.86-5.65,3.86-9.31v-58.11h5.67v58.11ZM847.75,249.38h-37.78c-5.14,0-9.54-1.84-13.22-5.53-3.66-3.69-5.49-8.12-5.49-13.3v-39.28c0-5.17,1.83-9.6,5.49-13.29,3.68-3.7,8.08-5.54,13.22-5.54h37.78v5.72h-37.78c-3.63,0-6.71,1.27-9.25,3.82-2.53,2.55-3.8,5.65-3.8,9.3v39.28c0,3.66,1.27,6.76,3.8,9.31,2.54,2.55,5.62,3.82,9.25,3.82h37.78v5.7ZM778.4,208.06v-16.79c0-3.65-1.29-6.75-3.86-9.3-2.57-2.55-5.64-3.82-9.19-3.82h-22.93c-3.63,0-6.72,1.27-9.24,3.82-2.53,2.55-3.81,5.65-3.81,9.3v16.79h49.02ZM784.08,249.38h-5.68v-35.62h-49.02v35.62h-5.67v-58.11c0-5.17,1.83-9.6,5.5-13.29,3.66-3.7,8.08-5.54,13.22-5.54h22.93c5.14,0,9.55,1.84,13.22,5.54,3.67,3.69,5.51,8.13,5.51,13.29v58.11ZM717.01,249.38h-5.68v-58.11c0-3.65-1.28-6.75-3.86-9.3-2.57-2.55-5.63-3.82-9.18-3.82h-34.27c-3.63,0-6.72,1.27-9.25,3.82-2.53,2.55-3.81,5.65-3.81,9.3v58.11h-5.67v-58.11c0-5.17,1.84-9.6,5.51-13.29,3.66-3.7,8.07-5.54,13.22-5.54h34.27c5.15,0,9.55,1.84,13.22,5.54,3.67,3.69,5.5,8.13,5.5,13.29v58.11ZM631.8,197.22v-5.95c0-3.65-1.27-6.75-3.81-9.3-2.53-2.55-5.61-3.82-9.24-3.82h-22.93c-3.56,0-6.62,1.27-9.19,3.82-2.57,2.55-3.85,5.65-3.85,9.3v19.07h36c3.61,0,6.7-1.27,9.21-3.82,2.54-2.56,3.81-5.66,3.81-9.31ZM637.47,249.38h-5.67v-20.2c0-3.66-1.27-6.75-3.81-9.31-2.51-2.55-5.59-3.82-9.21-3.82h-36v33.33h-5.68v-58.11c0-5.17,1.83-9.6,5.49-13.29,3.68-3.7,8.08-5.54,13.22-5.54h22.93c5.14,0,9.55,1.84,13.22,5.54,3.67,3.69,5.5,8.13,5.5,13.29v5.95c0,6.93-2.94,12.26-8.85,15.98,5.9,3.73,8.85,9.06,8.85,15.98v20.2ZM569.75,249.38h-41.64c-5.15,0-9.55-1.84-13.22-5.53-3.68-3.69-5.51-8.12-5.51-13.3v-3.66c0-6.93,2.95-12.25,8.85-15.98-5.9-3.72-8.85-9.06-8.85-15.98v-3.66c0-5.17,1.83-9.6,5.51-13.29,3.66-3.7,8.07-5.54,13.22-5.54h41.64v5.72h-41.64c-3.56,0-6.62,1.27-9.19,3.82-2.57,2.55-3.85,5.65-3.85,9.3v3.66c0,3.65,1.28,6.76,3.85,9.31,2.57,2.55,5.63,3.82,9.19,3.82h22.92v5.7h-22.92c-3.56,0-6.62,1.28-9.19,3.83-2.57,2.54-3.85,5.65-3.85,9.3v3.66c0,3.66,1.28,6.76,3.85,9.31,2.57,2.55,5.63,3.82,9.19,3.82h41.64v5.7ZM497.45,230.55v-3.66c0-3.65-1.28-6.76-3.86-9.3-2.57-2.55-5.63-3.83-9.19-3.83h-35.97v29.92h35.97c3.56,0,6.62-1.27,9.19-3.82,2.57-2.55,3.86-5.65,3.86-9.31ZM497.45,194.93v-3.66c0-3.65-1.28-6.75-3.86-9.3-2.57-2.55-5.63-3.82-9.19-3.82h-35.97v29.9h35.97c3.56,0,6.62-1.27,9.19-3.82,2.57-2.55,3.86-5.66,3.86-9.31ZM503.12,230.55c0,5.18-1.84,9.61-5.5,13.3-3.67,3.69-8.08,5.53-13.22,5.53h-41.64v-76.94h41.64c5.14,0,9.55,1.84,13.22,5.54,3.66,3.69,5.5,8.13,5.5,13.29v3.66c0,6.93-2.95,12.26-8.86,15.98,5.91,3.73,8.86,9.06,8.86,15.98v3.66ZM429.93,208.06v-16.79c0-3.65-1.28-6.75-3.86-9.3-2.58-2.55-5.63-3.82-9.19-3.82h-22.92c-3.63,0-6.71,1.27-9.25,3.82-2.53,2.55-3.79,5.65-3.79,9.3v16.79h49.01ZM435.6,249.38h-5.67v-35.62h-49.01v35.62h-5.68v-58.11c0-5.17,1.84-9.6,5.5-13.29,3.68-3.7,8.08-5.54,13.22-5.54h22.92c5.15,0,9.55,1.84,13.21,5.54,3.67,3.69,5.51,8.13,5.51,13.29v58.11ZM368.56,178.16h-27.68v71.23h-5.68v-71.23h-29.5v-5.72h62.86v5.72ZM126.42,249.38h-37.67c-5.14,0-9.55-1.84-13.22-5.53s-5.51-8.12-5.51-13.3v-58.11h5.69v58.11c0,3.66,1.26,6.76,3.79,9.31,2.54,2.55,5.62,3.82,9.25,3.82h37.67v5.7ZM61.97,249.38H20.33c-5.15,0-9.55-1.84-13.22-5.53-3.66-3.69-5.5-8.12-5.5-13.3v-3.66c0-6.93,2.95-12.25,8.86-15.98-5.91-3.72-8.86-9.06-8.86-15.98v-3.66c0-5.17,1.84-9.6,5.5-13.29,3.67-3.7,8.08-5.54,13.22-5.54h41.64v5.72H20.33c-3.56,0-6.62,1.27-9.19,3.82-2.57,2.55-3.86,5.65-3.86,9.3v3.66c0,3.65,1.29,6.76,3.86,9.31,2.57,2.55,5.63,3.82,9.19,3.82h22.92v5.7h-22.92c-3.56,0-6.62,1.28-9.19,3.83-2.57,2.54-3.86,5.65-3.86,9.3v3.66c0,3.66,1.29,6.76,3.86,9.31,2.57,2.55,5.63,3.82,9.19,3.82h41.64v5.7Z"/>
  <path class="st0" d="M416.88,172.44h-22.92c-5.14,0-9.55,1.84-13.22,5.54-3.66,3.69-5.5,8.13-5.5,13.29v58.11h5.68v-35.62h49.01v35.62h5.67v-58.11c0-5.17-1.84-9.6-5.51-13.29-3.66-3.7-8.06-5.54-13.21-5.54ZM429.93,208.06h-49.01v-16.79c0-3.65,1.26-6.75,3.79-9.3,2.54-2.55,5.62-3.82,9.25-3.82h22.92c3.56,0,6.61,1.27,9.19,3.82,2.57,2.55,3.86,5.65,3.86,9.3v16.79Z"/>
  <path class="st0" d="M1070.86,177.98c-3.66-3.7-8.07-5.54-13.22-5.54h-34.27c-5.14,0-9.55,1.84-13.22,5.54-3.67,3.69-5.51,8.13-5.51,13.29v39.28c0,5.18,1.84,9.61,5.51,13.3,3.66,3.69,8.07,5.53,13.22,5.53h34.27c5.14,0,9.55-1.84,13.22-5.53,3.67-3.69,5.51-8.12,5.51-13.3v-39.28c0-5.17-1.84-9.6-5.51-13.29ZM1070.7,230.55c0,3.66-1.28,6.76-3.87,9.31-2.56,2.55-5.63,3.82-9.18,3.82h-34.27c-3.63,0-6.72-1.27-9.24-3.82-2.54-2.55-3.81-5.65-3.81-9.31v-39.28c0-3.65,1.27-6.75,3.81-9.3,2.52-2.55,5.61-3.82,9.24-3.82h34.27c3.56,0,6.62,1.27,9.18,3.82,2.58,2.55,3.87,5.65,3.87,9.3v39.28Z"/>
  <path class="st0" d="M7.11,177.98c-3.66,3.69-5.5,8.13-5.5,13.29v3.66c0,6.93,2.95,12.26,8.86,15.98-5.91,3.73-8.86,9.06-8.86,15.98v3.66c0,5.18,1.84,9.61,5.5,13.3,3.67,3.69,8.08,5.53,13.22,5.53h41.64v-5.7H20.33c-3.56,0-6.62-1.27-9.19-3.82-2.57-2.55-3.86-5.65-3.86-9.31v-3.66c0-3.65,1.29-6.76,3.86-9.3,2.57-2.55,5.63-3.83,9.19-3.83h22.92v-5.7h-22.92c-3.56,0-6.62-1.27-9.19-3.82-2.57-2.55-3.86-5.66-3.86-9.31v-3.66c0-3.65,1.29-6.75,3.86-9.3,2.57-2.55,5.63-3.82,9.19-3.82h41.64v-5.72H20.33c-5.15,0-9.55,1.84-13.22,5.54Z"/>
  <path class="st0" d="M79.5,239.86c-2.54-2.55-3.79-5.65-3.79-9.31v-58.11h-5.69v58.11c0,5.18,1.84,9.61,5.51,13.3s8.08,5.53,13.22,5.53h37.67v-5.7h-37.67c-3.63,0-6.71-1.27-9.25-3.82Z"/>
  <polygon class="st0" points="305.7 178.16 335.21 178.16 335.21 249.38 340.88 249.38 340.88 178.16 368.56 178.16 368.56 172.44 305.7 172.44 305.7 178.16"/>
  <path class="st0" d="M698.29,172.44h-34.27c-5.14,0-9.55,1.84-13.22,5.54-3.67,3.69-5.51,8.13-5.51,13.29v58.11h5.67v-58.11c0-3.65,1.27-6.75,3.81-9.3,2.53-2.55,5.62-3.82,9.25-3.82h34.27c3.56,0,6.62,1.27,9.18,3.82,2.57,2.55,3.86,5.65,3.86,9.3v58.11h5.68v-58.11c0-5.17-1.83-9.6-5.5-13.29-3.66-3.7-8.07-5.54-13.22-5.54Z"/>
  <path class="st0" d="M924.77,230.55c0,3.66-1.28,6.76-3.86,9.31-2.57,2.55-5.64,3.82-9.19,3.82h-34.27c-3.63,0-6.71-1.27-9.24-3.82-2.54-2.55-3.81-5.65-3.81-9.31v-58.11h-5.68v58.11c0,5.18,1.84,9.61,5.51,13.3,3.66,3.69,8.07,5.53,13.22,5.53h34.27c5.14,0,9.55-1.84,13.22-5.53,3.66-3.69,5.49-8.12,5.49-13.3v-58.11h-5.67v58.11Z"/>
  <path class="st0" d="M796.74,177.98c-3.66,3.69-5.49,8.13-5.49,13.29v39.28c0,5.18,1.83,9.61,5.49,13.3,3.68,3.69,8.08,5.53,13.22,5.53h37.78v-5.7h-37.78c-3.63,0-6.71-1.27-9.25-3.82-2.53-2.55-3.8-5.65-3.8-9.31v-39.28c0-3.65,1.27-6.75,3.8-9.3,2.54-2.55,5.62-3.82,9.25-3.82h37.78v-5.72h-37.78c-5.14,0-9.54,1.84-13.22,5.54Z"/>
  <path class="st0" d="M765.35,172.44h-22.93c-5.14,0-9.55,1.84-13.22,5.54-3.67,3.69-5.5,8.13-5.5,13.29v58.11h5.67v-35.62h49.02v35.62h5.68v-58.11c0-5.17-1.84-9.6-5.51-13.29-3.66-3.7-8.08-5.54-13.22-5.54ZM778.4,208.06h-49.02v-16.79c0-3.65,1.27-6.75,3.81-9.3,2.52-2.55,5.61-3.82,9.24-3.82h22.93c3.55,0,6.62,1.27,9.19,3.82,2.57,2.55,3.86,5.65,3.86,9.3v16.79Z"/>
  <path class="st0" d="M946.63,239.86c-2.54-2.55-3.8-5.65-3.8-9.31v-58.11h-5.68v58.11c0,5.18,1.84,9.61,5.51,13.3,3.66,3.69,8.07,5.53,13.22,5.53h37.67v-5.7h-37.67c-3.63,0-6.71-1.27-9.25-3.82Z"/>
  <path class="st0" d="M618.75,172.44h-22.93c-5.14,0-9.54,1.84-13.22,5.54-3.66,3.69-5.49,8.13-5.49,13.29v58.11h5.68v-33.33h36c3.61,0,6.7,1.27,9.21,3.82,2.54,2.56,3.81,5.64,3.81,9.31v20.2h5.67v-20.2c0-6.93-2.94-12.25-8.85-15.98,5.9-3.72,8.85-9.06,8.85-15.98v-5.95c0-5.17-1.83-9.6-5.5-13.29-3.66-3.7-8.07-5.54-13.22-5.54ZM631.8,197.22c0,3.65-1.27,6.75-3.81,9.31-2.51,2.55-5.59,3.82-9.21,3.82h-36v-19.07c0-3.65,1.27-6.75,3.85-9.3,2.57-2.55,5.63-3.82,9.19-3.82h22.93c3.63,0,6.71,1.27,9.24,3.82,2.54,2.55,3.81,5.65,3.81,9.3v5.95Z"/>
  <path class="st0" d="M514.89,177.98c-3.68,3.69-5.51,8.13-5.51,13.29v3.66c0,6.93,2.95,12.26,8.85,15.98-5.9,3.73-8.85,9.06-8.85,15.98v3.66c0,5.18,1.83,9.61,5.51,13.3,3.66,3.69,8.07,5.53,13.22,5.53h41.64v-5.7h-41.64c-3.56,0-6.62-1.27-9.19-3.82-2.57-2.55-3.85-5.65-3.85-9.31v-3.66c0-3.65,1.28-6.76,3.85-9.3,2.57-2.55,5.63-3.83,9.19-3.83h22.92v-5.7h-22.92c-3.56,0-6.62-1.27-9.19-3.82-2.57-2.55-3.85-5.66-3.85-9.31v-3.66c0-3.65,1.28-6.75,3.85-9.3,2.57-2.55,5.63-3.82,9.19-3.82h41.64v-5.72h-41.64c-5.15,0-9.55,1.84-13.22,5.54Z"/>
  <path class="st0" d="M484.4,172.44h-41.64v76.94h41.64c5.14,0,9.55-1.84,13.22-5.53,3.66-3.69,5.5-8.12,5.5-13.3v-3.66c0-6.93-2.95-12.25-8.86-15.98,5.91-3.72,8.86-9.06,8.86-15.98v-3.66c0-5.17-1.84-9.6-5.5-13.29-3.67-3.7-8.08-5.54-13.22-5.54ZM497.45,226.89v3.66c0,3.66-1.28,6.76-3.86,9.31-2.57,2.55-5.63,3.82-9.19,3.82h-35.97v-29.92h35.97c3.56,0,6.62,1.28,9.19,3.83,2.57,2.54,3.86,5.65,3.86,9.3ZM497.45,194.93c0,3.65-1.28,6.76-3.86,9.31-2.57,2.55-5.63,3.82-9.19,3.82h-35.97v-29.9h35.97c3.56,0,6.62,1.27,9.19,3.82,2.57,2.55,3.86,5.65,3.86,9.3v3.66Z"/>
  <polygon class="st0" points="765.59 156.37 764.19 150.71 740.69 156.59 742.06 162.11 765.59 156.37"/>
</svg>