<?xml version="1.0" encoding="UTF-8"?>
<svg id="Capa_1" xmlns="http://www.w3.org/2000/svg" version="1.1" viewBox="0 0 1372.35 391.31">
  <!-- Generator: Adobe Illustrator 30.5.1, SVG Export Plug-In . SVG Version: 2.1.4 Build 3)  -->
  <defs>
    <style>
      .st0 {
        fill: #fff;
      }
    </style>
  </defs>
  <g id="hojas_compuesto">
    <g>
      <path class="st0" d="M555.13,233.49c0-34.53-19.49-51.79-58.47-51.79h-28.4c-17.26,0-25.89-7.79-25.89-23.39,0-16.71,14.59-25.06,43.77-25.06,20.94,0,41.15,3.34,60.64,10.02v-26.73c-19.49-5.57-39.71-8.35-60.64-8.35-48.67,0-73.01,16.71-73.01,50.12s18.38,51.79,55.13,51.79h28.4c18.38,0,27.57,7.8,27.57,23.39,0,16.71-13.98,25.06-41.93,25.06-21.05,0-41.32-3.34-60.81-10.02v26.73c19.49,5.57,39.76,8.35,60.81,8.35,48.56,0,72.84-16.71,72.84-50.12h0Z"/>
      <path class="st0" d="M650.18,283.44c55.69,0,83.53-29.18,83.53-87.54s-27.85-87.71-83.53-87.71-83.53,29.24-83.53,87.71c.22,58.36,28.07,87.54,83.53,87.54h0ZM650.18,133.25c35.08,0,52.62,20.66,52.62,61.98s-17.54,63.32-52.62,63.32-52.63-21.11-52.63-63.32,17.54-61.98,52.63-61.98Z"/>
      <polygon class="st0" points="915.8 244.01 868.69 108.19 840.79 108.19 796.85 244.01 764.1 108.19 732.86 108.19 777.3 283.61 809.55 283.61 853.98 152.46 900.93 283.61 932.51 283.61 978.28 108.19 945.54 108.19 915.8 244.01"/>
      <rect class="st0" x="990.98" y="108.19" width="30.91" height="175.42"/>
      <rect class="st0" x="990.98" y="44.71" width="30.91" height="25.06"/>
      <path class="st0" d="M1073.74,156.14c15.93-14.81,32.75-22.22,50.46-22.22,25.95,0,38.93,13.03,38.93,39.09v110.6h30.91v-110.1c0-43.55-20.22-65.32-60.64-65.32-21.5,0-42.88,7.46-64.15,22.39l-5.51-22.39h-20.88v175.42h30.91v-127.47h-.03Z"/>
      <path class="st0" d="M1303.52,108.19c-58.47,0-87.71,28.9-87.71,86.71s27.73,88.71,83.2,88.71c15.15,0,29.29-2.78,42.43-8.35v8.35c0,25.62-16.49,38.42-49.45,38.42-21.5,0-40.76-2.78-57.8-8.35v25.06c16.71,5.57,35.86,8.35,57.47,8.35,53.8,0,80.69-21.16,80.69-63.48V115.37c-22.16-4.79-45.11-7.18-68.83-7.18h0ZM1341.44,247.86c-12.14,6.02-26.23,9.02-42.27,9.02-35.31,0-52.96-20.77-52.96-62.32s18.65-60.64,55.97-60.64c15.59,0,28.68,1.34,39.26,4.01v109.93h0Z"/>
      <polygon class="st0" points="413.23 317.76 425.79 317.76 425.79 349.72 432.83 349.72 432.83 317.76 445.4 317.76 445.4 311.81 413.23 311.81 413.23 317.76"/>
      <polygon class="st0" points="457.73 333.36 476.04 333.36 476.04 327.57 457.73 327.57 457.73 317.71 478.37 317.71 478.37 311.81 450.69 311.81 450.69 349.72 479.13 349.72 479.13 343.82 457.73 343.82 457.73 333.36"/>
      <path class="st0" d="M504.73,317.44c3.96,0,7.37,1.46,10.13,4.44l4.55-4.28c-3.52-4.12-8.83-6.34-15-6.34-11.65,0-20.31,8.18-20.31,19.5s8.67,19.5,20.26,19.5c6.23,0,11.54-2.22,15.06-6.34l-4.55-4.33c-2.76,3.03-6.17,4.5-10.13,4.5-7.85,0-13.54-5.52-13.54-13.32s5.69-13.32,13.54-13.32h0Z"/>
      <polygon class="st0" points="552.86 337.48 531.95 311.81 526.16 311.81 526.16 349.72 533.14 349.72 533.14 324.05 554.05 349.72 559.85 349.72 559.85 311.81 552.86 311.81 552.86 337.48"/>
      <path class="st0" d="M587.72,311.26c-11.75,0-20.42,8.29-20.42,19.5s8.67,19.5,20.42,19.5,20.42-8.23,20.42-19.5-8.67-19.5-20.42-19.5ZM587.72,344.09c-7.64,0-13.32-5.58-13.32-13.32s5.69-13.32,13.32-13.32,13.32,5.58,13.32,13.32-5.69,13.32-13.32,13.32Z"/>
      <polygon class="st0" points="622.63 311.81 615.59 311.81 615.59 349.72 642.45 349.72 642.45 343.76 622.63 343.76 622.63 311.81"/>
      <path class="st0" d="M665.03,311.26c-11.75,0-20.42,8.29-20.42,19.5s8.67,19.5,20.42,19.5,20.42-8.23,20.42-19.5-8.67-19.5-20.42-19.5ZM665.03,344.09c-7.64,0-13.32-5.58-13.32-13.32s5.69-13.32,13.32-13.32,13.32,5.58,13.32,13.32-5.69,13.32-13.32,13.32Z"/>
      <path class="st0" d="M711.04,317.44c4.06,0,7.48,1.35,10.45,4.33l4.44-4.33c-3.57-4.06-8.88-6.17-15.22-6.17-11.86,0-20.53,8.18-20.53,19.5s8.67,19.5,20.42,19.5c5.36,0,10.89-1.62,14.84-4.82v-15.11h-6.66v11.81c-2.44,1.41-5.09,1.95-7.8,1.95-8.02,0-13.7-5.63-13.7-13.32s5.69-13.32,13.76-13.32v-.02Z"/>
      <rect class="st0" x="734.69" y="311.81" width="7.04" height="37.91"/>
      <polygon class="st0" points="748.94 301.3 740.97 301.3 733.66 308.72 739.51 308.72 748.94 301.3"/>
      <path class="st0" d="M763.66,311.81l-17.06,37.91h7.26l3.74-8.77h18.96l3.79,8.77h7.37l-17.12-37.91h-6.94ZM759.98,335.42l7.1-16.57,7.15,16.57h-14.25Z"/>
      <path class="st0" d="M824.02,311.81h-16.57v37.91h16.57c12.29,0,20.69-7.58,20.69-18.96s-8.39-18.96-20.69-18.96h0ZM823.7,343.76h-9.21v-26h9.21c8.45,0,13.92,5.15,13.92,13s-5.47,13-13.92,13Z"/>
      <polygon class="st0" points="859.21 333.36 877.51 333.36 877.51 327.57 859.21 327.57 859.21 317.71 879.84 317.71 879.84 311.81 852.16 311.81 852.16 349.72 880.6 349.72 880.6 343.82 859.21 343.82 859.21 333.36"/>
      <path class="st0" d="M918.98,311.81h-15.6v37.91h7.04v-10.94h8.56c9.97,0,16.14-5.15,16.14-13.49s-6.17-13.49-16.14-13.49h0ZM918.65,332.82h-8.23v-15.06h8.23c6.17,0,9.37,2.76,9.37,7.53s-3.2,7.53-9.37,7.53Z"/>
      <path class="st0" d="M973.88,325.29c0-8.4-6.17-13.49-16.14-13.49h-15.6v37.91h7.04v-11.05h8.56c.49,0,.98,0,1.46-.05l7.74,11.1h7.58l-8.72-12.46c5.15-2,8.07-6.23,8.07-11.97h0ZM957.41,332.87h-8.23v-15.11h8.23c6.17,0,9.37,2.76,9.37,7.53s-3.2,7.58-9.37,7.58Z"/>
      <polygon class="st0" points="988.75 333.36 1007.06 333.36 1007.06 327.57 988.75 327.57 988.75 317.71 1009.39 317.71 1009.39 311.81 981.71 311.81 981.71 349.72 1010.15 349.72 1010.15 343.82 988.75 343.82 988.75 333.36"/>
      <path class="st0" d="M1035.75,317.44c3.96,0,7.37,1.46,10.13,4.44l4.55-4.28c-3.52-4.12-8.83-6.34-15-6.34-11.65,0-20.31,8.18-20.31,19.5s8.67,19.5,20.26,19.5c6.23,0,11.54-2.22,15.06-6.34l-4.55-4.33c-2.76,3.03-6.17,4.5-10.13,4.5-7.85,0-13.54-5.52-13.54-13.32s5.69-13.32,13.54-13.32h-.01Z"/>
      <rect class="st0" x="1057.18" y="311.81" width="7.04" height="37.91"/>
      <path class="st0" d="M1079.05,322.26c0-2.87,2.38-5.15,8.23-5.15,3.3,0,7.04.98,10.45,2.98l2.22-5.47c-3.3-2.17-8.07-3.36-12.62-3.36-10.4,0-15.27,5.2-15.27,11.32,0,14.08,22.53,8.72,22.53,16.9,0,2.82-2.49,4.93-8.4,4.93-4.66,0-9.48-1.73-12.51-4.17l-2.44,5.47c3.14,2.71,9.04,4.55,14.95,4.55,10.4,0,15.33-5.2,15.33-11.27,0-13.92-22.48-8.67-22.48-16.74h.01Z"/>
      <rect class="st0" x="1108.5" y="311.81" width="7.04" height="37.91"/>
      <polygon class="st0" points="1138.93 308.72 1144.78 308.72 1154.2 301.3 1146.24 301.3 1138.93 308.72"/>
      <path class="st0" d="M1143.48,311.26c-11.75,0-20.42,8.29-20.42,19.5s8.67,19.5,20.42,19.5,20.42-8.23,20.42-19.5-8.67-19.5-20.42-19.5ZM1143.48,344.09c-7.64,0-13.32-5.58-13.32-13.32s5.69-13.32,13.32-13.32,13.32,5.58,13.32,13.32-5.69,13.32-13.32,13.32Z"/>
      <polygon class="st0" points="1198.05 337.48 1177.14 311.81 1171.35 311.81 1171.35 349.72 1178.34 349.72 1178.34 324.05 1199.24 349.72 1205.04 349.72 1205.04 311.81 1198.05 311.81 1198.05 337.48"/>
      <path class="st0" d="M324.26,217.94c-.16.09-.33.17-.5.26-1.76.91-3.53,1.78-5.32,2.59-.28.13-.56.26-.84.39-1.76.78-3.54,1.52-5.33,2.2-.25.1-.5.2-.75.3-2.04.76-4.1,1.47-6.18,2.11v.31c0,77.4-62.74,140.14-140.14,140.14S25.08,303.49,25.08,226.09,87.82,85.96,165.22,85.96c.53,0,1.04.03,1.57.04,1.24-3.92,2.72-7.87,4.42-11.85.1-.23.19-.45.29-.68.77-1.76,1.59-3.53,2.45-5.31.13-.27.26-.55.4-.82.98-1.98,2.02-3.97,3.13-5.97-4.05-.3-8.13-.5-12.25-.5C73.97,60.88,0,134.85,0,226.09s73.97,165.22,165.22,165.22,165.22-73.97,165.22-165.22c0-3.83-.18-7.61-.43-11.38-1.89,1.14-3.81,2.21-5.74,3.23h-.01Z"/>
      <path class="st0" d="M48.46,226.09c0,64.48,52.27,116.75,116.75,116.75s114.53-50.12,116.65-112.73c-1.45.1-2.9.2-4.36.25-1.09.03-2.17.05-3.24.05h0c-1.63,0-3.24-.05-4.85-.12-3.83-.15-7.58-.48-11.25-.96-1.7,49.88-42.65,89.81-92.94,89.81s-93.03-41.65-93.03-93.03,39.97-91.28,89.9-92.94c-.89-7.64-.99-15.57-.17-23.73-62.95,1.75-113.45,53.29-113.45,116.67v-.02Z"/>
      <path class="st0" d="M165.22,182.88c6.46,0,12.56,1.46,18.06,3.99-6.1-8.4-11.32-17.92-15.14-28.32-.97-.04-1.94-.07-2.92-.07-37.34,0-67.61,30.27-67.61,67.61s30.27,67.61,67.61,67.61,67.61-30.27,67.61-67.61c0-.94-.03-1.88-.07-2.81-10.81-3.81-20.26-8.84-27.87-14.31,2.27,5.25,3.54,11.04,3.54,17.12,0,23.86-19.35,43.21-43.21,43.21s-43.21-19.35-43.21-43.21,19.35-43.21,43.21-43.21h0Z"/>
      <path class="st0" d="M261.72,24.11c-46.72,13.6-63.42,40.69-66.43,46.27-.48.85-.94,1.7-1.39,2.54-.14.26-.28.52-.41.79-.31.6-.62,1.19-.92,1.78-.14.28-.29.57-.43.85-.3.61-.6,1.23-.89,1.84-.11.23-.22.46-.33.68-.39.83-.76,1.66-1.12,2.48-.05.12-.1.25-.16.37-.31.7-.6,1.4-.89,2.1-.1.25-.2.51-.31.76-.23.58-.46,1.17-.68,1.74-.1.26-.2.51-.29.77-.24.66-.48,1.31-.71,1.96-.05.15-.11.3-.16.46-.28.81-.55,1.62-.8,2.42-.05.16-.1.32-.15.47-.2.64-.39,1.28-.58,1.91-.07.24-.13.47-.2.71-.16.58-.32,1.16-.47,1.74-.06.22-.11.43-.17.65-.19.74-.37,1.48-.54,2.22,0,.03-.02.07-.02.1-.18.79-.34,1.57-.5,2.35-.03.17-.07.34-.1.51-.12.6-.23,1.2-.33,1.79-.04.21-.07.43-.11.64-.1.59-.19,1.18-.28,1.76-.03.17-.05.34-.08.51-.21,1.51-.38,3-.51,4.48-.02.17-.03.35-.04.52-.05.57-.09,1.13-.12,1.69,0,.2-.02.39-.03.59-.03.59-.06,1.18-.08,1.77,0,.13,0,.26,0,.39-.02.73-.03,1.46-.04,2.18v.17c0,.64,0,1.28.02,1.92,0,.18,0,.37,0,.55,0,.53.03,1.05.06,1.57,0,.18.02.37.03.55.03.6.07,1.19.11,1.78,0,.08,0,.17.02.25.05.68.11,1.36.18,2.03,0,.14.03.27.05.41.06.52.12,1.04.18,1.56.03.2.05.4.08.6.06.47.13.94.2,1.41l.09.57c.09.58.19,1.16.29,1.73,0,.06.02.12.03.17.11.62.23,1.24.36,1.85.04.2.08.4.13.6.09.42.18.83.27,1.24.05.23.11.46.16.69.09.39.19.77.28,1.16.06.22.11.44.17.67.14.53.28,1.06.42,1.58.06.22.13.44.19.67.11.38.22.77.34,1.15.08.26.16.53.24.79.09.3.19.6.28.9.09.28.18.56.27.83.09.27.19.55.28.82.1.28.2.57.3.85.07.2.14.39.21.58.23.62.46,1.24.7,1.85.07.18.14.36.21.54.13.34.27.67.41,1.01.07.16.14.33.2.49.15.35.29.7.44,1.05.04.09.07.17.11.26.55,1.26,1.11,2.49,1.69,3.68,0,.02.02.05.04.07.2.42.41.83.61,1.24v.02c2.95,5.84,6.25,10.92,9.42,15.16l-30.57,30.67c-1.53-.34-3.12-.52-4.75-.52-4.56,0-8.8,1.39-12.32,3.76-.29.2-.58.4-.86.61-5.37,4.02-8.85,10.43-8.85,17.65,0,12.17,9.86,22.03,22.03,22.03s22.03-9.86,22.03-22.03c0-1.66-.19-3.27-.54-4.82l30.2-30.3c6.47,4.99,14.84,9.85,24.57,13.47.02,0,.03,0,.05.02,2.41.89,4.9,1.71,7.46,2.44.03,0,.06.02.09.03,1.2.34,2.42.65,3.66.95.17.04.34.08.51.12,1.21.28,2.43.54,3.66.78.15.03.3.05.45.08,1.22.23,2.45.44,3.69.62.08,0,.15.02.23.04,1.25.18,2.52.33,3.8.46.24.02.47.05.71.07,1.25.12,2.51.21,3.78.28.23,0,.46.02.68.03,1.33.06,2.67.1,4.02.1.88,0,1.76,0,2.65-.04,25.15-.74,48.68-12.44,68.04-33.82,29.09-32.13,42.25-148.41,43.66-161.56l1.61-15.04-14.99,2.08c-47.25,6.56-86.5,14.19-113.52,22.05l.02-.02ZM343.18,64.31l17.35-17.41c-2.08,13.44-4.71,28.45-7.84,43.17h-35.19s25.68-25.76,25.68-25.76ZM293.94,113.7h53.16c-2.47,9.3-5.15,17.99-8.03,25.5h-70.55l25.42-25.5h0ZM216.09,81.61c.51-.95,12.86-23.34,52.24-34.8,1.33-.39,2.69-.77,4.08-1.16.45-.13.92-.25,1.38-.38.95-.26,1.91-.52,2.89-.78.56-.15,1.13-.3,1.7-.45.91-.24,1.84-.47,2.78-.71.61-.15,1.22-.31,1.84-.46.97-.24,1.96-.48,2.95-.72.6-.14,1.18-.29,1.79-.43,1.51-.36,3.05-.72,4.61-1.08.7-.16,1.42-.32,2.12-.48.94-.21,1.88-.42,2.84-.63.88-.19,1.77-.38,2.66-.58.81-.17,1.62-.35,2.44-.52.97-.2,1.94-.41,2.92-.61.75-.16,1.5-.31,2.26-.46,1.06-.22,2.12-.43,3.2-.65.6-.12,1.22-.24,1.83-.36,4.18-.83,8.48-1.64,12.92-2.45.47-.08.93-.17,1.39-.25,1.38-.25,2.78-.5,4.19-.75.54-.1,1.08-.19,1.62-.29,1.42-.25,2.86-.5,4.3-.75.48-.08.96-.16,1.44-.24,1.55-.26,3.1-.52,4.67-.78l-57.49,57.68-68.28,68.5c-3.37-4.89-6.61-10.8-8.91-17.63v-.02c-.45-1.34-.86-2.71-1.23-4.12,0-.05-.02-.09-.04-.14-.18-.7-.35-1.4-.51-2.12,0-.02,0-.03,0-.05-.15-.68-.29-1.36-.42-2.05-.02-.08-.03-.16-.05-.24-.13-.7-.25-1.42-.36-2.13,0-.07-.02-.15-.03-.22-.1-.66-.18-1.32-.25-1.99,0-.1-.02-.21-.04-.31-.08-.72-.14-1.44-.19-2.17,0-.11,0-.23-.02-.34-.04-.65-.08-1.31-.1-1.97,0-.12,0-.25,0-.37-.02-.73-.03-1.47-.02-2.22v-.44c0-.66.03-1.32.06-1.98,0-.14,0-.27.02-.41.04-.75.09-1.51.16-2.28.02-.17.03-.35.05-.52.06-.67.14-1.35.23-2.03.02-.14.03-.27.05-.41.1-.78.22-1.56.36-2.35.03-.19.07-.38.1-.57.12-.7.26-1.4.41-2.11.03-.13.05-.26.08-.39.17-.8.37-1.62.57-2.43.05-.2.11-.41.16-.61.19-.74.4-1.48.62-2.23.03-.11.06-.22.1-.34.25-.83.52-1.68.81-2.52.07-.21.15-.42.22-.64.27-.79.56-1.58.87-2.38.03-.09.06-.17.1-.26.34-.86.69-1.74,1.07-2.61.09-.22.19-.44.28-.65.37-.85.75-1.7,1.16-2.56.02-.05.04-.09.07-.14.43-.9.88-1.8,1.35-2.71.11-.22.23-.45.35-.67.48-.92.98-1.84,1.5-2.76l.16-.29v-.03ZM273.46,186.79h-.57c-.89-.02-1.78-.06-2.66-.12-.15,0-.29-.02-.43-.03-.83-.06-1.65-.13-2.47-.22-.12,0-.24-.02-.36-.04-.89-.1-1.77-.22-2.64-.35-.17-.03-.33-.05-.5-.08-1.81-.29-3.58-.64-5.33-1.06-.12-.03-.24-.06-.35-.08-.88-.21-1.75-.44-2.61-.68-.06-.02-.12-.03-.18-.05-1.8-.51-3.56-1.08-5.27-1.71-.04,0-.08-.03-.11-.04-6.15-2.25-11.67-5.16-16.18-8.27l7.05-7.07,4.1-4.12h80.48c-.89.93-1.78,1.83-2.69,2.7-.04.04-.09.08-.13.13-.87.84-1.74,1.65-2.62,2.44-.08.07-.16.14-.24.22-.85.76-1.71,1.49-2.57,2.2-.12.1-.23.19-.35.29-.83.68-1.67,1.33-2.51,1.97-.16.12-.31.23-.47.35-.81.6-1.63,1.19-2.45,1.75-.19.13-.38.26-.58.39-.79.53-1.58,1.05-2.38,1.54-.23.14-.46.28-.69.42-.77.47-1.54.92-2.32,1.35-.27.15-.54.29-.81.44-.75.4-1.49.79-2.24,1.16-.31.15-.63.3-.94.45-.72.34-1.44.67-2.17.99-.35.15-.71.29-1.07.44-.69.28-1.39.56-2.09.82-.4.15-.81.28-1.21.42-.66.23-1.33.46-1.99.67-.45.14-.91.26-1.36.39-.63.18-1.25.36-1.88.52-.51.13-1.03.24-1.54.35-.59.13-1.17.27-1.76.39-.58.11-1.17.2-1.76.3-.53.09-1.05.19-1.58.26-.7.1-1.42.17-2.13.24-.42.04-.84.1-1.26.14-1.14.1-2.28.16-3.43.2-.92.03-1.84.02-2.75,0v-.02Z"/>
    </g>
  </g>
</svg>