<?xml version="1.0" encoding="UTF-8"?>
<svg id="logotipo_gestión_claudia_bordini" xmlns="http://www.w3.org/2000/svg" version="1.1" viewBox="0 0 898.28 427.03">
  <!-- Generator: Adobe Illustrator 30.5.1, SVG Export Plug-In . SVG Version: 2.1.4 Build 3)  -->
  <defs>
    <style>
      .st0 {
        fill: #fff;
      }
    </style>
  </defs>
  <circle class="st0" cx="195.99" cy="41.32" r="41.32"/>
  <path class="st0" d="M0,123.95c22.6-29.66,72.39-50.85,136.67-36.02,64.27,14.83,146.55,36.73,184.34,36.73,23.66,0,67.8-10.59,95.35-47.32-19.07,46.26-48.67,83.52-109.12,87.23-34.61,2.12-88.32,9.69-114.42,60.39-12.36,24.01-19.42,34.96-18.72,75.93-21.89-7.77-59.72-27.53-76.63-80.52-12.01-37.61-4.83-69.14-1.41-74.69,2.12-3.44,1.59-5.12.62-6-.97-.88-2.83.79-4.86,4.77-2.03,3.97-3.97,8.56-5.03,13.24-7.24-6.8-32.93-35.49-86.78-33.72Z"/>
  <g>
    <path class="st0" d="M424.76,160.58v22.79c0,.43-.08.84-.25,1.23-.17.39-.4.72-.69,1-.29.27-.63.49-1.01.66-.38.17-.8.25-1.25.25s-.84-.08-1.23-.25c-.39-.17-.73-.39-1.01-.66-.28-.27-.51-.61-.67-1-.17-.39-.25-.8-.25-1.23v-31.26c0-.45.08-.87.25-1.25.17-.38.4-.71.69-1,.29-.28.64-.5,1.03-.66s.8-.23,1.23-.23c.84,0,1.59.3,2.26.91l12.7,15.07,12.64-15.07c.27-.25.61-.47,1.01-.64.4-.18.79-.26,1.16-.26h.24c.43.02.83.12,1.2.29.37.18.7.4.98.67s.5.6.66.97c.16.37.24.77.24,1.2v31.26c0,.43-.08.84-.25,1.23-.17.39-.4.72-.69,1-.29.27-.63.49-1.01.66-.38.17-.8.25-1.25.25s-.84-.08-1.22-.25c-.38-.17-.72-.39-1.01-.66-.29-.27-.52-.61-.69-1-.17-.39-.25-.8-.25-1.23v-22.82l-9.68,11.5c-.27.27-.6.5-.97.69-.37.19-.75.28-1.14.28-.76,0-1.44-.31-2.02-.94h-.03v-.03l-9.71-11.47Z"/>
    <path class="st0" d="M467.31,170.17c0,1.45.29,2.8.88,4.05.59,1.25,1.38,2.34,2.38,3.27,1,.93,2.15,1.66,3.46,2.2s2.68.81,4.11.81,2.77-.27,4.02-.81c1.25-.54,2.34-1.27,3.26-2.2.92-.93,1.65-2.02,2.18-3.27.54-1.25.81-2.6.81-4.05v-18.06c0-.45.08-.87.25-1.25.17-.38.4-.71.69-1,.29-.28.64-.5,1.03-.66.39-.16.8-.23,1.23-.23s.86.08,1.25.23c.38.16.71.38,1,.66.28.28.51.62.67,1,.17.38.25.8.25,1.25v18.06c0,2.29-.44,4.45-1.3,6.48-.87,2.03-2.06,3.8-3.56,5.31-1.5,1.51-3.27,2.7-5.29,3.58-2.02.88-4.19,1.32-6.49,1.32s-4.5-.44-6.57-1.32c-2.07-.88-3.9-2.07-5.47-3.58-1.57-1.51-2.82-3.27-3.74-5.31-.92-2.03-1.38-4.19-1.38-6.48v-18.01c0-.45.08-.86.25-1.25.17-.38.39-.71.67-1s.62-.51,1.01-.67c.39-.17.8-.25,1.23-.25s.86.08,1.25.25c.38.17.72.39,1.01.67.29.28.52.62.69,1,.17.38.25.8.25,1.25v18.01Z"/>
    <path class="st0" d="M507.4,160.67v22.7c0,.43-.08.84-.25,1.23-.17.39-.4.72-.69,1-.29.27-.63.49-1.01.66-.38.17-.8.25-1.25.25s-.84-.08-1.23-.25c-.39-.17-.73-.39-1.01-.66-.28-.27-.51-.61-.67-1-.17-.39-.25-.8-.25-1.23v-31.17c0-.84.27-1.55.82-2.14.25-.33.58-.6.97-.79s.85-.29,1.38-.29c.47,0,.92.1,1.36.31.44.21.83.5,1.16.89l20.29,24.37v-22.43c0-.45.09-.87.26-1.25.18-.38.41-.71.7-.98.29-.27.64-.49,1.03-.66.39-.17.81-.25,1.26-.25s.86.08,1.23.25.7.39.98.66c.28.27.5.6.66.98.16.38.23.8.23,1.25v31.26c0,.51-.11.98-.32,1.41-.22.43-.51.78-.88,1.06-.24.22-.5.38-.81.5-.3.12-.65.18-1.04.18h-.18c-.47-.02-.88-.13-1.23-.34-.35-.21-.69-.5-1-.89l-20.53-24.6Z"/>
    <path class="st0" d="M546.96,183.37c0,.43-.08.84-.25,1.23-.17.39-.4.72-.69,1-.29.27-.63.49-1.01.66-.38.17-.8.25-1.25.25s-.84-.08-1.23-.25c-.39-.17-.73-.39-1.01-.66-.28-.27-.51-.61-.67-1-.17-.39-.25-.8-.25-1.23v-31.26c0-.45.08-.87.25-1.25.17-.38.39-.71.67-1,.28-.28.62-.5,1.01-.66.39-.16.8-.23,1.23-.23s.87.08,1.25.23.72.38,1.01.66c.29.28.52.62.69,1,.17.38.25.8.25,1.25v31.26Z"/>
    <path class="st0" d="M584.47,154.34c.63.63.94,1.36.94,2.21s-.31,1.59-.94,2.21c-.31.31-.67.55-1.07.7s-.81.23-1.22.23-.81-.07-1.19-.22c-.38-.15-.72-.37-1.01-.66-1.27-1.27-2.68-2.21-4.24-2.83s-3.16-.92-4.82-.92-3.35.33-4.88.98c-1.54.65-2.87,1.55-4.02,2.7-1.14,1.14-2.05,2.49-2.73,4.03-.67,1.54-1.01,3.21-1.01,4.99s.32,3.32.95,4.85c.64,1.54,1.52,2.88,2.64,4.05,1.12,1.16,2.45,2.09,3.99,2.79,1.53.69,3.19,1.05,4.97,1.07,1.8,0,3.44-.31,4.93-.92s2.87-1.55,4.16-2.8c.29-.29.64-.51,1.03-.66.39-.15.8-.22,1.23-.22.39,0,.78.07,1.17.22.39.15.73.36,1.03.63.31.31.55.66.7,1.06.16.39.23.79.23,1.2s-.08.81-.23,1.2c-.16.39-.38.73-.67,1.03-1.9,1.9-4.01,3.31-6.35,4.24s-4.76,1.39-7.26,1.39c-1.72,0-3.39-.23-5-.69s-3.12-1.1-4.52-1.92c-1.4-.82-2.67-1.81-3.83-2.98-1.15-1.16-2.14-2.45-2.96-3.87-.82-1.42-1.46-2.94-1.91-4.56-.45-1.62-.67-3.3-.67-5.04s.22-3.32.65-4.91c.43-1.59,1.04-3.09,1.83-4.5.79-1.41,1.75-2.71,2.89-3.9s2.41-2.22,3.81-3.08c1.41-.86,2.94-1.53,4.6-2.01,1.66-.48,3.41-.72,5.25-.72,2.46,0,4.86.47,7.19,1.41,2.33.94,4.44,2.35,6.33,4.22Z"/>
    <path class="st0" d="M597.23,183.37c0,.43-.08.84-.25,1.23-.17.39-.4.72-.69,1-.29.27-.63.49-1.01.66-.38.17-.8.25-1.25.25s-.84-.08-1.23-.25c-.39-.17-.73-.39-1.01-.66-.28-.27-.51-.61-.67-1-.17-.39-.25-.8-.25-1.23v-31.26c0-.45.08-.87.25-1.25.17-.38.39-.71.67-1,.28-.28.62-.5,1.01-.66.39-.16.8-.23,1.23-.23s.87.08,1.25.23.72.38,1.01.66c.29.28.52.62.69,1,.17.38.25.8.25,1.25v31.26Z"/>
    <path class="st0" d="M618.22,148.97c1.96,0,3.78.37,5.48,1.1,1.7.73,3.19,1.73,4.46,2.99s2.27,2.75,3.01,4.46c.73,1.71,1.1,3.53,1.1,5.47s-.37,3.74-1.1,5.42c-.73,1.68-1.74,3.15-3.01,4.41-1.27,1.26-2.76,2.25-4.47,2.98-1.71.72-3.54,1.09-5.5,1.09h-7.54v6.48c0,.43-.08.84-.25,1.23-.17.39-.4.72-.69,1-.29.27-.63.49-1.01.66-.38.17-.8.25-1.25.25s-.84-.08-1.23-.25c-.39-.17-.73-.39-1.01-.66-.28-.27-.51-.61-.67-1-.17-.39-.25-.8-.25-1.23v-31.2c0-.45.08-.87.25-1.26.17-.39.39-.73.67-1.01.28-.28.62-.51,1.01-.67.39-.17.8-.25,1.23-.25h10.76ZM610.66,155.34v15.19h7.65c1.06,0,2.05-.21,2.98-.62.93-.41,1.73-.96,2.42-1.66.68-.69,1.22-1.5,1.61-2.4.39-.91.59-1.86.59-2.86s-.2-1.96-.6-2.87c-.4-.92-.94-1.74-1.63-2.45-.69-.71-1.49-1.28-2.41-1.7-.92-.42-1.91-.63-2.96-.63h-7.65Z"/>
    <path class="st0" d="M656.37,179.32h-16.77l-2.2,5.28c-.27.63-.67,1.1-1.19,1.42s-1.09.48-1.72.48c-.43,0-.89-.1-1.38-.29-.43-.18-.78-.41-1.06-.72-.27-.3-.47-.64-.6-1.01s-.18-.77-.15-1.2c.03-.43.13-.85.31-1.26l13.4-31.11c.27-.63.66-1.1,1.17-1.44.51-.33,1.1-.5,1.76-.5.63,0,1.19.17,1.7.5.51.33.9.8,1.17,1.41l13.49,31.14c.35.82.41,1.63.16,2.43s-.78,1.39-1.6,1.76c-.41.2-.86.29-1.35.29-.63,0-1.2-.17-1.73-.5-.53-.33-.93-.8-1.2-1.41l-2.23-5.28ZM642.15,172.96h11.58l-5.75-13.81-5.84,13.81Z"/>
    <path class="st0" d="M674.79,180.14l16.28.03c.45,0,.86.08,1.25.25.38.17.71.4,1,.69s.51.63.67,1.01c.17.38.25.8.25,1.25,0,.92-.3,1.67-.91,2.26-.61.59-1.36.88-2.26.88h-19.81c-.11,0-.21-.02-.31-.06-.08,0-.16-.02-.24-.06-.67-.18-1.21-.54-1.64-1.08s-.65-1.19-.65-1.94v-31.26c0-.45.08-.87.25-1.25.17-.38.39-.71.67-.98.28-.27.62-.49,1.01-.66.39-.17.8-.25,1.23-.25s.87.08,1.25.25.72.39,1.01.66c.29.27.52.6.69.98.17.38.25.8.25,1.25v28.04Z"/>
    <path class="st0" d="M705.2,183.37c0,.43-.08.84-.25,1.23-.17.39-.4.72-.69,1-.29.27-.63.49-1.01.66-.38.17-.8.25-1.25.25s-.84-.08-1.23-.25c-.39-.17-.73-.39-1.01-.66-.28-.27-.51-.61-.67-1-.17-.39-.25-.8-.25-1.23v-31.26c0-.45.08-.87.25-1.25.17-.38.39-.71.67-1,.28-.28.62-.5,1.01-.66.39-.16.8-.23,1.23-.23s.87.08,1.25.23.72.38,1.01.66c.29.28.52.62.69,1,.17.38.25.8.25,1.25v31.26Z"/>
    <path class="st0" d="M715.44,186.51c-.43,0-.84-.08-1.23-.25-.39-.17-.73-.39-1.01-.66-.28-.27-.51-.61-.67-1-.17-.39-.25-.8-.25-1.23v-31.26c0-.45.08-.87.25-1.25.17-.38.39-.71.67-1,.28-.28.62-.5,1.01-.66.39-.16.8-.23,1.23-.23h10.29c1.72,0,3.39.22,5,.67,1.61.45,3.12,1.09,4.53,1.91s2.7,1.81,3.87,2.96c1.17,1.15,2.18,2.42,3.02,3.81.84,1.39,1.49,2.88,1.95,4.49.46,1.6.69,3.27.69,4.99,0,2.58-.51,5-1.52,7.27-1.02,2.27-2.39,4.25-4.13,5.95-1.74,1.7-3.76,3.04-6.07,4.02s-4.75,1.47-7.33,1.47h-10.29ZM718.63,155.34v24.81h7.24c1.74,0,3.37-.34,4.88-1.01,1.52-.67,2.85-1.57,3.99-2.7,1.14-1.12,2.04-2.43,2.7-3.91s.98-3.04.98-4.66-.33-3.22-.98-4.72c-.65-1.51-1.55-2.83-2.7-3.99-1.14-1.15-2.47-2.08-3.99-2.77-1.51-.69-3.14-1.04-4.88-1.04h-7.24Z"/>
    <path class="st0" d="M771.07,179.32h-16.77l-2.2,5.28c-.27.63-.67,1.1-1.19,1.42s-1.09.48-1.72.48c-.43,0-.89-.1-1.38-.29-.43-.18-.78-.41-1.06-.72-.27-.3-.47-.64-.6-1.01s-.18-.77-.15-1.2c.03-.43.13-.85.31-1.26l13.4-31.11c.27-.63.66-1.1,1.17-1.44.51-.33,1.1-.5,1.76-.5.63,0,1.19.17,1.7.5.51.33.9.8,1.17,1.41l13.49,31.14c.35.82.41,1.63.16,2.43s-.78,1.39-1.6,1.76c-.41.2-.86.29-1.35.29-.63,0-1.2-.17-1.73-.5-.53-.33-.93-.8-1.2-1.41l-2.23-5.28ZM756.84,172.96h11.58l-5.75-13.81-5.84,13.81Z"/>
    <path class="st0" d="M786.29,186.51c-.43,0-.84-.08-1.23-.25-.39-.17-.73-.39-1.01-.66-.28-.27-.51-.61-.67-1-.17-.39-.25-.8-.25-1.23v-31.26c0-.45.08-.87.25-1.25.17-.38.39-.71.67-1,.28-.28.62-.5,1.01-.66.39-.16.8-.23,1.23-.23h10.29c1.72,0,3.39.22,5,.67,1.61.45,3.12,1.09,4.53,1.91s2.7,1.81,3.87,2.96c1.17,1.15,2.18,2.42,3.02,3.81.84,1.39,1.49,2.88,1.95,4.49.46,1.6.69,3.27.69,4.99,0,2.58-.51,5-1.52,7.27-1.02,2.27-2.39,4.25-4.13,5.95-1.74,1.7-3.76,3.04-6.07,4.02s-4.75,1.47-7.33,1.47h-10.29ZM789.48,155.34v24.81h7.24c1.74,0,3.37-.34,4.88-1.01,1.52-.67,2.85-1.57,3.99-2.7,1.14-1.12,2.04-2.43,2.7-3.91s.98-3.04.98-4.66-.33-3.22-.98-4.72c-.65-1.51-1.55-2.83-2.7-3.99-1.14-1.15-2.47-2.08-3.99-2.77-1.51-.69-3.14-1.04-4.88-1.04h-7.24Z"/>
    <path class="st0" d="M836.96,186.51c-.43,0-.84-.08-1.23-.25-.39-.17-.73-.39-1.01-.66-.28-.27-.51-.61-.67-1-.17-.39-.25-.8-.25-1.23v-31.26c0-.45.08-.87.25-1.25.17-.38.39-.71.67-1,.28-.28.62-.5,1.01-.66.39-.16.8-.23,1.23-.23h10.29c1.72,0,3.39.22,5,.67,1.61.45,3.12,1.09,4.53,1.91s2.7,1.81,3.87,2.96c1.17,1.15,2.18,2.42,3.02,3.81.84,1.39,1.49,2.88,1.95,4.49.46,1.6.69,3.27.69,4.99,0,2.58-.51,5-1.52,7.27-1.02,2.27-2.39,4.25-4.13,5.95-1.74,1.7-3.76,3.04-6.07,4.02s-4.75,1.47-7.33,1.47h-10.29ZM840.16,155.34v24.81h7.24c1.74,0,3.37-.34,4.88-1.01,1.52-.67,2.85-1.57,3.99-2.7,1.14-1.12,2.04-2.43,2.7-3.91s.98-3.04.98-4.66-.33-3.22-.98-4.72c-.65-1.51-1.55-2.83-2.7-3.99-1.14-1.15-2.47-2.08-3.99-2.77-1.51-.69-3.14-1.04-4.88-1.04h-7.24Z"/>
    <path class="st0" d="M874.2,186.51c-.84-.08-1.54-.41-2.1-.98s-.84-1.3-.84-2.18v-31.17c0-.45.08-.87.25-1.26.17-.39.39-.73.67-1.01.28-.28.62-.51,1.01-.67.39-.17.81-.25,1.26-.25h20.53c.45,0,.86.08,1.25.25.38.17.71.39.98.67.27.28.49.62.66,1.01.17.39.25.81.25,1.26s-.08.84-.25,1.23-.39.73-.66,1.01c-.27.28-.6.51-.98.67-.38.17-.8.25-1.25.25h-17.36v8.74h13.58c.45,0,.86.08,1.25.25.38.17.71.4,1,.69s.51.64.67,1.03c.17.39.25.81.25,1.26s-.08.84-.25,1.22c-.17.38-.39.71-.67,1-.28.28-.61.5-1,.66-.38.16-.8.23-1.25.23h-13.58v9.74h17.36c.45,0,.86.08,1.25.25.38.17.71.4.98.69.27.29.49.64.66,1.03s.25.81.25,1.26c0,.92-.3,1.67-.9,2.26-.6.59-1.34.88-2.24.88h-20.79Z"/>
  </g>
  <g>
    <path class="st0" d="M334.26,281.31l36.99.07c1.02,0,1.97.19,2.83.57.87.38,1.62.9,2.27,1.57.64.67,1.15,1.43,1.53,2.3.38.87.57,1.81.57,2.83,0,2.09-.69,3.8-2.07,5.13-1.38,1.33-3.09,2-5.13,2h-45.02c-.25,0-.48-.04-.7-.13-.18,0-.36-.04-.53-.13-1.51-.4-2.76-1.22-3.73-2.47-.98-1.24-1.47-2.71-1.47-4.4v-71.05c0-1.02.19-1.97.57-2.83.38-.87.89-1.61,1.53-2.23.64-.62,1.41-1.12,2.3-1.5.89-.38,1.82-.57,2.8-.57s1.97.19,2.83.57c.87.38,1.63.88,2.3,1.5.67.62,1.19,1.37,1.57,2.23.38.87.57,1.81.57,2.83v63.72Z"/>
    <path class="st0" d="M381.25,264.78c0-4.4.84-8.52,2.53-12.36,1.69-3.84,3.98-7.21,6.87-10.1s6.25-5.16,10.1-6.83c3.84-1.67,7.94-2.5,12.3-2.5s8.53.83,12.4,2.5,7.23,3.94,10.1,6.83c2.87,2.89,5.12,6.26,6.77,10.1,1.64,3.84,2.47,7.96,2.47,12.36v23.6c0,1.02-.19,1.98-.57,2.87-.38.89-.9,1.67-1.57,2.33-.67.67-1.46,1.2-2.37,1.6s-1.88.6-2.9.6c-1.73,0-3.2-.51-4.4-1.53-1.2-1.02-2-2.31-2.4-3.87-2.53,1.91-5.28,3.42-8.23,4.53-2.96,1.11-6.05,1.67-9.3,1.67-4.36,0-8.45-.83-12.3-2.5-3.84-1.67-7.21-3.94-10.1-6.83-2.89-2.89-5.18-6.27-6.87-10.13-1.69-3.87-2.53-7.98-2.53-12.33ZM395.72,264.78c0,2.36.46,4.59,1.37,6.7.91,2.11,2.15,3.96,3.73,5.53,1.58,1.58,3.41,2.82,5.5,3.73,2.09.91,4.33,1.37,6.73,1.37s4.65-.45,6.77-1.37c2.11-.91,3.94-2.16,5.5-3.73,1.55-1.58,2.78-3.42,3.67-5.53.89-2.11,1.33-4.34,1.33-6.7s-.45-4.65-1.33-6.77c-.89-2.11-2.11-3.94-3.67-5.5-1.56-1.55-3.39-2.79-5.5-3.7-2.11-.91-4.37-1.37-6.77-1.37s-4.59.46-6.7,1.37c-2.11.91-3.96,2.14-5.53,3.7-1.58,1.56-2.82,3.39-3.73,5.5-.91,2.11-1.37,4.37-1.37,6.77Z"/>
    <path class="st0" d="M516.81,224.92v63.72c0,.98-.19,1.91-.57,2.8-.38.89-.9,1.65-1.57,2.27-.67.62-1.44,1.12-2.33,1.5-.89.38-1.84.57-2.87.57s-1.9-.19-2.77-.57c-.87-.38-1.62-.88-2.27-1.5-.65-.62-1.16-1.38-1.53-2.27-.38-.89-.57-1.82-.57-2.8v-63.72h-19.93c-.98,0-1.91-.19-2.8-.57-.89-.38-1.66-.9-2.3-1.57-.65-.67-1.16-1.44-1.53-2.33-.38-.89-.57-1.82-.57-2.8s.19-1.97.57-2.83c.38-.87.89-1.62,1.53-2.27.64-.64,1.41-1.16,2.3-1.53.89-.38,1.82-.57,2.8-.57h54.32c1.02,0,1.97.19,2.83.57.87.38,1.62.9,2.27,1.57s1.15,1.43,1.53,2.3c.38.87.57,1.81.57,2.83s-.19,1.97-.57,2.83c-.38.87-.89,1.62-1.53,2.27s-1.4,1.16-2.27,1.53c-.87.38-1.81.57-2.83.57h-19.93Z"/>
    <path class="st0" d="M538.69,264.78c0-4.4.84-8.52,2.53-12.36,1.69-3.84,3.98-7.21,6.86-10.1s6.25-5.16,10.1-6.83c3.84-1.67,7.94-2.5,12.3-2.5s8.53.83,12.4,2.5c3.87,1.67,7.23,3.94,10.1,6.83,2.87,2.89,5.12,6.26,6.76,10.1s2.47,7.96,2.47,12.36-.82,8.46-2.47,12.33-3.9,7.24-6.76,10.13c-2.87,2.89-6.23,5.16-10.1,6.83-3.86,1.67-8,2.5-12.4,2.5s-8.45-.83-12.3-2.5c-3.84-1.67-7.21-3.94-10.1-6.83-2.89-2.89-5.18-6.27-6.86-10.13-1.69-3.87-2.53-7.98-2.53-12.33ZM553.15,264.78c0,2.36.46,4.59,1.37,6.7.91,2.11,2.15,3.96,3.73,5.53,1.58,1.58,3.41,2.82,5.5,3.73,2.09.91,4.33,1.37,6.73,1.37s4.65-.45,6.77-1.37c2.11-.91,3.94-2.16,5.5-3.73,1.55-1.58,2.78-3.42,3.67-5.53.89-2.11,1.33-4.34,1.33-6.7s-.45-4.65-1.33-6.77c-.89-2.11-2.11-3.94-3.67-5.5-1.56-1.55-3.39-2.79-5.5-3.7-2.11-.91-4.37-1.37-6.77-1.37s-4.59.46-6.7,1.37c-2.11.91-3.96,2.14-5.53,3.7-1.58,1.56-2.82,3.39-3.73,5.5-.91,2.11-1.37,4.37-1.37,6.77Z"/>
    <path class="st0" d="M625.4,288.64c0,.98-.18,1.91-.53,2.8-.36.89-.86,1.65-1.5,2.27-.65.62-1.39,1.12-2.23,1.5-.84.38-1.76.57-2.73.57s-1.99-.19-2.9-.57c-.91-.38-1.7-.88-2.37-1.5-.67-.62-1.2-1.38-1.6-2.27-.4-.89-.6-1.82-.6-2.8v-21.53c0-4.58.88-8.89,2.63-12.93,1.75-4.04,4.14-7.58,7.16-10.6s6.55-5.41,10.6-7.17c4.04-1.75,8.33-2.63,12.86-2.63h.13c2.4,0,4.25.68,5.57,2.03,1.31,1.36,1.97,3.08,1.97,5.17,0,1.02-.2,1.98-.6,2.87-.4.89-.94,1.66-1.63,2.3-.69.65-1.49,1.16-2.4,1.53-.91.38-1.88.57-2.9.57h-.13c-2.53,0-4.94.49-7.23,1.47-2.29.98-4.28,2.31-5.97,4-1.69,1.69-3.04,3.67-4.07,5.93-1.02,2.27-1.53,4.69-1.53,7.27v21.73Z"/>
    <path class="st0" d="M717.72,265.04c-.05,4.31-.91,8.39-2.6,12.23-1.69,3.84-3.97,7.19-6.83,10.03-2.87,2.84-6.22,5.1-10.06,6.76-3.84,1.67-7.94,2.5-12.3,2.5s-8.52-.83-12.36-2.5-7.2-3.94-10.06-6.83c-2.87-2.89-5.13-6.27-6.8-10.13s-2.5-7.98-2.5-12.33.83-8.53,2.5-12.4,3.93-7.23,6.8-10.1,6.22-5.13,10.06-6.8,7.96-2.5,12.36-2.5c3.2,0,6.25.46,9.17,1.37,2.91.91,5.63,2.19,8.17,3.83v-20.8c0-1.07.18-2.06.53-2.97.35-.91.85-1.71,1.5-2.4.64-.69,1.4-1.22,2.27-1.6.87-.38,1.83-.57,2.9-.57s1.98.19,2.87.57c.89.38,1.65.91,2.3,1.6.64.69,1.15,1.49,1.53,2.4.38.91.57,1.9.57,2.97v47.66ZM703.26,264.78c0-2.4-.46-4.65-1.37-6.77-.91-2.11-2.16-3.94-3.73-5.5-1.58-1.55-3.41-2.79-5.5-3.7-2.09-.91-4.33-1.37-6.73-1.37s-4.64.46-6.73,1.37c-2.09.91-3.92,2.14-5.5,3.7-1.58,1.56-2.81,3.39-3.7,5.5-.89,2.11-1.33,4.37-1.33,6.77s.44,4.59,1.33,6.7c.89,2.11,2.11,3.96,3.67,5.53,1.55,1.58,3.39,2.82,5.5,3.73,2.11.91,4.37,1.37,6.76,1.37s4.64-.45,6.73-1.37,3.92-2.16,5.5-3.73c1.58-1.58,2.82-3.42,3.73-5.53.91-2.11,1.37-4.34,1.37-6.7Z"/>
    <path class="st0" d="M732.05,219.05c0-1.11.21-2.16.63-3.13.42-.98.99-1.82,1.7-2.53s1.55-1.28,2.53-1.7c.98-.42,2-.63,3.07-.63s2.09.21,3.07.63c.98.42,1.83.99,2.57,1.7.73.71,1.31,1.56,1.73,2.53s.63,2.02.63,3.13-.21,2.08-.63,3.03c-.42.96-1,1.79-1.73,2.5s-1.59,1.28-2.57,1.7c-.98.42-2,.63-3.07.63s-2.09-.21-3.07-.63c-.98-.42-1.82-.99-2.53-1.7-.71-.71-1.28-1.54-1.7-2.5-.42-.95-.63-1.97-.63-3.03ZM747.24,288.57c0,.98-.19,1.91-.57,2.8-.38.89-.89,1.66-1.53,2.3s-1.4,1.16-2.27,1.53c-.87.38-1.81.57-2.83.57s-1.91-.19-2.8-.57c-.89-.38-1.67-.89-2.33-1.53s-1.19-1.41-1.57-2.3c-.38-.89-.57-1.82-.57-2.8v-47.59c0-.98.2-1.9.6-2.77.4-.87.93-1.63,1.6-2.3.67-.67,1.44-1.19,2.33-1.57.89-.38,1.84-.57,2.87-.57s1.96.19,2.8.57c.84.38,1.59.9,2.23,1.57.64.67,1.14,1.43,1.5,2.3.36.87.53,1.79.53,2.77v47.59Z"/>
    <path class="st0" d="M783.97,281.31c1.02,0,1.98.2,2.87.6.89.4,1.64.94,2.27,1.63.62.69,1.11,1.48,1.47,2.37.36.89.53,1.82.53,2.8,0,2.04-.67,3.73-2,5.07s-3.04,2-5.13,2c-3.02,0-5.86-.51-8.5-1.53s-4.96-2.44-6.97-4.27c-2-1.82-3.58-4.02-4.73-6.6-1.16-2.58-1.78-5.42-1.87-8.53v-57.72c0-1.02.19-1.98.57-2.87.38-.89.88-1.66,1.5-2.3.62-.64,1.36-1.16,2.2-1.53.84-.38,1.75-.57,2.73-.57s1.98.19,2.87.57,1.68.89,2.37,1.53c.69.64,1.23,1.41,1.63,2.3s.6,1.84.6,2.87v57.26c0,2.31.71,4.04,2.13,5.2,1.42,1.16,3.24,1.73,5.47,1.73Z"/>
    <path class="st0" d="M822.36,281.31c1.02,0,1.98.2,2.87.6.89.4,1.64.94,2.27,1.63.62.69,1.11,1.48,1.47,2.37.36.89.53,1.82.53,2.8,0,2.04-.67,3.73-2,5.07s-3.04,2-5.13,2c-3.02,0-5.86-.51-8.5-1.53s-4.96-2.44-6.97-4.27c-2-1.82-3.58-4.02-4.73-6.6-1.16-2.58-1.78-5.42-1.87-8.53v-57.72c0-1.02.19-1.98.57-2.87.38-.89.88-1.66,1.5-2.3.62-.64,1.36-1.16,2.2-1.53.84-.38,1.75-.57,2.73-.57s1.98.19,2.87.57,1.68.89,2.37,1.53c.69.64,1.23,1.41,1.63,2.3s.6,1.84.6,2.87v57.26c0,2.31.71,4.04,2.13,5.2,1.42,1.16,3.24,1.73,5.47,1.73Z"/>
    <path class="st0" d="M834.76,264.78c0-4.4.84-8.52,2.53-12.36,1.69-3.84,3.98-7.21,6.86-10.1s6.25-5.16,10.1-6.83c3.84-1.67,7.94-2.5,12.3-2.5s8.53.83,12.4,2.5c3.87,1.67,7.23,3.94,10.1,6.83,2.87,2.89,5.12,6.26,6.76,10.1s2.47,7.96,2.47,12.36v23.6c0,1.02-.19,1.98-.57,2.87-.38.89-.9,1.67-1.57,2.33s-1.46,1.2-2.37,1.6c-.91.4-1.88.6-2.9.6-1.73,0-3.2-.51-4.4-1.53-1.2-1.02-2-2.31-2.4-3.87-2.53,1.91-5.28,3.42-8.23,4.53-2.96,1.11-6.05,1.67-9.3,1.67-4.36,0-8.45-.83-12.3-2.5-3.84-1.67-7.21-3.94-10.1-6.83-2.89-2.89-5.18-6.27-6.86-10.13-1.69-3.87-2.53-7.98-2.53-12.33ZM849.22,264.78c0,2.36.46,4.59,1.37,6.7.91,2.11,2.15,3.96,3.73,5.53,1.58,1.58,3.41,2.82,5.5,3.73,2.09.91,4.33,1.37,6.73,1.37s4.65-.45,6.77-1.37c2.11-.91,3.94-2.16,5.5-3.73,1.55-1.58,2.78-3.42,3.67-5.53.89-2.11,1.33-4.34,1.33-6.7s-.45-4.65-1.33-6.77c-.89-2.11-2.11-3.94-3.67-5.5-1.56-1.55-3.39-2.79-5.5-3.7-2.11-.91-4.37-1.37-6.77-1.37s-4.59.46-6.7,1.37c-2.11.91-3.96,2.14-5.53,3.7-1.58,1.56-2.82,3.39-3.73,5.5-.91,2.11-1.37,4.37-1.37,6.77Z"/>
  </g>
  <g>
    <path class="st0" d="M78,409.01c0-.37.1-.67.31-.89.2-.22.51-.33.92-.33h4.55c.32,0,.61.11.89.33.28.22.42.52.42.89v12.82c0,.22-.06.44-.17.64-.11.21-.32.4-.61.59-.02,0-.03,0-.03.01s0,.01-.03.01c-.88.61-1.82,1.16-2.82,1.65-1,.48-2.06.89-3.16,1.21-1.1.33-2.23.58-3.38.75-1.15.18-2.31.27-3.46.27-1.95,0-3.84-.25-5.67-.75-1.82-.5-3.52-1.22-5.1-2.15-1.57-.93-3.01-2.04-4.3-3.34-1.29-1.29-2.41-2.73-3.34-4.3-.93-1.57-1.65-3.27-2.15-5.08-.5-1.81-.75-3.71-.75-5.68s.25-3.84.75-5.65c.5-1.81,1.22-3.51,2.15-5.1s2.04-3.02,3.34-4.33c1.29-1.3,2.73-2.42,4.31-3.35,1.58-.93,3.28-1.65,5.1-2.16,1.82-.51,3.71-.77,5.68-.77,1.32,0,2.64.12,3.95.35s2.58.58,3.81,1.05c.47.19,1.02.42,1.66.7.64.28,1.25.59,1.83.92.58.34,1.07.68,1.47,1.03.4.35.6.7.6,1.03,0,.15-.08.39-.25.71-.17.32-.38.69-.63,1.1-.25.41-.54.83-.85,1.27s-.62.83-.92,1.19-.57.65-.81.88-.43.35-.56.35c-.11,0-.25-.02-.4-.07s-.32-.13-.49-.26c-1.17-.82-2.49-1.47-3.97-1.96s-2.97-.73-4.5-.73c-1.99,0-3.82.37-5.47,1.12-1.66.75-3.08,1.75-4.27,3.02-1.19,1.27-2.12,2.73-2.79,4.4-.67,1.67-1,3.42-1,5.26s.36,3.68,1.08,5.35c.72,1.67,1.68,3.12,2.9,4.36,1.22,1.24,2.65,2.22,4.29,2.93,1.64.72,3.38,1.08,5.22,1.08.69,0,1.37-.05,2.04-.15s1.3-.23,1.88-.39c.59-.16,1.11-.33,1.58-.53.47-.2.85-.39,1.15-.57v-8.71Z"/>
    <path class="st0" d="M95.15,386.23c0-.89.41-1.34,1.23-1.34h26.92c.48,0,.83.14,1.03.41.2.27.31.61.31,1.02v4.93c0,.34-.12.64-.35.9-.23.26-.58.39-1.05.39h-19.85v8.46h15.3c.37-.04.67.04.89.24.22.2.33.53.33.99v5.06c0,.33-.09.63-.28.89-.19.26-.48.39-.89.39h-15.36v10.14h20.58c.52,0,.87.11,1.03.34s.25.57.25,1.04v5.1c0,.78-.41,1.18-1.23,1.18h-27.65c-.33,0-.62-.09-.87-.28-.24-.19-.36-.48-.36-.89v-38.96Z"/>
    <path class="st0" d="M156.92,395.94c-.24,0-.47-.06-.67-.18-.21-.12-.44-.28-.7-.49l-.06-.03c-.35-.35-.81-.74-1.37-1.17-.56-.43-1.18-.83-1.87-1.2-.69-.37-1.43-.69-2.22-.95-.79-.26-1.6-.39-2.42-.39-1.04,0-1.96.12-2.76.35s-1.47.55-2.01.95c-.54.4-.95.87-1.23,1.41s-.42,1.12-.42,1.73c0,.67.21,1.26.63,1.76s.99.95,1.7,1.34c.72.39,1.54.75,2.47,1.07.93.33,1.91.65,2.93.96,1.17.35,2.34.74,3.49,1.15,1.15.41,2.26.87,3.31,1.38,1.05.51,2.03,1.08,2.95,1.7.91.62,1.7,1.34,2.36,2.15.66.81,1.18,1.71,1.56,2.71.38,1,.57,2.12.57,3.36,0,2.03-.41,3.86-1.23,5.5s-1.95,3.04-3.39,4.2c-1.44,1.16-3.14,2.06-5.08,2.68-1.95.62-4.04.94-6.27.94-1.43,0-2.86-.17-4.27-.5-1.42-.34-2.77-.81-4.08-1.42-1.3-.61-2.54-1.35-3.7-2.22-1.16-.87-2.2-1.84-3.11-2.92v.03l-.06-.11c-.41-.47-.61-.89-.61-1.28,0-.2.06-.4.17-.59.11-.19.28-.39.5-.61l.92-.92c.28-.24.58-.51.89-.81.32-.3.63-.57.95-.81.32-.24.61-.45.88-.61.27-.17.49-.25.66-.25.26,0,.5.08.73.25.22.17.41.33.56.48l.11.11h-.03c.65.61,1.38,1.2,2.19,1.76s1.64,1.06,2.5,1.49c.86.44,1.71.78,2.56,1.03.85.25,1.64.38,2.39.38,1.02,0,1.98-.13,2.88-.39.89-.26,1.67-.63,2.32-1.1.65-.47,1.16-1.05,1.54-1.72.37-.67.56-1.42.56-2.23s-.24-1.52-.73-2.11c-.48-.59-1.12-1.1-1.9-1.54-.78-.44-1.66-.81-2.64-1.13s-1.96-.61-2.95-.89c-2.27-.69-4.26-1.43-5.96-2.23-1.7-.8-3.12-1.7-4.26-2.69-1.14-1-1.99-2.11-2.56-3.35-.57-1.24-.85-2.63-.85-4.17,0-1.73.35-3.31,1.05-4.73s1.69-2.64,2.97-3.66c1.28-1.02,2.83-1.81,4.64-2.37,1.81-.57,3.83-.85,6.06-.85,1.69,0,3.42.27,5.17.8s3.37,1.26,4.86,2.19c.45.28.9.6,1.37.95.47.35.89.71,1.28,1.08s.71.72.96,1.06.38.64.38.88c0,.22-.06.45-.17.68-.11.23-.25.44-.42.63l-.84.89v-.03c-.28.3-.57.61-.87.92-.3.32-.6.6-.89.85-.3.25-.57.46-.81.63-.24.17-.45.25-.61.25Z"/>
    <path class="st0" d="M168.95,386.11c0-.37.12-.67.36-.89s.55-.34.92-.34h29.38c.34,0,.64.1.91.31.27.21.42.51.46.92v4.89c0,.37-.12.7-.35.98-.23.28-.57.42-1.02.42h-10.61v32.67c0,.34-.12.63-.35.89-.23.26-.55.39-.96.39h-5.5c-.33,0-.64-.12-.91-.36-.27-.24-.4-.55-.4-.92v-32.67h-10.64c-.37,0-.68-.12-.92-.35-.24-.23-.36-.58-.36-1.05v-4.89Z"/>
    <path class="st0" d="M208.94,386.11c0-.34.1-.62.31-.87.2-.24.51-.36.92-.36h5.54c.32,0,.61.11.89.34.28.22.42.52.42.89v39.01c0,.82-.44,1.23-1.31,1.23h-5.54c-.82,0-1.22-.41-1.22-1.23v-39.01Z"/>
    <path class="st0" d="M225.83,405.66c0-1.95.25-3.84.75-5.67.5-1.82,1.22-3.53,2.15-5.11.93-1.58,2.04-3.02,3.34-4.33,1.29-1.3,2.73-2.41,4.31-3.34,1.58-.92,3.28-1.64,5.1-2.15s3.71-.77,5.68-.77,3.84.26,5.65.77c1.82.51,3.51,1.23,5.1,2.15,1.58.92,3.02,2.03,4.33,3.34,1.3,1.3,2.42,2.75,3.34,4.33.92,1.58,1.64,3.29,2.15,5.11.51,1.83.77,3.72.77,5.7s-.26,3.86-.77,5.67c-.51,1.81-1.23,3.5-2.15,5.08s-2.03,3.02-3.34,4.31c-1.3,1.29-2.75,2.4-4.33,3.32-1.58.92-3.28,1.63-5.1,2.14-1.81.5-3.71.75-5.68.75s-3.87-.25-5.68-.75c-1.81-.5-3.51-1.22-5.1-2.15-1.58-.93-3.02-2.04-4.31-3.34-1.29-1.29-2.4-2.73-3.32-4.3-.92-1.57-1.63-3.27-2.14-5.08s-.75-3.71-.75-5.68ZM233.9,405.61c0,1.88.34,3.64,1.02,5.28.68,1.64,1.61,3.06,2.79,4.27,1.18,1.21,2.58,2.17,4.19,2.88,1.61.71,3.36,1.06,5.24,1.06s3.6-.35,5.21-1.06c1.61-.71,3.01-1.67,4.2-2.88,1.19-1.21,2.13-2.63,2.81-4.27.68-1.64,1.02-3.4,1.02-5.28s-.34-3.61-1.02-5.25c-.68-1.64-1.62-3.07-2.81-4.29-1.19-1.22-2.59-2.18-4.2-2.89-1.61-.71-3.35-1.06-5.21-1.06s-3.63.35-5.24,1.06c-1.61.71-3.01,1.67-4.19,2.89-1.18,1.22-2.11,2.65-2.79,4.29-.68,1.64-1.02,3.39-1.02,5.25ZM246.3,372.77c.15-.41.36-.71.63-.89.27-.19.56-.28.88-.28h4.97c.3,0,.51.07.63.21.12.14.18.31.18.52,0,.15-.01.31-.04.49-.03.18-.08.35-.15.52l-2.65,5.92c-.35.78-.85,1.17-1.48,1.17h-4.36c-.32,0-.52-.07-.61-.22-.09-.15-.14-.33-.14-.53,0-.19,0-.37.03-.56s.07-.38.17-.59l1.95-5.75Z"/>
    <path class="st0" d="M277.24,386.14c0-.35.11-.65.32-.89.21-.24.52-.36.91-.36h6.42c.26,0,.51.06.74.18.23.12.44.31.63.57,3.18,4.54,6.34,9.05,9.47,13.53,3.13,4.48,6.28,8.99,9.47,13.53v-26.75c.06-.33.2-.59.42-.78.22-.19.49-.28.81-.28h5.39c.37,0,.69.11.96.34.27.22.4.52.4.89v39.09c0,.76-.44,1.15-1.31,1.15h-6.06c-.41,0-.79-.25-1.14-.75-3.28-4.75-6.54-9.49-9.79-14.23s-6.5-9.49-9.76-14.26v28.01c0,.41-.1.72-.29.92-.2.21-.53.31-.99.31h-5.36c-.43,0-.74-.11-.94-.32-.2-.21-.29-.51-.29-.88v-39.01Z"/>
    <path class="st0" d="M373.7,387.9c.22.13.41.29.56.47.15.19.22.41.22.67,0,.2-.06.42-.17.64l-2.71,4.61c-.32.43-.65.64-1,.64-.11,0-.24-.02-.39-.07-.15-.05-.3-.12-.45-.21-1.17-.84-2.43-1.49-3.77-1.96-1.34-.47-2.76-.7-4.27-.7-1.9,0-3.64.36-5.22,1.08-1.58.72-2.95,1.69-4.11,2.92-1.15,1.23-2.05,2.67-2.69,4.33-.64,1.66-.96,3.44-.96,5.33s.32,3.65.96,5.29c.64,1.65,1.54,3.09,2.69,4.32,1.15,1.23,2.52,2.2,4.11,2.9,1.58.71,3.32,1.06,5.22,1.06,1.51,0,2.95-.23,4.31-.7,1.37-.47,2.63-1.12,3.78-1.96.15-.11.3-.19.46-.22s.29-.07.4-.08c.32,0,.64.21.98.61l2.76,4.66c.11.22.17.43.17.61,0,.26-.08.48-.24.64-.16.17-.34.33-.54.47-1.75,1.17-3.63,2.08-5.65,2.72-2.02.64-4.15.96-6.38.96-1.97,0-3.87-.25-5.68-.75-1.81-.5-3.51-1.22-5.1-2.15-1.58-.93-3.02-2.04-4.31-3.34-1.29-1.29-2.41-2.73-3.34-4.3-.93-1.57-1.65-3.27-2.15-5.08-.5-1.81-.75-3.71-.75-5.68s.25-3.87.75-5.68c.5-1.81,1.22-3.52,2.15-5.11s2.04-3.04,3.34-4.34c1.29-1.3,2.73-2.41,4.31-3.34,1.58-.92,3.28-1.64,5.1-2.15,1.82-.51,3.71-.77,5.68-.77,2.21,0,4.32.31,6.31.94s3.86,1.52,5.61,2.69Z"/>
    <path class="st0" d="M383.5,386.11c0-.34.11-.62.33-.87s.54-.36.95-.36h5.54c.33,0,.63.11.88.32s.38.52.38.91v32.59h17.48c.34,0,.62.12.87.35.24.23.36.55.36.94v5.11c0,.33-.11.63-.33.88-.22.25-.52.38-.89.38h-24.33c-.82,0-1.22-.41-1.22-1.23v-39.01Z"/>
    <path class="st0" d="M411.98,425.32c.09-.37.2-.72.32-1.03s.23-.61.32-.87l15.05-37.48c.06-.2.21-.43.46-.68s.59-.38,1.02-.38h4.5c.45,0,.77.11.96.34.2.22.34.42.43.59l.92,2.18,14.74,36.89c0,.06.01.15.04.29.03.14.04.26.04.35,0,.56-.41.84-1.23.84h-5.5c-.41,0-.73-.08-.95-.25-.22-.17-.41-.43-.56-.78l-.5-1.28c-.35-.89-.71-1.79-1.06-2.68-.35-.89-.7-1.8-1.03-2.71h-17.23c-.48,1.3-.95,2.53-1.41,3.67-.46,1.15-.84,2.15-1.16,3-.26.69-.75,1.03-1.45,1.03h-5.59c-.35,0-.64-.07-.85-.2-.21-.13-.32-.33-.32-.59,0-.11,0-.2.03-.25ZM431.42,395.53c-1.01,2.57-2.01,5.23-3,7.99-1,2.76-2,5.41-3,7.96h11.9l-5.89-15.95Z"/>
    <path class="st0" d="M465.91,409.52c0,1.56.22,2.97.67,4.22.45,1.25,1.08,2.3,1.89,3.17.81.87,1.78,1.53,2.9,1.98,1.13.46,2.38.68,3.76.68,1.45,0,2.75-.24,3.91-.73s2.13-1.17,2.92-2.05c.79-.88,1.4-1.95,1.81-3.18.42-1.24.63-2.6.63-4.09v-23.4c0-.34.12-.62.36-.87.24-.24.55-.36.92-.36h5.4c.39,0,.72.12.99.36.27.24.4.53.4.87v23.71c0,2.89-.47,5.4-1.4,7.55s-2.18,3.94-3.77,5.37c-1.58,1.43-3.42,2.5-5.52,3.21-2.1.71-4.32,1.06-6.67,1.06s-4.57-.38-6.67-1.13c-2.1-.75-3.94-1.86-5.53-3.31-1.58-1.45-2.84-3.25-3.77-5.39s-1.4-4.6-1.4-7.37v-23.71c0-.3.11-.58.32-.84.21-.26.49-.39.82-.39h5.7c.28,0,.57.12.87.36s.45.53.45.87v23.4Z"/>
    <path class="st0" d="M537.73,405.66c0,1.94-.25,3.79-.76,5.57-.5,1.78-1.21,3.44-2.12,4.97-.91,1.54-2.01,2.93-3.28,4.17-1.28,1.25-2.7,2.31-4.26,3.2s-3.25,1.57-5.04,2.05c-1.8.48-3.67.73-5.63.73h-13.41c-.34,0-.63-.07-.89-.22-.26-.15-.39-.47-.39-.95v-38.98c0-.87.43-1.31,1.29-1.31h13.41c2.96,0,5.72.54,8.29,1.61s4.79,2.54,6.69,4.41c1.9,1.87,3.4,4.07,4.48,6.59,1.09,2.52,1.64,5.25,1.64,8.17ZM510,392.54v26.17h2.65c1.4,0,2.79-.03,4.19-.08,1.84-.06,3.55-.43,5.11-1.13s2.92-1.64,4.06-2.81c1.14-1.17,2.04-2.55,2.68-4.12.64-1.57.96-3.27.96-5.07,0-1.92-.35-3.68-1.05-5.27-.7-1.59-1.65-2.96-2.86-4.09s-2.62-2.02-4.24-2.64-3.34-.94-5.17-.94h-6.34Z"/>
    <path class="st0" d="M546.75,386.11c0-.34.1-.62.31-.87s.51-.36.92-.36h5.54c.32,0,.61.11.89.34s.42.52.42.89v39.01c0,.82-.44,1.23-1.31,1.23h-5.54c-.82,0-1.22-.41-1.22-1.23v-39.01Z"/>
    <path class="st0" d="M562.44,425.32c.09-.37.2-.72.32-1.03s.23-.61.32-.87l15.05-37.48c.06-.2.21-.43.46-.68s.59-.38,1.02-.38h4.5c.45,0,.77.11.96.34.2.22.34.42.43.59l.92,2.18,14.75,36.89c0,.06.01.15.04.29.03.14.04.26.04.35,0,.56-.41.84-1.23.84h-5.5c-.41,0-.73-.08-.95-.25s-.41-.43-.56-.78l-.5-1.28c-.35-.89-.71-1.79-1.06-2.68-.35-.89-.7-1.8-1.03-2.71h-17.23c-.48,1.3-.95,2.53-1.41,3.67-.46,1.15-.84,2.15-1.16,3-.26.69-.75,1.03-1.45,1.03h-5.58c-.35,0-.64-.07-.85-.2-.21-.13-.32-.33-.32-.59,0-.11,0-.2.03-.25ZM581.88,395.53c-1,2.57-2.01,5.23-3,7.99-1,2.76-2,5.41-3,7.96h11.9l-5.89-15.95Z"/>
    <path class="st0" d="M627.48,386.2c0-.87.42-1.31,1.26-1.31h17.46c1.62,0,3.14.3,4.56.91,1.42.61,2.66,1.43,3.71,2.47,1.05,1.04,1.88,2.27,2.48,3.69.6,1.42.91,2.94.91,4.58,0,1.51-.27,2.91-.81,4.22s-1.28,2.45-2.23,3.43c.76.56,1.45,1.2,2.07,1.93.61.73,1.14,1.51,1.59,2.35s.79,1.73,1.03,2.67c.25.94.37,1.9.37,2.89,0,1.66-.31,3.23-.94,4.72-.62,1.49-1.47,2.8-2.54,3.94s-2.33,2.03-3.78,2.69c-1.45.66-3.01.99-4.66.99h-19.21c-.37,0-.67-.1-.91-.29-.23-.2-.35-.5-.35-.91v-38.96ZM649.79,396.67c0-.71-.13-1.37-.38-1.98-.25-.61-.6-1.15-1.05-1.59s-.98-.8-1.61-1.05-1.31-.38-2.06-.38h-9.15v10.11h9.06c.75,0,1.44-.13,2.07-.39.63-.26,1.18-.62,1.64-1.07.46-.46.82-1,1.08-1.62.26-.62.39-1.3.39-2.02ZM651.61,413.79c0-.63-.11-1.25-.34-1.86-.22-.61-.53-1.15-.92-1.63-.39-.48-.86-.89-1.4-1.21-.54-.32-1.13-.54-1.76-.66-.37-.06-.75-.11-1.13-.15-.38-.05-.77-.07-1.16-.07h-9.34v11.34h9.34c.39,0,.77-.01,1.15-.04.37-.03.75-.08,1.12-.15.63-.09,1.22-.31,1.76-.64.54-.33,1.01-.75,1.41-1.26.4-.5.71-1.07.94-1.69.22-.62.34-1.28.34-1.97Z"/>
    <path class="st0" d="M665.88,405.66c0-1.95.25-3.84.76-5.67.5-1.82,1.22-3.53,2.15-5.11.93-1.58,2.04-3.02,3.34-4.33,1.29-1.3,2.73-2.41,4.31-3.34,1.58-.92,3.28-1.64,5.1-2.15s3.71-.77,5.68-.77,3.84.26,5.66.77,3.51,1.23,5.1,2.15c1.58.92,3.02,2.03,4.33,3.34,1.3,1.3,2.41,2.75,3.34,4.33.92,1.58,1.64,3.29,2.15,5.11.51,1.83.77,3.72.77,5.7s-.26,3.86-.77,5.67c-.51,1.81-1.23,3.5-2.15,5.08s-2.03,3.02-3.34,4.31c-1.3,1.29-2.75,2.4-4.33,3.32-1.58.92-3.28,1.63-5.1,2.14-1.81.5-3.71.75-5.68.75s-3.87-.25-5.68-.75c-1.81-.5-3.51-1.22-5.1-2.15-1.58-.93-3.02-2.04-4.31-3.34-1.29-1.29-2.4-2.73-3.32-4.3-.92-1.57-1.63-3.27-2.14-5.08-.5-1.81-.76-3.71-.76-5.68ZM673.95,405.61c0,1.88.34,3.64,1.02,5.28.68,1.64,1.61,3.06,2.79,4.27,1.18,1.21,2.58,2.17,4.19,2.88,1.61.71,3.36,1.06,5.24,1.06s3.6-.35,5.21-1.06c1.61-.71,3.01-1.67,4.2-2.88,1.19-1.21,2.13-2.63,2.81-4.27.68-1.64,1.02-3.4,1.02-5.28s-.34-3.61-1.02-5.25c-.68-1.64-1.62-3.07-2.81-4.29-1.19-1.22-2.59-2.18-4.2-2.89-1.61-.71-3.35-1.06-5.21-1.06s-3.63.35-5.24,1.06c-1.61.71-3.01,1.67-4.19,2.89-1.18,1.22-2.11,2.65-2.79,4.29-.68,1.64-1.02,3.39-1.02,5.25Z"/>
    <path class="st0" d="M797.24,405.66c0-1.95.25-3.84.76-5.67.5-1.82,1.22-3.53,2.15-5.11.93-1.58,2.04-3.02,3.34-4.33,1.29-1.3,2.73-2.41,4.31-3.34,1.58-.92,3.28-1.64,5.1-2.15s3.71-.77,5.68-.77,3.84.26,5.66.77,3.51,1.23,5.1,2.15c1.58.92,3.02,2.03,4.33,3.34,1.3,1.3,2.41,2.75,3.34,4.33.92,1.58,1.64,3.29,2.15,5.11.51,1.83.77,3.72.77,5.7s-.26,3.86-.77,5.67c-.51,1.81-1.23,3.5-2.15,5.08s-2.03,3.02-3.34,4.31c-1.3,1.29-2.75,2.4-4.33,3.32-1.58.92-3.28,1.63-5.1,2.14-1.81.5-3.71.75-5.68.75s-3.87-.25-5.68-.75c-1.81-.5-3.51-1.22-5.1-2.15-1.58-.93-3.02-2.04-4.31-3.34-1.29-1.29-2.4-2.73-3.32-4.3-.92-1.57-1.63-3.27-2.14-5.08-.5-1.81-.76-3.71-.76-5.68ZM805.31,405.61c0,1.88.34,3.64,1.02,5.28.68,1.64,1.61,3.06,2.79,4.27,1.18,1.21,2.58,2.17,4.19,2.88,1.61.71,3.36,1.06,5.24,1.06s3.6-.35,5.21-1.06c1.61-.71,3.01-1.67,4.2-2.88,1.19-1.21,2.13-2.63,2.81-4.27.68-1.64,1.02-3.4,1.02-5.28s-.34-3.61-1.02-5.25c-.68-1.64-1.62-3.07-2.81-4.29-1.19-1.22-2.59-2.18-4.2-2.89-1.61-.71-3.35-1.06-5.21-1.06s-3.63.35-5.24,1.06c-1.61.71-3.01,1.67-4.19,2.89-1.18,1.22-2.11,2.65-2.79,4.29-.68,1.64-1.02,3.39-1.02,5.25Z"/>
    <path class="st0" d="M717.26,386.2c0-.87.41-1.31,1.23-1.31h17.09c1.88,0,3.64.35,5.28,1.06,1.64.71,3.07,1.67,4.29,2.88,1.22,1.21,2.18,2.63,2.88,4.27s1.05,3.38,1.05,5.22c0,1.28-.18,2.51-.53,3.69-.35,1.17-.85,2.26-1.48,3.27s-1.39,1.91-2.26,2.72c-.87.81-1.84,1.49-2.9,2.05l7.26,14.33c.04.19.1.37.2.56.09.19.14.38.14.59,0,.56-.33.84-.98.84h-6.48c-.67,0-1.12-.34-1.34-1.03l-6.76-13.4c-.3,0-.62,0-.96.01-.34,0-.82.01-1.42.01h-6.16v13.21c0,.8-.43,1.2-1.28,1.2h-5.61c-.37,0-.67-.1-.89-.29-.22-.2-.34-.5-.34-.91v-38.96ZM740.8,398.36c0-.8-.15-1.57-.45-2.33s-.72-1.43-1.26-2.02c-.54-.59-1.18-1.08-1.93-1.45-.75-.37-1.56-.59-2.43-.64-.65-.02-1.29-.03-1.91-.04s-1.27-.01-1.94-.01h-5.5v12.96h8.42c.32,0,.67-.02,1.05-.06.88-.06,1.68-.26,2.42-.61.73-.35,1.36-.82,1.88-1.41s.93-1.25,1.21-2.01.43-1.55.43-2.38Z"/>
    <path class="st0" d="M793.05,405.66c0,1.94-.25,3.79-.76,5.57-.5,1.78-1.21,3.44-2.12,4.97-.91,1.54-2.01,2.93-3.28,4.17-1.28,1.25-2.7,2.31-4.26,3.2s-3.25,1.57-5.04,2.05c-1.8.48-3.67.73-5.63.73h-13.41c-.34,0-.63-.07-.89-.22-.26-.15-.39-.47-.39-.95v-38.98c0-.87.43-1.31,1.29-1.31h13.41c2.96,0,5.72.54,8.29,1.61s4.79,2.54,6.69,4.41c1.9,1.87,3.4,4.07,4.48,6.59,1.09,2.52,1.64,5.25,1.64,8.17ZM765.32,392.54v26.17h2.65c1.4,0,2.79-.03,4.19-.08,1.84-.06,3.55-.43,5.11-1.13s2.92-1.64,4.06-2.81c1.14-1.17,2.04-2.55,2.68-4.12.64-1.57.96-3.27.96-5.07,0-1.92-.35-3.68-1.05-5.27-.7-1.59-1.65-2.96-2.86-4.09s-2.62-2.02-4.24-2.64-3.34-.94-5.17-.94h-6.34Z"/>
    <path class="st0" d="M843.83,386.14c0-.35.11-.65.32-.89s.52-.36.91-.36h6.42c.26,0,.51.06.74.18.23.12.44.31.63.57,3.18,4.54,6.34,9.05,9.47,13.53,3.13,4.48,6.28,8.99,9.47,13.53v-26.75c.06-.33.2-.59.42-.78.22-.19.49-.28.81-.28h5.39c.37,0,.69.11.96.34s.4.52.4.89v39.09c0,.76-.44,1.15-1.31,1.15h-6.06c-.41,0-.79-.25-1.15-.75-3.28-4.75-6.54-9.49-9.79-14.23s-6.5-9.49-9.76-14.26v28.01c0,.41-.1.72-.29.92-.2.21-.53.31-.99.31h-5.36c-.43,0-.74-.11-.94-.32-.2-.21-.29-.51-.29-.88v-39.01Z"/>
    <path class="st0" d="M890.21,386.11c0-.34.1-.62.31-.87s.51-.36.92-.36h5.54c.32,0,.61.11.89.34s.42.52.42.89v39.01c0,.82-.44,1.23-1.31,1.23h-5.54c-.82,0-1.22-.41-1.22-1.23v-39.01Z"/>
  </g>
</svg>