<?xml version="1.0" encoding="UTF-8"?>
<svg id="lineas_forma" xmlns="http://www.w3.org/2000/svg" version="1.1" viewBox="0 0 1149.37 360.37">
  <!-- Generator: Adobe Illustrator 30.5.1, SVG Export Plug-In . SVG Version: 2.1.4 Build 3)  -->
  <defs>
    <style>
      .st0 {
        fill: #fff;
      }
    </style>
  </defs>
  <g>
    <path class="st0" d="M405.38,279.36v-73.04h8.4l29.52,44.72,29.71-44.72h8.27v73.04h-8.99v-57.03l-28.97,43.21-28.99-43.21v57.03h-8.94Z"/>
    <path class="st0" d="M534.6,281.28c-10.95,0-19.98-3.61-27.09-10.82-7.13-7.22-10.68-16.35-10.68-27.42s3.57-20.28,10.72-27.49c7.15-7.22,16.16-10.82,27.07-10.82s19.99,3.63,27.19,10.86c7.18,7.23,10.79,16.39,10.79,27.46s-3.59,20.21-10.75,27.42c-7.16,7.22-16.25,10.82-27.23,10.82h-.02ZM534.6,272.74c8.2,0,15-2.8,20.38-8.4s8.08-12.71,8.08-21.3-2.68-15.77-8.04-21.37-12.16-8.4-20.42-8.4-15,2.82-20.38,8.43c-5.39,5.63-8.08,12.74-8.08,21.33s2.69,15.7,8.08,21.3c5.39,5.6,12.18,8.4,20.38,8.4Z"/>
    <path class="st0" d="M588.51,279.36v-73.04h4.77l47.38,54.58v-54.58h9.13v73.04h-4.63l-47.57-54.58v54.58h-9.08Z"/>
    <path class="st0" d="M671.69,279.36v-73.45h9.21v73.45h-9.21Z"/>
    <path class="st0" d="M715.55,279.36v-64.65h-30.7v-8.4h70.6v8.4h-30.77v64.65h-9.13Z"/>
    <path class="st0" d="M791.31,281.28c-10.93,0-19.98-3.61-27.09-10.82-7.13-7.22-10.68-16.35-10.68-27.42s3.57-20.28,10.72-27.49,16.18-10.82,27.05-10.82,20.01,3.63,27.19,10.86c7.18,7.23,10.79,16.39,10.79,27.46s-3.59,20.21-10.75,27.42c-7.16,7.22-16.25,10.82-27.23,10.82h0ZM791.31,272.74c8.2,0,15-2.8,20.38-8.4,5.39-5.6,8.08-12.71,8.08-21.3s-2.68-15.77-8.04-21.37c-5.37-5.6-12.16-8.4-20.42-8.4s-15,2.82-20.38,8.43c-5.39,5.63-8.08,12.74-8.08,21.33s2.69,15.7,8.08,21.3c5.39,5.6,12.18,8.4,20.38,8.4h0Z"/>
    <path class="st0" d="M844.83,279.36v-73.04h41.87c7.15,0,12.74,1.8,16.81,5.39,4.07,3.59,6.09,8.57,6.09,14.93,0,5.3-1.58,9.82-4.77,13.59-3.17,3.77-7.37,6.13-12.57,7.04l18.27,32.09h-10.05l-18.27-31.96h-28.32v31.96h-9.06v.02ZM853.89,238.86h32.23c4.59,0,8.06-1.02,10.42-3.04,2.36-2.02,3.54-5,3.54-8.92s-1.18-6.83-3.54-8.96c-2.36-2.15-5.69-3.2-9.96-3.2h-32.68v24.15-.02Z"/>
    <path class="st0" d="M926.15,279.36v-73.04h57.43v8.4h-48.37v21.44h29.25v8.4h-29.25v26.4h51.34v8.4h-60.41v.02Z"/>
    <path class="st0" d="M1032.08,281.28c-10.93,0-19.98-3.61-27.09-10.82-7.13-7.22-10.68-16.35-10.68-27.42s3.57-20.28,10.72-27.49,16.18-10.82,27.07-10.82,20.01,3.63,27.19,10.86c7.18,7.23,10.79,16.39,10.79,27.46s-3.59,20.21-10.75,27.42c-7.16,7.22-16.25,10.82-27.23,10.82h-.02ZM1032.08,272.74c8.2,0,15-2.8,20.38-8.4s8.08-12.71,8.08-21.3-2.68-15.77-8.04-21.37-12.16-8.4-20.42-8.4-15,2.82-20.38,8.43-8.08,12.74-8.08,21.33,2.69,15.7,8.08,21.3c5.39,5.6,12.18,8.4,20.38,8.4h0Z"/>
    <path class="st0" d="M1079.06,268.38l5.3-7.87c5.16,4.01,10.53,7.08,16.1,9.21,5.58,2.11,11.11,3.17,16.58,3.17,6.74,0,12.23-1.43,16.44-4.29,4.21-2.87,6.32-6.55,6.32-11.05,0-3.57-1.51-6.51-4.54-8.84s-7.2-3.7-12.53-4.14c-1.28-.14-3.13-.26-5.56-.4-12-.84-20.17-2.25-24.55-4.24-3.4-1.64-5.98-3.73-7.74-6.32s-2.64-5.47-2.64-8.69c0-5.86,2.62-10.7,7.87-14.49,5.25-3.8,12.06-5.69,20.45-5.69,6.09,0,12.09,1,18.02,3.01,5.93,2.01,11.56,4.98,16.9,8.91l-5.3,7.55c-4.51-3.61-9.22-6.34-14.19-8.17s-10.07-2.75-15.31-2.75c-5.51,0-10.05,1.07-13.62,3.2-3.57,2.15-5.35,4.82-5.35,8.04,0,1.28.28,2.45.86,3.5.58,1.06,1.46,2.06,2.64,2.97,2.99,2.25,9.49,3.68,19.45,4.29,4.59.26,8.13.55,10.65.86,7.41.84,13.27,3.22,17.6,7.15s6.48,8.75,6.48,14.49c0,6.83-2.97,12.46-8.91,16.88s-13.71,6.62-23.32,6.62c-7.27,0-14.05-1.06-20.28-3.17-6.25-2.11-12.18-5.35-17.83-9.73l.02-.02Z"/>
  </g>
  <g>
    <path class="st0" d="M650.98,148.46v-74.1h43.83c7.29,0,12.81,1.55,16.54,4.66s5.6,7.71,5.6,13.8c0,2.96-.58,5.6-1.74,7.92s-2.82,4.21-4.96,5.63c3.94,2.29,6.92,5.09,8.92,8.4,2.01,3.31,3.03,7.11,3.03,11.41,0,6.85-2.25,12.27-6.74,16.28s-10.6,6-18.29,6h-46.18,0ZM660.18,103.63h35.45c3.89,0,6.86-.88,8.92-2.66,2.06-1.76,3.08-4.31,3.08-7.62,0-3.48-1-6.11-2.99-7.85-1.99-1.74-5-2.62-9.03-2.62h-35.45v20.73l.02.02ZM660.18,139.94h38.79c4.21,0,7.52-1.25,9.93-3.73s3.63-5.88,3.63-10.17-1.21-7.62-3.63-10.14c-2.41-2.5-5.72-3.77-9.93-3.77h-38.79v27.81Z"/>
    <path class="st0" d="M729.58,148.46l36.31-74.1h7.66l36.72,74.1h-10l-10.07-19.94h-40.94l-9.8,19.94h-9.87ZM753.48,119.86h32.63l-16.39-32.83-16.25,32.83h0Z"/>
    <path class="st0" d="M821.54,148.46v-74.1h9.19v65.58h48.4v8.52h-57.59,0Z"/>
    <path class="st0" d="M890.42,148.46v-74.5h9.33v74.5h-9.33Z"/>
  </g>
  <g>
    <path class="st0" d="M105.7,193.79c0-5.33-4.32-9.65-9.65-9.65s-9.65,4.32-9.65,9.65,4.32,9.65,9.65,9.65c.33,0,.66-.02.98-.05l20.27,53.16c.24.62.71,1.12,1.31,1.39l53.12,24c1.45,3.5,4.89,5.97,8.92,5.97,5.33,0,9.65-4.32,9.65-9.65s-4.32-9.65-9.65-9.65c-4.62,0-8.48,3.25-9.42,7.59l-49.61-22.41-19.9-52.2c2.41-1.75,3.98-4.59,3.98-7.8Z"/>
    <path class="st0" d="M74.52,202.02c-5.33,0-9.65,4.32-9.65,9.65s4.32,9.65,9.65,9.65c.21,0,.42-.02.62-.03l20.26,53.02c.24.62.71,1.12,1.31,1.39l103.8,46.89c.33.15.69.22,1.03.22v.02c.96,0,1.87-.55,2.29-1.48.57-1.26,0-2.75-1.25-3.32l-102.86-46.47-19.82-51.88c2.57-1.73,4.27-4.67,4.27-8.01,0-.33-.02-.65-.05-.96l21.41,56.04c.24.62.71,1.12,1.31,1.39l87.66,39.6c1.66,2.91,4.79,4.88,8.38,4.88,5.33,0,9.65-4.32,9.65-9.65s-4.32-9.65-9.65-9.65c-4.9,0-8.94,3.65-9.56,8.38l-83.47-37.71-31.34-82.04c-.5-1.3-1.95-1.95-3.24-1.45-1.3.5-1.94,1.95-1.45,3.24l8.51,22.28c-1.75-2.42-4.59-4-7.81-4Z"/>
    <path class="st0" d="M318.25,262.73c0-5.33-4.32-9.65-9.65-9.65s-9.65,4.32-9.65,9.65c0,2.52.97,4.8,2.55,6.52l-16.61,30.72-78.63,29.66-102.56-45.82c-.6-.27-1.29-.29-1.9-.06l-43.94,16.32c-1.3.48-1.96,1.92-1.48,3.22.48,1.3,1.92,1.96,3.22,1.48l42.98-15.97,102.57,45.82c.32.15.67.22,1.02.22v.02c.3,0,.59-.05.88-.16l80.48-30.36c.56-.21,1.03-.62,1.32-1.15l16.89-31.24c.9.28,1.86.43,2.86.43,5.33,0,9.65-4.32,9.65-9.65Z"/>
    <path class="st0" d="M320.07,283.67c-5.33,0-9.65,4.32-9.65,9.65,0,.76.1,1.5.26,2.21l-16.1,29.95-78.63,29.66-103.01-46.17c-.61-.27-1.3-.29-1.92-.05l-41.99,16.12c-1.73-2.6-4.68-4.31-8.04-4.31-5.33,0-9.65,4.32-9.65,9.65s4.32,9.65,9.65,9.65,9.65-4.32,9.65-9.65c0-.19-.02-.38-.03-.57l41.24-15.84,103,46.17c.33.15.68.22,1.03.22h0c.3,0,.59-.04.88-.15l80.48-30.36c.56-.21,1.03-.63,1.32-1.16l15.13-28.14c1.7,1.5,3.93,2.42,6.38,2.42,5.33,0,9.65-4.32,9.65-9.65s-4.32-9.65-9.65-9.65Z"/>
    <path class="st0" d="M198.56,81.23c-4.46,0-8.21,3.03-9.31,7.15l-56.91.1c-.67,0-1.3.26-1.77.73l-41.28,41.16c-5.19.16-9.36,4.4-9.36,9.64s4.32,9.65,9.65,9.65,9.65-4.32,9.65-9.65c0-3.39-1.75-6.37-4.39-8.09l38.54-38.43,55.87-.1c1.11,4.11,4.85,7.14,9.31,7.14,5.33,0,9.65-4.32,9.65-9.65s-4.32-9.65-9.65-9.65Z"/>
    <path class="st0" d="M58.72,274.8c5.33,0,9.65-4.32,9.65-9.65s-4.32-9.65-9.65-9.65c-1.27,0-2.48.25-3.59.7l-22.81-26.41.16-84.04,79.21-79.65c.46-.46.73-1.09.73-1.75l.32-46.88c.01-1.38-1.11-2.52-2.49-2.52h-.02c-1.38,0-2.51,1.11-2.51,2.49l-.31,45.85L28.19,142.94c-.47.47-.73,1.1-.73,1.76l-.16,86.01c0,.6.22,1.18.61,1.64l23.21,26.87c-1.28,1.64-2.05,3.69-2.05,5.93,0,5.33,4.32,9.65,9.65,9.65Z"/>
    <path class="st0" d="M27.27,255.47l-22.27-25.66.16-84.04,79.71-79.94c.47-.47.73-1.11.73-1.78l-.18-45c4.3-.97,7.51-4.81,7.51-9.4,0-5.33-4.32-9.65-9.65-9.65s-9.65,4.32-9.65,9.65c0,4.33,2.85,7.99,6.77,9.21l.18,44.17L.89,142.96c-.47.47-.73,1.11-.73,1.77L0,230.74c-.01.61.21,1.19.61,1.65l20.93,24.11c-3.06,1.62-5.14,4.83-5.14,8.53,0,5.33,4.32,9.65,9.65,9.65s9.65-4.32,9.65-9.65c0-4.92-3.68-8.96-8.43-9.56Z"/>
    <path class="st0" d="M257.27,98.78c-5.33,0-9.65,4.32-9.65,9.65s4.32,9.65,9.65,9.65c1.23,0,2.41-.24,3.49-.66l7.22,91.31-56.76,67.02c-.9,1.05-.77,2.63.29,3.53.47.39,1.05.59,1.62.59h0c.71,0,1.41-.3,1.91-.89l15.43-18.22c-.6,1.26-.94,2.66-.94,4.14,0,5.33,4.32,9.65,9.65,9.65s9.65-4.32,9.65-9.65c0-1.91-.56-3.69-1.52-5.19l36.67-43.3c.43-.51.64-1.16.59-1.82l-8.97-113.54c-.11-1.38-1.34-2.41-2.7-2.3-1.38.11-2.41,1.32-2.3,2.7l8.89,112.51-35.89,42.37c-1.33-.69-2.83-1.08-4.42-1.08-2.05,0-3.94.64-5.5,1.73l38.79-45.8c.43-.51.64-1.16.59-1.82l-7.58-95.88c.91-1.47,1.44-3.2,1.44-5.05,0-5.33-4.32-9.65-9.65-9.65Z"/>
    <path class="st0" d="M171.04,44.87c4.26,0,7.86-2.76,9.14-6.58l34.91-.26,63.9,54.59,9.32,111.95c.05.65.36,1.26.86,1.69l35.49,30.63c.48.41,1.06.61,1.64.61v-.02c.7,0,1.4-.3,1.9-.87.91-1.05.79-2.64-.26-3.54l-34.72-29.96-9.32-111.95c-.05-.66-.37-1.27-.87-1.7l-65.4-55.86c-.46-.39-1.01-.58-1.65-.6l-35.49.27c-.9-4.39-4.79-7.7-9.45-7.7-5.33,0-9.65,4.32-9.65,9.65s4.32,9.65,9.65,9.65Z"/>
    <path class="st0" d="M349.7,209.86c-1.89,0-3.66.55-5.15,1.5l-33.76-28.5-9.22-112.49c-.05-.66-.37-1.27-.87-1.7L235.3,12.81c-.46-.39-1.03-.6-1.65-.6l-31.94.31c.15-.68.24-1.38.24-2.1,0-5.33-4.32-9.65-9.65-9.65s-9.65,4.32-9.65,9.65,4.32,9.65,9.65,9.65c2.49,0,4.76-.95,6.47-2.51l33.99-.33,63.9,54.58,9.23,112.5c.05.66.37,1.28.88,1.71l34.38,29.02c-.7,1.34-1.1,2.85-1.1,4.47,0,5.33,4.32,9.65,9.65,9.65s9.65-4.32,9.65-9.65-4.32-9.65-9.65-9.65Z"/>
    <path class="st0" d="M306.4,281.85l-16.73,30.94-78.64,29.66-102.56-45.82c-.6-.27-1.29-.29-1.9-.06l-43.94,16.32c-1.3.48-1.96,1.92-1.48,3.22.48,1.3,1.92,1.96,3.22,1.48l42.98-15.97,102.57,45.82c.32.15.67.22,1.02.22h.01c.3,0,.59-.04.88-.15l80.48-30.35c.56-.21,1.03-.62,1.32-1.15l17.18-31.77c.66-1.22.21-2.74-1.01-3.4-1.22-.66-2.74-.21-3.4,1.01Z"/>
    <path class="st0" d="M18.64,229.7l.16-84.04,79.21-79.65c.46-.46.73-1.09.73-1.75l.32-46.88c.01-1.38-1.11-2.52-2.49-2.52h-.02c-1.38,0-2.51,1.11-2.51,2.49l-.31,45.85L14.51,142.85c-.47.47-.73,1.1-.73,1.76l-.16,86.01c0,.6.22,1.18.61,1.64l23.61,27.33c.5.58,1.2.87,1.9.87h0c.58.01,1.17-.19,1.64-.6,1.05-.91,1.17-2.49.26-3.54l-23-26.62Z"/>
    <path class="st0" d="M41.07,146.41c.49.49,1.14.74,1.78.74h0c.64-.01,1.28-.25,1.77-.74l79.92-79.69,55.56-.13c.81,3.47,3.49,6.22,6.92,7.13l-60.04.14c-.66,0-1.29.26-1.76.73l-68.13,67.93c-4.61.73-8.14,4.71-8.14,9.52,0,5.33,4.32,9.65,9.65,9.65s9.65-4.32,9.65-9.65c0-3.68-2.06-6.87-5.08-8.5l64.86-64.67,87.82-.21c1.38,0,2.5-1.13,2.5-2.51,0-1.38-1.13-2.5-2.51-2.5l-23.83.06c4.11-1.11,7.13-4.85,7.13-9.31,0-5.33-4.32-9.65-9.65-9.65-4.35,0-8.02,2.88-9.23,6.83l-56.76.13c-.66,0-1.29.26-1.76.73l-80.66,80.42c-.98.98-.98,2.57,0,3.55Z"/>
    <path class="st0" d="M302.15,192.75l-9.32-111.95c-.05-.66-.37-1.27-.87-1.7l-65.4-55.86c-.46-.39-1.03-.6-1.63-.6h-.02l-36.11.27c-1.39.01-2.5,1.15-2.49,2.53,0,1.39,1.15,2.51,2.53,2.49l35.18-.26,63.9,54.58,9.32,111.95c.05.65.36,1.26.86,1.69l35.49,30.63c.48.41,1.06.61,1.64.61h0c.7-.01,1.4-.31,1.9-.88.91-1.05.79-2.64-.26-3.54l-34.72-29.96Z"/>
    <path class="st0" d="M217.24,245.95c-1.25-.59-2.63-.93-4.1-.93-5.33,0-9.65,4.32-9.65,9.65s4.32,9.65,9.65,9.65,9.65-4.32,9.65-9.65c0-2.04-.64-3.93-1.72-5.49l36.8-43.4c.43-.51.64-1.16.59-1.82l-4.59-58.1c1.33-1.65,2.13-3.75,2.13-6.04,0-5.33-4.32-9.65-9.65-9.65s-9.65,4.32-9.65,9.65,4.32,9.65,9.65,9.65c.95,0,1.87-.14,2.74-.4l4.29,54.26-36.14,42.62Z"/>
  </g>
</svg>